<svg width="715" height="205" viewBox="0 0 715 205" fill="none" xmlns="http://www.w3.org/2000/svg">
<g clip-path="url(#clip0)" filter="url(#filter0_d)">
<rect width="679.369" height="169.842" transform="translate(16 14)" fill="#F2F2F2"/>
<g clip-path="url(#clip1)">
<path d="M551.647 181.055H548.516V184.185H551.647V181.055Z" fill="#333333"/>
<path d="M572.276 181.055H569.145V184.185H572.276V181.055Z" fill="#333333"/>
<path d="M582.57 181.055H579.439V184.185H582.57V181.055Z" fill="#333333"/>
<path d="M587.717 181.055H584.586V184.185H587.717V181.055Z" fill="#333333"/>
<path d="M598.053 181.055H594.922V184.185H598.053V181.055Z" fill="#333333"/>
<path d="M613.493 181.055H610.362V184.185H613.493V181.055Z" fill="#333333"/>
<path d="M618.64 181.055H615.509V184.185H618.64V181.055Z" fill="#333333"/>
<path d="M623.787 181.055H620.656V184.185H623.787V181.055Z" fill="#333333"/>
<path d="M639.27 181.055H636.139V184.185H639.27V181.055Z" fill="#333333"/>
<path d="M665.004 181.055H661.873V184.185H665.004V181.055Z" fill="#333333"/>
<path d="M675.34 181.055H672.209V184.185H675.34V181.055Z" fill="#333333"/>
<path d="M680.487 181.055H677.356V184.185H680.487V181.055Z" fill="#333333"/>
<path d="M685.633 181.055H682.502V184.185H685.633V181.055Z" fill="#333333"/>
<path d="M690.78 181.055H687.649V184.185H690.78V181.055Z" fill="#333333"/>
<path d="M695.927 181.055H692.796V184.185H695.927V181.055Z" fill="#333333"/>
<path d="M546.5 175.908H543.369V179.039H546.5V175.908Z" fill="#333333"/>
<path d="M551.647 175.908H548.516V179.039H551.647V175.908Z" fill="#333333"/>
<path d="M556.793 175.908H553.662V179.039H556.793V175.908Z" fill="#333333"/>
<path d="M567.13 175.908H563.999V179.039H567.13V175.908Z" fill="#333333"/>
<path d="M577.424 175.908H574.293V179.039H577.424V175.908Z" fill="#333333"/>
<path d="M603.2 175.908H600.069V179.039H603.2V175.908Z" fill="#333333"/>
<path d="M613.493 175.908H610.362V179.039H613.493V175.908Z" fill="#333333"/>
<path d="M628.934 175.908H625.803V179.039H628.934V175.908Z" fill="#333333"/>
<path d="M639.27 175.908H636.139V179.039H639.27V175.908Z" fill="#333333"/>
<path d="M644.417 175.908H641.286V179.039H644.417V175.908Z" fill="#333333"/>
<path d="M654.71 175.908H651.579V179.039H654.71V175.908Z" fill="#333333"/>
<path d="M659.857 175.908H656.726V179.039H659.857V175.908Z" fill="#333333"/>
<path d="M665.004 175.908H661.873V179.039H665.004V175.908Z" fill="#333333"/>
<path d="M670.193 175.908H667.062V179.039H670.193V175.908Z" fill="#333333"/>
<path d="M675.34 175.908H672.209V179.039H675.34V175.908Z" fill="#333333"/>
<path d="M680.487 175.908H677.356V179.039H680.487V175.908Z" fill="#333333"/>
<path d="M695.927 175.908H692.796V179.039H695.927V175.908Z" fill="#333333"/>
<path d="M608.347 170.718H605.216V173.849H608.347V170.718Z" fill="#333333"/>
<path d="M623.787 170.718H620.656V173.849H623.787V170.718Z" fill="#333333"/>
<path d="M644.417 170.718H641.286V173.849H644.417V170.718Z" fill="#333333"/>
<path d="M654.71 170.718H651.579V173.849H654.71V170.718Z" fill="#333333"/>
<path d="M670.193 170.718H667.062V173.849H670.193V170.718Z" fill="#333333"/>
<path d="M675.34 170.718H672.209V173.849H675.34V170.718Z" fill="#333333"/>
<path d="M680.487 170.718H677.356V173.849H680.487V170.718Z" fill="#333333"/>
<path d="M685.633 170.718H682.502V173.849H685.633V170.718Z" fill="#333333"/>
<path d="M695.927 170.718H692.796V173.849H695.927V170.718Z" fill="#333333"/>
<path d="M551.647 165.571H548.516V168.702H551.647V165.571Z" fill="#333333"/>
<path d="M556.793 165.571H553.662V168.702H556.793V165.571Z" fill="#333333"/>
<path d="M567.13 165.571H563.999V168.702H567.13V165.571Z" fill="#333333"/>
<path d="M577.424 165.571H574.293V168.702H577.424V165.571Z" fill="#333333"/>
<path d="M587.717 165.571H584.586V168.702H587.717V165.571Z" fill="#333333"/>
<path d="M603.2 165.571H600.069V168.702H603.2V165.571Z" fill="#333333"/>
<path d="M623.787 165.571H620.656V168.702H623.787V165.571Z" fill="#333333"/>
<path d="M628.934 165.571H625.803V168.702H628.934V165.571Z" fill="#333333"/>
<path d="M639.27 165.571H636.139V168.702H639.27V165.571Z" fill="#333333"/>
<path d="M649.563 165.571H646.433V168.702H649.563V165.571Z" fill="#333333"/>
<path d="M654.71 165.571H651.579V168.702H654.71V165.571Z" fill="#333333"/>
<path d="M680.487 165.571H677.356V168.702H680.487V165.571Z" fill="#333333"/>
<path d="M685.633 165.571H682.502V168.702H685.633V165.571Z" fill="#333333"/>
<path d="M690.78 165.571H687.649V168.702H690.78V165.571Z" fill="#333333"/>
<path d="M695.927 165.571H692.796V168.702H695.927V165.571Z" fill="#333333"/>
<path d="M546.5 160.424H543.369V163.555H546.5V160.424Z" fill="#333333"/>
<path d="M551.647 160.424H548.516V163.555H551.647V160.424Z" fill="#333333"/>
<path d="M556.793 160.424H553.662V163.555H556.793V160.424Z" fill="#333333"/>
<path d="M561.983 160.424H558.852V163.555H561.983V160.424Z" fill="#333333"/>
<path d="M592.864 160.424H589.733V163.555H592.864V160.424Z" fill="#333333"/>
<path d="M603.2 160.424H600.069V163.555H603.2V160.424Z" fill="#333333"/>
<path d="M623.787 160.424H620.656V163.555H623.787V160.424Z" fill="#333333"/>
<path d="M644.417 160.424H641.286V163.555H644.417V160.424Z" fill="#333333"/>
<path d="M659.857 160.424H656.726V163.555H659.857V160.424Z" fill="#333333"/>
<path d="M665.004 160.424H661.873V163.555H665.004V160.424Z" fill="#333333"/>
<path d="M670.193 160.424H667.062V163.555H670.193V160.424Z" fill="#333333"/>
<path d="M675.34 160.424H672.209V163.555H675.34V160.424Z" fill="#333333"/>
<path d="M680.487 160.424H677.356V163.555H680.487V160.424Z" fill="#333333"/>
<path d="M685.633 160.424H682.502V163.555H685.633V160.424Z" fill="#333333"/>
<path d="M690.78 160.424H687.649V163.555H690.78V160.424Z" fill="#333333"/>
<path d="M695.927 160.424H692.796V163.555H695.927V160.424Z" fill="#333333"/>
<path d="M598.053 155.278H594.922V158.409H598.053V155.278Z" fill="#333333"/>
<path d="M613.493 155.278H610.362V158.409H613.493V155.278Z" fill="#333333"/>
<path d="M623.787 155.278H620.656V158.409H623.787V155.278Z" fill="#333333"/>
<path d="M634.123 155.278H630.992V158.409H634.123V155.278Z" fill="#333333"/>
<path d="M665.004 155.278H661.873V158.409H665.004V155.278Z" fill="#333333"/>
<path d="M670.193 155.278H667.062V158.409H670.193V155.278Z" fill="#333333"/>
<path d="M675.34 155.278H672.209V158.409H675.34V155.278Z" fill="#333333"/>
<path d="M680.487 155.278H677.356V158.409H680.487V155.278Z" fill="#333333"/>
<path d="M685.633 155.278H682.502V158.409H685.633V155.278Z" fill="#333333"/>
<path d="M690.78 155.278H687.649V158.409H690.78V155.278Z" fill="#333333"/>
<path d="M695.927 155.278H692.796V158.409H695.927V155.278Z" fill="#333333"/>
<path d="M515.577 150.131H512.446V153.262H515.577V150.131Z" fill="#333333"/>
<path d="M531.06 150.131H527.929V153.262H531.06V150.131Z" fill="#333333"/>
<path d="M546.5 150.131H543.369V153.262H546.5V150.131Z" fill="#333333"/>
<path d="M556.793 150.131H553.662V153.262H556.793V150.131Z" fill="#333333"/>
<path d="M577.424 150.131H574.293V153.262H577.424V150.131Z" fill="#333333"/>
<path d="M582.57 150.131H579.439V153.262H582.57V150.131Z" fill="#333333"/>
<path d="M592.864 150.131H589.733V153.262H592.864V150.131Z" fill="#333333"/>
<path d="M608.347 150.131H605.216V153.262H608.347V150.131Z" fill="#333333"/>
<path d="M613.493 150.131H610.362V153.262H613.493V150.131Z" fill="#333333"/>
<path d="M628.934 150.131H625.803V153.262H628.934V150.131Z" fill="#333333"/>
<path d="M634.123 150.131H630.992V153.262H634.123V150.131Z" fill="#333333"/>
<path d="M639.27 150.131H636.139V153.262H639.27V150.131Z" fill="#333333"/>
<path d="M649.563 150.131H646.433V153.262H649.563V150.131Z" fill="#333333"/>
<path d="M654.71 150.131H651.579V153.262H654.71V150.131Z" fill="#333333"/>
<path d="M665.004 150.131H661.873V153.262H665.004V150.131Z" fill="#333333"/>
<path d="M670.193 150.131H667.062V153.262H670.193V150.131Z" fill="#333333"/>
<path d="M675.34 150.131H672.209V153.262H675.34V150.131Z" fill="#333333"/>
<path d="M690.78 150.131H687.649V153.262H690.78V150.131Z" fill="#333333"/>
<path d="M531.06 144.984H527.929V148.115H531.06V144.984Z" fill="#333333"/>
<path d="M536.207 144.984H533.076V148.115H536.207V144.984Z" fill="#333333"/>
<path d="M541.353 144.984H538.222V148.115H541.353V144.984Z" fill="#333333"/>
<path d="M551.647 144.984H548.516V148.115H551.647V144.984Z" fill="#333333"/>
<path d="M556.793 144.984H553.662V148.115H556.793V144.984Z" fill="#333333"/>
<path d="M561.983 144.984H558.852V148.115H561.983V144.984Z" fill="#333333"/>
<path d="M572.276 144.984H569.145V148.115H572.276V144.984Z" fill="#333333"/>
<path d="M587.717 144.984H584.586V148.115H587.717V144.984Z" fill="#333333"/>
<path d="M592.864 144.984H589.733V148.115H592.864V144.984Z" fill="#333333"/>
<path d="M603.2 144.984H600.069V148.115H603.2V144.984Z" fill="#333333"/>
<path d="M613.493 144.984H610.362V148.115H613.493V144.984Z" fill="#333333"/>
<path d="M618.64 144.984H615.509V148.115H618.64V144.984Z" fill="#333333"/>
<path d="M628.934 144.984H625.803V148.115H628.934V144.984Z" fill="#333333"/>
<path d="M639.27 144.984H636.139V148.115H639.27V144.984Z" fill="#333333"/>
<path d="M644.417 144.984H641.286V148.115H644.417V144.984Z" fill="#333333"/>
<path d="M649.563 144.984H646.433V148.115H649.563V144.984Z" fill="#333333"/>
<path d="M654.71 144.984H651.579V148.115H654.71V144.984Z" fill="#333333"/>
<path d="M659.857 144.984H656.726V148.115H659.857V144.984Z" fill="#333333"/>
<path d="M665.004 144.984H661.873V148.115H665.004V144.984Z" fill="#333333"/>
<path d="M670.193 144.984H667.062V148.115H670.193V144.984Z" fill="#333333"/>
<path d="M675.34 144.984H672.209V148.115H675.34V144.984Z" fill="#333333"/>
<path d="M680.487 144.984H677.356V148.115H680.487V144.984Z" fill="#333333"/>
<path d="M685.633 144.984H682.502V148.115H685.633V144.984Z" fill="#333333"/>
<path d="M690.78 144.984H687.649V148.115H690.78V144.984Z" fill="#333333"/>
<path d="M695.927 144.984H692.796V148.115H695.927V144.984Z" fill="#333333"/>
<path d="M572.276 139.838H569.145V142.969H572.276V139.838Z" fill="#333333"/>
<path d="M577.424 139.838H574.293V142.969H577.424V139.838Z" fill="#333333"/>
<path d="M582.57 139.838H579.439V142.969H582.57V139.838Z" fill="#333333"/>
<path d="M587.717 139.838H584.586V142.969H587.717V139.838Z" fill="#333333"/>
<path d="M603.2 139.838H600.069V142.969H603.2V139.838Z" fill="#333333"/>
<path d="M608.347 139.838H605.216V142.969H608.347V139.838Z" fill="#333333"/>
<path d="M613.493 139.838H610.362V142.969H613.493V139.838Z" fill="#333333"/>
<path d="M618.64 139.838H615.509V142.969H618.64V139.838Z" fill="#333333"/>
<path d="M623.787 139.838H620.656V142.969H623.787V139.838Z" fill="#333333"/>
<path d="M628.934 139.838H625.803V142.969H628.934V139.838Z" fill="#333333"/>
<path d="M634.123 139.838H630.992V142.969H634.123V139.838Z" fill="#333333"/>
<path d="M639.27 139.838H636.139V142.969H639.27V139.838Z" fill="#333333"/>
<path d="M644.417 139.838H641.286V142.969H644.417V139.838Z" fill="#333333"/>
<path d="M649.563 139.838H646.433V142.969H649.563V139.838Z" fill="#333333"/>
<path d="M654.71 139.838H651.579V142.969H654.71V139.838Z" fill="#333333"/>
<path d="M659.857 139.838H656.726V142.969H659.857V139.838Z" fill="#333333"/>
<path d="M665.004 139.838H661.873V142.969H665.004V139.838Z" fill="#333333"/>
<path d="M670.193 139.838H667.062V142.969H670.193V139.838Z" fill="#333333"/>
<path d="M675.34 139.838H672.209V142.969H675.34V139.838Z" fill="#333333"/>
<path d="M680.487 139.838H677.356V142.969H680.487V139.838Z" fill="#333333"/>
<path d="M685.633 139.838H682.502V142.969H685.633V139.838Z" fill="#333333"/>
<path d="M690.78 139.838H687.649V142.969H690.78V139.838Z" fill="#333333"/>
<path d="M695.927 139.838H692.796V142.969H695.927V139.838Z" fill="#333333"/>
<path d="M551.647 134.648H548.516V137.779H551.647V134.648Z" fill="#333333"/>
<path d="M556.793 134.648H553.662V137.779H556.793V134.648Z" fill="#333333"/>
<path d="M577.424 134.648H574.293V137.779H577.424V134.648Z" fill="#333333"/>
<path d="M582.57 134.648H579.439V137.779H582.57V134.648Z" fill="#333333"/>
<path d="M587.717 134.648H584.586V137.779H587.717V134.648Z" fill="#333333"/>
<path d="M592.864 134.648H589.733V137.779H592.864V134.648Z" fill="#333333"/>
<path d="M598.053 134.648H594.922V137.779H598.053V134.648Z" fill="#333333"/>
<path d="M603.2 134.648H600.069V137.779H603.2V134.648Z" fill="#333333"/>
<path d="M608.347 134.648H605.216V137.779H608.347V134.648Z" fill="#333333"/>
<path d="M613.493 134.648H610.362V137.779H613.493V134.648Z" fill="#333333"/>
<path d="M618.64 134.648H615.509V137.779H618.64V134.648Z" fill="#333333"/>
<path d="M623.787 134.648H620.656V137.779H623.787V134.648Z" fill="#333333"/>
<path d="M628.934 134.648H625.803V137.779H628.934V134.648Z" fill="#333333"/>
<path d="M634.123 134.648H630.992V137.779H634.123V134.648Z" fill="#333333"/>
<path d="M639.27 134.648H636.139V137.779H639.27V134.648Z" fill="#333333"/>
<path d="M649.563 134.648H646.433V137.779H649.563V134.648Z" fill="#333333"/>
<path d="M654.71 134.648H651.579V137.779H654.71V134.648Z" fill="#333333"/>
<path d="M659.857 134.648H656.726V137.779H659.857V134.648Z" fill="#333333"/>
<path d="M665.004 134.648H661.873V137.779H665.004V134.648Z" fill="#333333"/>
<path d="M670.193 134.648H667.062V137.779H670.193V134.648Z" fill="#333333"/>
<path d="M685.633 134.648H682.502V137.779H685.633V134.648Z" fill="#333333"/>
<path d="M690.78 134.648H687.649V137.779H690.78V134.648Z" fill="#333333"/>
<path d="M695.927 134.648H692.796V137.779H695.927V134.648Z" fill="#333333"/>
<path d="M489.843 129.501H486.712V132.632H489.843V129.501Z" fill="#333333"/>
<path d="M494.99 129.501H491.859V132.632H494.99V129.501Z" fill="#333333"/>
<path d="M500.136 129.501H497.005V132.632H500.136V129.501Z" fill="#333333"/>
<path d="M510.43 129.501H507.299V132.632H510.43V129.501Z" fill="#333333"/>
<path d="M520.766 129.501H517.636V132.632H520.766V129.501Z" fill="#333333"/>
<path d="M531.06 129.501H527.929V132.632H531.06V129.501Z" fill="#333333"/>
<path d="M556.793 129.501H553.662V132.632H556.793V129.501Z" fill="#333333"/>
<path d="M582.57 129.501H579.439V132.632H582.57V129.501Z" fill="#333333"/>
<path d="M587.717 129.501H584.586V132.632H587.717V129.501Z" fill="#333333"/>
<path d="M592.864 129.501H589.733V132.632H592.864V129.501Z" fill="#333333"/>
<path d="M598.053 129.501H594.922V132.632H598.053V129.501Z" fill="#333333"/>
<path d="M603.2 129.501H600.069V132.632H603.2V129.501Z" fill="#333333"/>
<path d="M608.347 129.501H605.216V132.632H608.347V129.501Z" fill="#333333"/>
<path d="M613.493 129.501H610.362V132.632H613.493V129.501Z" fill="#333333"/>
<path d="M618.64 129.501H615.509V132.632H618.64V129.501Z" fill="#333333"/>
<path d="M623.787 129.501H620.656V132.632H623.787V129.501Z" fill="#333333"/>
<path d="M628.934 129.501H625.803V132.632H628.934V129.501Z" fill="#333333"/>
<path d="M639.27 129.501H636.139V132.632H639.27V129.501Z" fill="#333333"/>
<path d="M644.417 129.501H641.286V132.632H644.417V129.501Z" fill="#333333"/>
<path d="M649.563 129.501H646.433V132.632H649.563V129.501Z" fill="#333333"/>
<path d="M654.71 129.501H651.579V132.632H654.71V129.501Z" fill="#333333"/>
<path d="M659.857 129.501H656.726V132.632H659.857V129.501Z" fill="#333333"/>
<path d="M665.004 129.501H661.873V132.632H665.004V129.501Z" fill="#333333"/>
<path d="M670.193 129.501H667.062V132.632H670.193V129.501Z" fill="#333333"/>
<path d="M675.34 129.501H672.209V132.632H675.34V129.501Z" fill="#333333"/>
<path d="M680.487 129.501H677.356V132.632H680.487V129.501Z" fill="#333333"/>
<path d="M685.633 129.501H682.502V132.632H685.633V129.501Z" fill="#333333"/>
<path d="M690.78 129.501H687.649V132.632H690.78V129.501Z" fill="#333333"/>
<path d="M695.927 129.501H692.796V132.632H695.927V129.501Z" fill="#333333"/>
<path d="M474.36 124.355H471.229V127.486H474.36V124.355Z" fill="#333333"/>
<path d="M479.507 124.355H476.376V127.486H479.507V124.355Z" fill="#333333"/>
<path d="M484.696 124.355H481.565V127.486H484.696V124.355Z" fill="#333333"/>
<path d="M489.843 124.355H486.712V127.486H489.843V124.355Z" fill="#333333"/>
<path d="M510.43 124.355H507.299V127.486H510.43V124.355Z" fill="#333333"/>
<path d="M515.577 124.355H512.446V127.486H515.577V124.355Z" fill="#333333"/>
<path d="M551.647 124.355H548.516V127.486H551.647V124.355Z" fill="#333333"/>
<path d="M556.793 124.355H553.662V127.486H556.793V124.355Z" fill="#333333"/>
<path d="M567.13 124.355H563.999V127.486H567.13V124.355Z" fill="#333333"/>
<path d="M577.424 124.355H574.293V127.486H577.424V124.355Z" fill="#333333"/>
<path d="M587.717 124.355H584.586V127.486H587.717V124.355Z" fill="#333333"/>
<path d="M598.053 124.355H594.922V127.486H598.053V124.355Z" fill="#333333"/>
<path d="M608.347 124.355H605.216V127.486H608.347V124.355Z" fill="#333333"/>
<path d="M613.493 124.355H610.362V127.486H613.493V124.355Z" fill="#333333"/>
<path d="M618.64 124.355H615.509V127.486H618.64V124.355Z" fill="#333333"/>
<path d="M639.27 124.355H636.139V127.486H639.27V124.355Z" fill="#333333"/>
<path d="M649.563 124.355H646.433V127.486H649.563V124.355Z" fill="#333333"/>
<path d="M654.71 124.355H651.579V127.486H654.71V124.355Z" fill="#333333"/>
<path d="M665.004 124.355H661.873V127.486H665.004V124.355Z" fill="#333333"/>
<path d="M670.193 124.355H667.062V127.486H670.193V124.355Z" fill="#333333"/>
<path d="M680.487 124.355H677.356V127.486H680.487V124.355Z" fill="#333333"/>
<path d="M685.633 124.355H682.502V127.486H685.633V124.355Z" fill="#333333"/>
<path d="M690.78 124.355H687.649V127.486H690.78V124.355Z" fill="#333333"/>
<path d="M469.213 119.208H466.082V122.339H469.213V119.208Z" fill="#333333"/>
<path d="M479.507 119.208H476.376V122.339H479.507V119.208Z" fill="#333333"/>
<path d="M489.843 119.208H486.712V122.339H489.843V119.208Z" fill="#333333"/>
<path d="M494.99 119.208H491.859V122.339H494.99V119.208Z" fill="#333333"/>
<path d="M500.136 119.208H497.005V122.339H500.136V119.208Z" fill="#333333"/>
<path d="M505.283 119.208H502.152V122.339H505.283V119.208Z" fill="#333333"/>
<path d="M510.43 119.208H507.299V122.339H510.43V119.208Z" fill="#333333"/>
<path d="M525.913 119.208H522.783V122.339H525.913V119.208Z" fill="#333333"/>
<path d="M531.06 119.208H527.929V122.339H531.06V119.208Z" fill="#333333"/>
<path d="M536.207 119.208H533.076V122.339H536.207V119.208Z" fill="#333333"/>
<path d="M546.5 119.208H543.369V122.339H546.5V119.208Z" fill="#333333"/>
<path d="M551.647 119.208H548.516V122.339H551.647V119.208Z" fill="#333333"/>
<path d="M567.13 119.208H563.999V122.339H567.13V119.208Z" fill="#333333"/>
<path d="M587.717 119.208H584.586V122.339H587.717V119.208Z" fill="#333333"/>
<path d="M592.864 119.208H589.733V122.339H592.864V119.208Z" fill="#333333"/>
<path d="M598.053 119.208H594.922V122.339H598.053V119.208Z" fill="#333333"/>
<path d="M603.2 119.208H600.069V122.339H603.2V119.208Z" fill="#333333"/>
<path d="M608.347 119.208H605.216V122.339H608.347V119.208Z" fill="#333333"/>
<path d="M613.493 119.208H610.362V122.339H613.493V119.208Z" fill="#333333"/>
<path d="M618.64 119.208H615.509V122.339H618.64V119.208Z" fill="#333333"/>
<path d="M628.934 119.208H625.803V122.339H628.934V119.208Z" fill="#333333"/>
<path d="M634.123 119.208H630.992V122.339H634.123V119.208Z" fill="#333333"/>
<path d="M649.563 119.208H646.433V122.339H649.563V119.208Z" fill="#333333"/>
<path d="M654.71 119.208H651.579V122.339H654.71V119.208Z" fill="#333333"/>
<path d="M659.857 119.208H656.726V122.339H659.857V119.208Z" fill="#333333"/>
<path d="M665.004 119.208H661.873V122.339H665.004V119.208Z" fill="#333333"/>
<path d="M670.193 119.208H667.062V122.339H670.193V119.208Z" fill="#333333"/>
<path d="M680.487 119.208H677.356V122.339H680.487V119.208Z" fill="#333333"/>
<path d="M685.633 119.208H682.502V122.339H685.633V119.208Z" fill="#333333"/>
<path d="M690.78 119.208H687.649V122.339H690.78V119.208Z" fill="#333333"/>
<path d="M695.927 119.208H692.796V122.339H695.927V119.208Z" fill="#333333"/>
<path d="M561.983 114.061H558.852V117.192H561.983V114.061Z" fill="#333333"/>
<path d="M567.13 114.061H563.999V117.192H567.13V114.061Z" fill="#333333"/>
<path d="M582.57 114.061H579.439V117.192H582.57V114.061Z" fill="#333333"/>
<path d="M592.864 114.061H589.733V117.192H592.864V114.061Z" fill="#333333"/>
<path d="M603.2 114.061H600.069V117.192H603.2V114.061Z" fill="#333333"/>
<path d="M613.493 114.061H610.362V117.192H613.493V114.061Z" fill="#333333"/>
<path d="M618.64 114.061H615.509V117.192H618.64V114.061Z" fill="#333333"/>
<path d="M623.787 114.061H620.656V117.192H623.787V114.061Z" fill="#333333"/>
<path d="M628.934 114.061H625.803V117.192H628.934V114.061Z" fill="#333333"/>
<path d="M634.123 114.061H630.992V117.192H634.123V114.061Z" fill="#333333"/>
<path d="M639.27 114.061H636.139V117.192H639.27V114.061Z" fill="#333333"/>
<path d="M644.417 114.061H641.286V117.192H644.417V114.061Z" fill="#333333"/>
<path d="M649.563 114.061H646.433V117.192H649.563V114.061Z" fill="#333333"/>
<path d="M654.71 114.061H651.579V117.192H654.71V114.061Z" fill="#333333"/>
<path d="M659.857 114.061H656.726V117.192H659.857V114.061Z" fill="#333333"/>
<path d="M675.34 114.061H672.209V117.192H675.34V114.061Z" fill="#333333"/>
<path d="M680.487 114.061H677.356V117.192H680.487V114.061Z" fill="#333333"/>
<path d="M685.633 114.061H682.502V117.192H685.633V114.061Z" fill="#333333"/>
<path d="M690.78 114.061H687.649V117.192H690.78V114.061Z" fill="#333333"/>
<path d="M695.927 114.061H692.796V117.192H695.927V114.061Z" fill="#333333"/>
<path d="M556.793 108.914H553.662V112.045H556.793V108.914Z" fill="#333333"/>
<path d="M567.13 108.914H563.999V112.045H567.13V108.914Z" fill="#333333"/>
<path d="M572.276 108.914H569.145V112.045H572.276V108.914Z" fill="#333333"/>
<path d="M577.424 108.914H574.293V112.045H577.424V108.914Z" fill="#333333"/>
<path d="M587.717 108.914H584.586V112.045H587.717V108.914Z" fill="#333333"/>
<path d="M592.864 108.914H589.733V112.045H592.864V108.914Z" fill="#333333"/>
<path d="M603.2 108.914H600.069V112.045H603.2V108.914Z" fill="#333333"/>
<path d="M608.347 108.914H605.216V112.045H608.347V108.914Z" fill="#333333"/>
<path d="M618.64 108.914H615.509V112.045H618.64V108.914Z" fill="#333333"/>
<path d="M623.787 108.914H620.656V112.045H623.787V108.914Z" fill="#333333"/>
<path d="M639.27 108.914H636.139V112.045H639.27V108.914Z" fill="#333333"/>
<path d="M644.417 108.914H641.286V112.045H644.417V108.914Z" fill="#333333"/>
<path d="M649.563 108.914H646.433V112.045H649.563V108.914Z" fill="#333333"/>
<path d="M654.71 108.914H651.579V112.045H654.71V108.914Z" fill="#333333"/>
<path d="M659.857 108.914H656.726V112.045H659.857V108.914Z" fill="#333333"/>
<path d="M665.004 108.914H661.873V112.045H665.004V108.914Z" fill="#333333"/>
<path d="M670.193 108.914H667.062V112.045H670.193V108.914Z" fill="#333333"/>
<path d="M675.34 108.914H672.209V112.045H675.34V108.914Z" fill="#333333"/>
<path d="M680.487 108.914H677.356V112.045H680.487V108.914Z" fill="#333333"/>
<path d="M685.633 108.914H682.502V112.045H685.633V108.914Z" fill="#333333"/>
<path d="M690.78 108.914H687.649V112.045H690.78V108.914Z" fill="#333333"/>
<path d="M695.927 108.914H692.796V112.045H695.927V108.914Z" fill="#333333"/>
<path d="M443.436 103.768H440.305V106.899H443.436V103.768Z" fill="#333333"/>
<path d="M464.066 103.768H460.936V106.899H464.066V103.768Z" fill="#333333"/>
<path d="M469.213 103.768H466.082V106.899H469.213V103.768Z" fill="#333333"/>
<path d="M484.696 103.768H481.565V106.899H484.696V103.768Z" fill="#333333"/>
<path d="M500.136 103.768H497.005V106.899H500.136V103.768Z" fill="#333333"/>
<path d="M510.43 103.768H507.299V106.899H510.43V103.768Z" fill="#333333"/>
<path d="M515.577 103.768H512.446V106.899H515.577V103.768Z" fill="#333333"/>
<path d="M536.207 103.768H533.076V106.899H536.207V103.768Z" fill="#333333"/>
<path d="M541.353 103.768H538.222V106.899H541.353V103.768Z" fill="#333333"/>
<path d="M551.647 103.768H548.516V106.899H551.647V103.768Z" fill="#333333"/>
<path d="M556.793 103.768H553.662V106.899H556.793V103.768Z" fill="#333333"/>
<path d="M561.983 103.768H558.852V106.899H561.983V103.768Z" fill="#333333"/>
<path d="M567.13 103.768H563.999V106.899H567.13V103.768Z" fill="#333333"/>
<path d="M572.276 103.768H569.145V106.899H572.276V103.768Z" fill="#333333"/>
<path d="M577.424 103.768H574.293V106.899H577.424V103.768Z" fill="#333333"/>
<path d="M598.053 103.768H594.922V106.899H598.053V103.768Z" fill="#333333"/>
<path d="M603.2 103.768H600.069V106.899H603.2V103.768Z" fill="#333333"/>
<path d="M613.493 103.768H610.362V106.899H613.493V103.768Z" fill="#333333"/>
<path d="M618.64 103.768H615.509V106.899H618.64V103.768Z" fill="#333333"/>
<path d="M623.787 103.768H620.656V106.899H623.787V103.768Z" fill="#333333"/>
<path d="M628.934 103.768H625.803V106.899H628.934V103.768Z" fill="#333333"/>
<path d="M639.27 103.768H636.139V106.899H639.27V103.768Z" fill="#333333"/>
<path d="M644.417 103.768H641.286V106.899H644.417V103.768Z" fill="#333333"/>
<path d="M649.563 103.768H646.433V106.899H649.563V103.768Z" fill="#333333"/>
<path d="M654.71 103.768H651.579V106.899H654.71V103.768Z" fill="#333333"/>
<path d="M659.857 103.768H656.726V106.899H659.857V103.768Z" fill="#333333"/>
<path d="M665.004 103.768H661.873V106.899H665.004V103.768Z" fill="#333333"/>
<path d="M670.193 103.768H667.062V106.899H670.193V103.768Z" fill="#333333"/>
<path d="M675.34 103.768H672.209V106.899H675.34V103.768Z" fill="#333333"/>
<path d="M680.487 103.768H677.356V106.899H680.487V103.768Z" fill="#333333"/>
<path d="M685.633 103.768H682.502V106.899H685.633V103.768Z" fill="#333333"/>
<path d="M690.78 103.768H687.649V106.899H690.78V103.768Z" fill="#333333"/>
<path d="M695.927 103.768H692.796V106.899H695.927V103.768Z" fill="#333333"/>
<path d="M443.436 98.5779H440.305V101.709H443.436V98.5779Z" fill="#333333"/>
<path d="M453.773 98.5779H450.642V101.709H453.773V98.5779Z" fill="#333333"/>
<path d="M458.92 98.5779H455.789V101.709H458.92V98.5779Z" fill="#333333"/>
<path d="M489.843 98.5779H486.712V101.709H489.843V98.5779Z" fill="#333333"/>
<path d="M515.577 98.5779H512.446V101.709H515.577V98.5779Z" fill="#333333"/>
<path d="M520.766 98.5779H517.636V101.709H520.766V98.5779Z" fill="#333333"/>
<path d="M531.06 98.5779H527.929V101.709H531.06V98.5779Z" fill="#333333"/>
<path d="M556.793 98.5779H553.662V101.709H556.793V98.5779Z" fill="#333333"/>
<path d="M567.13 98.5779H563.999V101.709H567.13V98.5779Z" fill="#333333"/>
<path d="M577.424 98.5779H574.293V101.709H577.424V98.5779Z" fill="#333333"/>
<path d="M603.2 98.5779H600.069V101.709H603.2V98.5779Z" fill="#333333"/>
<path d="M608.347 98.5779H605.216V101.709H608.347V98.5779Z" fill="#333333"/>
<path d="M613.493 98.5779H610.362V101.709H613.493V98.5779Z" fill="#333333"/>
<path d="M618.64 98.5779H615.509V101.709H618.64V98.5779Z" fill="#333333"/>
<path d="M623.787 98.5779H620.656V101.709H623.787V98.5779Z" fill="#333333"/>
<path d="M628.934 98.5779H625.803V101.709H628.934V98.5779Z" fill="#333333"/>
<path d="M639.27 98.5779H636.139V101.709H639.27V98.5779Z" fill="#333333"/>
<path d="M644.417 98.5779H641.286V101.709H644.417V98.5779Z" fill="#333333"/>
<path d="M649.563 98.5779H646.433V101.709H649.563V98.5779Z" fill="#333333"/>
<path d="M654.71 98.5779H651.579V101.709H654.71V98.5779Z" fill="#333333"/>
<path d="M659.857 98.5779H656.726V101.709H659.857V98.5779Z" fill="#333333"/>
<path d="M665.004 98.5779H661.873V101.709H665.004V98.5779Z" fill="#333333"/>
<path d="M670.193 98.5779H667.062V101.709H670.193V98.5779Z" fill="#333333"/>
<path d="M675.34 98.5779H672.209V101.709H675.34V98.5779Z" fill="#333333"/>
<path d="M680.487 98.5779H677.356V101.709H680.487V98.5779Z" fill="#333333"/>
<path d="M525.913 93.4313H522.783V96.5622H525.913V93.4313Z" fill="#333333"/>
<path d="M531.06 93.4313H527.929V96.5622H531.06V93.4313Z" fill="#333333"/>
<path d="M536.207 93.4313H533.076V96.5622H536.207V93.4313Z" fill="#333333"/>
<path d="M541.353 93.4313H538.222V96.5622H541.353V93.4313Z" fill="#333333"/>
<path d="M551.647 93.4313H548.516V96.5622H551.647V93.4313Z" fill="#333333"/>
<path d="M556.793 93.4313H553.662V96.5622H556.793V93.4313Z" fill="#333333"/>
<path d="M587.717 93.4313H584.586V96.5622H587.717V93.4313Z" fill="#333333"/>
<path d="M598.053 93.4313H594.922V96.5622H598.053V93.4313Z" fill="#333333"/>
<path d="M608.347 93.4313H605.216V96.5622H608.347V93.4313Z" fill="#333333"/>
<path d="M613.493 93.4313H610.362V96.5622H613.493V93.4313Z" fill="#333333"/>
<path d="M618.64 93.4313H615.509V96.5622H618.64V93.4313Z" fill="#333333"/>
<path d="M628.934 93.4313H625.803V96.5622H628.934V93.4313Z" fill="#333333"/>
<path d="M634.123 93.4313H630.992V96.5622H634.123V93.4313Z" fill="#333333"/>
<path d="M644.417 93.4313H641.286V96.5622H644.417V93.4313Z" fill="#333333"/>
<path d="M649.563 93.4313H646.433V96.5622H649.563V93.4313Z" fill="#333333"/>
<path d="M654.71 93.4313H651.579V96.5622H654.71V93.4313Z" fill="#333333"/>
<path d="M659.857 93.4313H656.726V96.5622H659.857V93.4313Z" fill="#333333"/>
<path d="M665.004 93.4313H661.873V96.5622H665.004V93.4313Z" fill="#333333"/>
<path d="M670.193 93.4313H667.062V96.5622H670.193V93.4313Z" fill="#333333"/>
<path d="M675.34 93.4313H672.209V96.5622H675.34V93.4313Z" fill="#333333"/>
<path d="M680.487 93.4313H677.356V96.5622H680.487V93.4313Z" fill="#333333"/>
<path d="M685.633 93.4313H682.502V96.5622H685.633V93.4313Z" fill="#333333"/>
<path d="M690.78 93.4313H687.649V96.5622H690.78V93.4313Z" fill="#333333"/>
<path d="M695.927 93.4313H692.796V96.5622H695.927V93.4313Z" fill="#333333"/>
<path d="M572.276 88.2845H569.145V91.4155H572.276V88.2845Z" fill="#333333"/>
<path d="M577.424 88.2845H574.293V91.4155H577.424V88.2845Z" fill="#333333"/>
<path d="M582.57 88.2845H579.439V91.4155H582.57V88.2845Z" fill="#333333"/>
<path d="M587.717 88.2845H584.586V91.4155H587.717V88.2845Z" fill="#333333"/>
<path d="M592.864 88.2845H589.733V91.4155H592.864V88.2845Z" fill="#333333"/>
<path d="M598.053 88.2845H594.922V91.4155H598.053V88.2845Z" fill="#333333"/>
<path d="M613.493 88.2845H610.362V91.4155H613.493V88.2845Z" fill="#333333"/>
<path d="M618.64 88.2845H615.509V91.4155H618.64V88.2845Z" fill="#333333"/>
<path d="M623.787 88.2845H620.656V91.4155H623.787V88.2845Z" fill="#333333"/>
<path d="M628.934 88.2845H625.803V91.4155H628.934V88.2845Z" fill="#333333"/>
<path d="M634.123 88.2845H630.992V91.4155H634.123V88.2845Z" fill="#333333"/>
<path d="M639.27 88.2845H636.139V91.4155H639.27V88.2845Z" fill="#333333"/>
<path d="M649.563 88.2845H646.433V91.4155H649.563V88.2845Z" fill="#333333"/>
<path d="M654.71 88.2845H651.579V91.4155H654.71V88.2845Z" fill="#333333"/>
<path d="M659.857 88.2845H656.726V91.4155H659.857V88.2845Z" fill="#333333"/>
<path d="M665.004 88.2845H661.873V91.4155H665.004V88.2845Z" fill="#333333"/>
<path d="M670.193 88.2845H667.062V91.4155H670.193V88.2845Z" fill="#333333"/>
<path d="M675.34 88.2845H672.209V91.4155H675.34V88.2845Z" fill="#333333"/>
<path d="M680.487 88.2845H677.356V91.4155H680.487V88.2845Z" fill="#333333"/>
<path d="M685.633 88.2845H682.502V91.4155H685.633V88.2845Z" fill="#333333"/>
<path d="M690.78 88.2845H687.649V91.4155H690.78V88.2845Z" fill="#333333"/>
<path d="M695.927 88.2845H692.796V91.4155H695.927V88.2845Z" fill="#333333"/>
<path d="M613.493 83.1378H610.362V86.2688H613.493V83.1378Z" fill="#333333"/>
<path d="M618.64 83.1378H615.509V86.2688H618.64V83.1378Z" fill="#333333"/>
<path d="M623.787 83.1378H620.656V86.2688H623.787V83.1378Z" fill="#333333"/>
<path d="M634.123 83.1378H630.992V86.2688H634.123V83.1378Z" fill="#333333"/>
<path d="M639.27 83.1378H636.139V86.2688H639.27V83.1378Z" fill="#333333"/>
<path d="M644.417 83.1378H641.286V86.2688H644.417V83.1378Z" fill="#333333"/>
<path d="M649.563 83.1378H646.433V86.2688H649.563V83.1378Z" fill="#333333"/>
<path d="M654.71 83.1378H651.579V86.2688H654.71V83.1378Z" fill="#333333"/>
<path d="M659.857 83.1378H656.726V86.2688H659.857V83.1378Z" fill="#333333"/>
<path d="M665.004 83.1378H661.873V86.2688H665.004V83.1378Z" fill="#333333"/>
<path d="M670.193 83.1378H667.062V86.2688H670.193V83.1378Z" fill="#333333"/>
<path d="M675.34 83.1378H672.209V86.2688H675.34V83.1378Z" fill="#333333"/>
<path d="M680.487 83.1378H677.356V86.2688H680.487V83.1378Z" fill="#333333"/>
<path d="M685.633 83.1378H682.502V86.2688H685.633V83.1378Z" fill="#333333"/>
<path d="M690.78 83.1378H687.649V86.2688H690.78V83.1378Z" fill="#333333"/>
<path d="M695.927 83.1378H692.796V86.2688H695.927V83.1378Z" fill="#333333"/>
<path d="M469.213 77.991H466.082V81.122H469.213V77.991Z" fill="#333333"/>
<path d="M474.36 77.991H471.229V81.122H474.36V77.991Z" fill="#333333"/>
<path d="M500.136 77.991H497.005V81.122H500.136V77.991Z" fill="#333333"/>
<path d="M505.283 77.991H502.152V81.122H505.283V77.991Z" fill="#333333"/>
<path d="M520.766 77.991H517.636V81.122H520.766V77.991Z" fill="#333333"/>
<path d="M541.353 77.991H538.222V81.122H541.353V77.991Z" fill="#333333"/>
<path d="M546.5 77.991H543.369V81.122H546.5V77.991Z" fill="#333333"/>
<path d="M561.983 77.991H558.852V81.122H561.983V77.991Z" fill="#333333"/>
<path d="M582.57 77.991H579.439V81.122H582.57V77.991Z" fill="#333333"/>
<path d="M592.864 77.991H589.733V81.122H592.864V77.991Z" fill="#333333"/>
<path d="M598.053 77.991H594.922V81.122H598.053V77.991Z" fill="#333333"/>
<path d="M608.347 77.991H605.216V81.122H608.347V77.991Z" fill="#333333"/>
<path d="M613.493 77.991H610.362V81.122H613.493V77.991Z" fill="#333333"/>
<path d="M618.64 77.991H615.509V81.122H618.64V77.991Z" fill="#333333"/>
<path d="M623.787 77.991H620.656V81.122H623.787V77.991Z" fill="#333333"/>
<path d="M628.934 77.991H625.803V81.122H628.934V77.991Z" fill="#333333"/>
<path d="M634.123 77.991H630.992V81.122H634.123V77.991Z" fill="#333333"/>
<path d="M639.27 77.991H636.139V81.122H639.27V77.991Z" fill="#333333"/>
<path d="M644.417 77.991H641.286V81.122H644.417V77.991Z" fill="#333333"/>
<path d="M649.563 77.991H646.433V81.122H649.563V77.991Z" fill="#333333"/>
<path d="M654.71 77.991H651.579V81.122H654.71V77.991Z" fill="#333333"/>
<path d="M659.857 77.991H656.726V81.122H659.857V77.991Z" fill="#333333"/>
<path d="M665.004 77.991H661.873V81.122H665.004V77.991Z" fill="#333333"/>
<path d="M670.193 77.991H667.062V81.122H670.193V77.991Z" fill="#333333"/>
<path d="M675.34 77.991H672.209V81.122H675.34V77.991Z" fill="#333333"/>
<path d="M680.487 77.991H677.356V81.122H680.487V77.991Z" fill="#333333"/>
<path d="M685.633 77.991H682.502V81.122H685.633V77.991Z" fill="#333333"/>
<path d="M690.78 77.991H687.649V81.122H690.78V77.991Z" fill="#333333"/>
<path d="M695.927 77.991H692.796V81.122H695.927V77.991Z" fill="#333333"/>
<path d="M489.843 72.8443H486.712V75.9752H489.843V72.8443Z" fill="#333333"/>
<path d="M494.99 72.8443H491.859V75.9752H494.99V72.8443Z" fill="#333333"/>
<path d="M510.43 72.8443H507.299V75.9752H510.43V72.8443Z" fill="#333333"/>
<path d="M515.577 72.8443H512.446V75.9752H515.577V72.8443Z" fill="#333333"/>
<path d="M531.06 72.8443H527.929V75.9752H531.06V72.8443Z" fill="#333333"/>
<path d="M541.353 72.8443H538.222V75.9752H541.353V72.8443Z" fill="#333333"/>
<path d="M546.5 72.8443H543.369V75.9752H546.5V72.8443Z" fill="#333333"/>
<path d="M551.647 72.8443H548.516V75.9752H551.647V72.8443Z" fill="#333333"/>
<path d="M561.983 72.8443H558.852V75.9752H561.983V72.8443Z" fill="#333333"/>
<path d="M567.13 72.8443H563.999V75.9752H567.13V72.8443Z" fill="#333333"/>
<path d="M572.276 72.8443H569.145V75.9752H572.276V72.8443Z" fill="#333333"/>
<path d="M577.424 72.8443H574.293V75.9752H577.424V72.8443Z" fill="#333333"/>
<path d="M603.2 72.8443H600.069V75.9752H603.2V72.8443Z" fill="#333333"/>
<path d="M608.347 72.8443H605.216V75.9752H608.347V72.8443Z" fill="#333333"/>
<path d="M613.493 72.8443H610.362V75.9752H613.493V72.8443Z" fill="#333333"/>
<path d="M618.64 72.8443H615.509V75.9752H618.64V72.8443Z" fill="#333333"/>
<path d="M623.787 72.8443H620.656V75.9752H623.787V72.8443Z" fill="#333333"/>
<path d="M639.27 72.8443H636.139V75.9752H639.27V72.8443Z" fill="#333333"/>
<path d="M649.563 72.8443H646.433V75.9752H649.563V72.8443Z" fill="#333333"/>
<path d="M654.71 72.8443H651.579V75.9752H654.71V72.8443Z" fill="#333333"/>
<path d="M659.857 72.8443H656.726V75.9752H659.857V72.8443Z" fill="#333333"/>
<path d="M665.004 72.8443H661.873V75.9752H665.004V72.8443Z" fill="#333333"/>
<path d="M675.34 72.8443H672.209V75.9752H675.34V72.8443Z" fill="#333333"/>
<path d="M680.487 72.8443H677.356V75.9752H680.487V72.8443Z" fill="#333333"/>
<path d="M685.633 72.8443H682.502V75.9752H685.633V72.8443Z" fill="#333333"/>
<path d="M690.78 72.8443H687.649V75.9752H690.78V72.8443Z" fill="#333333"/>
<path d="M695.927 72.8443H692.796V75.9752H695.927V72.8443Z" fill="#333333"/>
<path d="M505.283 67.6976H502.152V70.8286H505.283V67.6976Z" fill="#333333"/>
<path d="M515.577 67.6976H512.446V70.8286H515.577V67.6976Z" fill="#333333"/>
<path d="M520.766 67.6976H517.636V70.8286H520.766V67.6976Z" fill="#333333"/>
<path d="M531.06 67.6976H527.929V70.8286H531.06V67.6976Z" fill="#333333"/>
<path d="M541.353 67.6976H538.222V70.8286H541.353V67.6976Z" fill="#333333"/>
<path d="M546.5 67.6976H543.369V70.8286H546.5V67.6976Z" fill="#333333"/>
<path d="M551.647 67.6976H548.516V70.8286H551.647V67.6976Z" fill="#333333"/>
<path d="M556.793 67.6976H553.662V70.8286H556.793V67.6976Z" fill="#333333"/>
<path d="M577.424 67.6976H574.293V70.8286H577.424V67.6976Z" fill="#333333"/>
<path d="M592.864 67.6976H589.733V70.8286H592.864V67.6976Z" fill="#333333"/>
<path d="M603.2 67.6976H600.069V70.8286H603.2V67.6976Z" fill="#333333"/>
<path d="M608.347 67.6976H605.216V70.8286H608.347V67.6976Z" fill="#333333"/>
<path d="M613.493 67.6976H610.362V70.8286H613.493V67.6976Z" fill="#333333"/>
<path d="M618.64 67.6976H615.509V70.8286H618.64V67.6976Z" fill="#333333"/>
<path d="M623.787 67.6976H620.656V70.8286H623.787V67.6976Z" fill="#333333"/>
<path d="M628.934 67.6976H625.803V70.8286H628.934V67.6976Z" fill="#333333"/>
<path d="M649.563 67.6976H646.433V70.8286H649.563V67.6976Z" fill="#333333"/>
<path d="M654.71 67.6976H651.579V70.8286H654.71V67.6976Z" fill="#333333"/>
<path d="M659.857 67.6976H656.726V70.8286H659.857V67.6976Z" fill="#333333"/>
<path d="M665.004 67.6976H661.873V70.8286H665.004V67.6976Z" fill="#333333"/>
<path d="M670.193 67.6976H667.062V70.8286H670.193V67.6976Z" fill="#333333"/>
<path d="M675.34 67.6976H672.209V70.8286H675.34V67.6976Z" fill="#333333"/>
<path d="M680.487 67.6976H677.356V70.8286H680.487V67.6976Z" fill="#333333"/>
<path d="M685.633 67.6976H682.502V70.8286H685.633V67.6976Z" fill="#333333"/>
<path d="M690.78 67.6976H687.649V70.8286H690.78V67.6976Z" fill="#333333"/>
<path d="M695.927 67.6976H692.796V70.8286H695.927V67.6976Z" fill="#333333"/>
<path d="M546.5 62.5508H543.369V65.6818H546.5V62.5508Z" fill="#333333"/>
<path d="M551.647 62.5508H548.516V65.6818H551.647V62.5508Z" fill="#333333"/>
<path d="M556.793 62.5508H553.662V65.6818H556.793V62.5508Z" fill="#333333"/>
<path d="M561.983 62.5508H558.852V65.6818H561.983V62.5508Z" fill="#333333"/>
<path d="M567.13 62.5508H563.999V65.6818H567.13V62.5508Z" fill="#333333"/>
<path d="M582.57 62.5508H579.439V65.6818H582.57V62.5508Z" fill="#333333"/>
<path d="M592.864 62.5508H589.733V65.6818H592.864V62.5508Z" fill="#333333"/>
<path d="M603.2 62.5508H600.069V65.6818H603.2V62.5508Z" fill="#333333"/>
<path d="M608.347 62.5508H605.216V65.6818H608.347V62.5508Z" fill="#333333"/>
<path d="M613.493 62.5508H610.362V65.6818H613.493V62.5508Z" fill="#333333"/>
<path d="M618.64 62.5508H615.509V65.6818H618.64V62.5508Z" fill="#333333"/>
<path d="M623.787 62.5508H620.656V65.6818H623.787V62.5508Z" fill="#333333"/>
<path d="M639.27 62.5508H636.139V65.6818H639.27V62.5508Z" fill="#333333"/>
<path d="M644.417 62.5508H641.286V65.6818H644.417V62.5508Z" fill="#333333"/>
<path d="M659.857 62.5508H656.726V65.6818H659.857V62.5508Z" fill="#333333"/>
<path d="M665.004 62.5508H661.873V65.6818H665.004V62.5508Z" fill="#333333"/>
<path d="M670.193 62.5508H667.062V65.6818H670.193V62.5508Z" fill="#333333"/>
<path d="M675.34 62.5508H672.209V65.6818H675.34V62.5508Z" fill="#333333"/>
<path d="M680.487 62.5508H677.356V65.6818H680.487V62.5508Z" fill="#333333"/>
<path d="M685.633 62.5508H682.502V65.6818H685.633V62.5508Z" fill="#333333"/>
<path d="M690.78 62.5508H687.649V65.6818H690.78V62.5508Z" fill="#333333"/>
<path d="M695.927 62.5508H692.796V65.6818H695.927V62.5508Z" fill="#333333"/>
<path d="M577.424 57.3612H574.293V60.4921H577.424V57.3612Z" fill="#333333"/>
<path d="M582.57 57.3612H579.439V60.4921H582.57V57.3612Z" fill="#333333"/>
<path d="M587.717 57.3612H584.586V60.4921H587.717V57.3612Z" fill="#333333"/>
<path d="M592.864 57.3612H589.733V60.4921H592.864V57.3612Z" fill="#333333"/>
<path d="M598.053 57.3612H594.922V60.4921H598.053V57.3612Z" fill="#333333"/>
<path d="M608.347 57.3612H605.216V60.4921H608.347V57.3612Z" fill="#333333"/>
<path d="M613.493 57.3612H610.362V60.4921H613.493V57.3612Z" fill="#333333"/>
<path d="M623.787 57.3612H620.656V60.4921H623.787V57.3612Z" fill="#333333"/>
<path d="M628.934 57.3612H625.803V60.4921H628.934V57.3612Z" fill="#333333"/>
<path d="M639.27 57.3612H636.139V60.4921H639.27V57.3612Z" fill="#333333"/>
<path d="M644.417 57.3612H641.286V60.4921H644.417V57.3612Z" fill="#333333"/>
<path d="M649.563 57.3612H646.433V60.4921H649.563V57.3612Z" fill="#333333"/>
<path d="M654.71 57.3612H651.579V60.4921H654.71V57.3612Z" fill="#333333"/>
<path d="M659.857 57.3612H656.726V60.4921H659.857V57.3612Z" fill="#333333"/>
<path d="M665.004 57.3612H661.873V60.4921H665.004V57.3612Z" fill="#333333"/>
<path d="M670.193 57.3612H667.062V60.4921H670.193V57.3612Z" fill="#333333"/>
<path d="M675.34 57.3612H672.209V60.4921H675.34V57.3612Z" fill="#333333"/>
<path d="M680.487 57.3612H677.356V60.4921H680.487V57.3612Z" fill="#333333"/>
<path d="M685.633 57.3612H682.502V60.4921H685.633V57.3612Z" fill="#333333"/>
<path d="M690.78 57.3612H687.649V60.4921H690.78V57.3612Z" fill="#333333"/>
<path d="M695.927 57.3612H692.796V60.4921H695.927V57.3612Z" fill="#333333"/>
<path d="M505.283 52.2145H502.152V55.3455H505.283V52.2145Z" fill="#333333"/>
<path d="M515.577 52.2145H512.446V55.3455H515.577V52.2145Z" fill="#333333"/>
<path d="M520.766 52.2145H517.636V55.3455H520.766V52.2145Z" fill="#333333"/>
<path d="M525.913 52.2145H522.783V55.3455H525.913V52.2145Z" fill="#333333"/>
<path d="M531.06 52.2145H527.929V55.3455H531.06V52.2145Z" fill="#333333"/>
<path d="M536.207 52.2145H533.076V55.3455H536.207V52.2145Z" fill="#333333"/>
<path d="M541.353 52.2145H538.222V55.3455H541.353V52.2145Z" fill="#333333"/>
<path d="M546.5 52.2145H543.369V55.3455H546.5V52.2145Z" fill="#333333"/>
<path d="M551.647 52.2145H548.516V55.3455H551.647V52.2145Z" fill="#333333"/>
<path d="M556.793 52.2145H553.662V55.3455H556.793V52.2145Z" fill="#333333"/>
<path d="M561.983 52.2145H558.852V55.3455H561.983V52.2145Z" fill="#333333"/>
<path d="M582.57 52.2145H579.439V55.3455H582.57V52.2145Z" fill="#333333"/>
<path d="M592.864 52.2145H589.733V55.3455H592.864V52.2145Z" fill="#333333"/>
<path d="M603.2 52.2145H600.069V55.3455H603.2V52.2145Z" fill="#333333"/>
<path d="M608.347 52.2145H605.216V55.3455H608.347V52.2145Z" fill="#333333"/>
<path d="M613.493 52.2145H610.362V55.3455H613.493V52.2145Z" fill="#333333"/>
<path d="M618.64 52.2145H615.509V55.3455H618.64V52.2145Z" fill="#333333"/>
<path d="M623.787 52.2145H620.656V55.3455H623.787V52.2145Z" fill="#333333"/>
<path d="M634.123 52.2145H630.992V55.3455H634.123V52.2145Z" fill="#333333"/>
<path d="M639.27 52.2145H636.139V55.3455H639.27V52.2145Z" fill="#333333"/>
<path d="M644.417 52.2145H641.286V55.3455H644.417V52.2145Z" fill="#333333"/>
<path d="M659.857 52.2145H656.726V55.3455H659.857V52.2145Z" fill="#333333"/>
<path d="M670.193 52.2145H667.062V55.3455H670.193V52.2145Z" fill="#333333"/>
<path d="M675.34 52.2145H672.209V55.3455H675.34V52.2145Z" fill="#333333"/>
<path d="M680.487 52.2145H677.356V55.3455H680.487V52.2145Z" fill="#333333"/>
<path d="M685.633 52.2145H682.502V55.3455H685.633V52.2145Z" fill="#333333"/>
<path d="M690.78 52.2145H687.649V55.3455H690.78V52.2145Z" fill="#333333"/>
<path d="M695.927 52.2145H692.796V55.3455H695.927V52.2145Z" fill="#333333"/>
<path d="M448.626 47.0677H445.495V50.1987H448.626V47.0677Z" fill="#333333"/>
<path d="M458.92 47.0677H455.789V50.1987H458.92V47.0677Z" fill="#333333"/>
<path d="M464.066 47.0677H460.936V50.1987H464.066V47.0677Z" fill="#333333"/>
<path d="M474.36 47.0677H471.229V50.1987H474.36V47.0677Z" fill="#333333"/>
<path d="M494.99 47.0677H491.859V50.1987H494.99V47.0677Z" fill="#333333"/>
<path d="M520.766 47.0677H517.636V50.1987H520.766V47.0677Z" fill="#333333"/>
<path d="M541.353 47.0677H538.222V50.1987H541.353V47.0677Z" fill="#333333"/>
<path d="M546.5 47.0677H543.369V50.1987H546.5V47.0677Z" fill="#333333"/>
<path d="M551.647 47.0677H548.516V50.1987H551.647V47.0677Z" fill="#333333"/>
<path d="M556.793 47.0677H553.662V50.1987H556.793V47.0677Z" fill="#333333"/>
<path d="M561.983 47.0677H558.852V50.1987H561.983V47.0677Z" fill="#333333"/>
<path d="M567.13 47.0677H563.999V50.1987H567.13V47.0677Z" fill="#333333"/>
<path d="M572.276 47.0677H569.145V50.1987H572.276V47.0677Z" fill="#333333"/>
<path d="M577.424 47.0677H574.293V50.1987H577.424V47.0677Z" fill="#333333"/>
<path d="M582.57 47.0677H579.439V50.1987H582.57V47.0677Z" fill="#333333"/>
<path d="M587.717 47.0677H584.586V50.1987H587.717V47.0677Z" fill="#333333"/>
<path d="M592.864 47.0677H589.733V50.1987H592.864V47.0677Z" fill="#333333"/>
<path d="M598.053 47.0677H594.922V50.1987H598.053V47.0677Z" fill="#333333"/>
<path d="M603.2 47.0677H600.069V50.1987H603.2V47.0677Z" fill="#333333"/>
<path d="M608.347 47.0677H605.216V50.1987H608.347V47.0677Z" fill="#333333"/>
<path d="M613.493 47.0677H610.362V50.1987H613.493V47.0677Z" fill="#333333"/>
<path d="M623.787 47.0677H620.656V50.1987H623.787V47.0677Z" fill="#333333"/>
<path d="M628.934 47.0677H625.803V50.1987H628.934V47.0677Z" fill="#333333"/>
<path d="M634.123 47.0677H630.992V50.1987H634.123V47.0677Z" fill="#333333"/>
<path d="M639.27 47.0677H636.139V50.1987H639.27V47.0677Z" fill="#333333"/>
<path d="M644.417 47.0677H641.286V50.1987H644.417V47.0677Z" fill="#333333"/>
<path d="M654.71 47.0677H651.579V50.1987H654.71V47.0677Z" fill="#333333"/>
<path d="M665.004 47.0677H661.873V50.1987H665.004V47.0677Z" fill="#333333"/>
<path d="M670.193 47.0677H667.062V50.1987H670.193V47.0677Z" fill="#333333"/>
<path d="M675.34 47.0677H672.209V50.1987H675.34V47.0677Z" fill="#333333"/>
<path d="M680.487 47.0677H677.356V50.1987H680.487V47.0677Z" fill="#333333"/>
<path d="M685.633 47.0677H682.502V50.1987H685.633V47.0677Z" fill="#333333"/>
<path d="M690.78 47.0677H687.649V50.1987H690.78V47.0677Z" fill="#333333"/>
<path d="M695.927 47.0677H692.796V50.1987H695.927V47.0677Z" fill="#333333"/>
<path d="M515.577 41.9211H512.446V45.0521H515.577V41.9211Z" fill="#333333"/>
<path d="M525.913 41.9211H522.783V45.0521H525.913V41.9211Z" fill="#333333"/>
<path d="M531.06 41.9211H527.929V45.0521H531.06V41.9211Z" fill="#333333"/>
<path d="M536.207 41.9211H533.076V45.0521H536.207V41.9211Z" fill="#333333"/>
<path d="M541.353 41.9211H538.222V45.0521H541.353V41.9211Z" fill="#333333"/>
<path d="M546.5 41.9211H543.369V45.0521H546.5V41.9211Z" fill="#333333"/>
<path d="M556.793 41.9211H553.662V45.0521H556.793V41.9211Z" fill="#333333"/>
<path d="M561.983 41.9211H558.852V45.0521H561.983V41.9211Z" fill="#333333"/>
<path d="M567.13 41.9211H563.999V45.0521H567.13V41.9211Z" fill="#333333"/>
<path d="M572.276 41.9211H569.145V45.0521H572.276V41.9211Z" fill="#333333"/>
<path d="M577.424 41.9211H574.293V45.0521H577.424V41.9211Z" fill="#333333"/>
<path d="M582.57 41.9211H579.439V45.0521H582.57V41.9211Z" fill="#333333"/>
<path d="M587.717 41.9211H584.586V45.0521H587.717V41.9211Z" fill="#333333"/>
<path d="M592.864 41.9211H589.733V45.0521H592.864V41.9211Z" fill="#333333"/>
<path d="M598.053 41.9211H594.922V45.0521H598.053V41.9211Z" fill="#333333"/>
<path d="M608.347 41.9211H605.216V45.0521H608.347V41.9211Z" fill="#333333"/>
<path d="M613.493 41.9211H610.362V45.0521H613.493V41.9211Z" fill="#333333"/>
<path d="M618.64 41.9211H615.509V45.0521H618.64V41.9211Z" fill="#333333"/>
<path d="M623.787 41.9211H620.656V45.0521H623.787V41.9211Z" fill="#333333"/>
<path d="M628.934 41.9211H625.803V45.0521H628.934V41.9211Z" fill="#333333"/>
<path d="M639.27 41.9211H636.139V45.0521H639.27V41.9211Z" fill="#333333"/>
<path d="M644.417 41.9211H641.286V45.0521H644.417V41.9211Z" fill="#333333"/>
<path d="M649.563 41.9211H646.433V45.0521H649.563V41.9211Z" fill="#333333"/>
<path d="M659.857 41.9211H656.726V45.0521H659.857V41.9211Z" fill="#333333"/>
<path d="M665.004 41.9211H661.873V45.0521H665.004V41.9211Z" fill="#333333"/>
<path d="M675.34 41.9211H672.209V45.0521H675.34V41.9211Z" fill="#333333"/>
<path d="M680.487 41.9211H677.356V45.0521H680.487V41.9211Z" fill="#333333"/>
<path d="M685.633 41.9211H682.502V45.0521H685.633V41.9211Z" fill="#333333"/>
<path d="M695.927 41.9211H692.796V45.0521H695.927V41.9211Z" fill="#333333"/>
<path d="M520.766 36.7744H517.636V39.9053H520.766V36.7744Z" fill="#333333"/>
<path d="M541.353 36.7744H538.222V39.9053H541.353V36.7744Z" fill="#333333"/>
<path d="M551.647 36.7744H548.516V39.9053H551.647V36.7744Z" fill="#333333"/>
<path d="M556.793 36.7744H553.662V39.9053H556.793V36.7744Z" fill="#333333"/>
<path d="M561.983 36.7744H558.852V39.9053H561.983V36.7744Z" fill="#333333"/>
<path d="M567.13 36.7744H563.999V39.9053H567.13V36.7744Z" fill="#333333"/>
<path d="M572.276 36.7744H569.145V39.9053H572.276V36.7744Z" fill="#333333"/>
<path d="M577.424 36.7744H574.293V39.9053H577.424V36.7744Z" fill="#333333"/>
<path d="M582.57 36.7744H579.439V39.9053H582.57V36.7744Z" fill="#333333"/>
<path d="M587.717 36.7744H584.586V39.9053H587.717V36.7744Z" fill="#333333"/>
<path d="M592.864 36.7744H589.733V39.9053H592.864V36.7744Z" fill="#333333"/>
<path d="M598.053 36.7744H594.922V39.9053H598.053V36.7744Z" fill="#333333"/>
<path d="M603.2 36.7744H600.069V39.9053H603.2V36.7744Z" fill="#333333"/>
<path d="M623.787 36.7744H620.656V39.9053H623.787V36.7744Z" fill="#333333"/>
<path d="M628.934 36.7744H625.803V39.9053H628.934V36.7744Z" fill="#333333"/>
<path d="M634.123 36.7744H630.992V39.9053H634.123V36.7744Z" fill="#333333"/>
<path d="M639.27 36.7744H636.139V39.9053H639.27V36.7744Z" fill="#333333"/>
<path d="M644.417 36.7744H641.286V39.9053H644.417V36.7744Z" fill="#333333"/>
<path d="M649.563 36.7744H646.433V39.9053H649.563V36.7744Z" fill="#333333"/>
<path d="M654.71 36.7744H651.579V39.9053H654.71V36.7744Z" fill="#333333"/>
<path d="M659.857 36.7744H656.726V39.9053H659.857V36.7744Z" fill="#333333"/>
<path d="M665.004 36.7744H661.873V39.9053H665.004V36.7744Z" fill="#333333"/>
<path d="M670.193 36.7744H667.062V39.9053H670.193V36.7744Z" fill="#333333"/>
<path d="M675.34 36.7744H672.209V39.9053H675.34V36.7744Z" fill="#333333"/>
<path d="M680.487 36.7744H677.356V39.9053H680.487V36.7744Z" fill="#333333"/>
<path d="M685.633 36.7744H682.502V39.9053H685.633V36.7744Z" fill="#333333"/>
<path d="M695.927 36.7744H692.796V39.9053H695.927V36.7744Z" fill="#333333"/>
<path d="M479.507 31.6276H476.376V34.7585H479.507V31.6276Z" fill="#333333"/>
<path d="M484.696 31.6276H481.565V34.7585H484.696V31.6276Z" fill="#333333"/>
<path d="M489.843 31.6276H486.712V34.7585H489.843V31.6276Z" fill="#333333"/>
<path d="M500.136 31.6276H497.005V34.7585H500.136V31.6276Z" fill="#333333"/>
<path d="M525.913 31.6276H522.783V34.7585H525.913V31.6276Z" fill="#333333"/>
<path d="M531.06 31.6276H527.929V34.7585H531.06V31.6276Z" fill="#333333"/>
<path d="M536.207 31.6276H533.076V34.7585H536.207V31.6276Z" fill="#333333"/>
<path d="M541.353 31.6276H538.222V34.7585H541.353V31.6276Z" fill="#333333"/>
<path d="M546.5 31.6276H543.369V34.7585H546.5V31.6276Z" fill="#333333"/>
<path d="M551.647 31.6276H548.516V34.7585H551.647V31.6276Z" fill="#333333"/>
<path d="M556.793 31.6276H553.662V34.7585H556.793V31.6276Z" fill="#333333"/>
<path d="M561.983 31.6276H558.852V34.7585H561.983V31.6276Z" fill="#333333"/>
<path d="M567.13 31.6276H563.999V34.7585H567.13V31.6276Z" fill="#333333"/>
<path d="M572.276 31.6276H569.145V34.7585H572.276V31.6276Z" fill="#333333"/>
<path d="M577.424 31.6276H574.293V34.7585H577.424V31.6276Z" fill="#333333"/>
<path d="M582.57 31.6276H579.439V34.7585H582.57V31.6276Z" fill="#333333"/>
<path d="M587.717 31.6276H584.586V34.7585H587.717V31.6276Z" fill="#333333"/>
<path d="M592.864 31.6276H589.733V34.7585H592.864V31.6276Z" fill="#333333"/>
<path d="M598.053 31.6276H594.922V34.7585H598.053V31.6276Z" fill="#333333"/>
<path d="M603.2 31.6276H600.069V34.7585H603.2V31.6276Z" fill="#333333"/>
<path d="M608.347 31.6276H605.216V34.7585H608.347V31.6276Z" fill="#333333"/>
<path d="M613.493 31.6276H610.362V34.7585H613.493V31.6276Z" fill="#333333"/>
<path d="M618.64 31.6276H615.509V34.7585H618.64V31.6276Z" fill="#333333"/>
<path d="M623.787 31.6276H620.656V34.7585H623.787V31.6276Z" fill="#333333"/>
<path d="M628.934 31.6276H625.803V34.7585H628.934V31.6276Z" fill="#333333"/>
<path d="M634.123 31.6276H630.992V34.7585H634.123V31.6276Z" fill="#333333"/>
<path d="M644.417 31.6276H641.286V34.7585H644.417V31.6276Z" fill="#333333"/>
<path d="M649.563 31.6276H646.433V34.7585H649.563V31.6276Z" fill="#333333"/>
<path d="M665.004 31.6276H661.873V34.7585H665.004V31.6276Z" fill="#333333"/>
<path d="M670.193 31.6276H667.062V34.7585H670.193V31.6276Z" fill="#333333"/>
<path d="M675.34 31.6276H672.209V34.7585H675.34V31.6276Z" fill="#333333"/>
<path d="M680.487 31.6276H677.356V34.7585H680.487V31.6276Z" fill="#333333"/>
<path d="M685.633 31.6276H682.502V34.7585H685.633V31.6276Z" fill="#333333"/>
<path d="M690.78 31.6276H687.649V34.7585H690.78V31.6276Z" fill="#333333"/>
<path d="M695.927 31.6276H692.796V34.7585H695.927V31.6276Z" fill="#333333"/>
<path d="M551.647 26.4808H548.516V29.6117H551.647V26.4808Z" fill="#333333"/>
<path d="M556.793 26.4808H553.662V29.6117H556.793V26.4808Z" fill="#333333"/>
<path d="M567.13 26.4808H563.999V29.6117H567.13V26.4808Z" fill="#333333"/>
<path d="M572.276 26.4808H569.145V29.6117H572.276V26.4808Z" fill="#333333"/>
<path d="M582.57 26.4808H579.439V29.6117H582.57V26.4808Z" fill="#333333"/>
<path d="M587.717 26.4808H584.586V29.6117H587.717V26.4808Z" fill="#333333"/>
<path d="M592.864 26.4808H589.733V29.6117H592.864V26.4808Z" fill="#333333"/>
<path d="M603.2 26.4808H600.069V29.6117H603.2V26.4808Z" fill="#333333"/>
<path d="M608.347 26.4808H605.216V29.6117H608.347V26.4808Z" fill="#333333"/>
<path d="M613.493 26.4808H610.362V29.6117H613.493V26.4808Z" fill="#333333"/>
<path d="M618.64 26.4808H615.509V29.6117H618.64V26.4808Z" fill="#333333"/>
<path d="M623.787 26.4808H620.656V29.6117H623.787V26.4808Z" fill="#333333"/>
<path d="M634.123 26.4808H630.992V29.6117H634.123V26.4808Z" fill="#333333"/>
<path d="M639.27 26.4808H636.139V29.6117H639.27V26.4808Z" fill="#333333"/>
<path d="M644.417 26.4808H641.286V29.6117H644.417V26.4808Z" fill="#333333"/>
<path d="M649.563 26.4808H646.433V29.6117H649.563V26.4808Z" fill="#333333"/>
<path d="M654.71 26.4808H651.579V29.6117H654.71V26.4808Z" fill="#333333"/>
<path d="M659.857 26.4808H656.726V29.6117H659.857V26.4808Z" fill="#333333"/>
<path d="M665.004 26.4808H661.873V29.6117H665.004V26.4808Z" fill="#333333"/>
<path d="M670.193 26.4808H667.062V29.6117H670.193V26.4808Z" fill="#333333"/>
<path d="M675.34 26.4808H672.209V29.6117H675.34V26.4808Z" fill="#333333"/>
<path d="M680.487 26.4808H677.356V29.6117H680.487V26.4808Z" fill="#333333"/>
<path d="M685.633 26.4808H682.502V29.6117H685.633V26.4808Z" fill="#333333"/>
<path d="M690.78 26.4808H687.649V29.6117H690.78V26.4808Z" fill="#333333"/>
<path d="M695.927 26.4808H692.796V29.6117H695.927V26.4808Z" fill="#333333"/>
<path d="M438.29 21.2911H435.159V24.4221H438.29V21.2911Z" fill="#333333"/>
<path d="M347.236 36.7314H344.105V39.8623H347.236V36.7314Z" fill="#333333"/>
<path d="M443.436 21.2911H440.305V24.4221H443.436V21.2911Z" fill="#333333"/>
<path d="M464.066 21.2911H460.936V24.4221H464.066V21.2911Z" fill="#333333"/>
<path d="M479.507 21.2911H476.376V24.4221H479.507V21.2911Z" fill="#333333"/>
<path d="M484.696 21.2911H481.565V24.4221H484.696V21.2911Z" fill="#333333"/>
<path d="M489.843 21.2911H486.712V24.4221H489.843V21.2911Z" fill="#333333"/>
<path d="M500.136 21.2911H497.005V24.4221H500.136V21.2911Z" fill="#333333"/>
<path d="M505.283 21.2911H502.152V24.4221H505.283V21.2911Z" fill="#333333"/>
<path d="M510.43 21.2911H507.299V24.4221H510.43V21.2911Z" fill="#333333"/>
<path d="M520.766 21.2911H517.636V24.4221H520.766V21.2911Z" fill="#333333"/>
<path d="M525.913 21.2911H522.783V24.4221H525.913V21.2911Z" fill="#333333"/>
<path d="M531.06 21.2911H527.929V24.4221H531.06V21.2911Z" fill="#333333"/>
<path d="M536.207 21.2911H533.076V24.4221H536.207V21.2911Z" fill="#333333"/>
<path d="M541.353 21.2911H538.222V24.4221H541.353V21.2911Z" fill="#333333"/>
<path d="M546.5 21.2911H543.369V24.4221H546.5V21.2911Z" fill="#333333"/>
<path d="M551.647 21.2911H548.516V24.4221H551.647V21.2911Z" fill="#333333"/>
<path d="M556.793 21.2911H553.662V24.4221H556.793V21.2911Z" fill="#333333"/>
<path d="M561.983 21.2911H558.852V24.4221H561.983V21.2911Z" fill="#333333"/>
<path d="M567.13 21.2911H563.999V24.4221H567.13V21.2911Z" fill="#333333"/>
<path d="M572.276 21.2911H569.145V24.4221H572.276V21.2911Z" fill="#333333"/>
<path d="M577.424 21.2911H574.293V24.4221H577.424V21.2911Z" fill="#333333"/>
<path d="M582.57 21.2911H579.439V24.4221H582.57V21.2911Z" fill="#333333"/>
<path d="M592.864 21.2911H589.733V24.4221H592.864V21.2911Z" fill="#333333"/>
<path d="M598.053 21.2911H594.922V24.4221H598.053V21.2911Z" fill="#333333"/>
<path d="M603.2 21.2911H600.069V24.4221H603.2V21.2911Z" fill="#333333"/>
<path d="M613.493 21.2911H610.362V24.4221H613.493V21.2911Z" fill="#333333"/>
<path d="M618.64 21.2911H615.509V24.4221H618.64V21.2911Z" fill="#333333"/>
<path d="M623.787 21.2911H620.656V24.4221H623.787V21.2911Z" fill="#333333"/>
<path d="M628.934 21.2911H625.803V24.4221H628.934V21.2911Z" fill="#333333"/>
<path d="M634.123 21.2911H630.992V24.4221H634.123V21.2911Z" fill="#333333"/>
<path d="M639.27 21.2911H636.139V24.4221H639.27V21.2911Z" fill="#333333"/>
<path d="M644.417 21.2911H641.286V24.4221H644.417V21.2911Z" fill="#333333"/>
<path d="M649.563 21.2911H646.433V24.4221H649.563V21.2911Z" fill="#333333"/>
<path d="M654.71 21.2911H651.579V24.4221H654.71V21.2911Z" fill="#333333"/>
<path d="M659.857 21.2911H656.726V24.4221H659.857V21.2911Z" fill="#333333"/>
<path d="M665.004 21.2911H661.873V24.4221H665.004V21.2911Z" fill="#333333"/>
<path d="M670.193 21.2911H667.062V24.4221H670.193V21.2911Z" fill="#333333"/>
<path d="M675.34 21.2911H672.209V24.4221H675.34V21.2911Z" fill="#333333"/>
<path d="M680.487 21.2911H677.356V24.4221H680.487V21.2911Z" fill="#333333"/>
<path d="M685.633 21.2911H682.502V24.4221H685.633V21.2911Z" fill="#333333"/>
<path d="M695.927 21.2911H692.796V24.4221H695.927V21.2911Z" fill="#333333"/>
<path d="M469.213 16.1445H466.082V19.2754H469.213V16.1445Z" fill="#333333"/>
<path d="M474.36 16.1445H471.229V19.2754H474.36V16.1445Z" fill="#333333"/>
<path d="M484.696 16.1445H481.565V19.2754H484.696V16.1445Z" fill="#333333"/>
<path d="M494.99 16.1445H491.859V19.2754H494.99V16.1445Z" fill="#333333"/>
<path d="M536.207 16.1445H533.076V19.2754H536.207V16.1445Z" fill="#333333"/>
<path d="M541.353 16.1445H538.222V19.2754H541.353V16.1445Z" fill="#333333"/>
<path d="M551.647 16.1445H548.516V19.2754H551.647V16.1445Z" fill="#333333"/>
<path d="M561.983 16.1445H558.852V19.2754H561.983V16.1445Z" fill="#333333"/>
<path d="M567.13 16.1445H563.999V19.2754H567.13V16.1445Z" fill="#333333"/>
<path d="M598.053 16.1445H594.922V19.2754H598.053V16.1445Z" fill="#333333"/>
<path d="M603.2 16.1445H600.069V19.2754H603.2V16.1445Z" fill="#333333"/>
<path d="M608.347 16.1445H605.216V19.2754H608.347V16.1445Z" fill="#333333"/>
<path d="M613.493 16.1445H610.362V19.2754H613.493V16.1445Z" fill="#333333"/>
<path d="M634.123 16.1445H630.992V19.2754H634.123V16.1445Z" fill="#333333"/>
<path d="M639.27 16.1445H636.139V19.2754H639.27V16.1445Z" fill="#333333"/>
<path d="M644.417 16.1445H641.286V19.2754H644.417V16.1445Z" fill="#333333"/>
<path d="M654.71 16.1445H651.579V19.2754H654.71V16.1445Z" fill="#333333"/>
<path d="M659.857 16.1445H656.726V19.2754H659.857V16.1445Z" fill="#333333"/>
<path d="M665.004 16.1445H661.873V19.2754H665.004V16.1445Z" fill="#333333"/>
<path d="M675.34 16.1445H672.209V19.2754H675.34V16.1445Z" fill="#333333"/>
<path d="M680.487 16.1445H677.356V19.2754H680.487V16.1445Z" fill="#333333"/>
<path d="M685.633 16.1445H682.502V19.2754H685.633V16.1445Z" fill="#333333"/>
<path d="M690.78 16.1445H687.649V19.2754H690.78V16.1445Z" fill="#333333"/>
<path d="M695.927 16.1445H692.796V19.2754H695.927V16.1445Z" fill="#333333"/>
<path d="M613.493 10.9977H610.362V14.1287H613.493V10.9977Z" fill="#333333"/>
<path d="M618.64 10.9977H615.509V14.1287H618.64V10.9977Z" fill="#333333"/>
<path d="M623.787 10.9977H620.656V14.1287H623.787V10.9977Z" fill="#333333"/>
<path d="M628.934 10.9977H625.803V14.1287H628.934V10.9977Z" fill="#333333"/>
<path d="M634.123 10.9977H630.992V14.1287H634.123V10.9977Z" fill="#333333"/>
<path d="M639.27 10.9977H636.139V14.1287H639.27V10.9977Z" fill="#333333"/>
<path d="M659.857 10.9977H656.726V14.1287H659.857V10.9977Z" fill="#333333"/>
<path d="M665.004 10.9977H661.873V14.1287H665.004V10.9977Z" fill="#333333"/>
<path d="M670.193 10.9977H667.062V14.1287H670.193V10.9977Z" fill="#333333"/>
<path d="M675.34 10.9977H672.209V14.1287H675.34V10.9977Z" fill="#333333"/>
<path d="M685.633 10.9977H682.502V14.1287H685.633V10.9977Z" fill="#333333"/>
<path d="M690.78 10.9977H687.649V14.1287H690.78V10.9977Z" fill="#333333"/>
<path d="M695.927 10.9977H692.796V14.1287H695.927V10.9977Z" fill="#333333"/>
<path d="M481.051 173.978H477.92V177.109H481.051V173.978Z" fill="#333333"/>
</g>
<path d="M74.3945 94.3477H75.1797C75.6406 94.3477 75.9648 94.4102 76.1523 94.5352C76.3398 94.6602 76.4336 94.8672 76.4336 95.1562C76.4336 95.4766 76.3516 95.6992 76.1875 95.8242C76.0234 95.9414 75.6641 96 75.1094 96H72.543H72.0156C71.7266 96 71.5078 95.9297 71.3594 95.7891C71.2188 95.6484 71.1484 95.4375 71.1484 95.1562C71.1484 94.8516 71.2305 94.6406 71.3945 94.5234C71.5664 94.4062 71.8867 94.3477 72.3555 94.3477H72.5664V83.7891H72.3789C71.9102 83.7891 71.5859 83.7266 71.4062 83.6016C71.2344 83.4766 71.1484 83.2578 71.1484 82.9453C71.1484 82.6562 71.2188 82.4453 71.3594 82.3125C71.5078 82.1719 71.7344 82.1016 72.0391 82.1016H72.543H74.9922C75.6172 82.1016 76.0117 82.1641 76.1758 82.2891C76.3477 82.4062 76.4336 82.625 76.4336 82.9453C76.4336 83.2578 76.3281 83.4766 76.1172 83.6016C75.9062 83.7266 75.5078 83.7891 74.9219 83.7891H74.3945V87.8672H80.0078V83.7891H79.2109C78.7656 83.7891 78.4453 83.7227 78.25 83.5898C78.0625 83.457 77.9688 83.2422 77.9688 82.9453C77.9688 82.625 78.0547 82.4062 78.2266 82.2891C78.4062 82.1641 78.8398 82.1016 79.5273 82.1016H81.8594H82.3867C82.668 82.1016 82.8789 82.1719 83.0195 82.3125C83.168 82.4531 83.2422 82.6641 83.2422 82.9453C83.2422 83.25 83.1602 83.4688 82.9961 83.6016C82.832 83.7266 82.5391 83.7891 82.1172 83.7891H81.8359V94.3477H82.0234C82.4922 94.3477 82.8125 94.4102 82.9844 94.5352C83.1562 94.6523 83.2422 94.8594 83.2422 95.1562C83.2422 95.4766 83.1602 95.6992 82.9961 95.8242C82.832 95.9414 82.4531 96 81.8594 96H79.4336C78.8008 96 78.3984 95.9414 78.2266 95.8242C78.0547 95.6992 77.9688 95.4766 77.9688 95.1562C77.9688 94.8516 78.0703 94.6406 78.2734 94.5234C78.4766 94.4062 78.8633 94.3477 79.4336 94.3477H80.0078V89.4727H74.3945V94.3477ZM87.6484 91.1016C87.7109 92.2266 88.0898 93.0977 88.7852 93.7148C89.4883 94.3242 90.4453 94.6289 91.6562 94.6289C92.5703 94.6289 93.5664 94.3867 94.6445 93.9023C95.7227 93.4102 96.375 93.1641 96.6016 93.1641C96.8359 93.1641 97.0312 93.2383 97.1875 93.3867C97.3438 93.5352 97.4219 93.7188 97.4219 93.9375C97.4219 94.1641 97.3398 94.3711 97.1758 94.5586C97.0117 94.7461 96.75 94.9297 96.3906 95.1094C95.6094 95.4922 94.8008 95.7852 93.9648 95.9883C93.1367 96.1914 92.3125 96.293 91.4922 96.293C89.7109 96.293 88.2852 95.7812 87.2148 94.7578C86.1445 93.7266 85.6094 92.3633 85.6094 90.668C85.6094 88.9414 86.1758 87.543 87.3086 86.4727C88.4414 85.4023 89.918 84.8672 91.7383 84.8672C93.3867 84.8672 94.7539 85.3672 95.8398 86.3672C96.9258 87.3672 97.4688 88.5781 97.4688 90C97.4688 90.4375 97.375 90.7305 97.1875 90.8789C97.0078 91.0273 96.5117 91.1016 95.6992 91.1016H95.5234H87.6484ZM87.707 89.5664H95.3359C95.2188 88.6367 94.8281 87.8906 94.1641 87.3281C93.5078 86.7578 92.6992 86.4727 91.7383 86.4727C90.6992 86.4727 89.8242 86.7461 89.1133 87.293C88.4023 87.8398 87.9336 88.5977 87.707 89.5664ZM105.145 99H105.648C106.219 99 106.605 99.0586 106.809 99.1758C107.012 99.3008 107.113 99.5234 107.113 99.8438C107.113 100.117 107.031 100.324 106.867 100.465C106.711 100.605 106.48 100.676 106.176 100.676H100.773C100.406 100.676 100.148 100.613 100 100.488C99.8594 100.363 99.7891 100.148 99.7891 99.8438C99.7891 99.5625 99.8633 99.3516 100.012 99.2109C100.168 99.0703 100.398 99 100.703 99H103.246L105.145 95.2617L100.844 86.8359C100.328 86.8359 99.9727 86.7734 99.7773 86.6484C99.5898 86.5234 99.4961 86.3047 99.4961 85.9922C99.4961 85.7188 99.5742 85.5156 99.7305 85.3828C99.8867 85.2422 100.121 85.1719 100.434 85.1719H103.703C104.141 85.1719 104.434 85.2344 104.582 85.3594C104.73 85.4766 104.805 85.6875 104.805 85.9922C104.805 86.3047 104.707 86.5234 104.512 86.6484C104.316 86.7734 103.957 86.8359 103.434 86.8359H103L106.176 93.293L109.41 86.8359H108.953C108.414 86.8359 108.043 86.7734 107.84 86.6484C107.637 86.5234 107.535 86.3047 107.535 85.9922C107.535 85.6875 107.609 85.4766 107.758 85.3594C107.906 85.2344 108.203 85.1719 108.648 85.1719H111.543C111.863 85.1719 112.098 85.2422 112.246 85.3828C112.402 85.5156 112.48 85.7188 112.48 85.9922C112.48 86.2891 112.395 86.5 112.223 86.625C112.051 86.75 111.746 86.8203 111.309 86.8359L105.145 99ZM130.469 86.8359C130.453 87.4219 130.383 87.7969 130.258 87.9609C130.141 88.1172 129.906 88.1953 129.555 88.1953C129.281 88.1953 129.074 88.125 128.934 87.9844C128.801 87.8359 128.734 87.6211 128.734 87.3398C128.734 87.3398 128.738 87.2812 128.746 87.1641C128.754 87.0391 128.758 86.9141 128.758 86.7891L128.875 82.9219C128.891 82.6328 128.969 82.4258 129.109 82.3008C129.25 82.168 129.469 82.1016 129.766 82.1016H139.949C140.246 82.1016 140.465 82.168 140.605 82.3008C140.746 82.4258 140.82 82.6328 140.828 82.9219L140.957 86.7891C140.957 86.9297 140.961 87.0625 140.969 87.1875C140.977 87.3125 140.98 87.3711 140.98 87.3633C140.98 87.6445 140.906 87.8555 140.758 87.9961C140.609 88.1289 140.387 88.1953 140.09 88.1953C139.777 88.1953 139.562 88.1172 139.445 87.9609C139.328 87.7969 139.262 87.4219 139.246 86.8359L139.129 83.7891H135.766V94.3477H137.57H138.027C138.355 94.3477 138.594 94.4141 138.742 94.5469C138.891 94.6719 138.965 94.875 138.965 95.1562C138.965 95.4297 138.895 95.6406 138.754 95.7891C138.613 95.9297 138.41 96 138.145 96H131.57C131.305 96 131.102 95.9297 130.961 95.7891C130.82 95.6406 130.75 95.4297 130.75 95.1562C130.75 94.8672 130.824 94.6602 130.973 94.5352C131.129 94.4102 131.391 94.3477 131.758 94.3477H132.145H133.949V83.7891H130.586L130.469 86.8359ZM144.859 94.3477V82.3477H144.637C144.105 82.3477 143.738 82.2852 143.535 82.1602C143.34 82.0352 143.242 81.8164 143.242 81.5039C143.242 81.2227 143.32 81.0117 143.477 80.8711C143.641 80.7305 143.875 80.6602 144.18 80.6602H145.961C146.172 80.6602 146.336 80.7031 146.453 80.7891C146.57 80.875 146.629 80.9922 146.629 81.1406V86.4492C147.199 85.918 147.762 85.5273 148.316 85.2773C148.879 85.0195 149.461 84.8906 150.062 84.8906C151.242 84.8906 152.168 85.2578 152.84 85.9922C153.52 86.7266 153.859 87.7422 153.859 89.0391V94.3477H154.41C154.801 94.3477 155.082 94.4141 155.254 94.5469C155.426 94.6719 155.512 94.875 155.512 95.1562C155.512 95.4375 155.434 95.6484 155.277 95.7891C155.121 95.9297 154.887 96 154.574 96H151.457C151.09 96 150.84 95.9414 150.707 95.8242C150.582 95.6992 150.52 95.4766 150.52 95.1562C150.52 94.8438 150.598 94.6328 150.754 94.5234C150.918 94.4062 151.223 94.3477 151.668 94.3477H152.078V89.4727C152.078 88.5586 151.871 87.8633 151.457 87.3867C151.043 86.9023 150.441 86.6602 149.652 86.6602C148.848 86.6602 148.141 86.9297 147.531 87.4688C146.93 88.0078 146.629 88.6758 146.629 89.4727V94.3477H147.039C147.508 94.3477 147.824 94.4062 147.988 94.5234C148.152 94.6406 148.234 94.8516 148.234 95.1562C148.234 95.4766 148.168 95.6992 148.035 95.8242C147.91 95.9414 147.664 96 147.297 96H144.18C143.875 96 143.645 95.9297 143.488 95.7891C143.34 95.6484 143.266 95.4375 143.266 95.1562C143.266 94.8438 143.355 94.6328 143.535 94.5234C143.723 94.4062 144.082 94.3477 144.613 94.3477H144.859ZM159.719 91.1016C159.781 92.2266 160.16 93.0977 160.855 93.7148C161.559 94.3242 162.516 94.6289 163.727 94.6289C164.641 94.6289 165.637 94.3867 166.715 93.9023C167.793 93.4102 168.445 93.1641 168.672 93.1641C168.906 93.1641 169.102 93.2383 169.258 93.3867C169.414 93.5352 169.492 93.7188 169.492 93.9375C169.492 94.1641 169.41 94.3711 169.246 94.5586C169.082 94.7461 168.82 94.9297 168.461 95.1094C167.68 95.4922 166.871 95.7852 166.035 95.9883C165.207 96.1914 164.383 96.293 163.562 96.293C161.781 96.293 160.355 95.7812 159.285 94.7578C158.215 93.7266 157.68 92.3633 157.68 90.668C157.68 88.9414 158.246 87.543 159.379 86.4727C160.512 85.4023 161.988 84.8672 163.809 84.8672C165.457 84.8672 166.824 85.3672 167.91 86.3672C168.996 87.3672 169.539 88.5781 169.539 90C169.539 90.4375 169.445 90.7305 169.258 90.8789C169.078 91.0273 168.582 91.1016 167.77 91.1016H167.594H159.719ZM159.777 89.5664H167.406C167.289 88.6367 166.898 87.8906 166.234 87.3281C165.578 86.7578 164.77 86.4727 163.809 86.4727C162.77 86.4727 161.895 86.7461 161.184 87.293C160.473 87.8398 160.004 88.5977 159.777 89.5664ZM176.945 94.3477H180.836C181.141 94.3477 181.363 94.4141 181.504 94.5469C181.652 94.6719 181.727 94.875 181.727 95.1562C181.727 95.4766 181.656 95.6992 181.516 95.8242C181.383 95.9414 181.133 96 180.766 96H173.102C172.797 96 172.566 95.9297 172.41 95.7891C172.254 95.6484 172.176 95.4375 172.176 95.1562C172.176 94.8828 172.254 94.6797 172.41 94.5469C172.574 94.4141 172.824 94.3477 173.16 94.3477H175.199V86.8359H174.402C173.645 86.8359 173.172 86.7773 172.984 86.6602C172.797 86.5352 172.703 86.3125 172.703 85.9922C172.703 85.7188 172.777 85.5156 172.926 85.3828C173.082 85.2422 173.316 85.1719 173.629 85.1719H176.301C176.512 85.1719 176.672 85.2148 176.781 85.3008C176.891 85.3789 176.945 85.4961 176.945 85.6523V87.6445C177.688 86.7148 178.461 86.0234 179.266 85.5703C180.07 85.1172 180.938 84.8906 181.867 84.8906C182.562 84.8906 183.125 85.0312 183.555 85.3125C183.984 85.5938 184.199 85.957 184.199 86.4023C184.199 86.6914 184.09 86.9492 183.871 87.1758C183.66 87.3945 183.426 87.5039 183.168 87.5039C182.988 87.5039 182.684 87.3867 182.254 87.1523C181.832 86.9102 181.453 86.7891 181.117 86.7891C180.508 86.7891 179.863 87.0078 179.184 87.4453C178.512 87.875 177.766 88.5586 176.945 89.4961V94.3477ZM188.547 91.1016C188.609 92.2266 188.988 93.0977 189.684 93.7148C190.387 94.3242 191.344 94.6289 192.555 94.6289C193.469 94.6289 194.465 94.3867 195.543 93.9023C196.621 93.4102 197.273 93.1641 197.5 93.1641C197.734 93.1641 197.93 93.2383 198.086 93.3867C198.242 93.5352 198.32 93.7188 198.32 93.9375C198.32 94.1641 198.238 94.3711 198.074 94.5586C197.91 94.7461 197.648 94.9297 197.289 95.1094C196.508 95.4922 195.699 95.7852 194.863 95.9883C194.035 96.1914 193.211 96.293 192.391 96.293C190.609 96.293 189.184 95.7812 188.113 94.7578C187.043 93.7266 186.508 92.3633 186.508 90.668C186.508 88.9414 187.074 87.543 188.207 86.4727C189.34 85.4023 190.816 84.8672 192.637 84.8672C194.285 84.8672 195.652 85.3672 196.738 86.3672C197.824 87.3672 198.367 88.5781 198.367 90C198.367 90.4375 198.273 90.7305 198.086 90.8789C197.906 91.0273 197.41 91.1016 196.598 91.1016H196.422H188.547ZM188.605 89.5664H196.234C196.117 88.6367 195.727 87.8906 195.062 87.3281C194.406 86.7578 193.598 86.4727 192.637 86.4727C191.598 86.4727 190.723 86.7461 190.012 87.293C189.301 87.8398 188.832 88.5977 188.605 89.5664ZM80.7578 122.348C81.3594 122.348 81.7422 122.406 81.9062 122.523C82.0781 122.633 82.1641 122.844 82.1641 123.156C82.1641 123.477 82.0781 123.699 81.9062 123.824C81.7422 123.941 81.3594 124 80.7578 124H73.6445H73.0938C72.8125 124 72.5977 123.93 72.4492 123.789C72.3008 123.648 72.2266 123.438 72.2266 123.156C72.2266 122.844 72.3125 122.633 72.4844 122.523C72.6562 122.406 73.043 122.348 73.6445 122.348H76.293V111.789H73.6445C73.0586 111.789 72.6758 111.73 72.4961 111.613C72.3164 111.488 72.2266 111.266 72.2266 110.945C72.2266 110.656 72.3008 110.445 72.4492 110.312C72.5977 110.172 72.8203 110.102 73.1172 110.102H73.6445H80.7578H81.3086C81.5898 110.102 81.8008 110.172 81.9414 110.312C82.0898 110.453 82.1641 110.664 82.1641 110.945C82.1641 111.266 82.0742 111.488 81.8945 111.613C81.7227 111.73 81.3438 111.789 80.7578 111.789H78.1094V122.348H80.7578ZM90.8477 110.629C90.9023 110.41 90.9688 110.27 91.0469 110.207C91.1328 110.137 91.2734 110.102 91.4688 110.102H93.5547C93.6484 110.102 93.7227 110.125 93.7773 110.172C93.8398 110.211 93.8711 110.262 93.8711 110.324C93.8711 110.371 93.8633 110.418 93.8477 110.465C93.8398 110.504 93.8242 110.543 93.8008 110.582L91.1523 116.055C91.1133 116.156 91.0586 116.234 90.9883 116.289C90.918 116.344 90.8398 116.371 90.7539 116.371C90.6992 116.371 90.6602 116.371 90.6367 116.371C90.6133 116.363 90.5859 116.355 90.5547 116.348L89.8867 116.078C89.7773 116.047 89.6914 116.004 89.6289 115.949C89.5742 115.887 89.5469 115.816 89.5469 115.738C89.5469 115.691 89.5625 115.621 89.5938 115.527C89.5938 115.504 89.5938 115.488 89.5938 115.48L90.8477 110.629ZM110.371 117.473C110.371 116.371 110.27 115.629 110.066 115.246C109.871 114.855 109.531 114.66 109.047 114.66C108.469 114.66 108.008 114.91 107.664 115.41C107.328 115.91 107.16 116.598 107.16 117.473V122.348H107.371C107.848 122.348 108.164 122.406 108.32 122.523C108.484 122.633 108.566 122.844 108.566 123.156C108.566 123.438 108.5 123.648 108.367 123.789C108.234 123.93 108.031 124 107.758 124H106.27C105.934 124 105.703 123.922 105.578 123.766C105.461 123.609 105.402 123.273 105.402 122.758V122.418V117.473V116.559C105.402 115.973 105.27 115.512 105.004 115.176C104.738 114.832 104.375 114.66 103.914 114.66C103.562 114.66 103.238 114.766 102.941 114.977C102.652 115.18 102.402 115.484 102.191 115.891V122.348H102.625C103.094 122.348 103.41 122.406 103.574 122.523C103.738 122.641 103.82 122.852 103.82 123.156C103.82 123.477 103.754 123.699 103.621 123.824C103.488 123.941 103.234 124 102.859 124H99.7422C99.4375 124 99.2109 123.934 99.0625 123.801C98.9219 123.66 98.8516 123.445 98.8516 123.156C98.8516 122.844 98.9414 122.633 99.1211 122.523C99.3086 122.406 99.668 122.348 100.199 122.348H100.434V114.836H100.223C99.6758 114.836 99.3008 114.773 99.0977 114.648C98.9023 114.523 98.8047 114.305 98.8047 113.992C98.8047 113.719 98.8828 113.516 99.0391 113.383C99.1953 113.242 99.4297 113.172 99.7422 113.172H101.535C101.793 113.172 101.961 113.219 102.039 113.312C102.125 113.398 102.176 113.586 102.191 113.875C102.512 113.531 102.855 113.277 103.223 113.113C103.59 112.949 104.004 112.867 104.465 112.867C105.012 112.867 105.461 112.988 105.812 113.23C106.172 113.465 106.438 113.824 106.609 114.309C106.938 113.816 107.316 113.453 107.746 113.219C108.176 112.984 108.668 112.867 109.223 112.867C110.23 112.867 110.965 113.195 111.426 113.852C111.895 114.508 112.129 115.57 112.129 117.039V122.348H112.316C112.801 122.348 113.125 122.406 113.289 122.523C113.453 122.641 113.535 122.852 113.535 123.156C113.535 123.438 113.465 123.648 113.324 123.789C113.184 123.93 112.977 124 112.703 124H111.285C110.973 124 110.742 123.906 110.594 123.719C110.445 123.531 110.371 123.234 110.371 122.828V117.473ZM132.438 118H137.23L134.711 111.789L132.438 118ZM133.035 111.789H131.324C130.848 111.789 130.512 111.727 130.316 111.602C130.129 111.469 130.035 111.25 130.035 110.945C130.035 110.625 130.117 110.406 130.281 110.289C130.453 110.164 130.914 110.102 131.664 110.102H135.004C135.434 110.102 135.723 110.16 135.871 110.277C136.027 110.387 136.168 110.594 136.293 110.898L140.875 122.348H141.074C141.496 122.348 141.785 122.406 141.941 122.523C142.098 122.641 142.176 122.852 142.176 123.156C142.176 123.477 142.102 123.699 141.953 123.824C141.805 123.941 141.527 124 141.121 124H137.934C137.34 124 136.957 123.941 136.785 123.824C136.621 123.699 136.539 123.477 136.539 123.156C136.539 122.859 136.629 122.652 136.809 122.535C136.996 122.41 137.344 122.348 137.852 122.348H138.941L137.805 119.559H131.852L130.844 122.348H131.98C132.496 122.348 132.848 122.41 133.035 122.535C133.223 122.652 133.316 122.859 133.316 123.156C133.316 123.477 133.23 123.699 133.059 123.824C132.895 123.941 132.527 124 131.957 124H128.875C128.375 124 128.043 123.941 127.879 123.824C127.715 123.699 127.633 123.477 127.633 123.156C127.633 122.852 127.715 122.641 127.879 122.523C128.043 122.406 128.359 122.348 128.828 122.348H129.051L133.035 111.789ZM144.883 114.836C144.867 115.422 144.797 115.797 144.672 115.961C144.555 116.117 144.32 116.195 143.969 116.195C143.695 116.195 143.488 116.125 143.348 115.984C143.215 115.836 143.148 115.621 143.148 115.34C143.148 115.34 143.152 115.281 143.16 115.164C143.168 115.039 143.172 114.914 143.172 114.789L143.289 110.922C143.305 110.633 143.383 110.426 143.523 110.301C143.664 110.168 143.883 110.102 144.18 110.102H154.363C154.66 110.102 154.879 110.168 155.02 110.301C155.16 110.426 155.234 110.633 155.242 110.922L155.371 114.789C155.371 114.93 155.375 115.062 155.383 115.188C155.391 115.312 155.395 115.371 155.395 115.363C155.395 115.645 155.32 115.855 155.172 115.996C155.023 116.129 154.801 116.195 154.504 116.195C154.191 116.195 153.977 116.117 153.859 115.961C153.742 115.797 153.676 115.422 153.66 114.836L153.543 111.789H150.18V122.348H151.984H152.441C152.77 122.348 153.008 122.414 153.156 122.547C153.305 122.672 153.379 122.875 153.379 123.156C153.379 123.43 153.309 123.641 153.168 123.789C153.027 123.93 152.824 124 152.559 124H145.984C145.719 124 145.516 123.93 145.375 123.789C145.234 123.641 145.164 123.43 145.164 123.156C145.164 122.867 145.238 122.66 145.387 122.535C145.543 122.41 145.805 122.348 146.172 122.348H146.559H148.363V111.789H145L144.883 114.836ZM167.242 122.348C167.844 122.348 168.227 122.406 168.391 122.523C168.562 122.633 168.648 122.844 168.648 123.156C168.648 123.477 168.562 123.699 168.391 123.824C168.227 123.941 167.844 124 167.242 124H160.129H159.578C159.297 124 159.082 123.93 158.934 123.789C158.785 123.648 158.711 123.438 158.711 123.156C158.711 122.844 158.797 122.633 158.969 122.523C159.141 122.406 159.527 122.348 160.129 122.348H162.777V111.789H160.129C159.543 111.789 159.16 111.73 158.98 111.613C158.801 111.488 158.711 111.266 158.711 110.945C158.711 110.656 158.785 110.445 158.934 110.312C159.082 110.172 159.305 110.102 159.602 110.102H160.129H167.242H167.793C168.074 110.102 168.285 110.172 168.426 110.312C168.574 110.453 168.648 110.664 168.648 110.945C168.648 111.266 168.559 111.488 168.379 111.613C168.207 111.73 167.828 111.789 167.242 111.789H164.594V122.348H167.242ZM174.672 123.59C174.633 123.941 174.543 124.184 174.402 124.316C174.262 124.457 174.039 124.527 173.734 124.527C173.406 124.527 173.16 124.43 172.996 124.234C172.84 124.047 172.75 123.738 172.727 123.309L172.574 120.59V120.379C172.574 120.004 172.645 119.738 172.785 119.582C172.934 119.426 173.176 119.348 173.512 119.348C173.98 119.348 174.316 119.684 174.52 120.355C174.613 120.691 174.703 120.945 174.789 121.117C175.062 121.664 175.492 122.086 176.078 122.383C176.672 122.68 177.379 122.828 178.199 122.828C179.207 122.828 180.023 122.59 180.648 122.113C181.281 121.637 181.598 121.027 181.598 120.285C181.598 119.668 181.402 119.172 181.012 118.797C180.629 118.422 180.066 118.18 179.324 118.07L177.59 117.836C175.973 117.609 174.793 117.184 174.051 116.559C173.309 115.934 172.938 115.055 172.938 113.922C172.938 112.727 173.43 111.723 174.414 110.91C175.406 110.098 176.641 109.691 178.117 109.691C178.547 109.691 179 109.75 179.477 109.867C179.953 109.977 180.492 110.152 181.094 110.395C181.109 110.168 181.172 110.012 181.281 109.926C181.391 109.84 181.578 109.797 181.844 109.797C182.188 109.797 182.426 109.848 182.559 109.949C182.691 110.051 182.773 110.293 182.805 110.676L182.969 113.125V113.242C182.969 113.516 182.891 113.73 182.734 113.887C182.578 114.035 182.359 114.109 182.078 114.109C181.664 114.109 181.344 113.82 181.117 113.242C181.008 112.914 180.898 112.668 180.789 112.504C180.531 112.113 180.16 111.812 179.676 111.602C179.191 111.391 178.641 111.285 178.023 111.285C177.078 111.285 176.309 111.52 175.715 111.988C175.129 112.457 174.836 113.07 174.836 113.828C174.836 114.422 175.055 114.891 175.492 115.234C175.938 115.578 176.613 115.812 177.52 115.938L179.395 116.172C180.754 116.352 181.777 116.77 182.465 117.426C183.152 118.074 183.496 118.953 183.496 120.062C183.496 121.375 183.008 122.43 182.031 123.227C181.055 124.016 179.75 124.41 178.117 124.41C177.555 124.41 176.996 124.344 176.441 124.211C175.887 124.078 175.297 123.871 174.672 123.59ZM189.707 122.348H190.492C190.953 122.348 191.277 122.41 191.465 122.535C191.652 122.66 191.746 122.867 191.746 123.156C191.746 123.477 191.664 123.699 191.5 123.824C191.336 123.941 190.977 124 190.422 124H187.855H187.328C187.039 124 186.82 123.93 186.672 123.789C186.531 123.648 186.461 123.438 186.461 123.156C186.461 122.852 186.543 122.641 186.707 122.523C186.879 122.406 187.199 122.348 187.668 122.348H187.879V111.789H187.691C187.223 111.789 186.898 111.727 186.719 111.602C186.547 111.477 186.461 111.258 186.461 110.945C186.461 110.656 186.531 110.445 186.672 110.312C186.82 110.172 187.047 110.102 187.352 110.102H187.855H190.305C190.93 110.102 191.324 110.164 191.488 110.289C191.66 110.406 191.746 110.625 191.746 110.945C191.746 111.258 191.641 111.477 191.43 111.602C191.219 111.727 190.82 111.789 190.234 111.789H189.707V115.867H195.32V111.789H194.523C194.078 111.789 193.758 111.723 193.562 111.59C193.375 111.457 193.281 111.242 193.281 110.945C193.281 110.625 193.367 110.406 193.539 110.289C193.719 110.164 194.152 110.102 194.84 110.102H197.172H197.699C197.98 110.102 198.191 110.172 198.332 110.312C198.48 110.453 198.555 110.664 198.555 110.945C198.555 111.25 198.473 111.469 198.309 111.602C198.145 111.727 197.852 111.789 197.43 111.789H197.148V122.348H197.336C197.805 122.348 198.125 122.41 198.297 122.535C198.469 122.652 198.555 122.859 198.555 123.156C198.555 123.477 198.473 123.699 198.309 123.824C198.145 123.941 197.766 124 197.172 124H194.746C194.113 124 193.711 123.941 193.539 123.824C193.367 123.699 193.281 123.477 193.281 123.156C193.281 122.852 193.383 122.641 193.586 122.523C193.789 122.406 194.176 122.348 194.746 122.348H195.32V117.473H189.707V122.348ZM204.508 118H209.301L206.781 111.789L204.508 118ZM205.105 111.789H203.395C202.918 111.789 202.582 111.727 202.387 111.602C202.199 111.469 202.105 111.25 202.105 110.945C202.105 110.625 202.188 110.406 202.352 110.289C202.523 110.164 202.984 110.102 203.734 110.102H207.074C207.504 110.102 207.793 110.16 207.941 110.277C208.098 110.387 208.238 110.594 208.363 110.898L212.945 122.348H213.145C213.566 122.348 213.855 122.406 214.012 122.523C214.168 122.641 214.246 122.852 214.246 123.156C214.246 123.477 214.172 123.699 214.023 123.824C213.875 123.941 213.598 124 213.191 124H210.004C209.41 124 209.027 123.941 208.855 123.824C208.691 123.699 208.609 123.477 208.609 123.156C208.609 122.859 208.699 122.652 208.879 122.535C209.066 122.41 209.414 122.348 209.922 122.348H211.012L209.875 119.559H203.922L202.914 122.348H204.051C204.566 122.348 204.918 122.41 205.105 122.535C205.293 122.652 205.387 122.859 205.387 123.156C205.387 123.477 205.301 123.699 205.129 123.824C204.965 123.941 204.598 124 204.027 124H200.945C200.445 124 200.113 123.941 199.949 123.824C199.785 123.699 199.703 123.477 199.703 123.156C199.703 122.852 199.785 122.641 199.949 122.523C200.113 122.406 200.43 122.348 200.898 122.348H201.121L205.105 111.789ZM223.914 122.348C224.516 122.348 224.898 122.406 225.062 122.523C225.234 122.633 225.32 122.844 225.32 123.156C225.32 123.477 225.234 123.699 225.062 123.824C224.898 123.941 224.562 124 224.055 124H218.488C217.98 124 217.645 123.941 217.48 123.824C217.316 123.699 217.234 123.477 217.234 123.156C217.234 122.844 217.324 122.633 217.504 122.523C217.691 122.406 218.074 122.348 218.652 122.348H220.352V118.457L216.449 111.789H216.25C215.781 111.789 215.461 111.727 215.289 111.602C215.117 111.477 215.031 111.258 215.031 110.945C215.031 110.656 215.102 110.445 215.242 110.312C215.391 110.172 215.617 110.102 215.922 110.102H216.449H219.133C219.594 110.102 219.902 110.164 220.059 110.289C220.223 110.414 220.305 110.633 220.305 110.945C220.305 111.258 220.207 111.477 220.012 111.602C219.824 111.727 219.477 111.789 218.969 111.789H218.582L221.418 116.875L224.359 111.789H223.879C223.457 111.789 223.164 111.727 223 111.602C222.836 111.477 222.754 111.258 222.754 110.945C222.754 110.617 222.824 110.395 222.965 110.277C223.105 110.16 223.461 110.102 224.031 110.102H224.336H226.188C226.781 110.102 227.16 110.164 227.324 110.289C227.496 110.406 227.582 110.625 227.582 110.945C227.582 111.258 227.496 111.477 227.324 111.602C227.16 111.727 226.844 111.789 226.375 111.789H226.188L222.203 118.621V122.348H223.914ZM251.945 111.789H248.781C248.195 111.789 247.816 111.73 247.645 111.613C247.473 111.488 247.387 111.266 247.387 110.945C247.387 110.656 247.453 110.445 247.586 110.312C247.727 110.172 247.949 110.102 248.254 110.102H248.781H255.309H255.859C256.141 110.102 256.348 110.172 256.48 110.312C256.621 110.453 256.691 110.664 256.691 110.945C256.691 111.266 256.605 111.488 256.434 111.613C256.262 111.73 255.887 111.789 255.309 111.789H253.797V119.277C253.797 121.066 253.418 122.359 252.66 123.156C251.902 123.945 250.68 124.34 248.992 124.34C248.258 124.34 247.559 124.254 246.895 124.082C246.23 123.918 245.57 123.66 244.914 123.309C244.641 123.16 244.461 123.016 244.375 122.875C244.289 122.727 244.246 122.461 244.246 122.078V119.324C244.246 118.777 244.301 118.438 244.41 118.305C244.527 118.164 244.727 118.094 245.008 118.094C245.195 118.094 245.355 118.133 245.488 118.211C245.621 118.281 245.719 118.387 245.781 118.527C245.812 118.605 245.836 118.699 245.852 118.809C245.867 118.918 245.875 119.113 245.875 119.395V119.512C245.875 119.77 245.887 120.008 245.91 120.227C245.934 120.438 245.969 120.648 246.016 120.859C246.188 121.477 246.527 121.965 247.035 122.324C247.543 122.676 248.156 122.852 248.875 122.852C249.953 122.852 250.734 122.551 251.219 121.949C251.703 121.34 251.945 120.352 251.945 118.984V111.789ZM262.164 118H266.957L264.438 111.789L262.164 118ZM262.762 111.789H261.051C260.574 111.789 260.238 111.727 260.043 111.602C259.855 111.469 259.762 111.25 259.762 110.945C259.762 110.625 259.844 110.406 260.008 110.289C260.18 110.164 260.641 110.102 261.391 110.102H264.73C265.16 110.102 265.449 110.16 265.598 110.277C265.754 110.387 265.895 110.594 266.02 110.898L270.602 122.348H270.801C271.223 122.348 271.512 122.406 271.668 122.523C271.824 122.641 271.902 122.852 271.902 123.156C271.902 123.477 271.828 123.699 271.68 123.824C271.531 123.941 271.254 124 270.848 124H267.66C267.066 124 266.684 123.941 266.512 123.824C266.348 123.699 266.266 123.477 266.266 123.156C266.266 122.859 266.355 122.652 266.535 122.535C266.723 122.41 267.07 122.348 267.578 122.348H268.668L267.531 119.559H261.578L260.57 122.348H261.707C262.223 122.348 262.574 122.41 262.762 122.535C262.949 122.652 263.043 122.859 263.043 123.156C263.043 123.477 262.957 123.699 262.785 123.824C262.621 123.941 262.254 124 261.684 124H258.602C258.102 124 257.77 123.941 257.605 123.824C257.441 123.699 257.359 123.477 257.359 123.156C257.359 122.852 257.441 122.641 257.605 122.523C257.77 122.406 258.086 122.348 258.555 122.348H258.777L262.762 111.789ZM282.555 122.348C283.156 122.348 283.539 122.406 283.703 122.523C283.875 122.633 283.961 122.844 283.961 123.156C283.961 123.477 283.875 123.699 283.703 123.824C283.539 123.941 283.156 124 282.555 124H275.441H274.891C274.609 124 274.395 123.93 274.246 123.789C274.098 123.648 274.023 123.438 274.023 123.156C274.023 122.844 274.109 122.633 274.281 122.523C274.453 122.406 274.84 122.348 275.441 122.348H278.09V111.789H275.441C274.855 111.789 274.473 111.73 274.293 111.613C274.113 111.488 274.023 111.266 274.023 110.945C274.023 110.656 274.098 110.445 274.246 110.312C274.395 110.172 274.617 110.102 274.914 110.102H275.441H282.555H283.105C283.387 110.102 283.598 110.172 283.738 110.312C283.887 110.453 283.961 110.664 283.961 110.945C283.961 111.266 283.871 111.488 283.691 111.613C283.52 111.73 283.141 111.789 282.555 111.789H279.906V122.348H282.555ZM290.219 122.348H290.816H291.684C292.105 122.348 292.406 122.41 292.586 122.535C292.766 122.66 292.855 122.867 292.855 123.156C292.855 123.477 292.77 123.699 292.598 123.824C292.434 123.941 292.066 124 291.496 124H288.566H288.016C287.734 124 287.523 123.93 287.383 123.789C287.242 123.648 287.172 123.438 287.172 123.156C287.172 122.844 287.25 122.633 287.406 122.523C287.57 122.406 287.883 122.348 288.344 122.348H288.566V111.789H288.273C287.617 111.789 287.172 111.727 286.938 111.602C286.711 111.477 286.598 111.258 286.598 110.945C286.598 110.656 286.695 110.449 286.891 110.324C287.094 110.191 287.418 110.125 287.863 110.125C287.863 110.125 287.941 110.121 288.098 110.113C288.254 110.105 288.41 110.102 288.566 110.102H289.668C290.027 110.102 290.277 110.145 290.418 110.23C290.566 110.309 290.738 110.516 290.934 110.852L296.84 121.047V111.789H296.383H295.551C295.129 111.789 294.82 111.723 294.625 111.59C294.438 111.449 294.344 111.234 294.344 110.945C294.344 110.625 294.426 110.406 294.59 110.289C294.754 110.164 295.098 110.102 295.621 110.102H298.422H298.984C299.266 110.102 299.473 110.172 299.605 110.312C299.746 110.453 299.816 110.664 299.816 110.945C299.816 111.258 299.73 111.477 299.559 111.602C299.395 111.727 299.09 111.789 298.645 111.789H298.504V123.59C298.504 123.816 298.449 123.973 298.34 124.059C298.238 124.145 297.996 124.188 297.613 124.188C297.23 124.188 296.992 124.164 296.898 124.117C296.812 124.078 296.664 123.879 296.453 123.52L290.219 112.773V122.348Z" fill="#333333"/>
</g>
<defs>
<filter id="filter0_d" x="0.402235" y="0.13532" width="714.031" height="204.504" filterUnits="userSpaceOnUse" color-interpolation-filters="sRGB">
<feFlood flood-opacity="0" result="BackgroundImageFix"/>
<feColorMatrix in="SourceAlpha" type="matrix" values="0 0 0 0 0 0 0 0 0 0 0 0 0 0 0 0 0 0 127 0"/>
<feOffset dx="1.73309" dy="3.46617"/>
<feGaussianBlur stdDeviation="8.66543"/>
<feColorMatrix type="matrix" values="0 0 0 0 0 0 0 0 0 0 0 0 0 0 0 0 0 0 0.25 0"/>
<feBlend mode="normal" in2="BackgroundImageFix" result="effect1_dropShadow"/>
<feBlend mode="normal" in="SourceGraphic" in2="effect1_dropShadow" result="shape"/>
</filter>
<clipPath id="clip0">
<rect width="679.369" height="169.842" fill="white" transform="translate(16 14)"/>
</clipPath>
<clipPath id="clip1">
<rect width="590.545" height="435.972" fill="white" transform="translate(311.509 5.85095)"/>
</clipPath>
</defs>
</svg>
