<svg width="214" height="80" viewBox="0 0 214 80" fill="none" xmlns="http://www.w3.org/2000/svg">
<g clip-path="url(#clip0)" filter="url(#filter0_d)">
<rect width="178" height="45" transform="translate(16 14)" fill="#F2F2F2"/>
<g opacity="0.9">
<path d="M175.61 58.5794H175.212V59.2617H175.61V58.5794Z" fill="#333333"/>
<path d="M176.263 58.5794H175.866V59.2617H176.263V58.5794Z" fill="#333333"/>
<path d="M177.576 58.5794H177.178V59.2617H177.576V58.5794Z" fill="#333333"/>
<path d="M180.191 58.5794H179.793V59.2617H180.191V58.5794Z" fill="#333333"/>
<path d="M180.844 58.5794H180.447V59.2617H180.844V58.5794Z" fill="#333333"/>
<path d="M182.151 58.5794H181.754V59.2617H182.151V58.5794Z" fill="#333333"/>
<path d="M187.392 58.5794H186.994V59.2617H187.392V58.5794Z" fill="#333333"/>
<path d="M189.352 58.5794H188.955V59.2617H189.352V58.5794Z" fill="#333333"/>
<path d="M191.972 58.5794H191.575V59.2617H191.972V58.5794Z" fill="#333333"/>
<path d="M193.933 58.5794H193.536V59.2617H193.933V58.5794Z" fill="#333333"/>
<path d="M193.28 57.458H192.882V58.1403H193.28V57.458Z" fill="#333333"/>
<path d="M180.191 56.3365H179.793V57.0187H180.191V56.3365Z" fill="#333333"/>
<path d="M181.498 56.3365H181.1V57.0187H181.498V56.3365Z" fill="#333333"/>
<path d="M182.151 56.3365H181.754V57.0187H182.151V56.3365Z" fill="#333333"/>
<path d="M182.811 56.3365H182.413V57.0187H182.811V56.3365Z" fill="#333333"/>
<path d="M185.425 56.3365H185.028V57.0187H185.425V56.3365Z" fill="#333333"/>
<path d="M186.732 56.3365H186.335V57.0187H186.732V56.3365Z" fill="#333333"/>
<path d="M187.392 56.3365H186.994V57.0187H187.392V56.3365Z" fill="#333333"/>
<path d="M188.045 56.3365H187.647V57.0187H188.045V56.3365Z" fill="#333333"/>
<path d="M190.006 56.3365H189.608V57.0187H190.006V56.3365Z" fill="#333333"/>
<path d="M190.66 56.3365H190.262V57.0187H190.66V56.3365Z" fill="#333333"/>
<path d="M191.313 56.3365H190.916V57.0187H191.313V56.3365Z" fill="#333333"/>
<path d="M191.972 56.3365H191.575V57.0187H191.972V56.3365Z" fill="#333333"/>
<path d="M167.755 55.2056H167.357V55.8878H167.755V55.2056Z" fill="#333333"/>
<path d="M169.721 55.2056H169.324V55.8878H169.721V55.2056Z" fill="#333333"/>
<path d="M172.995 55.2056H172.597V55.8878H172.995V55.2056Z" fill="#333333"/>
<path d="M174.956 55.2056H174.558V55.8878H174.956V55.2056Z" fill="#333333"/>
<path d="M175.61 55.2056H175.212V55.8878H175.61V55.2056Z" fill="#333333"/>
<path d="M178.23 55.2056H177.832V55.8878H178.23V55.2056Z" fill="#333333"/>
<path d="M171.682 54.0842H171.285V54.7664H171.682V54.0842Z" fill="#333333"/>
<path d="M172.336 54.0842H171.938V54.7664H172.336V54.0842Z" fill="#333333"/>
<path d="M172.995 54.0842H172.597V54.7664H172.995V54.0842Z" fill="#333333"/>
<path d="M174.302 54.0842H173.905V54.7664H174.302V54.0842Z" fill="#333333"/>
<path d="M175.61 54.0842H175.212V54.7664H175.61V54.0842Z" fill="#333333"/>
<path d="M176.263 54.0842H175.866V54.7664H176.263V54.0842Z" fill="#333333"/>
<path d="M177.576 54.0842H177.178V54.7664H177.576V54.0842Z" fill="#333333"/>
<path d="M178.23 54.0842H177.832V54.7664H178.23V54.0842Z" fill="#333333"/>
<path d="M178.883 54.0842H178.486V54.7664H178.883V54.0842Z" fill="#333333"/>
<path d="M182.811 54.0842H182.413V54.7664H182.811V54.0842Z" fill="#333333"/>
<path d="M187.392 54.0842H186.994V54.7664H187.392V54.0842Z" fill="#333333"/>
<path d="M188.045 54.0842H187.647V54.7664H188.045V54.0842Z" fill="#333333"/>
<path d="M188.699 54.0842H188.301V54.7664H188.699V54.0842Z" fill="#333333"/>
<path d="M190.006 54.0842H189.608V54.7664H190.006V54.0842Z" fill="#333333"/>
<path d="M190.66 54.0842H190.262V54.7664H190.66V54.0842Z" fill="#333333"/>
<path d="M191.313 54.0842H190.916V54.7664H191.313V54.0842Z" fill="#333333"/>
<path d="M191.972 54.0842H191.575V54.7664H191.972V54.0842Z" fill="#333333"/>
<path d="M192.626 54.0842H192.228V54.7664H192.626V54.0842Z" fill="#333333"/>
<path d="M193.933 54.0842H193.536V54.7664H193.933V54.0842Z" fill="#333333"/>
<path d="M167.101 52.9626H166.704V53.6449H167.101V52.9626Z" fill="#333333"/>
<path d="M178.23 52.9626H177.832V53.6449H178.23V52.9626Z" fill="#333333"/>
<path d="M182.811 52.9626H182.413V53.6449H182.811V52.9626Z" fill="#333333"/>
<path d="M183.464 52.9626H183.067V53.6449H183.464V52.9626Z" fill="#333333"/>
<path d="M184.118 52.9626H183.72V53.6449H184.118V52.9626Z" fill="#333333"/>
<path d="M178.883 51.8412H178.486V52.5234H178.883V51.8412Z" fill="#333333"/>
<path d="M179.537 51.8412H179.139V52.5234H179.537V51.8412Z" fill="#333333"/>
<path d="M182.151 51.8412H181.754V52.5234H182.151V51.8412Z" fill="#333333"/>
<path d="M185.425 51.8412H185.028V52.5234H185.425V51.8412Z" fill="#333333"/>
<path d="M186.079 51.8412H185.681V52.5234H186.079V51.8412Z" fill="#333333"/>
<path d="M187.392 51.8412H186.994V52.5234H187.392V51.8412Z" fill="#333333"/>
<path d="M188.045 51.8412H187.647V52.5234H188.045V51.8412Z" fill="#333333"/>
<path d="M188.699 51.8412H188.301V52.5234H188.699V51.8412Z" fill="#333333"/>
<path d="M189.352 51.8412H188.955V52.5234H189.352V51.8412Z" fill="#333333"/>
<path d="M191.313 51.8412H190.916V52.5234H191.313V51.8412Z" fill="#333333"/>
<path d="M191.972 51.8412H191.575V52.5234H191.972V51.8412Z" fill="#333333"/>
<path d="M193.28 51.8412H192.882V52.5234H193.28V51.8412Z" fill="#333333"/>
<path d="M169.068 50.7196H168.67V51.4018H169.068V50.7196Z" fill="#333333"/>
<path d="M170.375 50.7196H169.977V51.4018H170.375V50.7196Z" fill="#333333"/>
<path d="M171.029 50.7196H170.631V51.4018H171.029V50.7196Z" fill="#333333"/>
<path d="M171.682 50.7196H171.285V51.4018H171.682V50.7196Z" fill="#333333"/>
<path d="M172.995 50.7196H172.597V51.4018H172.995V50.7196Z" fill="#333333"/>
<path d="M174.956 50.7196H174.558V51.4018H174.956V50.7196Z" fill="#333333"/>
<path d="M175.61 50.7196H175.212V51.4018H175.61V50.7196Z" fill="#333333"/>
<path d="M176.263 50.7196H175.866V51.4018H176.263V50.7196Z" fill="#333333"/>
<path d="M177.576 50.7196H177.178V51.4018H177.576V50.7196Z" fill="#333333"/>
<path d="M178.883 50.7196H178.486V51.4018H178.883V50.7196Z" fill="#333333"/>
<path d="M180.844 50.7196H180.447V51.4018H180.844V50.7196Z" fill="#333333"/>
<path d="M182.151 50.7196H181.754V51.4018H182.151V50.7196Z" fill="#333333"/>
<path d="M184.118 50.7196H183.72V51.4018H184.118V50.7196Z" fill="#333333"/>
<path d="M184.772 50.7196H184.374V51.4018H184.772V50.7196Z" fill="#333333"/>
<path d="M186.079 50.7196H185.681V51.4018H186.079V50.7196Z" fill="#333333"/>
<path d="M186.732 50.7196H186.335V51.4018H186.732V50.7196Z" fill="#333333"/>
<path d="M188.045 50.7196H187.647V51.4018H188.045V50.7196Z" fill="#333333"/>
<path d="M189.352 50.7196H188.955V51.4018H189.352V50.7196Z" fill="#333333"/>
<path d="M190.006 50.7196H189.608V51.4018H190.006V50.7196Z" fill="#333333"/>
<path d="M190.66 50.7196H190.262V51.4018H190.66V50.7196Z" fill="#333333"/>
<path d="M191.313 50.7196H190.916V51.4018H191.313V50.7196Z" fill="#333333"/>
<path d="M173.649 49.5981H173.251V50.2804H173.649V49.5981Z" fill="#333333"/>
<path d="M174.302 49.5981H173.905V50.2804H174.302V49.5981Z" fill="#333333"/>
<path d="M186.732 48.4767H186.335V49.1589H186.732V48.4767Z" fill="#333333"/>
<path d="M187.392 48.4767H186.994V49.1589H187.392V48.4767Z" fill="#333333"/>
<path d="M188.045 48.4767H187.647V49.1589H188.045V48.4767Z" fill="#333333"/>
<path d="M189.352 48.4767H188.955V49.1589H189.352V48.4767Z" fill="#333333"/>
<path d="M190.006 48.4767H189.608V49.1589H190.006V48.4767Z" fill="#333333"/>
<path d="M191.972 48.4767H191.575V49.1589H191.972V48.4767Z" fill="#333333"/>
<path d="M192.626 48.4767H192.228V49.1589H192.626V48.4767Z" fill="#333333"/>
<path d="M193.933 48.4767H193.536V49.1589H193.933V48.4767Z" fill="#333333"/>
<path d="M177.576 47.3458H177.178V48.0281H177.576V47.3458Z" fill="#333333"/>
<path d="M178.23 47.3458H177.832V48.0281H178.23V47.3458Z" fill="#333333"/>
<path d="M180.191 47.3458H179.793V48.0281H180.191V47.3458Z" fill="#333333"/>
<path d="M181.498 47.3458H181.1V48.0281H181.498V47.3458Z" fill="#333333"/>
<path d="M182.811 47.3458H182.413V48.0281H182.811V47.3458Z" fill="#333333"/>
<path d="M184.118 47.3458H183.72V48.0281H184.118V47.3458Z" fill="#333333"/>
<path d="M186.732 47.3458H186.335V48.0281H186.732V47.3458Z" fill="#333333"/>
<path d="M187.392 47.3458H186.994V48.0281H187.392V47.3458Z" fill="#333333"/>
<path d="M188.699 47.3458H188.301V48.0281H188.699V47.3458Z" fill="#333333"/>
<path d="M189.352 47.3458H188.955V48.0281H189.352V47.3458Z" fill="#333333"/>
<path d="M191.972 47.3458H191.575V48.0281H191.972V47.3458Z" fill="#333333"/>
<path d="M192.626 47.3458H192.228V48.0281H192.626V47.3458Z" fill="#333333"/>
<path d="M193.28 47.3458H192.882V48.0281H193.28V47.3458Z" fill="#333333"/>
<path d="M193.933 47.3458H193.536V48.0281H193.933V47.3458Z" fill="#333333"/>
<path d="M178.23 45.1028H177.832V45.785H178.23V45.1028Z" fill="#333333"/>
<path d="M178.883 45.1028H178.486V45.785H178.883V45.1028Z" fill="#333333"/>
<path d="M181.498 45.1028H181.1V45.785H181.498V45.1028Z" fill="#333333"/>
<path d="M182.151 45.1028H181.754V45.785H182.151V45.1028Z" fill="#333333"/>
<path d="M182.811 45.1028H182.413V45.785H182.811V45.1028Z" fill="#333333"/>
<path d="M183.464 45.1028H183.067V45.785H183.464V45.1028Z" fill="#333333"/>
<path d="M184.772 45.1028H184.374V45.785H184.772V45.1028Z" fill="#333333"/>
<path d="M185.425 45.1028H185.028V45.785H185.425V45.1028Z" fill="#333333"/>
<path d="M186.732 45.1028H186.335V45.785H186.732V45.1028Z" fill="#333333"/>
<path d="M188.699 45.1028H188.301V45.785H188.699V45.1028Z" fill="#333333"/>
<path d="M189.352 45.1028H188.955V45.785H189.352V45.1028Z" fill="#333333"/>
<path d="M190.006 45.1028H189.608V45.785H190.006V45.1028Z" fill="#333333"/>
<path d="M191.313 45.1028H190.916V45.785H191.313V45.1028Z" fill="#333333"/>
<path d="M192.626 45.1028H192.228V45.785H192.626V45.1028Z" fill="#333333"/>
<path d="M193.28 45.1028H192.882V45.785H193.28V45.1028Z" fill="#333333"/>
<path d="M168.414 43.9813H168.016V44.6636H168.414V43.9813Z" fill="#333333"/>
<path d="M169.068 43.9813H168.67V44.6636H169.068V43.9813Z" fill="#333333"/>
<path d="M193.28 43.9813H192.882V44.6636H193.28V43.9813Z" fill="#333333"/>
<path d="M193.933 43.9813H193.536V44.6636H193.933V43.9813Z" fill="#333333"/>
<path d="M193.933 42.8599H193.536V43.5421H193.933V42.8599Z" fill="#333333"/>
<path d="M193.28 40.6168H192.882V41.2991H193.28V40.6168Z" fill="#333333"/>
<path d="M193.933 40.6168H193.536V41.2991H193.933V40.6168Z" fill="#333333"/>
<path d="M191.972 39.486H191.575V40.1683H191.972V39.486Z" fill="#333333"/>
<path d="M193.28 39.486H192.882V40.1683H193.28V39.486Z" fill="#333333"/>
<path d="M193.933 39.486H193.536V40.1683H193.933V39.486Z" fill="#333333"/>
<path d="M190.006 38.3645H189.608V39.0467H190.006V38.3645Z" fill="#333333"/>
<path d="M190.66 38.3645H190.262V39.0467H190.66V38.3645Z" fill="#333333"/>
<path d="M191.313 38.3645H190.916V39.0467H191.313V38.3645Z" fill="#333333"/>
<path d="M191.972 38.3645H191.575V39.0467H191.972V38.3645Z" fill="#333333"/>
<path d="M193.28 38.3645H192.882V39.0467H193.28V38.3645Z" fill="#333333"/>
<path d="M193.933 38.3645H193.536V39.0467H193.933V38.3645Z" fill="#333333"/>
<path d="M184.772 37.243H184.374V37.9252H184.772V37.243Z" fill="#333333"/>
<path d="M186.079 37.243H185.681V37.9252H186.079V37.243Z" fill="#333333"/>
<path d="M186.732 37.243H186.335V37.9252H186.732V37.243Z" fill="#333333"/>
<path d="M187.392 37.243H186.994V37.9252H187.392V37.243Z" fill="#333333"/>
<path d="M188.045 37.243H187.647V37.9252H188.045V37.243Z" fill="#333333"/>
<path d="M188.699 37.243H188.301V37.9252H188.699V37.243Z" fill="#333333"/>
<path d="M190.66 37.243H190.262V37.9252H190.66V37.243Z" fill="#333333"/>
<path d="M191.972 37.243H191.575V37.9252H191.972V37.243Z" fill="#333333"/>
<path d="M193.933 37.243H193.536V37.9252H193.933V37.243Z" fill="#333333"/>
<path d="M171.682 36.1215H171.285V36.8038H171.682V36.1215Z" fill="#333333"/>
<path d="M172.995 36.1215H172.597V36.8038H172.995V36.1215Z" fill="#333333"/>
<path d="M173.649 36.1215H173.251V36.8038H173.649V36.1215Z" fill="#333333"/>
<path d="M175.61 36.1215H175.212V36.8038H175.61V36.1215Z" fill="#333333"/>
<path d="M176.917 36.1215H176.519V36.8038H176.917V36.1215Z" fill="#333333"/>
<path d="M177.576 36.1215H177.178V36.8038H177.576V36.1215Z" fill="#333333"/>
<path d="M178.23 36.1215H177.832V36.8038H178.23V36.1215Z" fill="#333333"/>
<path d="M178.883 36.1215H178.486V36.8038H178.883V36.1215Z" fill="#333333"/>
<path d="M180.844 36.1215H180.447V36.8038H180.844V36.1215Z" fill="#333333"/>
<path d="M182.151 36.1215H181.754V36.8038H182.151V36.1215Z" fill="#333333"/>
<path d="M184.118 36.1215H183.72V36.8038H184.118V36.1215Z" fill="#333333"/>
<path d="M185.425 36.1215H185.028V36.8038H185.425V36.1215Z" fill="#333333"/>
<path d="M186.079 36.1215H185.681V36.8038H186.079V36.1215Z" fill="#333333"/>
<path d="M187.392 36.1215H186.994V36.8038H187.392V36.1215Z" fill="#333333"/>
<path d="M188.699 36.1215H188.301V36.8038H188.699V36.1215Z" fill="#333333"/>
<path d="M190.006 36.1215H189.608V36.8038H190.006V36.1215Z" fill="#333333"/>
<path d="M190.66 36.1215H190.262V36.8038H190.66V36.1215Z" fill="#333333"/>
<path d="M191.313 36.1215H190.916V36.8038H191.313V36.1215Z" fill="#333333"/>
<path d="M191.972 36.1215H191.575V36.8038H191.972V36.1215Z" fill="#333333"/>
<path d="M193.28 36.1215H192.882V36.8038H193.28V36.1215Z" fill="#333333"/>
<path d="M193.933 36.1215H193.536V36.8038H193.933V36.1215Z" fill="#333333"/>
<path d="M178.23 35H177.832V35.6822H178.23V35Z" fill="#333333"/>
<path d="M178.883 35H178.486V35.6822H178.883V35Z" fill="#333333"/>
<path d="M180.191 35H179.793V35.6822H180.191V35Z" fill="#333333"/>
<path d="M180.844 35H180.447V35.6822H180.844V35Z" fill="#333333"/>
<path d="M182.151 35H181.754V35.6822H182.151V35Z" fill="#333333"/>
<path d="M183.464 35H183.067V35.6822H183.464V35Z" fill="#333333"/>
<path d="M184.118 35H183.72V35.6822H184.118V35Z" fill="#333333"/>
<path d="M185.425 35H185.028V35.6822H185.425V35Z" fill="#333333"/>
<path d="M186.732 35H186.335V35.6822H186.732V35Z" fill="#333333"/>
<path d="M187.392 35H186.994V35.6822H187.392V35Z" fill="#333333"/>
<path d="M188.699 35H188.301V35.6822H188.699V35Z" fill="#333333"/>
<path d="M189.352 35H188.955V35.6822H189.352V35Z" fill="#333333"/>
<path d="M190.66 35H190.262V35.6822H190.66V35Z" fill="#333333"/>
<path d="M191.972 35H191.575V35.6822H191.972V35Z" fill="#333333"/>
<path d="M192.626 35H192.228V35.6822H192.626V35Z" fill="#333333"/>
<path d="M193.28 35H192.882V35.6822H193.28V35Z" fill="#333333"/>
<path d="M193.933 35H193.536V35.6822H193.933V35Z" fill="#333333"/>
<path d="M172.336 33.8785H171.938V34.5608H172.336V33.8785Z" fill="#333333"/>
<path d="M172.995 33.8785H172.597V34.5608H172.995V33.8785Z" fill="#333333"/>
<path d="M173.649 33.8785H173.251V34.5608H173.649V33.8785Z" fill="#333333"/>
<path d="M174.302 33.8785H173.905V34.5608H174.302V33.8785Z" fill="#333333"/>
<path d="M174.956 33.8785H174.558V34.5608H174.956V33.8785Z" fill="#333333"/>
<path d="M175.61 33.8785H175.212V34.5608H175.61V33.8785Z" fill="#333333"/>
<path d="M176.263 33.8785H175.866V34.5608H176.263V33.8785Z" fill="#333333"/>
<path d="M176.917 33.8785H176.519V34.5608H176.917V33.8785Z" fill="#333333"/>
<path d="M178.23 33.8785H177.832V34.5608H178.23V33.8785Z" fill="#333333"/>
<path d="M178.883 33.8785H178.486V34.5608H178.883V33.8785Z" fill="#333333"/>
<path d="M180.844 33.8785H180.447V34.5608H180.844V33.8785Z" fill="#333333"/>
<path d="M181.498 33.8785H181.1V34.5608H181.498V33.8785Z" fill="#333333"/>
<path d="M182.151 33.8785H181.754V34.5608H182.151V33.8785Z" fill="#333333"/>
<path d="M182.811 33.8785H182.413V34.5608H182.811V33.8785Z" fill="#333333"/>
<path d="M176.917 32.757H176.519V33.4393H176.917V32.757Z" fill="#333333"/>
<path d="M177.576 32.757H177.178V33.4393H177.576V32.757Z" fill="#333333"/>
<path d="M180.191 32.757H179.793V33.4393H180.191V32.757Z" fill="#333333"/>
<path d="M180.844 32.757H180.447V33.4393H180.844V32.757Z" fill="#333333"/>
<path d="M181.498 32.757H181.1V33.4393H181.498V32.757Z" fill="#333333"/>
<path d="M182.811 32.757H182.413V33.4393H182.811V32.757Z" fill="#333333"/>
<path d="M183.464 32.757H183.067V33.4393H183.464V32.757Z" fill="#333333"/>
<path d="M184.772 32.757H184.374V33.4393H184.772V32.757Z" fill="#333333"/>
<path d="M186.732 32.757H186.335V33.4393H186.732V32.757Z" fill="#333333"/>
<path d="M187.392 32.757H186.994V33.4393H187.392V32.757Z" fill="#333333"/>
<path d="M188.699 32.757H188.301V33.4393H188.699V32.757Z" fill="#333333"/>
<path d="M189.352 32.757H188.955V33.4393H189.352V32.757Z" fill="#333333"/>
<path d="M190.006 32.757H189.608V33.4393H190.006V32.757Z" fill="#333333"/>
<path d="M190.66 32.757H190.262V33.4393H190.66V32.757Z" fill="#333333"/>
<path d="M192.626 32.757H192.228V33.4393H192.626V32.757Z" fill="#333333"/>
<path d="M193.28 32.757H192.882V33.4393H193.28V32.757Z" fill="#333333"/>
<path d="M193.933 32.757H193.536V33.4393H193.933V32.757Z" fill="#333333"/>
<path d="M167.101 31.6262H166.704V32.3084H167.101V31.6262Z" fill="#333333"/>
<path d="M168.414 31.6262H168.016V32.3084H168.414V31.6262Z" fill="#333333"/>
<path d="M169.068 31.6262H168.67V32.3084H169.068V31.6262Z" fill="#333333"/>
<path d="M171.029 31.6262H170.631V32.3084H171.029V31.6262Z" fill="#333333"/>
<path d="M172.336 31.6262H171.938V32.3084H172.336V31.6262Z" fill="#333333"/>
<path d="M172.995 31.6262H172.597V32.3084H172.995V31.6262Z" fill="#333333"/>
<path d="M174.302 31.6262H173.905V32.3084H174.302V31.6262Z" fill="#333333"/>
<path d="M174.956 31.6262H174.558V32.3084H174.956V31.6262Z" fill="#333333"/>
<path d="M175.61 31.6262H175.212V32.3084H175.61V31.6262Z" fill="#333333"/>
<path d="M177.576 31.6262H177.178V32.3084H177.576V31.6262Z" fill="#333333"/>
<path d="M178.883 31.6262H178.486V32.3084H178.883V31.6262Z" fill="#333333"/>
<path d="M179.537 31.6262H179.139V32.3084H179.537V31.6262Z" fill="#333333"/>
<path d="M180.191 31.6262H179.793V32.3084H180.191V31.6262Z" fill="#333333"/>
<path d="M180.844 31.6262H180.447V32.3084H180.844V31.6262Z" fill="#333333"/>
<path d="M182.151 31.6262H181.754V32.3084H182.151V31.6262Z" fill="#333333"/>
<path d="M182.811 31.6262H182.413V32.3084H182.811V31.6262Z" fill="#333333"/>
<path d="M184.118 31.6262H183.72V32.3084H184.118V31.6262Z" fill="#333333"/>
<path d="M184.772 31.6262H184.374V32.3084H184.772V31.6262Z" fill="#333333"/>
<path d="M185.425 31.6262H185.028V32.3084H185.425V31.6262Z" fill="#333333"/>
<path d="M187.392 31.6262H186.994V32.3084H187.392V31.6262Z" fill="#333333"/>
<path d="M177.576 30.5047H177.178V31.1869H177.576V30.5047Z" fill="#333333"/>
<path d="M178.23 30.5047H177.832V31.1869H178.23V30.5047Z" fill="#333333"/>
<path d="M178.883 30.5047H178.486V31.1869H178.883V30.5047Z" fill="#333333"/>
<path d="M180.191 30.5047H179.793V31.1869H180.191V30.5047Z" fill="#333333"/>
<path d="M182.151 30.5047H181.754V31.1869H182.151V30.5047Z" fill="#333333"/>
<path d="M182.811 30.5047H182.413V31.1869H182.811V30.5047Z" fill="#333333"/>
<path d="M183.464 30.5047H183.067V31.1869H183.464V30.5047Z" fill="#333333"/>
<path d="M184.118 30.5047H183.72V31.1869H184.118V30.5047Z" fill="#333333"/>
<path d="M184.772 30.5047H184.374V31.1869H184.772V30.5047Z" fill="#333333"/>
<path d="M185.425 30.5047H185.028V31.1869H185.425V30.5047Z" fill="#333333"/>
<path d="M186.079 30.5047H185.681V31.1869H186.079V30.5047Z" fill="#333333"/>
<path d="M186.732 30.5047H186.335V31.1869H186.732V30.5047Z" fill="#333333"/>
<path d="M187.392 30.5047H186.994V31.1869H187.392V30.5047Z" fill="#333333"/>
<path d="M188.699 30.5047H188.301V31.1869H188.699V30.5047Z" fill="#333333"/>
<path d="M189.352 30.5047H188.955V31.1869H189.352V30.5047Z" fill="#333333"/>
<path d="M190.006 30.5047H189.608V31.1869H190.006V30.5047Z" fill="#333333"/>
<path d="M190.66 30.5047H190.262V31.1869H190.66V30.5047Z" fill="#333333"/>
<path d="M191.313 30.5047H190.916V31.1869H191.313V30.5047Z" fill="#333333"/>
<path d="M191.972 30.5047H191.575V31.1869H191.972V30.5047Z" fill="#333333"/>
<path d="M192.626 30.5047H192.228V31.1869H192.626V30.5047Z" fill="#333333"/>
<path d="M193.28 30.5047H192.882V31.1869H193.28V30.5047Z" fill="#333333"/>
<path d="M193.933 30.5047H193.536V31.1869H193.933V30.5047Z" fill="#333333"/>
<path d="M178.883 29.3832H178.486V30.0654H178.883V29.3832Z" fill="#333333"/>
<path d="M179.537 29.3832H179.139V30.0654H179.537V29.3832Z" fill="#333333"/>
<path d="M180.844 29.3832H180.447V30.0654H180.844V29.3832Z" fill="#333333"/>
<path d="M182.151 29.3832H181.754V30.0654H182.151V29.3832Z" fill="#333333"/>
<path d="M184.772 29.3832H184.374V30.0654H184.772V29.3832Z" fill="#333333"/>
<path d="M185.425 29.3832H185.028V30.0654H185.425V29.3832Z" fill="#333333"/>
<path d="M186.079 29.3832H185.681V30.0654H186.079V29.3832Z" fill="#333333"/>
<path d="M186.732 29.3832H186.335V30.0654H186.732V29.3832Z" fill="#333333"/>
<path d="M191.313 29.3832H190.916V30.0654H191.313V29.3832Z" fill="#333333"/>
<path d="M191.972 29.3832H191.575V30.0654H191.972V29.3832Z" fill="#333333"/>
<path d="M192.626 29.3832H192.228V30.0654H192.626V29.3832Z" fill="#333333"/>
<path d="M193.933 29.3832H193.536V30.0654H193.933V29.3832Z" fill="#333333"/>
<path d="M167.101 28.2617H166.704V28.944H167.101V28.2617Z" fill="#333333"/>
<path d="M167.755 28.2617H167.357V28.944H167.755V28.2617Z" fill="#333333"/>
<path d="M169.068 28.2617H168.67V28.944H169.068V28.2617Z" fill="#333333"/>
<path d="M169.721 28.2617H169.324V28.944H169.721V28.2617Z" fill="#333333"/>
<path d="M170.375 28.2617H169.977V28.944H170.375V28.2617Z" fill="#333333"/>
<path d="M171.682 28.2617H171.285V28.944H171.682V28.2617Z" fill="#333333"/>
<path d="M172.995 28.2617H172.597V28.944H172.995V28.2617Z" fill="#333333"/>
<path d="M173.649 28.2617H173.251V28.944H173.649V28.2617Z" fill="#333333"/>
<path d="M174.302 28.2617H173.905V28.944H174.302V28.2617Z" fill="#333333"/>
<path d="M174.956 28.2617H174.558V28.944H174.956V28.2617Z" fill="#333333"/>
<path d="M175.61 28.2617H175.212V28.944H175.61V28.2617Z" fill="#333333"/>
<path d="M176.917 28.2617H176.519V28.944H176.917V28.2617Z" fill="#333333"/>
<path d="M178.23 28.2617H177.832V28.944H178.23V28.2617Z" fill="#333333"/>
<path d="M178.883 28.2617H178.486V28.944H178.883V28.2617Z" fill="#333333"/>
<path d="M179.537 28.2617H179.139V28.944H179.537V28.2617Z" fill="#333333"/>
<path d="M180.191 28.2617H179.793V28.944H180.191V28.2617Z" fill="#333333"/>
<path d="M181.498 28.2617H181.1V28.944H181.498V28.2617Z" fill="#333333"/>
<path d="M183.464 28.2617H183.067V28.944H183.464V28.2617Z" fill="#333333"/>
<path d="M184.118 28.2617H183.72V28.944H184.118V28.2617Z" fill="#333333"/>
<path d="M184.772 28.2617H184.374V28.944H184.772V28.2617Z" fill="#333333"/>
<path d="M185.425 28.2617H185.028V28.944H185.425V28.2617Z" fill="#333333"/>
<path d="M186.732 28.2617H186.335V28.944H186.732V28.2617Z" fill="#333333"/>
<path d="M187.392 28.2617H186.994V28.944H187.392V28.2617Z" fill="#333333"/>
<path d="M188.045 28.2617H187.647V28.944H188.045V28.2617Z" fill="#333333"/>
<path d="M188.699 28.2617H188.301V28.944H188.699V28.2617Z" fill="#333333"/>
<path d="M190.006 28.2617H189.608V28.944H190.006V28.2617Z" fill="#333333"/>
<path d="M190.66 28.2617H190.262V28.944H190.66V28.2617Z" fill="#333333"/>
<path d="M191.972 28.2617H191.575V28.944H191.972V28.2617Z" fill="#333333"/>
<path d="M192.626 28.2617H192.228V28.944H192.626V28.2617Z" fill="#333333"/>
<path d="M193.28 28.2617H192.882V28.944H193.28V28.2617Z" fill="#333333"/>
<path d="M193.933 28.2617H193.536V28.944H193.933V28.2617Z" fill="#333333"/>
<path d="M168.414 27.1402H168.016V27.8224H168.414V27.1402Z" fill="#333333"/>
<path d="M170.375 27.1402H169.977V27.8224H170.375V27.1402Z" fill="#333333"/>
<path d="M171.682 27.1402H171.285V27.8224H171.682V27.1402Z" fill="#333333"/>
<path d="M172.995 27.1402H172.597V27.8224H172.995V27.1402Z" fill="#333333"/>
<path d="M174.302 27.1402H173.905V27.8224H174.302V27.1402Z" fill="#333333"/>
<path d="M174.956 27.1402H174.558V27.8224H174.956V27.1402Z" fill="#333333"/>
<path d="M175.61 27.1402H175.212V27.8224H175.61V27.1402Z" fill="#333333"/>
<path d="M176.263 27.1402H175.866V27.8224H176.263V27.1402Z" fill="#333333"/>
<path d="M176.917 27.1402H176.519V27.8224H176.917V27.1402Z" fill="#333333"/>
<path d="M177.576 27.1402H177.178V27.8224H177.576V27.1402Z" fill="#333333"/>
<path d="M178.23 27.1402H177.832V27.8224H178.23V27.1402Z" fill="#333333"/>
<path d="M180.191 27.1402H179.793V27.8224H180.191V27.1402Z" fill="#333333"/>
<path d="M181.498 27.1402H181.1V27.8224H181.498V27.1402Z" fill="#333333"/>
<path d="M182.151 27.1402H181.754V27.8224H182.151V27.1402Z" fill="#333333"/>
<path d="M183.464 27.1402H183.067V27.8224H183.464V27.1402Z" fill="#333333"/>
<path d="M184.118 27.1402H183.72V27.8224H184.118V27.1402Z" fill="#333333"/>
<path d="M184.772 27.1402H184.374V27.8224H184.772V27.1402Z" fill="#333333"/>
<path d="M185.425 27.1402H185.028V27.8224H185.425V27.1402Z" fill="#333333"/>
<path d="M186.079 27.1402H185.681V27.8224H186.079V27.1402Z" fill="#333333"/>
<path d="M186.732 27.1402H186.335V27.8224H186.732V27.1402Z" fill="#333333"/>
<path d="M188.045 27.1402H187.647V27.8224H188.045V27.1402Z" fill="#333333"/>
<path d="M188.699 27.1402H188.301V27.8224H188.699V27.1402Z" fill="#333333"/>
<path d="M189.352 27.1402H188.955V27.8224H189.352V27.1402Z" fill="#333333"/>
<path d="M190.66 27.1402H190.262V27.8224H190.66V27.1402Z" fill="#333333"/>
<path d="M191.313 27.1402H190.916V27.8224H191.313V27.1402Z" fill="#333333"/>
<path d="M191.972 27.1402H191.575V27.8224H191.972V27.1402Z" fill="#333333"/>
<path d="M193.28 27.1402H192.882V27.8224H193.28V27.1402Z" fill="#333333"/>
<path d="M193.933 27.1402H193.536V27.8224H193.933V27.1402Z" fill="#333333"/>
<path d="M178.23 26.0187H177.832V26.7009H178.23V26.0187Z" fill="#333333"/>
<path d="M178.883 26.0187H178.486V26.7009H178.883V26.0187Z" fill="#333333"/>
<path d="M179.537 26.0187H179.139V26.7009H179.537V26.0187Z" fill="#333333"/>
<path d="M180.191 26.0187H179.793V26.7009H180.191V26.0187Z" fill="#333333"/>
<path d="M181.498 26.0187H181.1V26.7009H181.498V26.0187Z" fill="#333333"/>
<path d="M182.151 26.0187H181.754V26.7009H182.151V26.0187Z" fill="#333333"/>
<path d="M182.811 26.0187H182.413V26.7009H182.811V26.0187Z" fill="#333333"/>
<path d="M184.118 26.0187H183.72V26.7009H184.118V26.0187Z" fill="#333333"/>
<path d="M184.772 26.0187H184.374V26.7009H184.772V26.0187Z" fill="#333333"/>
<path d="M186.079 26.0187H185.681V26.7009H186.079V26.0187Z" fill="#333333"/>
<path d="M186.732 26.0187H186.335V26.7009H186.732V26.0187Z" fill="#333333"/>
<path d="M187.392 26.0187H186.994V26.7009H187.392V26.0187Z" fill="#333333"/>
<path d="M188.045 26.0187H187.647V26.7009H188.045V26.0187Z" fill="#333333"/>
<path d="M188.699 26.0187H188.301V26.7009H188.699V26.0187Z" fill="#333333"/>
<path d="M189.352 26.0187H188.955V26.7009H189.352V26.0187Z" fill="#333333"/>
<path d="M190.006 26.0187H189.608V26.7009H190.006V26.0187Z" fill="#333333"/>
<path d="M190.66 26.0187H190.262V26.7009H190.66V26.0187Z" fill="#333333"/>
<path d="M191.313 26.0187H190.916V26.7009H191.313V26.0187Z" fill="#333333"/>
<path d="M191.972 26.0187H191.575V26.7009H191.972V26.0187Z" fill="#333333"/>
<path d="M192.626 26.0187H192.228V26.7009H192.626V26.0187Z" fill="#333333"/>
<path d="M193.28 26.0187H192.882V26.7009H193.28V26.0187Z" fill="#333333"/>
<path d="M193.933 26.0187H193.536V26.7009H193.933V26.0187Z" fill="#333333"/>
<path d="M176.917 24.8972H176.519V25.5794H176.917V24.8972Z" fill="#333333"/>
<path d="M177.576 24.8972H177.178V25.5794H177.576V24.8972Z" fill="#333333"/>
<path d="M178.883 24.8972H178.486V25.5794H178.883V24.8972Z" fill="#333333"/>
<path d="M179.537 24.8972H179.139V25.5794H179.537V24.8972Z" fill="#333333"/>
<path d="M180.191 24.8972H179.793V25.5794H180.191V24.8972Z" fill="#333333"/>
<path d="M180.844 24.8972H180.447V25.5794H180.844V24.8972Z" fill="#333333"/>
<path d="M181.498 24.8972H181.1V25.5794H181.498V24.8972Z" fill="#333333"/>
<path d="M182.151 24.8972H181.754V25.5794H182.151V24.8972Z" fill="#333333"/>
<path d="M183.464 24.8972H183.067V25.5794H183.464V24.8972Z" fill="#333333"/>
<path d="M184.118 24.8972H183.72V25.5794H184.118V24.8972Z" fill="#333333"/>
<path d="M185.425 24.8972H185.028V25.5794H185.425V24.8972Z" fill="#333333"/>
<path d="M186.079 24.8972H185.681V25.5794H186.079V24.8972Z" fill="#333333"/>
<path d="M187.392 24.8972H186.994V25.5794H187.392V24.8972Z" fill="#333333"/>
<path d="M193.933 24.8972H193.536V25.5794H193.933V24.8972Z" fill="#333333"/>
<path d="M171.682 23.7757H171.285V24.4579H171.682V23.7757Z" fill="#333333"/>
<path d="M172.995 23.7757H172.597V24.4579H172.995V23.7757Z" fill="#333333"/>
<path d="M174.956 23.7757H174.558V24.4579H174.956V23.7757Z" fill="#333333"/>
<path d="M175.61 23.7757H175.212V24.4579H175.61V23.7757Z" fill="#333333"/>
<path d="M177.576 23.7757H177.178V24.4579H177.576V23.7757Z" fill="#333333"/>
<path d="M178.23 23.7757H177.832V24.4579H178.23V23.7757Z" fill="#333333"/>
<path d="M178.883 23.7757H178.486V24.4579H178.883V23.7757Z" fill="#333333"/>
<path d="M179.537 23.7757H179.139V24.4579H179.537V23.7757Z" fill="#333333"/>
<path d="M180.844 23.7757H180.447V24.4579H180.844V23.7757Z" fill="#333333"/>
<path d="M182.151 23.7757H181.754V24.4579H182.151V23.7757Z" fill="#333333"/>
<path d="M182.811 23.7757H182.413V24.4579H182.811V23.7757Z" fill="#333333"/>
<path d="M183.464 23.7757H183.067V24.4579H183.464V23.7757Z" fill="#333333"/>
<path d="M184.118 23.7757H183.72V24.4579H184.118V23.7757Z" fill="#333333"/>
<path d="M184.772 23.7757H184.374V24.4579H184.772V23.7757Z" fill="#333333"/>
<path d="M185.425 23.7757H185.028V24.4579H185.425V23.7757Z" fill="#333333"/>
<path d="M186.079 23.7757H185.681V24.4579H186.079V23.7757Z" fill="#333333"/>
<path d="M190.66 23.7757H190.262V24.4579H190.66V23.7757Z" fill="#333333"/>
<path d="M191.313 23.7757H190.916V24.4579H191.313V23.7757Z" fill="#333333"/>
<path d="M192.626 23.7757H192.228V24.4579H192.626V23.7757Z" fill="#333333"/>
<path d="M193.28 23.7757H192.882V24.4579H193.28V23.7757Z" fill="#333333"/>
<path d="M193.933 23.7757H193.536V24.4579H193.933V23.7757Z" fill="#333333"/>
<path d="M180.191 22.6449H179.793V23.3272H180.191V22.6449Z" fill="#333333"/>
<path d="M181.498 22.6449H181.1V23.3272H181.498V22.6449Z" fill="#333333"/>
<path d="M182.151 22.6449H181.754V23.3272H182.151V22.6449Z" fill="#333333"/>
<path d="M183.464 22.6449H183.067V23.3272H183.464V22.6449Z" fill="#333333"/>
<path d="M184.118 22.6449H183.72V23.3272H184.118V22.6449Z" fill="#333333"/>
<path d="M184.772 22.6449H184.374V23.3272H184.772V22.6449Z" fill="#333333"/>
<path d="M186.079 22.6449H185.681V23.3272H186.079V22.6449Z" fill="#333333"/>
<path d="M186.732 22.6449H186.335V23.3272H186.732V22.6449Z" fill="#333333"/>
<path d="M187.392 22.6449H186.994V23.3272H187.392V22.6449Z" fill="#333333"/>
<path d="M188.699 22.6449H188.301V23.3272H188.699V22.6449Z" fill="#333333"/>
<path d="M189.352 22.6449H188.955V23.3272H189.352V22.6449Z" fill="#333333"/>
<path d="M190.66 22.6449H190.262V23.3272H190.66V22.6449Z" fill="#333333"/>
<path d="M191.972 22.6449H191.575V23.3272H191.972V22.6449Z" fill="#333333"/>
<path d="M192.626 22.6449H192.228V23.3272H192.626V22.6449Z" fill="#333333"/>
<path d="M193.28 22.6449H192.882V23.3272H193.28V22.6449Z" fill="#333333"/>
<path d="M173.649 21.5234H173.251V22.2056H173.649V21.5234Z" fill="#333333"/>
<path d="M174.956 21.5234H174.558V22.2056H174.956V21.5234Z" fill="#333333"/>
<path d="M178.883 21.5234H178.486V22.2056H178.883V21.5234Z" fill="#333333"/>
<path d="M180.191 21.5234H179.793V22.2056H180.191V21.5234Z" fill="#333333"/>
<path d="M181.498 21.5234H181.1V22.2056H181.498V21.5234Z" fill="#333333"/>
<path d="M182.811 21.5234H182.413V22.2056H182.811V21.5234Z" fill="#333333"/>
<path d="M183.464 21.5234H183.067V22.2056H183.464V21.5234Z" fill="#333333"/>
<path d="M184.772 21.5234H184.374V22.2056H184.772V21.5234Z" fill="#333333"/>
<path d="M185.425 21.5234H185.028V22.2056H185.425V21.5234Z" fill="#333333"/>
<path d="M186.079 21.5234H185.681V22.2056H186.079V21.5234Z" fill="#333333"/>
<path d="M186.732 21.5234H186.335V22.2056H186.732V21.5234Z" fill="#333333"/>
<path d="M187.392 21.5234H186.994V22.2056H187.392V21.5234Z" fill="#333333"/>
<path d="M188.045 21.5234H187.647V22.2056H188.045V21.5234Z" fill="#333333"/>
<path d="M188.699 21.5234H188.301V22.2056H188.699V21.5234Z" fill="#333333"/>
<path d="M189.352 21.5234H188.955V22.2056H189.352V21.5234Z" fill="#333333"/>
<path d="M190.006 21.5234H189.608V22.2056H190.006V21.5234Z" fill="#333333"/>
<path d="M190.66 21.5234H190.262V22.2056H190.66V21.5234Z" fill="#333333"/>
<path d="M191.313 21.5234H190.916V22.2056H191.313V21.5234Z" fill="#333333"/>
<path d="M192.626 21.5234H192.228V22.2056H192.626V21.5234Z" fill="#333333"/>
<path d="M193.28 21.5234H192.882V22.2056H193.28V21.5234Z" fill="#333333"/>
<path d="M178.23 20.4019H177.832V21.0841H178.23V20.4019Z" fill="#333333"/>
<path d="M178.883 20.4019H178.486V21.0841H178.883V20.4019Z" fill="#333333"/>
<path d="M180.844 20.4019H180.447V21.0841H180.844V20.4019Z" fill="#333333"/>
<path d="M181.498 20.4019H181.1V21.0841H181.498V20.4019Z" fill="#333333"/>
<path d="M182.151 20.4019H181.754V21.0841H182.151V20.4019Z" fill="#333333"/>
<path d="M182.811 20.4019H182.413V21.0841H182.811V20.4019Z" fill="#333333"/>
<path d="M183.464 20.4019H183.067V21.0841H183.464V20.4019Z" fill="#333333"/>
<path d="M184.118 20.4019H183.72V21.0841H184.118V20.4019Z" fill="#333333"/>
<path d="M184.772 20.4019H184.374V21.0841H184.772V20.4019Z" fill="#333333"/>
<path d="M188.045 20.4019H187.647V21.0841H188.045V20.4019Z" fill="#333333"/>
<path d="M188.699 20.4019H188.301V21.0841H188.699V20.4019Z" fill="#333333"/>
<path d="M193.28 20.4019H192.882V21.0841H193.28V20.4019Z" fill="#333333"/>
<path d="M193.933 20.4019H193.536V21.0841H193.933V20.4019Z" fill="#333333"/>
<path d="M170.375 19.2804H169.977V19.9627H170.375V19.2804Z" fill="#333333"/>
<path d="M171.029 19.2804H170.631V19.9627H171.029V19.2804Z" fill="#333333"/>
<path d="M171.682 19.2804H171.285V19.9627H171.682V19.2804Z" fill="#333333"/>
<path d="M172.336 19.2804H171.938V19.9627H172.336V19.2804Z" fill="#333333"/>
<path d="M172.995 19.2804H172.597V19.9627H172.995V19.2804Z" fill="#333333"/>
<path d="M173.649 19.2804H173.251V19.9627H173.649V19.2804Z" fill="#333333"/>
<path d="M174.302 19.2804H173.905V19.9627H174.302V19.2804Z" fill="#333333"/>
<path d="M174.956 19.2804H174.558V19.9627H174.956V19.2804Z" fill="#333333"/>
<path d="M175.61 19.2804H175.212V19.9627H175.61V19.2804Z" fill="#333333"/>
<path d="M176.263 19.2804H175.866V19.9627H176.263V19.2804Z" fill="#333333"/>
<path d="M178.23 19.2804H177.832V19.9627H178.23V19.2804Z" fill="#333333"/>
<path d="M178.883 19.2804H178.486V19.9627H178.883V19.2804Z" fill="#333333"/>
<path d="M179.537 19.2804H179.139V19.9627H179.537V19.2804Z" fill="#333333"/>
<path d="M180.191 19.2804H179.793V19.9627H180.191V19.2804Z" fill="#333333"/>
<path d="M180.844 19.2804H180.447V19.9627H180.844V19.2804Z" fill="#333333"/>
<path d="M181.498 19.2804H181.1V19.9627H181.498V19.2804Z" fill="#333333"/>
<path d="M182.151 19.2804H181.754V19.9627H182.151V19.2804Z" fill="#333333"/>
<path d="M183.464 19.2804H183.067V19.9627H183.464V19.2804Z" fill="#333333"/>
<path d="M184.118 19.2804H183.72V19.9627H184.118V19.2804Z" fill="#333333"/>
<path d="M185.425 19.2804H185.028V19.9627H185.425V19.2804Z" fill="#333333"/>
<path d="M186.732 19.2804H186.335V19.9627H186.732V19.2804Z" fill="#333333"/>
<path d="M187.392 19.2804H186.994V19.9627H187.392V19.2804Z" fill="#333333"/>
<path d="M188.045 19.2804H187.647V19.9627H188.045V19.2804Z" fill="#333333"/>
<path d="M190.006 19.2804H189.608V19.9627H190.006V19.2804Z" fill="#333333"/>
<path d="M191.313 19.2804H190.916V19.9627H191.313V19.2804Z" fill="#333333"/>
<path d="M191.972 19.2804H191.575V19.9627H191.972V19.2804Z" fill="#333333"/>
<path d="M192.626 19.2804H192.228V19.9627H192.626V19.2804Z" fill="#333333"/>
<path d="M193.933 19.2804H193.536V19.9627H193.933V19.2804Z" fill="#333333"/>
<path d="M171.029 18.1589H170.631V18.8411H171.029V18.1589Z" fill="#333333"/>
<path d="M172.995 18.1589H172.597V18.8411H172.995V18.1589Z" fill="#333333"/>
<path d="M174.956 18.1589H174.558V18.8411H174.956V18.1589Z" fill="#333333"/>
<path d="M176.263 18.1589H175.866V18.8411H176.263V18.1589Z" fill="#333333"/>
<path d="M176.917 18.1589H176.519V18.8411H176.917V18.1589Z" fill="#333333"/>
<path d="M177.576 18.1589H177.178V18.8411H177.576V18.1589Z" fill="#333333"/>
<path d="M178.23 18.1589H177.832V18.8411H178.23V18.1589Z" fill="#333333"/>
<path d="M178.883 18.1589H178.486V18.8411H178.883V18.1589Z" fill="#333333"/>
<path d="M180.191 18.1589H179.793V18.8411H180.191V18.1589Z" fill="#333333"/>
<path d="M181.498 18.1589H181.1V18.8411H181.498V18.1589Z" fill="#333333"/>
<path d="M182.151 18.1589H181.754V18.8411H182.151V18.1589Z" fill="#333333"/>
<path d="M182.811 18.1589H182.413V18.8411H182.811V18.1589Z" fill="#333333"/>
<path d="M184.118 18.1589H183.72V18.8411H184.118V18.1589Z" fill="#333333"/>
<path d="M185.425 18.1589H185.028V18.8411H185.425V18.1589Z" fill="#333333"/>
<path d="M186.079 18.1589H185.681V18.8411H186.079V18.1589Z" fill="#333333"/>
<path d="M186.732 18.1589H186.335V18.8411H186.732V18.1589Z" fill="#333333"/>
<path d="M187.392 18.1589H186.994V18.8411H187.392V18.1589Z" fill="#333333"/>
<path d="M188.699 18.1589H188.301V18.8411H188.699V18.1589Z" fill="#333333"/>
<path d="M189.352 18.1589H188.955V18.8411H189.352V18.1589Z" fill="#333333"/>
<path d="M190.006 18.1589H189.608V18.8411H190.006V18.1589Z" fill="#333333"/>
<path d="M190.66 18.1589H190.262V18.8411H190.66V18.1589Z" fill="#333333"/>
<path d="M193.28 18.1589H192.882V18.8411H193.28V18.1589Z" fill="#333333"/>
<path d="M193.933 18.1589H193.536V18.8411H193.933V18.1589Z" fill="#333333"/>
<path d="M182.811 17.0374H182.413V17.7196H182.811V17.0374Z" fill="#333333"/>
<path d="M183.464 17.0374H183.067V17.7196H183.464V17.0374Z" fill="#333333"/>
<path d="M184.772 17.0374H184.374V17.7196H184.772V17.0374Z" fill="#333333"/>
<path d="M186.079 17.0374H185.681V17.7196H186.079V17.0374Z" fill="#333333"/>
<path d="M190.66 17.0374H190.262V17.7196H190.66V17.0374Z" fill="#333333"/>
<path d="M191.313 17.0374H190.916V17.7196H191.313V17.0374Z" fill="#333333"/>
<path d="M191.972 17.0374H191.575V17.7196H191.972V17.0374Z" fill="#333333"/>
<path d="M192.626 17.0374H192.228V17.7196H192.626V17.0374Z" fill="#333333"/>
<path d="M193.28 17.0374H192.882V17.7196H193.28V17.0374Z" fill="#333333"/>
<path d="M193.933 17.0374H193.536V17.7196H193.933V17.0374Z" fill="#333333"/>
<path d="M192.626 15.9159H192.228V16.5981H192.626V15.9159Z" fill="#333333"/>
<path d="M193.28 15.9159H192.882V16.5981H193.28V15.9159Z" fill="#333333"/>
<path d="M193.933 15.9159H193.536V16.5981H193.933V15.9159Z" fill="#333333"/>
<path d="M167.755 14.785H167.357V15.4673H167.755V14.785Z" fill="#333333"/>
<path d="M169.068 14.785H168.67V15.4673H169.068V14.785Z" fill="#333333"/>
<path d="M170.375 14.785H169.977V15.4673H170.375V14.785Z" fill="#333333"/>
<path d="M171.029 14.785H170.631V15.4673H171.029V14.785Z" fill="#333333"/>
<path d="M174.302 14.785H173.905V15.4673H174.302V14.785Z" fill="#333333"/>
<path d="M174.956 14.785H174.558V15.4673H174.956V14.785Z" fill="#333333"/>
<path d="M175.61 14.785H175.212V15.4673H175.61V14.785Z" fill="#333333"/>
<path d="M176.263 14.785H175.866V15.4673H176.263V14.785Z" fill="#333333"/>
<path d="M177.576 14.785H177.178V15.4673H177.576V14.785Z" fill="#333333"/>
<path d="M178.23 14.785H177.832V15.4673H178.23V14.785Z" fill="#333333"/>
<path d="M178.883 14.785H178.486V15.4673H178.883V14.785Z" fill="#333333"/>
<path d="M179.537 14.785H179.139V15.4673H179.537V14.785Z" fill="#333333"/>
<path d="M180.191 14.785H179.793V15.4673H180.191V14.785Z" fill="#333333"/>
<path d="M180.844 14.785H180.447V15.4673H180.844V14.785Z" fill="#333333"/>
<path d="M182.151 14.785H181.754V15.4673H182.151V14.785Z" fill="#333333"/>
<path d="M182.811 14.785H182.413V15.4673H182.811V14.785Z" fill="#333333"/>
<path d="M184.118 14.785H183.72V15.4673H184.118V14.785Z" fill="#333333"/>
<path d="M184.772 14.785H184.374V15.4673H184.772V14.785Z" fill="#333333"/>
<path d="M185.425 14.785H185.028V15.4673H185.425V14.785Z" fill="#333333"/>
<path d="M186.079 14.785H185.681V15.4673H186.079V14.785Z" fill="#333333"/>
<path d="M186.732 14.785H186.335V15.4673H186.732V14.785Z" fill="#333333"/>
<path d="M188.045 14.785H187.647V15.4673H188.045V14.785Z" fill="#333333"/>
<path d="M188.699 14.785H188.301V15.4673H188.699V14.785Z" fill="#333333"/>
<path d="M190.006 14.785H189.608V15.4673H190.006V14.785Z" fill="#333333"/>
<path d="M190.66 14.785H190.262V15.4673H190.66V14.785Z" fill="#333333"/>
<path d="M193.28 14.785H192.882V15.4673H193.28V14.785Z" fill="#333333"/>
<path d="M169.068 13.6636H168.67V14.3458H169.068V13.6636Z" fill="#333333"/>
<path d="M172.336 13.6636H171.938V14.3458H172.336V13.6636Z" fill="#333333"/>
<path d="M172.995 13.6636H172.597V14.3458H172.995V13.6636Z" fill="#333333"/>
<path d="M176.263 13.6636H175.866V14.3458H176.263V13.6636Z" fill="#333333"/>
<path d="M176.917 13.6636H176.519V14.3458H176.917V13.6636Z" fill="#333333"/>
<path d="M177.576 13.6636H177.178V14.3458H177.576V13.6636Z" fill="#333333"/>
<path d="M178.883 13.6636H178.486V14.3458H178.883V13.6636Z" fill="#333333"/>
<path d="M180.191 13.6636H179.793V14.3458H180.191V13.6636Z" fill="#333333"/>
<path d="M180.844 13.6636H180.447V14.3458H180.844V13.6636Z" fill="#333333"/>
<path d="M181.498 13.6636H181.1V14.3458H181.498V13.6636Z" fill="#333333"/>
<path d="M182.151 13.6636H181.754V14.3458H182.151V13.6636Z" fill="#333333"/>
<path d="M183.464 13.6636H183.067V14.3458H183.464V13.6636Z" fill="#333333"/>
<path d="M184.118 13.6636H183.72V14.3458H184.118V13.6636Z" fill="#333333"/>
<path d="M185.425 13.6636H185.028V14.3458H185.425V13.6636Z" fill="#333333"/>
<path d="M186.732 13.6636H186.335V14.3458H186.732V13.6636Z" fill="#333333"/>
<path d="M187.392 13.6636H186.994V14.3458H187.392V13.6636Z" fill="#333333"/>
<path d="M188.045 13.6636H187.647V14.3458H188.045V13.6636Z" fill="#333333"/>
<path d="M188.699 13.6636H188.301V14.3458H188.699V13.6636Z" fill="#333333"/>
<path d="M189.352 13.6636H188.955V14.3458H189.352V13.6636Z" fill="#333333"/>
<path d="M190.006 13.6636H189.608V14.3458H190.006V13.6636Z" fill="#333333"/>
<path d="M190.66 13.6636H190.262V14.3458H190.66V13.6636Z" fill="#333333"/>
<path d="M191.313 13.6636H190.916V14.3458H191.313V13.6636Z" fill="#333333"/>
<path d="M192.626 13.6636H192.228V14.3458H192.626V13.6636Z" fill="#333333"/>
<path d="M193.28 13.6636H192.882V14.3458H193.28V13.6636Z" fill="#333333"/>
<path d="M193.933 13.6636H193.536V14.3458H193.933V13.6636Z" fill="#333333"/>
<path d="M151.398 14.785H151V15.4673H151.398V14.785Z" fill="#333333"/>
<path d="M152.705 14.785H152.307V15.4673H152.705V14.785Z" fill="#333333"/>
<path d="M154.018 14.785H153.62V15.4673H154.018V14.785Z" fill="#333333"/>
<path d="M154.671 14.785H154.274V15.4673H154.671V14.785Z" fill="#333333"/>
<path d="M155.325 14.785H154.927V15.4673H155.325V14.785Z" fill="#333333"/>
<path d="M156.632 14.785H156.235V15.4673H156.632V14.785Z" fill="#333333"/>
<path d="M157.286 14.785H156.888V15.4673H157.286V14.785Z" fill="#333333"/>
<path d="M157.94 14.785H157.542V15.4673H157.94V14.785Z" fill="#333333"/>
<path d="M158.599 14.785H158.201V15.4673H158.599V14.785Z" fill="#333333"/>
<path d="M159.252 14.785H158.855V15.4673H159.252V14.785Z" fill="#333333"/>
<path d="M160.559 14.785H160.162V15.4673H160.559V14.785Z" fill="#333333"/>
<path d="M161.213 14.785H160.816V15.4673H161.213V14.785Z" fill="#333333"/>
<path d="M161.867 14.785H161.469V15.4673H161.867V14.785Z" fill="#333333"/>
<path d="M163.833 14.785H163.436V15.4673H163.833V14.785Z" fill="#333333"/>
<path d="M165.794 14.785H165.396V15.4673H165.794V14.785Z" fill="#333333"/>
<path d="M166.448 14.785H166.05V15.4673H166.448V14.785Z" fill="#333333"/>
<path d="M155.325 23.7757H154.927V24.4579H155.325V23.7757Z" fill="#333333"/>
<path d="M156.632 23.7757H156.235V24.4579H156.632V23.7757Z" fill="#333333"/>
<path d="M157.286 23.7757H156.888V24.4579H157.286V23.7757Z" fill="#333333"/>
<path d="M158.599 23.7757H158.201V24.4579H158.599V23.7757Z" fill="#333333"/>
<path d="M159.252 23.7757H158.855V24.4579H159.252V23.7757Z" fill="#333333"/>
<path d="M159.906 23.7757H159.508V24.4579H159.906V23.7757Z" fill="#333333"/>
<path d="M160.559 23.7757H160.162V24.4579H160.559V23.7757Z" fill="#333333"/>
<path d="M161.867 23.7757H161.469V24.4579H161.867V23.7757Z" fill="#333333"/>
<path d="M163.833 23.7757H163.436V24.4579H163.833V23.7757Z" fill="#333333"/>
<path d="M165.14 23.7757H164.743V24.4579H165.14V23.7757Z" fill="#333333"/>
<path d="M166.448 23.7757H166.05V24.4579H166.448V23.7757Z" fill="#333333"/>
<path d="M167.101 23.7757H166.704V24.4579H167.101V23.7757Z" fill="#333333"/>
<path d="M167.755 23.7757H167.357V24.4579H167.755V23.7757Z" fill="#333333"/>
<path d="M168.414 23.7757H168.016V24.4579H168.414V23.7757Z" fill="#333333"/>
<path d="M169.721 23.7757H169.324V24.4579H169.721V23.7757Z" fill="#333333"/>
<path d="M167.101 55.2056H166.704V55.8878H167.101V55.2056Z" fill="#333333"/>
<path d="M151.398 55.2056H151V55.8878H151.398V55.2056Z" fill="#333333"/>
<path d="M152.705 55.2056H152.307V55.8878H152.705V55.2056Z" fill="#333333"/>
<path d="M155.325 55.2056H154.927V55.8878H155.325V55.2056Z" fill="#333333"/>
<path d="M155.979 55.2056H155.581V55.8878H155.979V55.2056Z" fill="#333333"/>
<path d="M156.632 55.2056H156.235V55.8878H156.632V55.2056Z" fill="#333333"/>
<path d="M157.286 55.2056H156.888V55.8878H157.286V55.2056Z" fill="#333333"/>
<path d="M158.599 55.2056H158.201V55.8878H158.599V55.2056Z" fill="#333333"/>
<path d="M159.252 55.2056H158.855V55.8878H159.252V55.2056Z" fill="#333333"/>
<path d="M159.906 55.2056H159.508V55.8878H159.906V55.2056Z" fill="#333333"/>
<path d="M160.559 55.2056H160.162V55.8878H160.559V55.2056Z" fill="#333333"/>
<path d="M161.213 55.2056H160.816V55.8878H161.213V55.2056Z" fill="#333333"/>
<path d="M161.867 55.2056H161.469V55.8878H161.867V55.2056Z" fill="#333333"/>
<path d="M162.52 55.2056H162.123V55.8878H162.52V55.2056Z" fill="#333333"/>
<path d="M163.174 55.2056H162.776V55.8878H163.174V55.2056Z" fill="#333333"/>
<path d="M164.487 55.2056H164.089V55.8878H164.487V55.2056Z" fill="#333333"/>
<path d="M165.14 55.2056H164.743V55.8878H165.14V55.2056Z" fill="#333333"/>
<path d="M165.794 55.2056H165.396V55.8878H165.794V55.2056Z" fill="#333333"/>
<path d="M163.833 56.3365H163.436V57.0187H163.833V56.3365Z" fill="#333333"/>
<path d="M164.487 56.3365H164.089V57.0187H164.487V56.3365Z" fill="#333333"/>
<path d="M165.794 56.3365H165.396V57.0187H165.794V56.3365Z" fill="#333333"/>
<path d="M166.448 56.3365H166.05V57.0187H166.448V56.3365Z" fill="#333333"/>
<path d="M167.101 56.3365H166.704V57.0187H167.101V56.3365Z" fill="#333333"/>
<path d="M168.414 56.3365H168.016V57.0187H168.414V56.3365Z" fill="#333333"/>
<path d="M169.068 56.3365H168.67V57.0187H169.068V56.3365Z" fill="#333333"/>
<path d="M169.721 56.3365H169.324V57.0187H169.721V56.3365Z" fill="#333333"/>
<path d="M170.375 56.3365H169.977V57.0187H170.375V56.3365Z" fill="#333333"/>
<path d="M171.029 56.3365H170.631V57.0187H171.029V56.3365Z" fill="#333333"/>
<path d="M172.336 56.3365H171.938V57.0187H172.336V56.3365Z" fill="#333333"/>
<path d="M172.995 56.3365H172.597V57.0187H172.995V56.3365Z" fill="#333333"/>
<path d="M173.649 56.3365H173.251V57.0187H173.649V56.3365Z" fill="#333333"/>
<path d="M174.302 56.3365H173.905V57.0187H174.302V56.3365Z" fill="#333333"/>
<path d="M175.61 56.3365H175.212V57.0187H175.61V56.3365Z" fill="#333333"/>
<path d="M176.263 56.3365H175.866V57.0187H176.263V56.3365Z" fill="#333333"/>
<path d="M177.576 56.3365H177.178V57.0187H177.576V56.3365Z" fill="#333333"/>
<path d="M178.23 56.3365H177.832V57.0187H178.23V56.3365Z" fill="#333333"/>
<path d="M178.883 56.3365H178.486V57.0187H178.883V56.3365Z" fill="#333333"/>
<path d="M179.537 56.3365H179.139V57.0187H179.537V56.3365Z" fill="#333333"/>
<path d="M155.325 13.6636H154.927V14.3458H155.325V13.6636Z" fill="#333333"/>
<path d="M155.979 13.6636H155.581V14.3458H155.979V13.6636Z" fill="#333333"/>
<path d="M157.286 13.6636H156.888V14.3458H157.286V13.6636Z" fill="#333333"/>
<path d="M159.252 13.6636H158.855V14.3458H159.252V13.6636Z" fill="#333333"/>
<path d="M159.906 13.6636H159.508V14.3458H159.906V13.6636Z" fill="#333333"/>
<path d="M160.559 13.6636H160.162V14.3458H160.559V13.6636Z" fill="#333333"/>
<path d="M161.867 13.6636H161.469V14.3458H161.867V13.6636Z" fill="#333333"/>
<path d="M162.52 13.6636H162.123V14.3458H162.52V13.6636Z" fill="#333333"/>
<path d="M163.174 13.6636H162.776V14.3458H163.174V13.6636Z" fill="#333333"/>
<path d="M163.833 13.6636H163.436V14.3458H163.833V13.6636Z" fill="#333333"/>
<path d="M165.14 13.6636H164.743V14.3458H165.14V13.6636Z" fill="#333333"/>
<path d="M165.794 13.6636H165.396V14.3458H165.794V13.6636Z" fill="#333333"/>
<path d="M167.101 13.6636H166.704V14.3458H167.101V13.6636Z" fill="#333333"/>
<path d="M167.755 13.6636H167.357V14.3458H167.755V13.6636Z" fill="#333333"/>
<path d="M168.414 13.6636H168.016V14.3458H168.414V13.6636Z" fill="#333333"/>
</g>
<path d="M64.5469 37.0547C64.3021 37.1641 64.0677 37.2448 63.8438 37.2969C63.625 37.349 63.4062 37.375 63.1875 37.375C62.6823 37.375 62.2604 37.1719 61.9219 36.7656C61.5885 36.3594 61.4219 35.8438 61.4219 35.2188C61.4219 34.4427 61.651 33.8307 62.1094 33.3828C62.5729 32.9297 63.2031 32.7031 64 32.7031C64.0312 32.7031 64.0755 32.7057 64.1328 32.7109C64.1953 32.7161 64.2422 32.7188 64.2734 32.7188C64.2734 32.0833 64.1536 31.5911 63.9141 31.2422C63.6797 30.8932 63.3464 30.7188 62.9141 30.7188C62.237 30.7188 61.7083 31.0833 61.3281 31.8125C60.9531 32.5365 60.7656 33.5599 60.7656 34.8828C60.7656 36.3672 60.9844 37.4896 61.4219 38.25C61.8594 39.0104 62.5052 39.3906 63.3594 39.3906C63.5938 39.3906 63.8646 39.3464 64.1719 39.2578C64.4792 39.1641 64.6719 39.1172 64.75 39.1172C64.8906 39.1172 65 39.1745 65.0781 39.2891C65.1615 39.4036 65.2031 39.5599 65.2031 39.7578C65.2031 40.0807 65.0365 40.3333 64.7031 40.5156C64.375 40.7031 63.9219 40.7969 63.3438 40.7969C61.9479 40.7969 60.8828 40.3021 60.1484 39.3125C59.4193 38.3229 59.0547 36.8828 59.0547 34.9922C59.0547 33.1953 59.4036 31.7995 60.1016 30.8047C60.7995 29.8099 61.7734 29.3125 63.0234 29.3125C64.0443 29.3125 64.7865 29.612 65.25 30.2109C65.7188 30.8047 65.9531 31.7578 65.9531 33.0703V36C66.0938 36.1406 66.1953 36.2708 66.2578 36.3906C66.3203 36.5104 66.3516 36.6302 66.3516 36.75C66.3516 36.9479 66.276 37.112 66.125 37.2422C65.9792 37.3724 65.7943 37.4375 65.5703 37.4375C65.4557 37.4375 65.3151 37.4089 65.1484 37.3516C64.987 37.2891 64.7865 37.1901 64.5469 37.0547ZM64.2734 35.9062V33.9219C64.237 33.9167 64.2005 33.9141 64.1641 33.9141C64.1328 33.9089 64.0833 33.9062 64.0156 33.9062C63.6562 33.9062 63.3672 34.0182 63.1484 34.2422C62.9349 34.4609 62.8281 34.7526 62.8281 35.1172C62.8281 35.4193 62.901 35.6536 63.0469 35.8203C63.1927 35.9818 63.3984 36.0625 63.6641 36.0625C63.7318 36.0625 63.8151 36.0495 63.9141 36.0234C64.013 35.9974 64.1328 35.9583 64.2734 35.9062ZM75.5938 38.2891H75.7188C76 38.2891 76.2135 38.3646 76.3594 38.5156C76.5104 38.6615 76.5859 38.8724 76.5859 39.1484C76.5859 39.4505 76.5078 39.6693 76.3516 39.8047C76.2005 39.9349 75.9479 40 75.5938 40H74.8594C74.599 40 74.4036 39.9505 74.2734 39.8516C74.1484 39.7526 74.0443 39.5729 73.9609 39.3125C73.5286 39.599 73.0703 39.8177 72.5859 39.9688C72.1016 40.1198 71.612 40.1953 71.1172 40.1953C70.2786 40.1953 69.6198 39.987 69.1406 39.5703C68.6615 39.1536 68.4219 38.5833 68.4219 37.8594C68.4219 37.0781 68.7318 36.4714 69.3516 36.0391C69.9714 35.6068 70.8411 35.3906 71.9609 35.3906C72.2109 35.3906 72.4766 35.4036 72.7578 35.4297C73.0391 35.4557 73.3542 35.4974 73.7031 35.5547V35.4062C73.7031 34.9375 73.5885 34.5807 73.3594 34.3359C73.1354 34.0911 72.8021 33.9688 72.3594 33.9688C72.0156 33.9688 71.5755 34.0964 71.0391 34.3516C70.5078 34.6068 70.1172 34.7344 69.8672 34.7344C69.6224 34.7344 69.4245 34.6641 69.2734 34.5234C69.1224 34.3776 69.0469 34.1875 69.0469 33.9531C69.0469 33.5312 69.3542 33.1979 69.9688 32.9531C70.5885 32.7031 71.4297 32.5781 72.4922 32.5781C73.6016 32.5781 74.3958 32.7917 74.875 33.2188C75.3542 33.6458 75.5938 34.3698 75.5938 35.3906V38.2891ZM73.7031 36.7812C73.4427 36.724 73.2031 36.6823 72.9844 36.6562C72.7656 36.625 72.5625 36.6094 72.375 36.6094C71.8021 36.6094 71.3516 36.7057 71.0234 36.8984C70.7005 37.0911 70.5391 37.3568 70.5391 37.6953C70.5391 37.9974 70.6432 38.2292 70.8516 38.3906C71.0599 38.5469 71.3594 38.625 71.75 38.625C72.1094 38.625 72.4479 38.5729 72.7656 38.4688C73.0833 38.3646 73.3958 38.2031 73.7031 37.9844V36.7812ZM81.4766 33.2188H83.8594C84.2188 33.2188 84.474 33.2839 84.625 33.4141C84.776 33.5443 84.8516 33.7604 84.8516 34.0625C84.8516 34.3698 84.7734 34.5911 84.6172 34.7266C84.4661 34.862 84.2135 34.9297 83.8594 34.9297H81.4766V36.9297C81.4766 37.4922 81.5625 37.8776 81.7344 38.0859C81.9062 38.2943 82.2083 38.3984 82.6406 38.3984C83.0469 38.3984 83.526 38.2812 84.0781 38.0469C84.6302 37.8125 85 37.6953 85.1875 37.6953C85.401 37.6953 85.5833 37.7812 85.7344 37.9531C85.8906 38.1198 85.9688 38.3229 85.9688 38.5625C85.9688 38.9635 85.6042 39.3307 84.875 39.6641C84.151 39.9922 83.3281 40.1562 82.4062 40.1562C81.8698 40.1562 81.3984 40.0833 80.9922 39.9375C80.5859 39.7917 80.2656 39.5833 80.0312 39.3125C79.8594 39.1042 79.737 38.8542 79.6641 38.5625C79.5911 38.2708 79.5547 37.7839 79.5547 37.1016V36.9297V34.9297H78.8203C78.4661 34.9297 78.2135 34.862 78.0625 34.7266C77.9167 34.5911 77.8438 34.3698 77.8438 34.0625C77.8438 33.7552 77.9167 33.5391 78.0625 33.4141C78.2083 33.2839 78.4609 33.2188 78.8203 33.2188H79.5547V31.3906C79.5547 31.0312 79.6276 30.7786 79.7734 30.6328C79.9245 30.487 80.1719 30.4141 80.5156 30.4141C80.8594 30.4141 81.1042 30.487 81.25 30.6328C81.401 30.7786 81.4766 31.0312 81.4766 31.3906V33.2188ZM92.7188 38.2891H94.3984C94.7578 38.2891 95.013 38.3542 95.1641 38.4844C95.3151 38.6146 95.3906 38.8307 95.3906 39.1328C95.3906 39.4401 95.3125 39.6615 95.1562 39.7969C95.0052 39.9323 94.7526 40 94.3984 40H89.1172C88.763 40 88.5078 39.9323 88.3516 39.7969C88.2005 39.6615 88.125 39.4401 88.125 39.1328C88.125 38.8307 88.1979 38.6146 88.3438 38.4844C88.4948 38.3542 88.7526 38.2891 89.1172 38.2891H90.7969V34.4922H89.9141C89.5651 34.4922 89.3151 34.4271 89.1641 34.2969C89.013 34.1615 88.9375 33.9401 88.9375 33.6328C88.9375 33.3255 89.0104 33.1068 89.1562 32.9766C89.3021 32.8464 89.5547 32.7812 89.9141 32.7812H92.2656C92.4115 32.7812 92.5234 32.8125 92.6016 32.875C92.6797 32.9323 92.7188 33.013 92.7188 33.1172V38.2891ZM91.5938 29.25C91.974 29.25 92.2266 29.3229 92.3516 29.4688C92.4766 29.6146 92.5391 29.9635 92.5391 30.5156C92.5391 31.0469 92.4818 31.3776 92.3672 31.5078C92.2578 31.6328 91.9948 31.6953 91.5781 31.6953C91.1719 31.6953 90.9089 31.6354 90.7891 31.5156C90.6745 31.3958 90.6172 31.1562 90.6172 30.7969C90.6172 30.1302 90.6771 29.7057 90.7969 29.5234C90.9167 29.3411 91.1823 29.25 91.5938 29.25ZM99.1719 39.8906C99.0365 39.9948 98.8958 40.0729 98.75 40.125C98.6094 40.1823 98.4635 40.2109 98.3125 40.2109C98.0885 40.2109 97.9297 40.151 97.8359 40.0312C97.7474 39.9115 97.7031 39.6875 97.7031 39.3594V38.3203C97.7031 37.9766 97.7604 37.7344 97.875 37.5938C97.9896 37.4479 98.1875 37.375 98.4688 37.375C98.776 37.375 99.026 37.5234 99.2188 37.8203C99.3333 37.9818 99.4297 38.1016 99.5078 38.1797C99.763 38.4089 100.06 38.5807 100.398 38.6953C100.737 38.8099 101.122 38.8672 101.555 38.8672C101.93 38.8672 102.229 38.7943 102.453 38.6484C102.677 38.5026 102.789 38.3125 102.789 38.0781C102.789 37.6562 102.188 37.3646 100.984 37.2031C100.719 37.1719 100.51 37.1432 100.359 37.1172C99.4531 36.9922 98.7786 36.7474 98.3359 36.3828C97.8932 36.013 97.6719 35.5182 97.6719 34.8984C97.6719 34.1641 97.9375 33.5964 98.4688 33.1953C99 32.7943 99.7578 32.5938 100.742 32.5938C101.081 32.5938 101.427 32.6224 101.781 32.6797C102.141 32.7318 102.508 32.8151 102.883 32.9297C102.992 32.7995 103.107 32.7031 103.227 32.6406C103.352 32.5781 103.49 32.5469 103.641 32.5469C103.854 32.5469 104.016 32.6146 104.125 32.75C104.24 32.8802 104.297 33.0781 104.297 33.3438V34.3047C104.297 34.5286 104.24 34.7031 104.125 34.8281C104.01 34.9479 103.849 35.0078 103.641 35.0078C103.427 35.0078 103.06 34.8229 102.539 34.4531C102.023 34.0781 101.505 33.8906 100.984 33.8906C100.578 33.8906 100.263 33.9583 100.039 34.0938C99.8151 34.224 99.7031 34.4062 99.7031 34.6406C99.7031 35.0052 100.172 35.25 101.109 35.375C101.38 35.4062 101.594 35.4323 101.75 35.4531C102.927 35.625 103.734 35.8828 104.172 36.2266C104.615 36.5651 104.836 37.0703 104.836 37.7422C104.836 38.5286 104.544 39.138 103.961 39.5703C103.383 39.9974 102.56 40.2109 101.492 40.2109C101.076 40.2109 100.674 40.1823 100.289 40.125C99.9036 40.0729 99.5312 39.9948 99.1719 39.8906ZM109.586 33.5703C109.768 33.2526 110.026 33.0104 110.359 32.8438C110.693 32.6771 111.091 32.5938 111.555 32.5938C112.378 32.5938 113.01 32.8333 113.453 33.3125C113.901 33.7917 114.125 34.4792 114.125 35.375V38.2891H114.258C114.534 38.2891 114.742 38.362 114.883 38.5078C115.029 38.6484 115.102 38.8568 115.102 39.1328C115.102 39.4401 115.026 39.6615 114.875 39.7969C114.729 39.9323 114.479 40 114.125 40H112.188C111.839 40 111.589 39.9323 111.438 39.7969C111.292 39.6615 111.219 39.4401 111.219 39.1328C111.219 38.8516 111.289 38.6406 111.43 38.5C111.57 38.3594 111.781 38.2891 112.062 38.2891H112.188V36.0156C112.188 35.349 112.104 34.888 111.938 34.6328C111.776 34.3724 111.497 34.2422 111.102 34.2422C110.685 34.2422 110.328 34.4115 110.031 34.75C109.734 35.0833 109.586 35.5052 109.586 36.0156V38.2891H109.711C109.992 38.2891 110.203 38.362 110.344 38.5078C110.49 38.6484 110.562 38.8568 110.562 39.1328C110.562 39.4401 110.487 39.6615 110.336 39.7969C110.185 39.9323 109.935 40 109.586 40H107.648C107.289 40 107.036 39.9349 106.891 39.8047C106.745 39.6693 106.672 39.4453 106.672 39.1328C106.672 38.8568 106.742 38.6484 106.883 38.5078C107.029 38.362 107.24 38.2891 107.516 38.2891H107.648V31.5078H107.516C107.24 31.5078 107.026 31.4349 106.875 31.2891C106.729 31.138 106.656 30.9219 106.656 30.6406C106.656 30.3333 106.732 30.112 106.883 29.9766C107.034 29.8411 107.289 29.7734 107.648 29.7734H109.117C109.294 29.7734 109.417 29.8099 109.484 29.8828C109.552 29.9557 109.586 30.0911 109.586 30.2891V33.5703ZM123.641 38.2891H123.766C124.047 38.2891 124.26 38.3646 124.406 38.5156C124.557 38.6615 124.633 38.8724 124.633 39.1484C124.633 39.4505 124.555 39.6693 124.398 39.8047C124.247 39.9349 123.995 40 123.641 40H122.906C122.646 40 122.451 39.9505 122.32 39.8516C122.195 39.7526 122.091 39.5729 122.008 39.3125C121.576 39.599 121.117 39.8177 120.633 39.9688C120.148 40.1198 119.659 40.1953 119.164 40.1953C118.326 40.1953 117.667 39.987 117.188 39.5703C116.708 39.1536 116.469 38.5833 116.469 37.8594C116.469 37.0781 116.779 36.4714 117.398 36.0391C118.018 35.6068 118.888 35.3906 120.008 35.3906C120.258 35.3906 120.523 35.4036 120.805 35.4297C121.086 35.4557 121.401 35.4974 121.75 35.5547V35.4062C121.75 34.9375 121.635 34.5807 121.406 34.3359C121.182 34.0911 120.849 33.9688 120.406 33.9688C120.062 33.9688 119.622 34.0964 119.086 34.3516C118.555 34.6068 118.164 34.7344 117.914 34.7344C117.669 34.7344 117.471 34.6641 117.32 34.5234C117.169 34.3776 117.094 34.1875 117.094 33.9531C117.094 33.5312 117.401 33.1979 118.016 32.9531C118.635 32.7031 119.477 32.5781 120.539 32.5781C121.648 32.5781 122.443 32.7917 122.922 33.2188C123.401 33.6458 123.641 34.3698 123.641 35.3906V38.2891ZM121.75 36.7812C121.49 36.724 121.25 36.6823 121.031 36.6562C120.812 36.625 120.609 36.6094 120.422 36.6094C119.849 36.6094 119.398 36.7057 119.07 36.8984C118.747 37.0911 118.586 37.3568 118.586 37.6953C118.586 37.9974 118.69 38.2292 118.898 38.3906C119.107 38.5469 119.406 38.625 119.797 38.625C120.156 38.625 120.495 38.5729 120.812 38.4688C121.13 38.3646 121.443 38.2031 121.75 37.9844V36.7812ZM128.688 34.4922L130.094 37.8203L131.57 34.4922H131.445C131.164 34.4922 130.948 34.4193 130.797 34.2734C130.651 34.1276 130.578 33.9141 130.578 33.6328C130.578 33.3255 130.651 33.1068 130.797 32.9766C130.948 32.8464 131.206 32.7812 131.57 32.7812H133.406C133.771 32.7812 134.026 32.849 134.172 32.9844C134.323 33.1146 134.398 33.3307 134.398 33.6328C134.398 33.9141 134.326 34.1276 134.18 34.2734C134.034 34.4193 133.82 34.4922 133.539 34.4922H133.406L130.195 41.3906H130.547C130.901 41.3906 131.154 41.4583 131.305 41.5938C131.461 41.7292 131.539 41.9505 131.539 42.2578C131.539 42.5599 131.461 42.7786 131.305 42.9141C131.154 43.0495 130.901 43.1172 130.547 43.1172H127.125C126.766 43.1172 126.51 43.0495 126.359 42.9141C126.208 42.7839 126.133 42.5651 126.133 42.2578C126.133 41.9505 126.208 41.7292 126.359 41.5938C126.51 41.4583 126.766 41.3906 127.125 41.3906H128.336L129.07 39.8203L126.703 34.4922H126.578C126.297 34.4922 126.081 34.4193 125.93 34.2734C125.784 34.1276 125.711 33.9141 125.711 33.6328C125.711 33.3255 125.786 33.1068 125.938 32.9766C126.089 32.8464 126.344 32.7812 126.703 32.7812H128.688C129.047 32.7812 129.302 32.849 129.453 32.9844C129.604 33.1146 129.68 33.3307 129.68 33.6328C129.68 33.9141 129.604 34.1276 129.453 34.2734C129.307 34.4193 129.096 34.4922 128.82 34.4922H128.688ZM139.672 37.1719C140.161 37.1719 140.555 37.3073 140.852 37.5781C141.154 37.849 141.305 38.2031 141.305 38.6406C141.305 39.0729 141.154 39.4271 140.852 39.7031C140.555 39.974 140.161 40.1094 139.672 40.1094C139.193 40.1094 138.802 39.974 138.5 39.7031C138.198 39.4271 138.047 39.0729 138.047 38.6406C138.047 38.2083 138.198 37.8568 138.5 37.5859C138.802 37.3099 139.193 37.1719 139.672 37.1719ZM150.469 38.3359H151.734C152.083 38.3359 152.336 38.401 152.492 38.5312C152.648 38.6615 152.727 38.875 152.727 39.1719C152.727 39.4635 152.651 39.6745 152.5 39.8047C152.349 39.9349 152.094 40 151.734 40H147.125C146.766 40 146.51 39.9349 146.359 39.8047C146.208 39.6745 146.133 39.4635 146.133 39.1719C146.133 38.875 146.208 38.6615 146.359 38.5312C146.516 38.401 146.771 38.3359 147.125 38.3359H148.578V31.7422L147.703 31.9688C147.568 32 147.456 32.0234 147.367 32.0391C147.279 32.0547 147.214 32.0625 147.172 32.0625C146.958 32.0625 146.792 31.9948 146.672 31.8594C146.557 31.724 146.5 31.5312 146.5 31.2812C146.5 31.099 146.565 30.9453 146.695 30.8203C146.826 30.6953 147.026 30.599 147.297 30.5312L149.234 30C149.396 29.9583 149.529 29.9271 149.633 29.9062C149.737 29.8854 149.823 29.875 149.891 29.875C150.099 29.875 150.247 29.9323 150.336 30.0469C150.424 30.1615 150.469 30.3542 150.469 30.625V38.3359ZM161.68 30.9766L159.148 39.7734C159.107 39.9089 159.052 40 158.984 40.0469C158.917 40.099 158.818 40.125 158.688 40.125H157.242C157.169 40.125 157.107 40.1016 157.055 40.0547C157.003 40.0078 156.977 39.9531 156.977 39.8906C156.977 39.8229 156.979 39.7734 156.984 39.7422C156.99 39.7057 156.997 39.6745 157.008 39.6484L159.805 31.8906H156.445L156.414 32.0312C156.388 32.2031 156.307 32.3438 156.172 32.4531C156.042 32.5573 155.883 32.6094 155.695 32.6094C155.477 32.6094 155.315 32.5599 155.211 32.4609C155.107 32.362 155.055 32.2083 155.055 32C155.055 31.9792 155.057 31.9479 155.062 31.9062C155.068 31.8646 155.07 31.8307 155.07 31.8047L155.211 30.5938C155.227 30.4479 155.281 30.3359 155.375 30.2578C155.469 30.1797 155.591 30.1406 155.742 30.1406H161.266C161.411 30.1406 161.516 30.1745 161.578 30.2422C161.646 30.3047 161.68 30.4062 161.68 30.5469V30.9766Z" fill="#333333"/>
<path d="M36.5152 27.5673C36.2074 27.5673 35.903 27.583 35.603 27.6138C35.3031 27.6445 35.0073 27.6901 34.7166 27.75C34.4258 27.8099 34.1402 27.884 33.8604 27.9715L33.0389 28.2737L32.2568 28.652L31.5188 29.1019L30.8292 29.6186L30.1929 30.1977L29.6144 30.8346L29.098 31.5246L28.6484 32.2633L28.2705 33.0459C28.1569 33.3136 28.0559 33.588 27.9685 33.8682C27.881 34.1483 27.807 34.4343 27.7471 34.7253C27.6872 35.0162 27.6417 35.3122 27.6109 35.6124C27.58 35.9127 27.5646 36.2173 27.5646 36.5253C27.5646 36.8334 27.5803 37.138 27.6109 37.4383C27.6413 37.7361 27.6868 38.0323 27.7471 38.3255C27.807 38.6176 27.881 38.9025 27.9685 39.1826C28.0559 39.4628 28.1568 39.7371 28.2705 40.0049L28.6484 40.7875L29.098 41.5261L29.6144 42.2162L30.1929 42.8531L30.8292 43.4322L31.5188 43.9489L32.2568 44.3988L33.0389 44.7771L33.8604 45.0793L34.7166 45.3008C35.0096 45.3612 35.3054 45.4067 35.603 45.4372C35.9061 45.4681 36.2105 45.4836 36.5152 45.4836C36.823 45.4836 37.1274 45.4678 37.4272 45.4372C37.7248 45.4067 38.0207 45.3612 38.3137 45.3008L39.17 45.0793L39.9914 44.7771L40.7734 44.3988L41.5115 43.9489L42.2011 43.4322L42.8375 42.8531L43.4161 42.2162L43.9324 41.5261L44.3821 40.7875L44.7599 40.0049L45.062 39.1826C45.1495 38.9025 45.2235 38.6165 45.2833 38.3255L45.4196 37.4381C45.4503 37.1379 45.466 36.8332 45.466 36.5252C45.466 36.2172 45.4503 35.9126 45.4196 35.6123C45.3891 35.3145 45.3437 35.0184 45.2833 34.7251C45.2235 34.4331 45.1495 34.1483 45.062 33.8681L44.7599 33.0458L44.3821 32.2632L43.9324 31.5245L43.4161 30.8345L42.8375 30.1976L42.2011 29.6185L41.5115 29.1018L40.7734 28.6519L39.9914 28.2736L39.17 27.9714L38.3137 27.7499L37.4272 27.6136C37.1242 27.5826 36.8198 27.5671 36.5152 27.5671V27.5673ZM36.5152 30.6592C36.7187 30.6592 36.9195 30.6694 37.1173 30.6894L37.7003 30.7778L38.2636 30.9215L38.8029 31.1178L39.3156 31.3638L39.7978 31.6564L40.2485 31.9931L40.6641 32.3707L41.0414 32.7866L41.3778 33.2377L41.6702 33.7214L41.9157 34.2347C41.9895 34.4104 42.055 34.5905 42.112 34.7746C42.1689 34.9587 42.2168 35.1468 42.2555 35.3385C42.2942 35.5301 42.3228 35.7251 42.3437 35.9231L42.3738 36.5259C42.3738 36.7296 42.3637 36.9306 42.3437 37.1288C42.3238 37.3269 42.2944 37.5219 42.2555 37.7135C42.2166 37.905 42.1686 38.0931 42.112 38.2774L41.9157 38.8172L41.6702 39.3306L41.3778 39.8141L41.0414 40.2654L40.6641 40.6812L40.2485 41.0589L39.7978 41.3955L39.3156 41.6881L38.8029 41.9341L38.2636 42.1304L37.7003 42.2742L37.1173 42.3625C36.9172 42.3826 36.7162 42.3926 36.5151 42.3926C36.3139 42.3926 36.1129 42.3826 35.9127 42.3625L35.3297 42.2742C35.1383 42.2353 34.9503 42.1872 34.7663 42.1304L34.227 41.9341L33.7143 41.6881L33.2321 41.3955L32.7814 41.0589L32.3658 40.6812L31.9885 40.2654L31.6521 39.8141L31.3597 39.3306L31.1142 38.8172L30.9179 38.2774L30.7744 37.7135L30.6862 37.1288C30.6661 36.9285 30.6561 36.7272 30.6561 36.5259C30.6561 36.3246 30.6661 36.1234 30.6862 35.9231C30.706 35.7251 30.7355 35.53 30.7744 35.3385C30.8129 35.1483 30.8609 34.9601 30.918 34.7747L31.1143 34.2348L31.3598 33.7215L31.6523 33.2378L31.9886 32.7867L32.3659 32.3708L32.7815 31.9932L33.2322 31.6565L33.7144 31.3639L34.2271 31.1179C34.4036 31.0436 34.5836 30.9781 34.7666 30.9217L35.3299 30.7779C35.5213 30.739 35.7162 30.7093 35.9129 30.6895C36.1131 30.6694 36.3141 30.6593 36.5153 30.6594L36.5152 30.6592Z" fill="url(#paint0_radial)"/>
<path d="M45.8289 25.0189C45.7578 25.0189 45.6868 25.0225 45.6161 25.0297C45.5454 25.0369 45.4751 25.0476 45.4054 25.0618C45.3358 25.0761 45.2669 25.0938 45.199 25.115C45.1311 25.1361 45.0643 25.1607 44.9988 25.1887C44.9334 25.2166 44.8694 25.2478 44.807 25.2822C44.7446 25.3166 44.684 25.354 44.6253 25.3944C44.5667 25.4349 44.5101 25.4783 44.4557 25.5245C44.4014 25.5707 44.3493 25.6195 44.2998 25.6709C44.2503 25.7223 44.2034 25.7762 44.1592 25.8323C44.1151 25.8884 44.0737 25.9468 44.0353 26.0071C43.997 26.0673 43.9616 26.1295 43.9294 26.1933C43.8971 26.2572 43.868 26.3227 43.8423 26.3895C43.8165 26.4562 43.7941 26.5243 43.7751 26.5933C43.7561 26.6624 43.7405 26.7323 43.7284 26.8029C43.7164 26.8735 43.7078 26.9447 43.7028 27.0161C43.6992 27.0668 43.6974 27.1175 43.6974 27.1682C43.6974 27.2399 43.7009 27.3116 43.708 27.3829C43.7151 27.4542 43.7258 27.5251 43.7399 27.5953C43.754 27.6655 43.7716 27.735 43.7926 27.8035C43.8136 27.8719 43.838 27.9393 43.8657 28.0053C43.8934 28.0714 43.9243 28.136 43.9584 28.1989C43.9925 28.2618 44.0296 28.3229 44.0698 28.3821C44.1099 28.4412 44.1529 28.4983 44.1987 28.553C44.2445 28.6079 44.2929 28.6604 44.3439 28.7103C44.3949 28.7602 44.4483 28.8075 44.504 28.8521C44.5597 28.8966 44.6176 28.9384 44.6774 28.9771C44.7372 29.0158 44.7989 29.0515 44.8623 29.084C44.9256 29.1166 44.9905 29.1459 45.0567 29.1719C45.1229 29.1978 45.1904 29.2204 45.2589 29.2396C45.3273 29.2587 45.3967 29.2744 45.4667 29.2866C45.5368 29.2988 45.6073 29.3074 45.6782 29.3125C45.7284 29.3161 45.7787 29.3179 45.829 29.3179C45.9001 29.3179 45.9711 29.3144 46.0418 29.3072C46.1126 29.3001 46.1829 29.2893 46.2525 29.2751C46.3222 29.2609 46.3911 29.2431 46.4589 29.222C46.5268 29.2008 46.5936 29.1762 46.6591 29.1483C46.7245 29.1204 46.7886 29.0892 46.8509 29.0548C46.9133 29.0205 46.9739 28.983 47.0326 28.9425C47.0912 28.9021 47.1479 28.8587 47.2022 28.8125C47.2566 28.7664 47.3086 28.7175 47.3581 28.6661C47.4076 28.6146 47.4545 28.5608 47.4987 28.5046C47.5429 28.4485 47.5842 28.3902 47.6226 28.3298C47.661 28.2696 47.6963 28.2074 47.7286 28.1435C47.7608 28.0796 47.7899 28.0142 47.8157 27.9474C47.8414 27.8806 47.8638 27.8125 47.8828 27.7435C47.9018 27.6744 47.9174 27.6045 47.9295 27.5339C47.9416 27.4633 47.9501 27.3921 47.9552 27.3207C47.9587 27.2701 47.9605 27.2193 47.9605 27.1686C47.9605 27.0969 47.957 27.0253 47.9499 26.954C47.9428 26.8827 47.9322 26.8118 47.918 26.7416C47.9039 26.6714 47.8863 26.6019 47.8653 26.5335C47.8443 26.465 47.8199 26.3976 47.7922 26.3316C47.7646 26.2656 47.7336 26.201 47.6995 26.1381C47.6655 26.0752 47.6283 26.014 47.5882 25.9549C47.548 25.8957 47.5049 25.8386 47.4591 25.7838C47.4134 25.729 47.365 25.6765 47.314 25.6265C47.263 25.5766 47.2096 25.5293 47.1539 25.4848C47.0982 25.4402 47.0404 25.3985 46.9806 25.3598C46.9207 25.3211 46.859 25.2854 46.7957 25.2529C46.7323 25.2204 46.6675 25.1911 46.6012 25.1651C46.535 25.1391 46.4675 25.1165 46.3991 25.0973C46.3306 25.0782 46.2612 25.0624 46.1912 25.0503C46.1212 25.0381 46.0506 25.0295 45.9797 25.0244C45.9295 25.0208 45.8792 25.019 45.8289 25.019V25.0189Z" fill="url(#paint1_radial)"/>
<path d="M34.8178 19.0003C33.8443 18.9988 32.9755 19.0028 32.1951 19.0138L30.1029 19.07C29.483 19.0969 28.9354 19.1321 28.4438 19.1776C28.1981 19.2003 27.9662 19.2257 27.7464 19.2536C27.5373 19.28 27.3287 19.3108 27.1209 19.3459C26.923 19.3796 26.7351 19.4159 26.5551 19.4555C26.375 19.495 26.203 19.5377 26.037 19.5835C25.8748 19.6284 25.7139 19.6777 25.5543 19.7314C25.398 19.7842 25.2455 19.8401 25.095 19.8999C24.7938 20.0194 24.5 20.1535 24.1975 20.3038C23.9647 20.4195 23.7497 20.5367 23.5454 20.6607C23.3411 20.7847 23.1476 20.9157 22.9581 21.0583C22.7629 21.206 22.5748 21.3627 22.3944 21.5281C22.2058 21.7002 22.0132 21.8895 21.813 22.101C21.5615 22.3653 21.343 22.6117 21.149 22.8536C21.052 22.9744 20.9612 23.094 20.8756 23.2142C20.791 23.3326 20.7102 23.4537 20.6331 23.5772C20.5569 23.6997 20.4847 23.8243 20.4156 23.9526C20.3454 24.0831 20.2792 24.2156 20.2168 24.35C20.0892 24.6246 19.9701 24.9202 19.8513 25.2503C19.7631 25.4942 19.6841 25.7415 19.6146 25.9914C19.5436 26.2468 19.4805 26.5141 19.4242 26.8031C19.3679 27.0921 19.3188 27.4029 19.2756 27.7467C19.2291 28.1235 19.1919 28.5013 19.1642 28.88C19.1328 29.2963 19.1067 29.7544 19.0854 30.2642L19.035 31.9595L19.0078 34.026L19 36.5239L19.023 40.1563L19.0947 42.9084L19.15 43.9834L19.2191 44.8742C19.2412 45.1143 19.2689 45.3538 19.3022 45.5927C19.3325 45.8047 19.365 45.9903 19.4 46.1509C19.4709 46.4775 19.5549 46.8011 19.6516 47.121C19.7441 47.4273 19.85 47.7294 19.9689 48.0264C20.0857 48.3173 20.2135 48.5979 20.3526 48.868C20.4916 49.138 20.6419 49.3975 20.8033 49.6468C20.9648 49.896 21.1375 50.1351 21.3218 50.3639C21.5059 50.5927 21.7018 50.8118 21.9086 51.0203C22.1157 51.2293 22.3341 51.4281 22.5643 51.617C22.7972 51.8081 23.0393 51.9877 23.2897 52.1551C23.5222 52.3108 23.7521 52.4533 23.9838 52.5842C24.2154 52.7151 24.4491 52.8338 24.6893 52.9417C24.9295 53.0497 25.1757 53.1469 25.4329 53.2342C25.6901 53.3216 25.9581 53.3994 26.2413 53.4683C26.5246 53.5373 26.8244 53.5979 27.1417 53.6507C27.459 53.7034 27.7982 53.7487 28.1606 53.7877C28.523 53.8267 28.9096 53.8589 29.325 53.8859C29.7405 53.9128 30.1845 53.9344 30.6616 53.9517C31.3986 53.9784 32.5142 53.994 33.8008 54L37.9657 53.9916L41.9097 53.9362L43.4092 53.894L44.3862 53.8436C44.5959 53.8266 44.8011 53.8063 44.9991 53.7826C45.1971 53.7589 45.3924 53.7319 45.5826 53.7011C45.7727 53.6703 45.9586 53.6359 46.1413 53.5977C46.3218 53.5601 46.5014 53.518 46.68 53.4716C46.8567 53.4267 47.0309 53.3756 47.2034 53.3213C47.3758 53.267 47.5465 53.2084 47.7161 53.1455C47.8867 53.0822 48.0558 53.0147 48.2231 52.9432C48.3917 52.8713 48.56 52.7945 48.7288 52.7129C48.9882 52.5878 49.197 52.4834 49.3803 52.3815C49.5527 52.2868 49.7188 52.1808 49.8775 52.0643C50.034 51.9489 50.1896 51.8174 50.369 51.6519C50.5484 51.4863 50.7517 51.2868 51.0034 51.0345C51.2247 50.813 51.4112 50.6204 51.5721 50.4453C51.733 50.2702 51.8686 50.1126 51.9875 49.9607C52.1008 49.8166 52.2063 49.6666 52.3036 49.5112C52.3986 49.3595 52.4861 49.202 52.5752 49.0274C52.7093 48.7645 52.8286 48.5211 52.9355 48.2862C53.0392 48.0599 53.134 47.8295 53.2196 47.5956C53.3039 47.3636 53.3769 47.1276 53.4384 46.8885C53.5016 46.6425 53.5561 46.3828 53.6032 46.0979C53.6503 45.813 53.6901 45.503 53.7246 45.1568C53.7592 44.8106 53.7885 44.428 53.8143 43.9981L53.8827 42.555L53.9415 40.7603L53.9834 38.7609L53.9996 36.6702L53.9621 32.5639L53.912 30.7248L53.8436 29.1456L53.7584 27.9145C53.7274 27.5719 53.694 27.3021 53.6586 27.1197C53.6194 26.9181 53.5756 26.7174 53.5272 26.5179C53.4801 26.3237 53.4283 26.1307 53.3719 25.9391C53.3169 25.7523 53.2571 25.567 53.1927 25.3834C53.129 25.202 53.0615 25.0244 52.9909 24.8506C52.9202 24.6768 52.8438 24.5071 52.7642 24.3409C52.6845 24.1748 52.6011 24.0127 52.5135 23.8543C52.426 23.6959 52.3347 23.5415 52.2393 23.3909C52.1439 23.2402 52.0445 23.0934 51.941 22.9505C51.8381 22.8081 51.7308 22.6689 51.6192 22.5332C51.5082 22.3983 51.393 22.2668 51.2737 22.1392C51.1545 22.0117 51.0314 21.888 50.9044 21.7682C50.7774 21.6485 50.6465 21.5326 50.5115 21.4205C50.376 21.308 50.2371 21.1998 50.0949 21.096C49.9512 20.9911 49.8043 20.8906 49.6544 20.7947C49.5026 20.6974 49.3478 20.6047 49.1905 20.5166C49.0303 20.427 48.8677 20.342 48.7027 20.2618C48.4289 20.1285 48.1757 20.0102 47.9271 19.9053C47.6828 19.8011 47.4337 19.7087 47.1806 19.6281C46.9261 19.5478 46.6611 19.479 46.3696 19.4195C46.0781 19.3601 45.7602 19.3106 45.4004 19.2685C45.0406 19.2263 44.6388 19.1923 44.1793 19.164C43.7198 19.1357 43.203 19.1134 42.6129 19.0955L40.6074 19.0505L38.0692 19.0205L34.8189 19.0005L34.8178 19.0003ZM36.5058 22.0896L41.1931 22.1164L42.9613 22.1505C43.4482 22.1642 43.8198 22.1803 44.0377 22.1988C44.3214 22.2227 44.5916 22.2527 44.8501 22.2887C45.0981 22.323 45.3449 22.3657 45.5901 22.4166C45.8255 22.466 46.0501 22.5222 46.2651 22.5856C46.48 22.6489 46.6853 22.7199 46.8823 22.7984C47.0793 22.8769 47.2677 22.9633 47.449 23.0579C47.6289 23.1518 47.8037 23.2551 47.9727 23.3674C48.1408 23.4791 48.303 23.5996 48.4604 23.7293C48.6178 23.859 48.7704 23.9981 48.9195 24.1468C49.0768 24.3038 49.2219 24.4636 49.3556 24.6285C49.4889 24.7924 49.6122 24.9641 49.7249 25.1429C49.8388 25.3241 49.9415 25.5123 50.0323 25.7062C50.1251 25.9039 50.2086 26.1128 50.2835 26.3349C50.3584 26.557 50.4251 26.793 50.4842 27.0452C50.5461 27.3125 50.5979 27.5821 50.6396 27.8534C50.6844 28.141 50.7228 28.4476 50.7553 28.776C50.7878 29.1043 50.8147 29.4544 50.8369 29.8291C50.8546 30.1295 50.8701 30.5261 50.8832 30.9944L50.9161 32.5911L50.9412 36.5025L50.9126 40.4101L50.8783 42.0023L50.8311 43.1603C50.7984 43.7025 50.7638 44.1583 50.7226 44.5551C50.7018 44.7534 50.6794 44.937 50.6545 45.1092C50.6312 45.2719 50.6036 45.4339 50.5716 45.5951C50.5425 45.7422 50.5086 45.8883 50.4702 46.0332C50.4333 46.1715 50.3918 46.3085 50.3458 46.444C50.2994 46.5801 50.249 46.7149 50.1946 46.8479C50.137 46.9885 50.0762 47.1277 50.0123 47.2655C49.9555 47.3885 49.8957 47.5081 49.8325 47.6246C49.77 47.7399 49.7036 47.853 49.6334 47.9638C49.5638 48.0736 49.491 48.1802 49.4147 48.2834C49.3389 48.3863 49.2594 48.4864 49.1763 48.5836C49.0936 48.6803 49.0073 48.774 48.9177 48.8644C48.828 48.9548 48.7349 49.0421 48.6385 49.1263C48.542 49.2106 48.442 49.2915 48.3385 49.3694C48.235 49.4474 48.128 49.5222 48.0173 49.5939C47.9066 49.6655 47.7925 49.7343 47.6746 49.7999C47.5568 49.8655 47.4352 49.9281 47.3102 49.9878C47.183 50.0483 47.0541 50.1051 46.9235 50.1579C46.7885 50.2124 46.652 50.2632 46.5142 50.3101C46.2339 50.4058 45.9382 50.4898 45.627 50.5623C45.3026 50.6373 44.9752 50.6987 44.6456 50.7462C44.5189 50.7648 44.2277 50.7822 43.8106 50.7984L42.2211 50.8426L37.7148 50.9013L32.9981 50.9087L31.1457 50.8889L29.943 50.8514L29.0561 50.7889C28.7807 50.7657 28.5246 50.7398 28.2846 50.7105C28.0447 50.6812 27.8212 50.6485 27.611 50.6117C27.4117 50.5772 27.2137 50.536 27.0173 50.4881C26.8381 50.4445 26.6608 50.3936 26.4858 50.3356C26.317 50.2794 26.1557 50.2176 25.9987 50.1497C25.8417 50.0817 25.6892 50.0072 25.5382 49.9259C25.3872 49.8446 25.2377 49.7563 25.0866 49.66C24.9725 49.5875 24.8623 49.514 24.7562 49.4361C24.6502 49.3583 24.5477 49.2807 24.449 49.1994C24.3503 49.118 24.2556 49.0342 24.1642 48.948C24.0734 48.8621 23.9858 48.773 23.9014 48.6808C23.8173 48.5889 23.7369 48.4944 23.6597 48.3964C23.5823 48.2981 23.5085 48.1969 23.4385 48.0931C23.3675 47.9878 23.3003 47.8798 23.237 47.7696C23.1731 47.6584 23.1123 47.5434 23.0546 47.4248C22.9959 47.3039 22.9411 47.1811 22.8903 47.0567C22.8388 46.9299 22.7899 46.7992 22.7439 46.6642C22.652 46.394 22.5712 46.1065 22.501 45.7998C22.4308 45.4931 22.371 45.1674 22.3203 44.8203C22.2696 44.4732 22.2288 44.1052 22.1963 43.7141C22.1723 43.4259 22.1532 42.9772 22.1386 42.411L22.1081 40.3975L22.1194 35.2646L22.2076 30.3598L22.2749 28.6317L22.313 28.0605C22.3262 27.908 22.3399 27.795 22.3539 27.7271C22.4001 27.5039 22.4467 27.2962 22.4948 27.1018C22.5397 26.9184 22.5897 26.7362 22.6447 26.5555C22.6969 26.385 22.752 26.2253 22.8108 26.074C22.8676 25.9274 22.9309 25.7834 23.0004 25.6425C23.0684 25.5055 23.1414 25.3743 23.2207 25.2465C23.2999 25.1188 23.3855 24.9949 23.4788 24.8717C23.5721 24.7485 23.6725 24.6268 23.7819 24.5035C23.8912 24.3801 24.0092 24.2556 24.1373 24.1272C24.2865 23.9768 24.4419 23.8327 24.6031 23.6953C24.7552 23.5656 24.9139 23.4438 25.0785 23.3303C25.2403 23.218 25.4062 23.118 25.579 23.0261C25.7518 22.9342 25.9314 22.8512 26.1204 22.7765C26.3093 22.7018 26.5078 22.635 26.718 22.5743C26.9389 22.5123 27.1622 22.4593 27.3874 22.4156C27.6242 22.3691 27.8757 22.3286 28.1442 22.2932C28.4128 22.2578 28.6985 22.2272 29.0039 22.2007C29.217 22.1823 29.5841 22.1659 30.0674 22.1521L31.8267 22.1173L36.5066 22.0886L36.5058 22.0896Z" fill="url(#paint2_radial)"/>
</g>
<defs>
<filter id="filter0_d" x="0.433673" y="0.163265" width="212.592" height="79.5918" filterUnits="userSpaceOnUse" color-interpolation-filters="sRGB">
<feFlood flood-opacity="0" result="BackgroundImageFix"/>
<feColorMatrix in="SourceAlpha" type="matrix" values="0 0 0 0 0 0 0 0 0 0 0 0 0 0 0 0 0 0 127 0"/>
<feOffset dx="1.72959" dy="3.45918"/>
<feGaussianBlur stdDeviation="8.64796"/>
<feColorMatrix type="matrix" values="0 0 0 0 0 0 0 0 0 0 0 0 0 0 0 0 0 0 0.25 0"/>
<feBlend mode="normal" in2="BackgroundImageFix" result="effect1_dropShadow"/>
<feBlend mode="normal" in="SourceGraphic" in2="effect1_dropShadow" result="shape"/>
</filter>
<radialGradient id="paint0_radial" cx="0" cy="0" r="1" gradientUnits="userSpaceOnUse" gradientTransform="translate(14151.2 10186.1) rotate(-9.54801) scale(11810.4 7174.11)">
<stop/>
</radialGradient>
<radialGradient id="paint1_radial" cx="0" cy="0" r="1" gradientUnits="userSpaceOnUse" gradientTransform="translate(3348.23 2426.06) rotate(-9.54801) scale(2812.59 1721.4)">
<stop offset="1" stop-color="#090909"/>
</radialGradient>
<radialGradient id="paint2_radial" cx="0" cy="0" r="1" gradientUnits="userSpaceOnUse" gradientTransform="translate(27706.5 19913.6) rotate(-9.54801) scale(23090.8 14014.7)">
<stop/>
</radialGradient>
<clipPath id="clip0">
<rect width="178" height="45" fill="white" transform="translate(16 14)"/>
</clipPath>
</defs>
</svg>
