<svg width="214" height="80" viewBox="0 0 214 80" fill="none" xmlns="http://www.w3.org/2000/svg">
<g clip-path="url(#clip0)" filter="url(#filter0_d)">
<rect width="178" height="45" transform="translate(16 14)" fill="#F2F2F2"/>
<g opacity="0.9">
<path d="M180.61 58.5794H180.212V59.2617H180.61V58.5794Z" fill="#333333"/>
<path d="M181.263 58.5794H180.866V59.2617H181.263V58.5794Z" fill="#333333"/>
<path d="M182.576 58.5794H182.178V59.2617H182.576V58.5794Z" fill="#333333"/>
<path d="M185.191 58.5794H184.793V59.2617H185.191V58.5794Z" fill="#333333"/>
<path d="M185.844 58.5794H185.447V59.2617H185.844V58.5794Z" fill="#333333"/>
<path d="M187.151 58.5794H186.754V59.2617H187.151V58.5794Z" fill="#333333"/>
<path d="M192.392 58.5794H191.994V59.2617H192.392V58.5794Z" fill="#333333"/>
<path d="M194.352 58.5794H193.955V59.2617H194.352V58.5794Z" fill="#333333"/>
<path d="M185.191 56.3365H184.793V57.0187H185.191V56.3365Z" fill="#333333"/>
<path d="M186.498 56.3365H186.1V57.0187H186.498V56.3365Z" fill="#333333"/>
<path d="M187.151 56.3365H186.754V57.0187H187.151V56.3365Z" fill="#333333"/>
<path d="M187.811 56.3365H187.413V57.0187H187.811V56.3365Z" fill="#333333"/>
<path d="M190.425 56.3365H190.028V57.0187H190.425V56.3365Z" fill="#333333"/>
<path d="M191.732 56.3365H191.335V57.0187H191.732V56.3365Z" fill="#333333"/>
<path d="M192.392 56.3365H191.994V57.0187H192.392V56.3365Z" fill="#333333"/>
<path d="M193.045 56.3365H192.647V57.0187H193.045V56.3365Z" fill="#333333"/>
<path d="M172.755 55.2056H172.357V55.8878H172.755V55.2056Z" fill="#333333"/>
<path d="M174.721 55.2056H174.324V55.8878H174.721V55.2056Z" fill="#333333"/>
<path d="M177.995 55.2056H177.597V55.8878H177.995V55.2056Z" fill="#333333"/>
<path d="M179.956 55.2056H179.558V55.8878H179.956V55.2056Z" fill="#333333"/>
<path d="M180.61 55.2056H180.212V55.8878H180.61V55.2056Z" fill="#333333"/>
<path d="M183.23 55.2056H182.832V55.8878H183.23V55.2056Z" fill="#333333"/>
<path d="M176.682 54.0842H176.285V54.7664H176.682V54.0842Z" fill="#333333"/>
<path d="M177.336 54.0842H176.938V54.7664H177.336V54.0842Z" fill="#333333"/>
<path d="M177.995 54.0842H177.597V54.7664H177.995V54.0842Z" fill="#333333"/>
<path d="M179.302 54.0842H178.905V54.7664H179.302V54.0842Z" fill="#333333"/>
<path d="M180.61 54.0842H180.212V54.7664H180.61V54.0842Z" fill="#333333"/>
<path d="M181.263 54.0842H180.866V54.7664H181.263V54.0842Z" fill="#333333"/>
<path d="M182.576 54.0842H182.178V54.7664H182.576V54.0842Z" fill="#333333"/>
<path d="M183.23 54.0842H182.832V54.7664H183.23V54.0842Z" fill="#333333"/>
<path d="M183.883 54.0842H183.486V54.7664H183.883V54.0842Z" fill="#333333"/>
<path d="M187.811 54.0842H187.413V54.7664H187.811V54.0842Z" fill="#333333"/>
<path d="M192.392 54.0842H191.994V54.7664H192.392V54.0842Z" fill="#333333"/>
<path d="M193.045 54.0842H192.647V54.7664H193.045V54.0842Z" fill="#333333"/>
<path d="M193.699 54.0842H193.301V54.7664H193.699V54.0842Z" fill="#333333"/>
<path d="M172.101 52.9626H171.704V53.6449H172.101V52.9626Z" fill="#333333"/>
<path d="M183.23 52.9626H182.832V53.6449H183.23V52.9626Z" fill="#333333"/>
<path d="M187.811 52.9626H187.413V53.6449H187.811V52.9626Z" fill="#333333"/>
<path d="M188.464 52.9626H188.067V53.6449H188.464V52.9626Z" fill="#333333"/>
<path d="M189.118 52.9626H188.72V53.6449H189.118V52.9626Z" fill="#333333"/>
<path d="M183.883 51.8412H183.486V52.5234H183.883V51.8412Z" fill="#333333"/>
<path d="M184.537 51.8412H184.139V52.5234H184.537V51.8412Z" fill="#333333"/>
<path d="M187.151 51.8412H186.754V52.5234H187.151V51.8412Z" fill="#333333"/>
<path d="M190.425 51.8412H190.028V52.5234H190.425V51.8412Z" fill="#333333"/>
<path d="M191.079 51.8412H190.681V52.5234H191.079V51.8412Z" fill="#333333"/>
<path d="M192.392 51.8412H191.994V52.5234H192.392V51.8412Z" fill="#333333"/>
<path d="M193.045 51.8412H192.647V52.5234H193.045V51.8412Z" fill="#333333"/>
<path d="M193.699 51.8412H193.301V52.5234H193.699V51.8412Z" fill="#333333"/>
<path d="M194.352 51.8412H193.955V52.5234H194.352V51.8412Z" fill="#333333"/>
<path d="M174.068 50.7196H173.67V51.4018H174.068V50.7196Z" fill="#333333"/>
<path d="M175.375 50.7196H174.977V51.4018H175.375V50.7196Z" fill="#333333"/>
<path d="M176.029 50.7196H175.631V51.4018H176.029V50.7196Z" fill="#333333"/>
<path d="M176.682 50.7196H176.285V51.4018H176.682V50.7196Z" fill="#333333"/>
<path d="M177.995 50.7196H177.597V51.4018H177.995V50.7196Z" fill="#333333"/>
<path d="M179.956 50.7196H179.558V51.4018H179.956V50.7196Z" fill="#333333"/>
<path d="M180.61 50.7196H180.212V51.4018H180.61V50.7196Z" fill="#333333"/>
<path d="M181.263 50.7196H180.866V51.4018H181.263V50.7196Z" fill="#333333"/>
<path d="M182.576 50.7196H182.178V51.4018H182.576V50.7196Z" fill="#333333"/>
<path d="M183.883 50.7196H183.486V51.4018H183.883V50.7196Z" fill="#333333"/>
<path d="M185.844 50.7196H185.447V51.4018H185.844V50.7196Z" fill="#333333"/>
<path d="M187.151 50.7196H186.754V51.4018H187.151V50.7196Z" fill="#333333"/>
<path d="M189.118 50.7196H188.72V51.4018H189.118V50.7196Z" fill="#333333"/>
<path d="M189.772 50.7196H189.374V51.4018H189.772V50.7196Z" fill="#333333"/>
<path d="M191.079 50.7196H190.681V51.4018H191.079V50.7196Z" fill="#333333"/>
<path d="M191.732 50.7196H191.335V51.4018H191.732V50.7196Z" fill="#333333"/>
<path d="M193.045 50.7196H192.647V51.4018H193.045V50.7196Z" fill="#333333"/>
<path d="M194.352 50.7196H193.955V51.4018H194.352V50.7196Z" fill="#333333"/>
<path d="M178.649 49.5981H178.251V50.2804H178.649V49.5981Z" fill="#333333"/>
<path d="M179.302 49.5981H178.905V50.2804H179.302V49.5981Z" fill="#333333"/>
<path d="M191.732 48.4767H191.335V49.1589H191.732V48.4767Z" fill="#333333"/>
<path d="M192.392 48.4767H191.994V49.1589H192.392V48.4767Z" fill="#333333"/>
<path d="M193.045 48.4767H192.647V49.1589H193.045V48.4767Z" fill="#333333"/>
<path d="M194.352 48.4767H193.955V49.1589H194.352V48.4767Z" fill="#333333"/>
<path d="M182.576 47.3458H182.178V48.0281H182.576V47.3458Z" fill="#333333"/>
<path d="M183.23 47.3458H182.832V48.0281H183.23V47.3458Z" fill="#333333"/>
<path d="M185.191 47.3458H184.793V48.0281H185.191V47.3458Z" fill="#333333"/>
<path d="M186.498 47.3458H186.1V48.0281H186.498V47.3458Z" fill="#333333"/>
<path d="M187.811 47.3458H187.413V48.0281H187.811V47.3458Z" fill="#333333"/>
<path d="M189.118 47.3458H188.72V48.0281H189.118V47.3458Z" fill="#333333"/>
<path d="M191.732 47.3458H191.335V48.0281H191.732V47.3458Z" fill="#333333"/>
<path d="M192.392 47.3458H191.994V48.0281H192.392V47.3458Z" fill="#333333"/>
<path d="M193.699 47.3458H193.301V48.0281H193.699V47.3458Z" fill="#333333"/>
<path d="M194.352 47.3458H193.955V48.0281H194.352V47.3458Z" fill="#333333"/>
<path d="M183.23 45.1028H182.832V45.785H183.23V45.1028Z" fill="#333333"/>
<path d="M183.883 45.1028H183.486V45.785H183.883V45.1028Z" fill="#333333"/>
<path d="M186.498 45.1028H186.1V45.785H186.498V45.1028Z" fill="#333333"/>
<path d="M187.151 45.1028H186.754V45.785H187.151V45.1028Z" fill="#333333"/>
<path d="M187.811 45.1028H187.413V45.785H187.811V45.1028Z" fill="#333333"/>
<path d="M188.464 45.1028H188.067V45.785H188.464V45.1028Z" fill="#333333"/>
<path d="M189.772 45.1028H189.374V45.785H189.772V45.1028Z" fill="#333333"/>
<path d="M190.425 45.1028H190.028V45.785H190.425V45.1028Z" fill="#333333"/>
<path d="M191.732 45.1028H191.335V45.785H191.732V45.1028Z" fill="#333333"/>
<path d="M193.699 45.1028H193.301V45.785H193.699V45.1028Z" fill="#333333"/>
<path d="M194.352 45.1028H193.955V45.785H194.352V45.1028Z" fill="#333333"/>
<path d="M173.414 43.9813H173.016V44.6636H173.414V43.9813Z" fill="#333333"/>
<path d="M174.068 43.9813H173.67V44.6636H174.068V43.9813Z" fill="#333333"/>
<path d="M189.772 37.243H189.374V37.9252H189.772V37.243Z" fill="#333333"/>
<path d="M191.079 37.243H190.681V37.9252H191.079V37.243Z" fill="#333333"/>
<path d="M191.732 37.243H191.335V37.9252H191.732V37.243Z" fill="#333333"/>
<path d="M192.392 37.243H191.994V37.9252H192.392V37.243Z" fill="#333333"/>
<path d="M193.045 37.243H192.647V37.9252H193.045V37.243Z" fill="#333333"/>
<path d="M193.699 37.243H193.301V37.9252H193.699V37.243Z" fill="#333333"/>
<path d="M176.682 36.1215H176.285V36.8038H176.682V36.1215Z" fill="#333333"/>
<path d="M177.995 36.1215H177.597V36.8038H177.995V36.1215Z" fill="#333333"/>
<path d="M178.649 36.1215H178.251V36.8038H178.649V36.1215Z" fill="#333333"/>
<path d="M180.61 36.1215H180.212V36.8038H180.61V36.1215Z" fill="#333333"/>
<path d="M181.917 36.1215H181.519V36.8038H181.917V36.1215Z" fill="#333333"/>
<path d="M182.576 36.1215H182.178V36.8038H182.576V36.1215Z" fill="#333333"/>
<path d="M183.23 36.1215H182.832V36.8038H183.23V36.1215Z" fill="#333333"/>
<path d="M183.883 36.1215H183.486V36.8038H183.883V36.1215Z" fill="#333333"/>
<path d="M185.844 36.1215H185.447V36.8038H185.844V36.1215Z" fill="#333333"/>
<path d="M187.151 36.1215H186.754V36.8038H187.151V36.1215Z" fill="#333333"/>
<path d="M189.118 36.1215H188.72V36.8038H189.118V36.1215Z" fill="#333333"/>
<path d="M190.425 36.1215H190.028V36.8038H190.425V36.1215Z" fill="#333333"/>
<path d="M191.079 36.1215H190.681V36.8038H191.079V36.1215Z" fill="#333333"/>
<path d="M192.392 36.1215H191.994V36.8038H192.392V36.1215Z" fill="#333333"/>
<path d="M193.699 36.1215H193.301V36.8038H193.699V36.1215Z" fill="#333333"/>
<path d="M183.23 35H182.832V35.6822H183.23V35Z" fill="#333333"/>
<path d="M183.883 35H183.486V35.6822H183.883V35Z" fill="#333333"/>
<path d="M185.191 35H184.793V35.6822H185.191V35Z" fill="#333333"/>
<path d="M185.844 35H185.447V35.6822H185.844V35Z" fill="#333333"/>
<path d="M187.151 35H186.754V35.6822H187.151V35Z" fill="#333333"/>
<path d="M188.464 35H188.067V35.6822H188.464V35Z" fill="#333333"/>
<path d="M189.118 35H188.72V35.6822H189.118V35Z" fill="#333333"/>
<path d="M190.425 35H190.028V35.6822H190.425V35Z" fill="#333333"/>
<path d="M191.732 35H191.335V35.6822H191.732V35Z" fill="#333333"/>
<path d="M192.392 35H191.994V35.6822H192.392V35Z" fill="#333333"/>
<path d="M193.699 35H193.301V35.6822H193.699V35Z" fill="#333333"/>
<path d="M194.352 35H193.955V35.6822H194.352V35Z" fill="#333333"/>
<path d="M177.336 33.8785H176.938V34.5608H177.336V33.8785Z" fill="#333333"/>
<path d="M177.995 33.8785H177.597V34.5608H177.995V33.8785Z" fill="#333333"/>
<path d="M178.649 33.8785H178.251V34.5608H178.649V33.8785Z" fill="#333333"/>
<path d="M179.302 33.8785H178.905V34.5608H179.302V33.8785Z" fill="#333333"/>
<path d="M179.956 33.8785H179.558V34.5608H179.956V33.8785Z" fill="#333333"/>
<path d="M180.61 33.8785H180.212V34.5608H180.61V33.8785Z" fill="#333333"/>
<path d="M181.263 33.8785H180.866V34.5608H181.263V33.8785Z" fill="#333333"/>
<path d="M181.917 33.8785H181.519V34.5608H181.917V33.8785Z" fill="#333333"/>
<path d="M183.23 33.8785H182.832V34.5608H183.23V33.8785Z" fill="#333333"/>
<path d="M183.883 33.8785H183.486V34.5608H183.883V33.8785Z" fill="#333333"/>
<path d="M185.844 33.8785H185.447V34.5608H185.844V33.8785Z" fill="#333333"/>
<path d="M186.498 33.8785H186.1V34.5608H186.498V33.8785Z" fill="#333333"/>
<path d="M187.151 33.8785H186.754V34.5608H187.151V33.8785Z" fill="#333333"/>
<path d="M187.811 33.8785H187.413V34.5608H187.811V33.8785Z" fill="#333333"/>
<path d="M181.917 32.757H181.519V33.4393H181.917V32.757Z" fill="#333333"/>
<path d="M182.576 32.757H182.178V33.4393H182.576V32.757Z" fill="#333333"/>
<path d="M185.191 32.757H184.793V33.4393H185.191V32.757Z" fill="#333333"/>
<path d="M185.844 32.757H185.447V33.4393H185.844V32.757Z" fill="#333333"/>
<path d="M186.498 32.757H186.1V33.4393H186.498V32.757Z" fill="#333333"/>
<path d="M187.811 32.757H187.413V33.4393H187.811V32.757Z" fill="#333333"/>
<path d="M188.464 32.757H188.067V33.4393H188.464V32.757Z" fill="#333333"/>
<path d="M189.772 32.757H189.374V33.4393H189.772V32.757Z" fill="#333333"/>
<path d="M191.732 32.757H191.335V33.4393H191.732V32.757Z" fill="#333333"/>
<path d="M192.392 32.757H191.994V33.4393H192.392V32.757Z" fill="#333333"/>
<path d="M193.699 32.757H193.301V33.4393H193.699V32.757Z" fill="#333333"/>
<path d="M194.352 32.757H193.955V33.4393H194.352V32.757Z" fill="#333333"/>
<path d="M172.101 31.6262H171.704V32.3084H172.101V31.6262Z" fill="#333333"/>
<path d="M173.414 31.6262H173.016V32.3084H173.414V31.6262Z" fill="#333333"/>
<path d="M174.068 31.6262H173.67V32.3084H174.068V31.6262Z" fill="#333333"/>
<path d="M176.029 31.6262H175.631V32.3084H176.029V31.6262Z" fill="#333333"/>
<path d="M177.336 31.6262H176.938V32.3084H177.336V31.6262Z" fill="#333333"/>
<path d="M177.995 31.6262H177.597V32.3084H177.995V31.6262Z" fill="#333333"/>
<path d="M179.302 31.6262H178.905V32.3084H179.302V31.6262Z" fill="#333333"/>
<path d="M179.956 31.6262H179.558V32.3084H179.956V31.6262Z" fill="#333333"/>
<path d="M180.61 31.6262H180.212V32.3084H180.61V31.6262Z" fill="#333333"/>
<path d="M182.576 31.6262H182.178V32.3084H182.576V31.6262Z" fill="#333333"/>
<path d="M183.883 31.6262H183.486V32.3084H183.883V31.6262Z" fill="#333333"/>
<path d="M184.537 31.6262H184.139V32.3084H184.537V31.6262Z" fill="#333333"/>
<path d="M185.191 31.6262H184.793V32.3084H185.191V31.6262Z" fill="#333333"/>
<path d="M185.844 31.6262H185.447V32.3084H185.844V31.6262Z" fill="#333333"/>
<path d="M187.151 31.6262H186.754V32.3084H187.151V31.6262Z" fill="#333333"/>
<path d="M187.811 31.6262H187.413V32.3084H187.811V31.6262Z" fill="#333333"/>
<path d="M189.118 31.6262H188.72V32.3084H189.118V31.6262Z" fill="#333333"/>
<path d="M189.772 31.6262H189.374V32.3084H189.772V31.6262Z" fill="#333333"/>
<path d="M190.425 31.6262H190.028V32.3084H190.425V31.6262Z" fill="#333333"/>
<path d="M192.392 31.6262H191.994V32.3084H192.392V31.6262Z" fill="#333333"/>
<path d="M182.576 30.5047H182.178V31.1869H182.576V30.5047Z" fill="#333333"/>
<path d="M183.23 30.5047H182.832V31.1869H183.23V30.5047Z" fill="#333333"/>
<path d="M183.883 30.5047H183.486V31.1869H183.883V30.5047Z" fill="#333333"/>
<path d="M185.191 30.5047H184.793V31.1869H185.191V30.5047Z" fill="#333333"/>
<path d="M187.151 30.5047H186.754V31.1869H187.151V30.5047Z" fill="#333333"/>
<path d="M187.811 30.5047H187.413V31.1869H187.811V30.5047Z" fill="#333333"/>
<path d="M188.464 30.5047H188.067V31.1869H188.464V30.5047Z" fill="#333333"/>
<path d="M189.118 30.5047H188.72V31.1869H189.118V30.5047Z" fill="#333333"/>
<path d="M189.772 30.5047H189.374V31.1869H189.772V30.5047Z" fill="#333333"/>
<path d="M190.425 30.5047H190.028V31.1869H190.425V30.5047Z" fill="#333333"/>
<path d="M191.079 30.5047H190.681V31.1869H191.079V30.5047Z" fill="#333333"/>
<path d="M191.732 30.5047H191.335V31.1869H191.732V30.5047Z" fill="#333333"/>
<path d="M192.392 30.5047H191.994V31.1869H192.392V30.5047Z" fill="#333333"/>
<path d="M193.699 30.5047H193.301V31.1869H193.699V30.5047Z" fill="#333333"/>
<path d="M194.352 30.5047H193.955V31.1869H194.352V30.5047Z" fill="#333333"/>
<path d="M183.883 29.3832H183.486V30.0654H183.883V29.3832Z" fill="#333333"/>
<path d="M184.537 29.3832H184.139V30.0654H184.537V29.3832Z" fill="#333333"/>
<path d="M185.844 29.3832H185.447V30.0654H185.844V29.3832Z" fill="#333333"/>
<path d="M187.151 29.3832H186.754V30.0654H187.151V29.3832Z" fill="#333333"/>
<path d="M189.772 29.3832H189.374V30.0654H189.772V29.3832Z" fill="#333333"/>
<path d="M190.425 29.3832H190.028V30.0654H190.425V29.3832Z" fill="#333333"/>
<path d="M191.079 29.3832H190.681V30.0654H191.079V29.3832Z" fill="#333333"/>
<path d="M191.732 29.3832H191.335V30.0654H191.732V29.3832Z" fill="#333333"/>
<path d="M172.101 28.2617H171.704V28.944H172.101V28.2617Z" fill="#333333"/>
<path d="M172.755 28.2617H172.357V28.944H172.755V28.2617Z" fill="#333333"/>
<path d="M174.068 28.2617H173.67V28.944H174.068V28.2617Z" fill="#333333"/>
<path d="M174.721 28.2617H174.324V28.944H174.721V28.2617Z" fill="#333333"/>
<path d="M175.375 28.2617H174.977V28.944H175.375V28.2617Z" fill="#333333"/>
<path d="M176.682 28.2617H176.285V28.944H176.682V28.2617Z" fill="#333333"/>
<path d="M177.995 28.2617H177.597V28.944H177.995V28.2617Z" fill="#333333"/>
<path d="M178.649 28.2617H178.251V28.944H178.649V28.2617Z" fill="#333333"/>
<path d="M179.302 28.2617H178.905V28.944H179.302V28.2617Z" fill="#333333"/>
<path d="M179.956 28.2617H179.558V28.944H179.956V28.2617Z" fill="#333333"/>
<path d="M180.61 28.2617H180.212V28.944H180.61V28.2617Z" fill="#333333"/>
<path d="M181.917 28.2617H181.519V28.944H181.917V28.2617Z" fill="#333333"/>
<path d="M183.23 28.2617H182.832V28.944H183.23V28.2617Z" fill="#333333"/>
<path d="M183.883 28.2617H183.486V28.944H183.883V28.2617Z" fill="#333333"/>
<path d="M184.537 28.2617H184.139V28.944H184.537V28.2617Z" fill="#333333"/>
<path d="M185.191 28.2617H184.793V28.944H185.191V28.2617Z" fill="#333333"/>
<path d="M186.498 28.2617H186.1V28.944H186.498V28.2617Z" fill="#333333"/>
<path d="M188.464 28.2617H188.067V28.944H188.464V28.2617Z" fill="#333333"/>
<path d="M189.118 28.2617H188.72V28.944H189.118V28.2617Z" fill="#333333"/>
<path d="M189.772 28.2617H189.374V28.944H189.772V28.2617Z" fill="#333333"/>
<path d="M190.425 28.2617H190.028V28.944H190.425V28.2617Z" fill="#333333"/>
<path d="M191.732 28.2617H191.335V28.944H191.732V28.2617Z" fill="#333333"/>
<path d="M192.392 28.2617H191.994V28.944H192.392V28.2617Z" fill="#333333"/>
<path d="M193.045 28.2617H192.647V28.944H193.045V28.2617Z" fill="#333333"/>
<path d="M193.699 28.2617H193.301V28.944H193.699V28.2617Z" fill="#333333"/>
<path d="M173.414 27.1402H173.016V27.8224H173.414V27.1402Z" fill="#333333"/>
<path d="M175.375 27.1402H174.977V27.8224H175.375V27.1402Z" fill="#333333"/>
<path d="M176.682 27.1402H176.285V27.8224H176.682V27.1402Z" fill="#333333"/>
<path d="M177.995 27.1402H177.597V27.8224H177.995V27.1402Z" fill="#333333"/>
<path d="M179.302 27.1402H178.905V27.8224H179.302V27.1402Z" fill="#333333"/>
<path d="M179.956 27.1402H179.558V27.8224H179.956V27.1402Z" fill="#333333"/>
<path d="M180.61 27.1402H180.212V27.8224H180.61V27.1402Z" fill="#333333"/>
<path d="M181.263 27.1402H180.866V27.8224H181.263V27.1402Z" fill="#333333"/>
<path d="M181.917 27.1402H181.519V27.8224H181.917V27.1402Z" fill="#333333"/>
<path d="M182.576 27.1402H182.178V27.8224H182.576V27.1402Z" fill="#333333"/>
<path d="M183.23 27.1402H182.832V27.8224H183.23V27.1402Z" fill="#333333"/>
<path d="M185.191 27.1402H184.793V27.8224H185.191V27.1402Z" fill="#333333"/>
<path d="M186.498 27.1402H186.1V27.8224H186.498V27.1402Z" fill="#333333"/>
<path d="M187.151 27.1402H186.754V27.8224H187.151V27.1402Z" fill="#333333"/>
<path d="M188.464 27.1402H188.067V27.8224H188.464V27.1402Z" fill="#333333"/>
<path d="M189.118 27.1402H188.72V27.8224H189.118V27.1402Z" fill="#333333"/>
<path d="M189.772 27.1402H189.374V27.8224H189.772V27.1402Z" fill="#333333"/>
<path d="M190.425 27.1402H190.028V27.8224H190.425V27.1402Z" fill="#333333"/>
<path d="M191.079 27.1402H190.681V27.8224H191.079V27.1402Z" fill="#333333"/>
<path d="M191.732 27.1402H191.335V27.8224H191.732V27.1402Z" fill="#333333"/>
<path d="M193.045 27.1402H192.647V27.8224H193.045V27.1402Z" fill="#333333"/>
<path d="M193.699 27.1402H193.301V27.8224H193.699V27.1402Z" fill="#333333"/>
<path d="M194.352 27.1402H193.955V27.8224H194.352V27.1402Z" fill="#333333"/>
<path d="M183.23 26.0187H182.832V26.7009H183.23V26.0187Z" fill="#333333"/>
<path d="M183.883 26.0187H183.486V26.7009H183.883V26.0187Z" fill="#333333"/>
<path d="M184.537 26.0187H184.139V26.7009H184.537V26.0187Z" fill="#333333"/>
<path d="M185.191 26.0187H184.793V26.7009H185.191V26.0187Z" fill="#333333"/>
<path d="M186.498 26.0187H186.1V26.7009H186.498V26.0187Z" fill="#333333"/>
<path d="M187.151 26.0187H186.754V26.7009H187.151V26.0187Z" fill="#333333"/>
<path d="M187.811 26.0187H187.413V26.7009H187.811V26.0187Z" fill="#333333"/>
<path d="M189.118 26.0187H188.72V26.7009H189.118V26.0187Z" fill="#333333"/>
<path d="M189.772 26.0187H189.374V26.7009H189.772V26.0187Z" fill="#333333"/>
<path d="M191.079 26.0187H190.681V26.7009H191.079V26.0187Z" fill="#333333"/>
<path d="M191.732 26.0187H191.335V26.7009H191.732V26.0187Z" fill="#333333"/>
<path d="M192.392 26.0187H191.994V26.7009H192.392V26.0187Z" fill="#333333"/>
<path d="M193.045 26.0187H192.647V26.7009H193.045V26.0187Z" fill="#333333"/>
<path d="M193.699 26.0187H193.301V26.7009H193.699V26.0187Z" fill="#333333"/>
<path d="M194.352 26.0187H193.955V26.7009H194.352V26.0187Z" fill="#333333"/>
<path d="M181.917 24.8972H181.519V25.5794H181.917V24.8972Z" fill="#333333"/>
<path d="M182.576 24.8972H182.178V25.5794H182.576V24.8972Z" fill="#333333"/>
<path d="M183.883 24.8972H183.486V25.5794H183.883V24.8972Z" fill="#333333"/>
<path d="M184.537 24.8972H184.139V25.5794H184.537V24.8972Z" fill="#333333"/>
<path d="M185.191 24.8972H184.793V25.5794H185.191V24.8972Z" fill="#333333"/>
<path d="M185.844 24.8972H185.447V25.5794H185.844V24.8972Z" fill="#333333"/>
<path d="M186.498 24.8972H186.1V25.5794H186.498V24.8972Z" fill="#333333"/>
<path d="M187.151 24.8972H186.754V25.5794H187.151V24.8972Z" fill="#333333"/>
<path d="M188.464 24.8972H188.067V25.5794H188.464V24.8972Z" fill="#333333"/>
<path d="M189.118 24.8972H188.72V25.5794H189.118V24.8972Z" fill="#333333"/>
<path d="M190.425 24.8972H190.028V25.5794H190.425V24.8972Z" fill="#333333"/>
<path d="M191.079 24.8972H190.681V25.5794H191.079V24.8972Z" fill="#333333"/>
<path d="M192.392 24.8972H191.994V25.5794H192.392V24.8972Z" fill="#333333"/>
<path d="M176.682 23.7757H176.285V24.4579H176.682V23.7757Z" fill="#333333"/>
<path d="M177.995 23.7757H177.597V24.4579H177.995V23.7757Z" fill="#333333"/>
<path d="M179.956 23.7757H179.558V24.4579H179.956V23.7757Z" fill="#333333"/>
<path d="M180.61 23.7757H180.212V24.4579H180.61V23.7757Z" fill="#333333"/>
<path d="M182.576 23.7757H182.178V24.4579H182.576V23.7757Z" fill="#333333"/>
<path d="M183.23 23.7757H182.832V24.4579H183.23V23.7757Z" fill="#333333"/>
<path d="M183.883 23.7757H183.486V24.4579H183.883V23.7757Z" fill="#333333"/>
<path d="M184.537 23.7757H184.139V24.4579H184.537V23.7757Z" fill="#333333"/>
<path d="M185.844 23.7757H185.447V24.4579H185.844V23.7757Z" fill="#333333"/>
<path d="M187.151 23.7757H186.754V24.4579H187.151V23.7757Z" fill="#333333"/>
<path d="M187.811 23.7757H187.413V24.4579H187.811V23.7757Z" fill="#333333"/>
<path d="M188.464 23.7757H188.067V24.4579H188.464V23.7757Z" fill="#333333"/>
<path d="M189.118 23.7757H188.72V24.4579H189.118V23.7757Z" fill="#333333"/>
<path d="M189.772 23.7757H189.374V24.4579H189.772V23.7757Z" fill="#333333"/>
<path d="M190.425 23.7757H190.028V24.4579H190.425V23.7757Z" fill="#333333"/>
<path d="M191.079 23.7757H190.681V24.4579H191.079V23.7757Z" fill="#333333"/>
<path d="M185.191 22.6449H184.793V23.3272H185.191V22.6449Z" fill="#333333"/>
<path d="M186.498 22.6449H186.1V23.3272H186.498V22.6449Z" fill="#333333"/>
<path d="M187.151 22.6449H186.754V23.3272H187.151V22.6449Z" fill="#333333"/>
<path d="M188.464 22.6449H188.067V23.3272H188.464V22.6449Z" fill="#333333"/>
<path d="M189.118 22.6449H188.72V23.3272H189.118V22.6449Z" fill="#333333"/>
<path d="M189.772 22.6449H189.374V23.3272H189.772V22.6449Z" fill="#333333"/>
<path d="M191.079 22.6449H190.681V23.3272H191.079V22.6449Z" fill="#333333"/>
<path d="M191.732 22.6449H191.335V23.3272H191.732V22.6449Z" fill="#333333"/>
<path d="M192.392 22.6449H191.994V23.3272H192.392V22.6449Z" fill="#333333"/>
<path d="M193.699 22.6449H193.301V23.3272H193.699V22.6449Z" fill="#333333"/>
<path d="M194.352 22.6449H193.955V23.3272H194.352V22.6449Z" fill="#333333"/>
<path d="M178.649 21.5234H178.251V22.2056H178.649V21.5234Z" fill="#333333"/>
<path d="M179.956 21.5234H179.558V22.2056H179.956V21.5234Z" fill="#333333"/>
<path d="M183.883 21.5234H183.486V22.2056H183.883V21.5234Z" fill="#333333"/>
<path d="M185.191 21.5234H184.793V22.2056H185.191V21.5234Z" fill="#333333"/>
<path d="M186.498 21.5234H186.1V22.2056H186.498V21.5234Z" fill="#333333"/>
<path d="M187.811 21.5234H187.413V22.2056H187.811V21.5234Z" fill="#333333"/>
<path d="M188.464 21.5234H188.067V22.2056H188.464V21.5234Z" fill="#333333"/>
<path d="M189.772 21.5234H189.374V22.2056H189.772V21.5234Z" fill="#333333"/>
<path d="M190.425 21.5234H190.028V22.2056H190.425V21.5234Z" fill="#333333"/>
<path d="M191.079 21.5234H190.681V22.2056H191.079V21.5234Z" fill="#333333"/>
<path d="M191.732 21.5234H191.335V22.2056H191.732V21.5234Z" fill="#333333"/>
<path d="M192.392 21.5234H191.994V22.2056H192.392V21.5234Z" fill="#333333"/>
<path d="M193.045 21.5234H192.647V22.2056H193.045V21.5234Z" fill="#333333"/>
<path d="M193.699 21.5234H193.301V22.2056H193.699V21.5234Z" fill="#333333"/>
<path d="M194.352 21.5234H193.955V22.2056H194.352V21.5234Z" fill="#333333"/>
<path d="M183.23 20.4019H182.832V21.0841H183.23V20.4019Z" fill="#333333"/>
<path d="M183.883 20.4019H183.486V21.0841H183.883V20.4019Z" fill="#333333"/>
<path d="M185.844 20.4019H185.447V21.0841H185.844V20.4019Z" fill="#333333"/>
<path d="M186.498 20.4019H186.1V21.0841H186.498V20.4019Z" fill="#333333"/>
<path d="M187.151 20.4019H186.754V21.0841H187.151V20.4019Z" fill="#333333"/>
<path d="M187.811 20.4019H187.413V21.0841H187.811V20.4019Z" fill="#333333"/>
<path d="M188.464 20.4019H188.067V21.0841H188.464V20.4019Z" fill="#333333"/>
<path d="M189.118 20.4019H188.72V21.0841H189.118V20.4019Z" fill="#333333"/>
<path d="M189.772 20.4019H189.374V21.0841H189.772V20.4019Z" fill="#333333"/>
<path d="M193.045 20.4019H192.647V21.0841H193.045V20.4019Z" fill="#333333"/>
<path d="M193.699 20.4019H193.301V21.0841H193.699V20.4019Z" fill="#333333"/>
<path d="M175.375 19.2804H174.977V19.9627H175.375V19.2804Z" fill="#333333"/>
<path d="M176.029 19.2804H175.631V19.9627H176.029V19.2804Z" fill="#333333"/>
<path d="M176.682 19.2804H176.285V19.9627H176.682V19.2804Z" fill="#333333"/>
<path d="M177.336 19.2804H176.938V19.9627H177.336V19.2804Z" fill="#333333"/>
<path d="M177.995 19.2804H177.597V19.9627H177.995V19.2804Z" fill="#333333"/>
<path d="M178.649 19.2804H178.251V19.9627H178.649V19.2804Z" fill="#333333"/>
<path d="M179.302 19.2804H178.905V19.9627H179.302V19.2804Z" fill="#333333"/>
<path d="M179.956 19.2804H179.558V19.9627H179.956V19.2804Z" fill="#333333"/>
<path d="M180.61 19.2804H180.212V19.9627H180.61V19.2804Z" fill="#333333"/>
<path d="M181.263 19.2804H180.866V19.9627H181.263V19.2804Z" fill="#333333"/>
<path d="M183.23 19.2804H182.832V19.9627H183.23V19.2804Z" fill="#333333"/>
<path d="M183.883 19.2804H183.486V19.9627H183.883V19.2804Z" fill="#333333"/>
<path d="M184.537 19.2804H184.139V19.9627H184.537V19.2804Z" fill="#333333"/>
<path d="M185.191 19.2804H184.793V19.9627H185.191V19.2804Z" fill="#333333"/>
<path d="M185.844 19.2804H185.447V19.9627H185.844V19.2804Z" fill="#333333"/>
<path d="M186.498 19.2804H186.1V19.9627H186.498V19.2804Z" fill="#333333"/>
<path d="M187.151 19.2804H186.754V19.9627H187.151V19.2804Z" fill="#333333"/>
<path d="M188.464 19.2804H188.067V19.9627H188.464V19.2804Z" fill="#333333"/>
<path d="M189.118 19.2804H188.72V19.9627H189.118V19.2804Z" fill="#333333"/>
<path d="M190.425 19.2804H190.028V19.9627H190.425V19.2804Z" fill="#333333"/>
<path d="M191.732 19.2804H191.335V19.9627H191.732V19.2804Z" fill="#333333"/>
<path d="M192.392 19.2804H191.994V19.9627H192.392V19.2804Z" fill="#333333"/>
<path d="M193.045 19.2804H192.647V19.9627H193.045V19.2804Z" fill="#333333"/>
<path d="M176.029 18.1589H175.631V18.8411H176.029V18.1589Z" fill="#333333"/>
<path d="M177.995 18.1589H177.597V18.8411H177.995V18.1589Z" fill="#333333"/>
<path d="M179.956 18.1589H179.558V18.8411H179.956V18.1589Z" fill="#333333"/>
<path d="M181.263 18.1589H180.866V18.8411H181.263V18.1589Z" fill="#333333"/>
<path d="M181.917 18.1589H181.519V18.8411H181.917V18.1589Z" fill="#333333"/>
<path d="M182.576 18.1589H182.178V18.8411H182.576V18.1589Z" fill="#333333"/>
<path d="M183.23 18.1589H182.832V18.8411H183.23V18.1589Z" fill="#333333"/>
<path d="M183.883 18.1589H183.486V18.8411H183.883V18.1589Z" fill="#333333"/>
<path d="M185.191 18.1589H184.793V18.8411H185.191V18.1589Z" fill="#333333"/>
<path d="M186.498 18.1589H186.1V18.8411H186.498V18.1589Z" fill="#333333"/>
<path d="M187.151 18.1589H186.754V18.8411H187.151V18.1589Z" fill="#333333"/>
<path d="M187.811 18.1589H187.413V18.8411H187.811V18.1589Z" fill="#333333"/>
<path d="M189.118 18.1589H188.72V18.8411H189.118V18.1589Z" fill="#333333"/>
<path d="M190.425 18.1589H190.028V18.8411H190.425V18.1589Z" fill="#333333"/>
<path d="M191.079 18.1589H190.681V18.8411H191.079V18.1589Z" fill="#333333"/>
<path d="M191.732 18.1589H191.335V18.8411H191.732V18.1589Z" fill="#333333"/>
<path d="M192.392 18.1589H191.994V18.8411H192.392V18.1589Z" fill="#333333"/>
<path d="M193.699 18.1589H193.301V18.8411H193.699V18.1589Z" fill="#333333"/>
<path d="M194.352 18.1589H193.955V18.8411H194.352V18.1589Z" fill="#333333"/>
<path d="M187.811 17.0374H187.413V17.7196H187.811V17.0374Z" fill="#333333"/>
<path d="M188.464 17.0374H188.067V17.7196H188.464V17.0374Z" fill="#333333"/>
<path d="M189.772 17.0374H189.374V17.7196H189.772V17.0374Z" fill="#333333"/>
<path d="M191.079 17.0374H190.681V17.7196H191.079V17.0374Z" fill="#333333"/>
<path d="M172.755 14.785H172.357V15.4673H172.755V14.785Z" fill="#333333"/>
<path d="M174.068 14.785H173.67V15.4673H174.068V14.785Z" fill="#333333"/>
<path d="M175.375 14.785H174.977V15.4673H175.375V14.785Z" fill="#333333"/>
<path d="M176.029 14.785H175.631V15.4673H176.029V14.785Z" fill="#333333"/>
<path d="M179.302 14.785H178.905V15.4673H179.302V14.785Z" fill="#333333"/>
<path d="M179.956 14.785H179.558V15.4673H179.956V14.785Z" fill="#333333"/>
<path d="M180.61 14.785H180.212V15.4673H180.61V14.785Z" fill="#333333"/>
<path d="M181.263 14.785H180.866V15.4673H181.263V14.785Z" fill="#333333"/>
<path d="M182.576 14.785H182.178V15.4673H182.576V14.785Z" fill="#333333"/>
<path d="M183.23 14.785H182.832V15.4673H183.23V14.785Z" fill="#333333"/>
<path d="M183.883 14.785H183.486V15.4673H183.883V14.785Z" fill="#333333"/>
<path d="M184.537 14.785H184.139V15.4673H184.537V14.785Z" fill="#333333"/>
<path d="M185.191 14.785H184.793V15.4673H185.191V14.785Z" fill="#333333"/>
<path d="M185.844 14.785H185.447V15.4673H185.844V14.785Z" fill="#333333"/>
<path d="M187.151 14.785H186.754V15.4673H187.151V14.785Z" fill="#333333"/>
<path d="M187.811 14.785H187.413V15.4673H187.811V14.785Z" fill="#333333"/>
<path d="M189.118 14.785H188.72V15.4673H189.118V14.785Z" fill="#333333"/>
<path d="M189.772 14.785H189.374V15.4673H189.772V14.785Z" fill="#333333"/>
<path d="M190.425 14.785H190.028V15.4673H190.425V14.785Z" fill="#333333"/>
<path d="M191.079 14.785H190.681V15.4673H191.079V14.785Z" fill="#333333"/>
<path d="M191.732 14.785H191.335V15.4673H191.732V14.785Z" fill="#333333"/>
<path d="M193.045 14.785H192.647V15.4673H193.045V14.785Z" fill="#333333"/>
<path d="M193.699 14.785H193.301V15.4673H193.699V14.785Z" fill="#333333"/>
<path d="M174.068 13.6636H173.67V14.3458H174.068V13.6636Z" fill="#333333"/>
<path d="M177.336 13.6636H176.938V14.3458H177.336V13.6636Z" fill="#333333"/>
<path d="M177.995 13.6636H177.597V14.3458H177.995V13.6636Z" fill="#333333"/>
<path d="M181.263 13.6636H180.866V14.3458H181.263V13.6636Z" fill="#333333"/>
<path d="M181.917 13.6636H181.519V14.3458H181.917V13.6636Z" fill="#333333"/>
<path d="M182.576 13.6636H182.178V14.3458H182.576V13.6636Z" fill="#333333"/>
<path d="M183.883 13.6636H183.486V14.3458H183.883V13.6636Z" fill="#333333"/>
<path d="M185.191 13.6636H184.793V14.3458H185.191V13.6636Z" fill="#333333"/>
<path d="M185.844 13.6636H185.447V14.3458H185.844V13.6636Z" fill="#333333"/>
<path d="M186.498 13.6636H186.1V14.3458H186.498V13.6636Z" fill="#333333"/>
<path d="M187.151 13.6636H186.754V14.3458H187.151V13.6636Z" fill="#333333"/>
<path d="M188.464 13.6636H188.067V14.3458H188.464V13.6636Z" fill="#333333"/>
<path d="M189.118 13.6636H188.72V14.3458H189.118V13.6636Z" fill="#333333"/>
<path d="M190.425 13.6636H190.028V14.3458H190.425V13.6636Z" fill="#333333"/>
<path d="M191.732 13.6636H191.335V14.3458H191.732V13.6636Z" fill="#333333"/>
<path d="M192.392 13.6636H191.994V14.3458H192.392V13.6636Z" fill="#333333"/>
<path d="M193.045 13.6636H192.647V14.3458H193.045V13.6636Z" fill="#333333"/>
<path d="M193.699 13.6636H193.301V14.3458H193.699V13.6636Z" fill="#333333"/>
<path d="M194.352 13.6636H193.955V14.3458H194.352V13.6636Z" fill="#333333"/>
<path d="M156.398 14.785H156V15.4673H156.398V14.785Z" fill="#333333"/>
<path d="M157.705 14.785H157.307V15.4673H157.705V14.785Z" fill="#333333"/>
<path d="M159.018 14.785H158.62V15.4673H159.018V14.785Z" fill="#333333"/>
<path d="M159.671 14.785H159.274V15.4673H159.671V14.785Z" fill="#333333"/>
<path d="M160.325 14.785H159.927V15.4673H160.325V14.785Z" fill="#333333"/>
<path d="M161.632 14.785H161.235V15.4673H161.632V14.785Z" fill="#333333"/>
<path d="M162.286 14.785H161.888V15.4673H162.286V14.785Z" fill="#333333"/>
<path d="M162.94 14.785H162.542V15.4673H162.94V14.785Z" fill="#333333"/>
<path d="M163.599 14.785H163.201V15.4673H163.599V14.785Z" fill="#333333"/>
<path d="M164.252 14.785H163.855V15.4673H164.252V14.785Z" fill="#333333"/>
<path d="M165.559 14.785H165.162V15.4673H165.559V14.785Z" fill="#333333"/>
<path d="M166.213 14.785H165.816V15.4673H166.213V14.785Z" fill="#333333"/>
<path d="M166.867 14.785H166.469V15.4673H166.867V14.785Z" fill="#333333"/>
<path d="M168.833 14.785H168.436V15.4673H168.833V14.785Z" fill="#333333"/>
<path d="M170.794 14.785H170.396V15.4673H170.794V14.785Z" fill="#333333"/>
<path d="M171.448 14.785H171.05V15.4673H171.448V14.785Z" fill="#333333"/>
<path d="M160.325 23.7757H159.927V24.4579H160.325V23.7757Z" fill="#333333"/>
<path d="M161.632 23.7757H161.235V24.4579H161.632V23.7757Z" fill="#333333"/>
<path d="M162.286 23.7757H161.888V24.4579H162.286V23.7757Z" fill="#333333"/>
<path d="M163.599 23.7757H163.201V24.4579H163.599V23.7757Z" fill="#333333"/>
<path d="M164.252 23.7757H163.855V24.4579H164.252V23.7757Z" fill="#333333"/>
<path d="M164.906 23.7757H164.508V24.4579H164.906V23.7757Z" fill="#333333"/>
<path d="M165.559 23.7757H165.162V24.4579H165.559V23.7757Z" fill="#333333"/>
<path d="M166.867 23.7757H166.469V24.4579H166.867V23.7757Z" fill="#333333"/>
<path d="M168.833 23.7757H168.436V24.4579H168.833V23.7757Z" fill="#333333"/>
<path d="M170.14 23.7757H169.743V24.4579H170.14V23.7757Z" fill="#333333"/>
<path d="M171.448 23.7757H171.05V24.4579H171.448V23.7757Z" fill="#333333"/>
<path d="M172.101 23.7757H171.704V24.4579H172.101V23.7757Z" fill="#333333"/>
<path d="M172.755 23.7757H172.357V24.4579H172.755V23.7757Z" fill="#333333"/>
<path d="M173.414 23.7757H173.016V24.4579H173.414V23.7757Z" fill="#333333"/>
<path d="M174.721 23.7757H174.324V24.4579H174.721V23.7757Z" fill="#333333"/>
<path d="M172.101 55.2056H171.704V55.8878H172.101V55.2056Z" fill="#333333"/>
<path d="M156.398 55.2056H156V55.8878H156.398V55.2056Z" fill="#333333"/>
<path d="M157.705 55.2056H157.307V55.8878H157.705V55.2056Z" fill="#333333"/>
<path d="M160.325 55.2056H159.927V55.8878H160.325V55.2056Z" fill="#333333"/>
<path d="M160.979 55.2056H160.581V55.8878H160.979V55.2056Z" fill="#333333"/>
<path d="M161.632 55.2056H161.235V55.8878H161.632V55.2056Z" fill="#333333"/>
<path d="M162.286 55.2056H161.888V55.8878H162.286V55.2056Z" fill="#333333"/>
<path d="M163.599 55.2056H163.201V55.8878H163.599V55.2056Z" fill="#333333"/>
<path d="M164.252 55.2056H163.855V55.8878H164.252V55.2056Z" fill="#333333"/>
<path d="M164.906 55.2056H164.508V55.8878H164.906V55.2056Z" fill="#333333"/>
<path d="M165.559 55.2056H165.162V55.8878H165.559V55.2056Z" fill="#333333"/>
<path d="M166.213 55.2056H165.816V55.8878H166.213V55.2056Z" fill="#333333"/>
<path d="M166.867 55.2056H166.469V55.8878H166.867V55.2056Z" fill="#333333"/>
<path d="M167.52 55.2056H167.123V55.8878H167.52V55.2056Z" fill="#333333"/>
<path d="M168.174 55.2056H167.776V55.8878H168.174V55.2056Z" fill="#333333"/>
<path d="M169.487 55.2056H169.089V55.8878H169.487V55.2056Z" fill="#333333"/>
<path d="M170.14 55.2056H169.743V55.8878H170.14V55.2056Z" fill="#333333"/>
<path d="M170.794 55.2056H170.396V55.8878H170.794V55.2056Z" fill="#333333"/>
<path d="M168.833 56.3365H168.436V57.0187H168.833V56.3365Z" fill="#333333"/>
<path d="M169.487 56.3365H169.089V57.0187H169.487V56.3365Z" fill="#333333"/>
<path d="M170.794 56.3365H170.396V57.0187H170.794V56.3365Z" fill="#333333"/>
<path d="M171.448 56.3365H171.05V57.0187H171.448V56.3365Z" fill="#333333"/>
<path d="M172.101 56.3365H171.704V57.0187H172.101V56.3365Z" fill="#333333"/>
<path d="M173.414 56.3365H173.016V57.0187H173.414V56.3365Z" fill="#333333"/>
<path d="M174.068 56.3365H173.67V57.0187H174.068V56.3365Z" fill="#333333"/>
<path d="M174.721 56.3365H174.324V57.0187H174.721V56.3365Z" fill="#333333"/>
<path d="M175.375 56.3365H174.977V57.0187H175.375V56.3365Z" fill="#333333"/>
<path d="M176.029 56.3365H175.631V57.0187H176.029V56.3365Z" fill="#333333"/>
<path d="M177.336 56.3365H176.938V57.0187H177.336V56.3365Z" fill="#333333"/>
<path d="M177.995 56.3365H177.597V57.0187H177.995V56.3365Z" fill="#333333"/>
<path d="M178.649 56.3365H178.251V57.0187H178.649V56.3365Z" fill="#333333"/>
<path d="M179.302 56.3365H178.905V57.0187H179.302V56.3365Z" fill="#333333"/>
<path d="M180.61 56.3365H180.212V57.0187H180.61V56.3365Z" fill="#333333"/>
<path d="M181.263 56.3365H180.866V57.0187H181.263V56.3365Z" fill="#333333"/>
<path d="M182.576 56.3365H182.178V57.0187H182.576V56.3365Z" fill="#333333"/>
<path d="M183.23 56.3365H182.832V57.0187H183.23V56.3365Z" fill="#333333"/>
<path d="M183.883 56.3365H183.486V57.0187H183.883V56.3365Z" fill="#333333"/>
<path d="M184.537 56.3365H184.139V57.0187H184.537V56.3365Z" fill="#333333"/>
<path d="M160.325 13.6636H159.927V14.3458H160.325V13.6636Z" fill="#333333"/>
<path d="M160.979 13.6636H160.581V14.3458H160.979V13.6636Z" fill="#333333"/>
<path d="M162.286 13.6636H161.888V14.3458H162.286V13.6636Z" fill="#333333"/>
<path d="M164.252 13.6636H163.855V14.3458H164.252V13.6636Z" fill="#333333"/>
<path d="M164.906 13.6636H164.508V14.3458H164.906V13.6636Z" fill="#333333"/>
<path d="M165.559 13.6636H165.162V14.3458H165.559V13.6636Z" fill="#333333"/>
<path d="M166.867 13.6636H166.469V14.3458H166.867V13.6636Z" fill="#333333"/>
<path d="M167.52 13.6636H167.123V14.3458H167.52V13.6636Z" fill="#333333"/>
<path d="M168.174 13.6636H167.776V14.3458H168.174V13.6636Z" fill="#333333"/>
<path d="M168.833 13.6636H168.436V14.3458H168.833V13.6636Z" fill="#333333"/>
<path d="M170.14 13.6636H169.743V14.3458H170.14V13.6636Z" fill="#333333"/>
<path d="M170.794 13.6636H170.396V14.3458H170.794V13.6636Z" fill="#333333"/>
<path d="M172.101 13.6636H171.704V14.3458H172.101V13.6636Z" fill="#333333"/>
<path d="M172.755 13.6636H172.357V14.3458H172.755V13.6636Z" fill="#333333"/>
<path d="M173.414 13.6636H173.016V14.3458H173.414V13.6636Z" fill="#333333"/>
</g>
<path d="M61.9531 31.2891L57.375 41.0938C57.2344 41.401 57.1042 41.6146 56.9844 41.7344C56.8646 41.8542 56.724 41.9141 56.5625 41.9141C56.3229 41.9141 56.1094 41.8385 55.9219 41.6875C55.7396 41.5365 55.6484 41.349 55.6484 41.125C55.6484 40.974 55.7188 40.7396 55.8594 40.4219L55.875 40.3906L60.4453 30.6016C60.5911 30.2839 60.724 30.0651 60.8438 29.9453C60.9635 29.8255 61.1042 29.7656 61.2656 29.7656C61.5 29.7656 61.7109 29.8411 61.8984 29.9922C62.0859 30.1432 62.1797 30.3307 62.1797 30.5547C62.1797 30.6484 62.1641 30.7474 62.1328 30.8516C62.1016 30.9557 62.0417 31.1016 61.9531 31.2891ZM71.5938 39.2891H71.7188C72 39.2891 72.2135 39.3646 72.3594 39.5156C72.5104 39.6615 72.5859 39.8724 72.5859 40.1484C72.5859 40.4505 72.5078 40.6693 72.3516 40.8047C72.2005 40.9349 71.9479 41 71.5938 41H70.8594C70.599 41 70.4036 40.9505 70.2734 40.8516C70.1484 40.7526 70.0443 40.5729 69.9609 40.3125C69.5286 40.599 69.0703 40.8177 68.5859 40.9688C68.1016 41.1198 67.612 41.1953 67.1172 41.1953C66.2786 41.1953 65.6198 40.987 65.1406 40.5703C64.6615 40.1536 64.4219 39.5833 64.4219 38.8594C64.4219 38.0781 64.7318 37.4714 65.3516 37.0391C65.9714 36.6068 66.8411 36.3906 67.9609 36.3906C68.2109 36.3906 68.4766 36.4036 68.7578 36.4297C69.0391 36.4557 69.3542 36.4974 69.7031 36.5547V36.4062C69.7031 35.9375 69.5885 35.5807 69.3594 35.3359C69.1354 35.0911 68.8021 34.9688 68.3594 34.9688C68.0156 34.9688 67.5755 35.0964 67.0391 35.3516C66.5078 35.6068 66.1172 35.7344 65.8672 35.7344C65.6224 35.7344 65.4245 35.6641 65.2734 35.5234C65.1224 35.3776 65.0469 35.1875 65.0469 34.9531C65.0469 34.5312 65.3542 34.1979 65.9688 33.9531C66.5885 33.7031 67.4297 33.5781 68.4922 33.5781C69.6016 33.5781 70.3958 33.7917 70.875 34.2188C71.3542 34.6458 71.5938 35.3698 71.5938 36.3906V39.2891ZM69.7031 37.7812C69.4427 37.724 69.2031 37.6823 68.9844 37.6562C68.7656 37.625 68.5625 37.6094 68.375 37.6094C67.8021 37.6094 67.3516 37.7057 67.0234 37.8984C66.7005 38.0911 66.5391 38.3568 66.5391 38.6953C66.5391 38.9974 66.6432 39.2292 66.8516 39.3906C67.0599 39.5469 67.3594 39.625 67.75 39.625C68.1094 39.625 68.4479 39.5729 68.7656 39.4688C69.0833 39.3646 69.3958 39.2031 69.7031 38.9844V37.7812ZM77.4766 34.2188H79.8594C80.2188 34.2188 80.474 34.2839 80.625 34.4141C80.776 34.5443 80.8516 34.7604 80.8516 35.0625C80.8516 35.3698 80.7734 35.5911 80.6172 35.7266C80.4661 35.862 80.2135 35.9297 79.8594 35.9297H77.4766V37.9297C77.4766 38.4922 77.5625 38.8776 77.7344 39.0859C77.9062 39.2943 78.2083 39.3984 78.6406 39.3984C79.0469 39.3984 79.526 39.2812 80.0781 39.0469C80.6302 38.8125 81 38.6953 81.1875 38.6953C81.401 38.6953 81.5833 38.7812 81.7344 38.9531C81.8906 39.1198 81.9688 39.3229 81.9688 39.5625C81.9688 39.9635 81.6042 40.3307 80.875 40.6641C80.151 40.9922 79.3281 41.1562 78.4062 41.1562C77.8698 41.1562 77.3984 41.0833 76.9922 40.9375C76.5859 40.7917 76.2656 40.5833 76.0312 40.3125C75.8594 40.1042 75.737 39.8542 75.6641 39.5625C75.5911 39.2708 75.5547 38.7839 75.5547 38.1016V37.9297V35.9297H74.8203C74.4661 35.9297 74.2135 35.862 74.0625 35.7266C73.9167 35.5911 73.8438 35.3698 73.8438 35.0625C73.8438 34.7552 73.9167 34.5391 74.0625 34.4141C74.2083 34.2839 74.4609 34.2188 74.8203 34.2188H75.5547V32.3906C75.5547 32.0312 75.6276 31.7786 75.7734 31.6328C75.9245 31.487 76.1719 31.4141 76.5156 31.4141C76.8594 31.4141 77.1042 31.487 77.25 31.6328C77.401 31.7786 77.4766 32.0312 77.4766 32.3906V34.2188ZM88.7188 39.2891H90.3984C90.7578 39.2891 91.013 39.3542 91.1641 39.4844C91.3151 39.6146 91.3906 39.8307 91.3906 40.1328C91.3906 40.4401 91.3125 40.6615 91.1562 40.7969C91.0052 40.9323 90.7526 41 90.3984 41H85.1172C84.763 41 84.5078 40.9323 84.3516 40.7969C84.2005 40.6615 84.125 40.4401 84.125 40.1328C84.125 39.8307 84.1979 39.6146 84.3438 39.4844C84.4948 39.3542 84.7526 39.2891 85.1172 39.2891H86.7969V35.4922H85.9141C85.5651 35.4922 85.3151 35.4271 85.1641 35.2969C85.013 35.1615 84.9375 34.9401 84.9375 34.6328C84.9375 34.3255 85.0104 34.1068 85.1562 33.9766C85.3021 33.8464 85.5547 33.7812 85.9141 33.7812H88.2656C88.4115 33.7812 88.5234 33.8125 88.6016 33.875C88.6797 33.9323 88.7188 34.013 88.7188 34.1172V39.2891ZM87.5938 30.25C87.974 30.25 88.2266 30.3229 88.3516 30.4688C88.4766 30.6146 88.5391 30.9635 88.5391 31.5156C88.5391 32.0469 88.4818 32.3776 88.3672 32.5078C88.2578 32.6328 87.9948 32.6953 87.5781 32.6953C87.1719 32.6953 86.9089 32.6354 86.7891 32.5156C86.6745 32.3958 86.6172 32.1562 86.6172 31.7969C86.6172 31.1302 86.6771 30.7057 86.7969 30.5234C86.9167 30.3411 87.1823 30.25 87.5938 30.25ZM95.1719 40.8906C95.0365 40.9948 94.8958 41.0729 94.75 41.125C94.6094 41.1823 94.4635 41.2109 94.3125 41.2109C94.0885 41.2109 93.9297 41.151 93.8359 41.0312C93.7474 40.9115 93.7031 40.6875 93.7031 40.3594V39.3203C93.7031 38.9766 93.7604 38.7344 93.875 38.5938C93.9896 38.4479 94.1875 38.375 94.4688 38.375C94.776 38.375 95.026 38.5234 95.2188 38.8203C95.3333 38.9818 95.4297 39.1016 95.5078 39.1797C95.763 39.4089 96.0599 39.5807 96.3984 39.6953C96.737 39.8099 97.1224 39.8672 97.5547 39.8672C97.9297 39.8672 98.2292 39.7943 98.4531 39.6484C98.6771 39.5026 98.7891 39.3125 98.7891 39.0781C98.7891 38.6562 98.1875 38.3646 96.9844 38.2031C96.7188 38.1719 96.5104 38.1432 96.3594 38.1172C95.4531 37.9922 94.7786 37.7474 94.3359 37.3828C93.8932 37.013 93.6719 36.5182 93.6719 35.8984C93.6719 35.1641 93.9375 34.5964 94.4688 34.1953C95 33.7943 95.7578 33.5938 96.7422 33.5938C97.0807 33.5938 97.4271 33.6224 97.7812 33.6797C98.1406 33.7318 98.5078 33.8151 98.8828 33.9297C98.9922 33.7995 99.1068 33.7031 99.2266 33.6406C99.3516 33.5781 99.4896 33.5469 99.6406 33.5469C99.8542 33.5469 100.016 33.6146 100.125 33.75C100.24 33.8802 100.297 34.0781 100.297 34.3438V35.3047C100.297 35.5286 100.24 35.7031 100.125 35.8281C100.01 35.9479 99.849 36.0078 99.6406 36.0078C99.4271 36.0078 99.0599 35.8229 98.5391 35.4531C98.0234 35.0781 97.5052 34.8906 96.9844 34.8906C96.5781 34.8906 96.263 34.9583 96.0391 35.0938C95.8151 35.224 95.7031 35.4062 95.7031 35.6406C95.7031 36.0052 96.1719 36.25 97.1094 36.375C97.3802 36.4062 97.5938 36.4323 97.75 36.4531C98.9271 36.625 99.7344 36.8828 100.172 37.2266C100.615 37.5651 100.836 38.0703 100.836 38.7422C100.836 39.5286 100.544 40.138 99.9609 40.5703C99.3828 40.9974 98.5599 41.2109 97.4922 41.2109C97.0755 41.2109 96.6745 41.1823 96.2891 41.125C95.9036 41.0729 95.5312 40.9948 95.1719 40.8906ZM105.586 34.5703C105.768 34.2526 106.026 34.0104 106.359 33.8438C106.693 33.6771 107.091 33.5938 107.555 33.5938C108.378 33.5938 109.01 33.8333 109.453 34.3125C109.901 34.7917 110.125 35.4792 110.125 36.375V39.2891H110.258C110.534 39.2891 110.742 39.362 110.883 39.5078C111.029 39.6484 111.102 39.8568 111.102 40.1328C111.102 40.4401 111.026 40.6615 110.875 40.7969C110.729 40.9323 110.479 41 110.125 41H108.188C107.839 41 107.589 40.9323 107.438 40.7969C107.292 40.6615 107.219 40.4401 107.219 40.1328C107.219 39.8516 107.289 39.6406 107.43 39.5C107.57 39.3594 107.781 39.2891 108.062 39.2891H108.188V37.0156C108.188 36.349 108.104 35.888 107.938 35.6328C107.776 35.3724 107.497 35.2422 107.102 35.2422C106.685 35.2422 106.328 35.4115 106.031 35.75C105.734 36.0833 105.586 36.5052 105.586 37.0156V39.2891H105.711C105.992 39.2891 106.203 39.362 106.344 39.5078C106.49 39.6484 106.562 39.8568 106.562 40.1328C106.562 40.4401 106.487 40.6615 106.336 40.7969C106.185 40.9323 105.935 41 105.586 41H103.648C103.289 41 103.036 40.9349 102.891 40.8047C102.745 40.6693 102.672 40.4453 102.672 40.1328C102.672 39.8568 102.742 39.6484 102.883 39.5078C103.029 39.362 103.24 39.2891 103.516 39.2891H103.648V32.5078H103.516C103.24 32.5078 103.026 32.4349 102.875 32.2891C102.729 32.138 102.656 31.9219 102.656 31.6406C102.656 31.3333 102.732 31.112 102.883 30.9766C103.034 30.8411 103.289 30.7734 103.648 30.7734H105.117C105.294 30.7734 105.417 30.8099 105.484 30.8828C105.552 30.9557 105.586 31.0911 105.586 31.2891V34.5703ZM119.641 39.2891H119.766C120.047 39.2891 120.26 39.3646 120.406 39.5156C120.557 39.6615 120.633 39.8724 120.633 40.1484C120.633 40.4505 120.555 40.6693 120.398 40.8047C120.247 40.9349 119.995 41 119.641 41H118.906C118.646 41 118.451 40.9505 118.32 40.8516C118.195 40.7526 118.091 40.5729 118.008 40.3125C117.576 40.599 117.117 40.8177 116.633 40.9688C116.148 41.1198 115.659 41.1953 115.164 41.1953C114.326 41.1953 113.667 40.987 113.188 40.5703C112.708 40.1536 112.469 39.5833 112.469 38.8594C112.469 38.0781 112.779 37.4714 113.398 37.0391C114.018 36.6068 114.888 36.3906 116.008 36.3906C116.258 36.3906 116.523 36.4036 116.805 36.4297C117.086 36.4557 117.401 36.4974 117.75 36.5547V36.4062C117.75 35.9375 117.635 35.5807 117.406 35.3359C117.182 35.0911 116.849 34.9688 116.406 34.9688C116.062 34.9688 115.622 35.0964 115.086 35.3516C114.555 35.6068 114.164 35.7344 113.914 35.7344C113.669 35.7344 113.471 35.6641 113.32 35.5234C113.169 35.3776 113.094 35.1875 113.094 34.9531C113.094 34.5312 113.401 34.1979 114.016 33.9531C114.635 33.7031 115.477 33.5781 116.539 33.5781C117.648 33.5781 118.443 33.7917 118.922 34.2188C119.401 34.6458 119.641 35.3698 119.641 36.3906V39.2891ZM117.75 37.7812C117.49 37.724 117.25 37.6823 117.031 37.6562C116.812 37.625 116.609 37.6094 116.422 37.6094C115.849 37.6094 115.398 37.7057 115.07 37.8984C114.747 38.0911 114.586 38.3568 114.586 38.6953C114.586 38.9974 114.69 39.2292 114.898 39.3906C115.107 39.5469 115.406 39.625 115.797 39.625C116.156 39.625 116.495 39.5729 116.812 39.4688C117.13 39.3646 117.443 39.2031 117.75 38.9844V37.7812ZM124.688 35.4922L126.094 38.8203L127.57 35.4922H127.445C127.164 35.4922 126.948 35.4193 126.797 35.2734C126.651 35.1276 126.578 34.9141 126.578 34.6328C126.578 34.3255 126.651 34.1068 126.797 33.9766C126.948 33.8464 127.206 33.7812 127.57 33.7812H129.406C129.771 33.7812 130.026 33.849 130.172 33.9844C130.323 34.1146 130.398 34.3307 130.398 34.6328C130.398 34.9141 130.326 35.1276 130.18 35.2734C130.034 35.4193 129.82 35.4922 129.539 35.4922H129.406L126.195 42.3906H126.547C126.901 42.3906 127.154 42.4583 127.305 42.5938C127.461 42.7292 127.539 42.9505 127.539 43.2578C127.539 43.5599 127.461 43.7786 127.305 43.9141C127.154 44.0495 126.901 44.1172 126.547 44.1172H123.125C122.766 44.1172 122.51 44.0495 122.359 43.9141C122.208 43.7839 122.133 43.5651 122.133 43.2578C122.133 42.9505 122.208 42.7292 122.359 42.5938C122.51 42.4583 122.766 42.3906 123.125 42.3906H124.336L125.07 40.8203L122.703 35.4922H122.578C122.297 35.4922 122.081 35.4193 121.93 35.2734C121.784 35.1276 121.711 34.9141 121.711 34.6328C121.711 34.3255 121.786 34.1068 121.938 33.9766C122.089 33.8464 122.344 33.7812 122.703 33.7812H124.688C125.047 33.7812 125.302 33.849 125.453 33.9844C125.604 34.1146 125.68 34.3307 125.68 34.6328C125.68 34.9141 125.604 35.1276 125.453 35.2734C125.307 35.4193 125.096 35.4922 124.82 35.4922H124.688ZM136.859 39.3359H138.125C138.474 39.3359 138.727 39.401 138.883 39.5312C139.039 39.6615 139.117 39.875 139.117 40.1719C139.117 40.4635 139.042 40.6745 138.891 40.8047C138.74 40.9349 138.484 41 138.125 41H133.516C133.156 41 132.901 40.9349 132.75 40.8047C132.599 40.6745 132.523 40.4635 132.523 40.1719C132.523 39.875 132.599 39.6615 132.75 39.5312C132.906 39.401 133.161 39.3359 133.516 39.3359H134.969V32.7422L134.094 32.9688C133.958 33 133.846 33.0234 133.758 33.0391C133.669 33.0547 133.604 33.0625 133.562 33.0625C133.349 33.0625 133.182 32.9948 133.062 32.8594C132.948 32.724 132.891 32.5312 132.891 32.2812C132.891 32.099 132.956 31.9453 133.086 31.8203C133.216 31.6953 133.417 31.599 133.688 31.5312L135.625 31C135.786 30.9583 135.919 30.9271 136.023 30.9062C136.128 30.8854 136.214 30.875 136.281 30.875C136.49 30.875 136.638 30.9323 136.727 31.0469C136.815 31.1615 136.859 31.3542 136.859 31.625V39.3359ZM148.07 31.9766L145.539 40.7734C145.497 40.9089 145.443 41 145.375 41.0469C145.307 41.099 145.208 41.125 145.078 41.125H143.633C143.56 41.125 143.497 41.1016 143.445 41.0547C143.393 41.0078 143.367 40.9531 143.367 40.8906C143.367 40.8229 143.37 40.7734 143.375 40.7422C143.38 40.7057 143.388 40.6745 143.398 40.6484L146.195 32.8906H142.836L142.805 33.0312C142.779 33.2031 142.698 33.3438 142.562 33.4531C142.432 33.5573 142.273 33.6094 142.086 33.6094C141.867 33.6094 141.706 33.5599 141.602 33.4609C141.497 33.362 141.445 33.2083 141.445 33C141.445 32.9792 141.448 32.9479 141.453 32.9062C141.458 32.8646 141.461 32.8307 141.461 32.8047L141.602 31.5938C141.617 31.4479 141.672 31.3359 141.766 31.2578C141.859 31.1797 141.982 31.1406 142.133 31.1406H147.656C147.802 31.1406 147.906 31.1745 147.969 31.2422C148.036 31.3047 148.07 31.4062 148.07 31.5469V31.9766ZM156.977 37.0938C156.992 37.099 157.008 37.1042 157.023 37.1094C157.039 37.1094 157.065 37.1094 157.102 37.1094C157.206 37.1094 157.326 37.0443 157.461 36.9141C157.596 36.7786 157.711 36.7109 157.805 36.7109C158.023 36.7109 158.195 36.7656 158.32 36.875C158.445 36.9792 158.508 37.1276 158.508 37.3203C158.508 37.3724 158.503 37.4271 158.492 37.4844C158.487 37.5417 158.477 37.5938 158.461 37.6406L158.289 38.2188C158.258 38.3281 158.206 38.4089 158.133 38.4609C158.06 38.513 157.966 38.5391 157.852 38.5391H156.977V39.5156H157.438C157.484 39.5156 157.544 39.5182 157.617 39.5234C157.69 39.5286 157.737 39.5312 157.758 39.5312C157.945 39.5312 158.104 39.6016 158.234 39.7422C158.365 39.8776 158.43 40.0521 158.43 40.2656C158.43 40.526 158.352 40.7135 158.195 40.8281C158.044 40.9427 157.792 41 157.438 41H154.141C153.786 41 153.534 40.9427 153.383 40.8281C153.237 40.7135 153.164 40.526 153.164 40.2656C153.164 40 153.24 39.8099 153.391 39.6953C153.542 39.5755 153.792 39.5156 154.141 39.5156H155.281V38.5391H151.68C151.544 38.5391 151.44 38.4974 151.367 38.4141C151.299 38.3307 151.266 38.2109 151.266 38.0547V37.5781C151.266 37.3854 151.279 37.237 151.305 37.1328C151.336 37.0234 151.385 36.9089 151.453 36.7891L154.734 31.2109C154.812 31.0807 154.875 31 154.922 30.9688C154.974 30.9375 155.044 30.9219 155.133 30.9219C155.18 30.9219 155.219 30.9245 155.25 30.9297C155.286 30.9297 155.318 30.9323 155.344 30.9375L156.734 31.1797C156.812 31.1953 156.872 31.237 156.914 31.3047C156.956 31.3724 156.977 31.4635 156.977 31.5781V37.0938ZM155.281 32.7734L152.828 37.0938H155.281V32.7734ZM165.93 35.6406C166.529 35.8281 166.974 36.125 167.266 36.5312C167.557 36.9323 167.703 37.4557 167.703 38.1016C167.703 39.0755 167.372 39.849 166.711 40.4219C166.055 40.9896 165.159 41.2734 164.023 41.2734C163.107 41.2734 162.349 41.1224 161.75 40.8203C161.151 40.5182 160.852 40.151 160.852 39.7188C160.852 39.4635 160.932 39.2578 161.094 39.1016C161.26 38.9401 161.479 38.8594 161.75 38.8594C161.88 38.8594 162.211 38.9766 162.742 39.2109C163.273 39.4453 163.742 39.5625 164.148 39.5625C164.638 39.5625 165.013 39.4323 165.273 39.1719C165.539 38.9062 165.672 38.5286 165.672 38.0391C165.672 37.513 165.56 37.138 165.336 36.9141C165.117 36.6901 164.695 36.5651 164.07 36.5391C163.742 36.5286 163.521 36.4661 163.406 36.3516C163.297 36.2318 163.242 36.0208 163.242 35.7188C163.242 35.3021 163.466 35.0625 163.914 35C163.977 34.9948 164.023 34.9896 164.055 34.9844C164.617 34.9062 164.982 34.7734 165.148 34.5859C165.315 34.3932 165.398 34.0833 165.398 33.6562C165.398 33.2865 165.297 33 165.094 32.7969C164.896 32.5885 164.615 32.4844 164.25 32.4844C163.865 32.4844 163.432 32.6068 162.953 32.8516C162.474 33.0911 162.143 33.2109 161.961 33.2109C161.758 33.2109 161.594 33.1458 161.469 33.0156C161.349 32.8802 161.289 32.7109 161.289 32.5078C161.289 32.0651 161.596 31.6849 162.211 31.3672C162.826 31.0495 163.583 30.8906 164.484 30.8906C165.391 30.8906 166.112 31.125 166.648 31.5938C167.19 32.0625 167.461 32.6849 167.461 33.4609C167.461 33.9714 167.336 34.4036 167.086 34.7578C166.841 35.1068 166.456 35.401 165.93 35.6406Z" fill="#333333"/>
<g clip-path="url(#clip1)">
<path d="M49.2337 20H20.7663C20.2978 20 19.8486 20.1861 19.5173 20.5173C19.1861 20.8486 19 21.2978 19 21.7663V50.2337C19 50.7022 19.1861 51.1514 19.5173 51.4827C19.8486 51.8139 20.2978 52 20.7663 52H36.0938V39.625H31.9375V34.7812H36.0938V31.2188C36.0938 27.0856 38.6181 24.835 42.3062 24.835C44.0719 24.835 45.59 24.9663 46.0312 25.0225V29.3419H43.4875C41.4812 29.3419 41.0925 30.295 41.0925 31.6944V34.7812H45.8888L45.2638 39.625H41.0925V52H49.2325C49.4646 52.0002 49.6944 51.9546 49.9088 51.8659C50.1232 51.7772 50.3181 51.6471 50.4822 51.4831C50.6464 51.3191 50.7766 51.1243 50.8654 50.91C50.9543 50.6956 51 50.4658 51 50.2337V21.7663C51 21.2978 50.8139 20.8486 50.4827 20.5173C50.1514 20.1861 49.7022 20 49.2337 20V20Z" fill="black"/>
<path d="M41.0938 52V39.625H45.2656L45.8906 34.7813H41.0938V31.6963C41.0938 30.2969 41.4813 29.3438 43.4888 29.3438H46.0312V25.0231C45.5888 24.9644 44.0706 24.8356 42.3062 24.8356C38.6187 24.8356 36.0938 27.0856 36.0938 31.2194V34.7819H31.9375V39.625H36.0938V52H41.0938Z" fill="white"/>
</g>
</g>
<defs>
<filter id="filter0_d" x="0.433673" y="0.163265" width="212.592" height="79.5918" filterUnits="userSpaceOnUse" color-interpolation-filters="sRGB">
<feFlood flood-opacity="0" result="BackgroundImageFix"/>
<feColorMatrix in="SourceAlpha" type="matrix" values="0 0 0 0 0 0 0 0 0 0 0 0 0 0 0 0 0 0 127 0"/>
<feOffset dx="1.72959" dy="3.45918"/>
<feGaussianBlur stdDeviation="8.64796"/>
<feColorMatrix type="matrix" values="0 0 0 0 0 0 0 0 0 0 0 0 0 0 0 0 0 0 0.25 0"/>
<feBlend mode="normal" in2="BackgroundImageFix" result="effect1_dropShadow"/>
<feBlend mode="normal" in="SourceGraphic" in2="effect1_dropShadow" result="shape"/>
</filter>
<clipPath id="clip0">
<rect width="178" height="45" fill="white" transform="translate(16 14)"/>
</clipPath>
<clipPath id="clip1">
<rect width="32" height="32" fill="white" transform="translate(19 20)"/>
</clipPath>
</defs>
</svg>
