<svg width="153" height="48" viewBox="0 0 153 48" fill="none" xmlns="http://www.w3.org/2000/svg">
<rect width="153" height="48" rx="8" fill="black"/>
<g clip-path="url(#clip0_413_35806)">
<path d="M37.3333 17.3334H28V14.6667H37.3333V17.3334ZM39.6347 30.6667C39.0453 32.3961 36.9293 34.6667 32.8333 34.6667C28.7347 34.6667 25.4147 32.3614 25.4147 27.1001C25.4147 21.8867 28.5147 19.2067 32.7027 19.2067C36.812 19.2067 39.3213 21.5827 39.8693 25.1081C39.9733 25.7827 40.0147 26.6921 39.996 27.9614H29.2933C29.4667 32.2427 33.9373 32.3774 35.4107 30.6667H39.6347ZM29.3867 25.3334H36.0067C35.8667 23.2707 34.492 22.3747 32.704 22.3747C30.7493 22.3747 29.668 23.3987 29.3867 25.3334ZM16.6213 34.6507H8V14.6947H17.2707C24.572 14.8027 24.7107 21.9534 20.8973 23.9027C25.512 25.5827 25.6667 34.6507 16.6213 34.6507V34.6507ZM12 22.6667H16.7787C20.1227 22.6667 20.6533 18.6667 16.3627 18.6667H12V22.6667V22.6667ZM16.5213 26.6667H12V30.6881H16.4547C20.528 30.6881 20.2787 26.6667 16.5213 26.6667V26.6667Z" fill="white"/>
</g>
<path d="M48.224 30.64L52.672 18.272H54.016L49.584 30.64H48.224ZM57.6786 30.16C56.9853 30.16 56.356 29.9893 55.7906 29.648C55.2253 29.296 54.7773 28.8213 54.4466 28.224C54.1266 27.6267 53.9666 26.9547 53.9666 26.208C53.9666 25.4613 54.1266 24.7893 54.4466 24.192C54.7773 23.5947 55.22 23.12 55.7746 22.768C56.34 22.416 56.9746 22.24 57.6786 22.24C58.2546 22.24 58.7666 22.3627 59.2146 22.608C59.6733 22.8427 60.0413 23.1733 60.3186 23.6C60.596 24.016 60.7506 24.5013 60.7826 25.056V27.344C60.7506 27.888 60.596 28.3733 60.3186 28.8C60.052 29.2267 59.6893 29.5627 59.2306 29.808C58.7826 30.0427 58.2653 30.16 57.6786 30.16ZM57.9186 28.8C58.6333 28.8 59.2093 28.56 59.6466 28.08C60.084 27.5893 60.3026 26.9653 60.3026 26.208C60.3026 25.6853 60.2013 25.232 59.9986 24.848C59.8066 24.4533 59.5293 24.1493 59.1666 23.936C58.804 23.712 58.3826 23.6 57.9026 23.6C57.4226 23.6 56.996 23.712 56.6226 23.936C56.26 24.16 55.972 24.4693 55.7586 24.864C55.556 25.248 55.4546 25.6907 55.4546 26.192C55.4546 26.704 55.556 27.1573 55.7586 27.552C55.972 27.936 56.2653 28.24 56.6386 28.464C57.012 28.688 57.4386 28.8 57.9186 28.8ZM60.2066 30V27.952L60.4786 26.096L60.2066 24.256V22.4H61.6626V30H60.2066ZM64.8959 30V19.216H66.3359V30H64.8959ZM63.0239 23.712V22.4H68.2079V23.712H63.0239ZM69.6345 30V22.4H71.0745V30H69.6345ZM70.3545 20.88C70.0878 20.88 69.8692 20.7947 69.6985 20.624C69.5278 20.4427 69.4425 20.2187 69.4425 19.952C69.4425 19.696 69.5278 19.4827 69.6985 19.312C69.8692 19.1307 70.0878 19.04 70.3545 19.04C70.6212 19.04 70.8398 19.1307 71.0105 19.312C71.1812 19.4827 71.2665 19.696 71.2665 19.952C71.2665 20.2187 71.1812 20.4427 71.0105 20.624C70.8398 20.7947 70.6212 20.88 70.3545 20.88ZM75.6126 30.16C75.186 30.16 74.7806 30.1067 74.3966 30C74.0233 29.8827 73.6766 29.7227 73.3566 29.52C73.0366 29.3067 72.7593 29.056 72.5246 28.768L73.4526 27.84C73.73 28.1813 74.05 28.4373 74.4126 28.608C74.7753 28.768 75.1806 28.848 75.6286 28.848C76.0766 28.848 76.4233 28.7733 76.6686 28.624C76.914 28.464 77.0366 28.2453 77.0366 27.968C77.0366 27.6907 76.9353 27.4773 76.7326 27.328C76.5406 27.168 76.29 27.04 75.9806 26.944C75.6713 26.8373 75.3406 26.736 74.9886 26.64C74.6473 26.5333 74.322 26.4 74.0126 26.24C73.7033 26.08 73.4473 25.8613 73.2446 25.584C73.0526 25.3067 72.9566 24.9387 72.9566 24.48C72.9566 24.0213 73.0686 23.6267 73.2926 23.296C73.5166 22.9547 73.826 22.6933 74.2206 22.512C74.626 22.3307 75.1113 22.24 75.6766 22.24C76.274 22.24 76.802 22.3467 77.2606 22.56C77.73 22.7627 78.114 23.072 78.4126 23.488L77.4846 24.416C77.2713 24.1387 77.0046 23.9253 76.6846 23.776C76.3753 23.6267 76.0233 23.552 75.6286 23.552C75.2126 23.552 74.8926 23.6267 74.6686 23.776C74.4553 23.9147 74.3486 24.112 74.3486 24.368C74.3486 24.624 74.4446 24.8213 74.6366 24.96C74.8286 25.0987 75.0793 25.216 75.3886 25.312C75.7086 25.408 76.0393 25.5093 76.3806 25.616C76.722 25.712 77.0473 25.8453 77.3566 26.016C77.666 26.1867 77.9166 26.416 78.1086 26.704C78.3113 26.992 78.4126 27.3707 78.4126 27.84C78.4126 28.5547 78.1566 29.12 77.6446 29.536C77.1433 29.952 76.466 30.16 75.6126 30.16ZM85.4008 30V25.568C85.4008 24.992 85.2194 24.5173 84.8568 24.144C84.4941 23.7707 84.0248 23.584 83.4488 23.584C83.0648 23.584 82.7234 23.6693 82.4248 23.84C82.1261 24.0107 81.8914 24.2453 81.7208 24.544C81.5501 24.8427 81.4648 25.184 81.4648 25.568L80.8728 25.232C80.8728 24.656 81.0008 24.144 81.2568 23.696C81.5128 23.248 81.8701 22.896 82.3288 22.64C82.7874 22.3733 83.3048 22.24 83.8808 22.24C84.4568 22.24 84.9634 22.368 85.4008 22.624C85.8488 22.88 86.2008 23.2373 86.4568 23.696C86.7128 24.1547 86.8408 24.6827 86.8408 25.28V30H85.4008ZM80.0247 30V18.576H81.4648V30H80.0247ZM92.0224 30.16C91.329 30.16 90.6997 29.9893 90.1344 29.648C89.569 29.296 89.121 28.8213 88.7904 28.224C88.4704 27.6267 88.3104 26.9547 88.3104 26.208C88.3104 25.4613 88.4704 24.7893 88.7904 24.192C89.121 23.5947 89.5637 23.12 90.1184 22.768C90.6837 22.416 91.3184 22.24 92.0224 22.24C92.5984 22.24 93.1104 22.3627 93.5584 22.608C94.017 22.8427 94.385 23.1733 94.6624 23.6C94.9397 24.016 95.0944 24.5013 95.1264 25.056V27.344C95.0944 27.888 94.9397 28.3733 94.6624 28.8C94.3957 29.2267 94.033 29.5627 93.5744 29.808C93.1264 30.0427 92.609 30.16 92.0224 30.16ZM92.2624 28.8C92.977 28.8 93.553 28.56 93.9904 28.08C94.4277 27.5893 94.6464 26.9653 94.6464 26.208C94.6464 25.6853 94.545 25.232 94.3424 24.848C94.1504 24.4533 93.873 24.1493 93.5104 23.936C93.1477 23.712 92.7264 23.6 92.2464 23.6C91.7664 23.6 91.3397 23.712 90.9664 23.936C90.6037 24.16 90.3157 24.4693 90.1024 24.864C89.8997 25.248 89.7984 25.6907 89.7984 26.192C89.7984 26.704 89.8997 27.1573 90.1024 27.552C90.3157 27.936 90.609 28.24 90.9824 28.464C91.3557 28.688 91.7824 28.8 92.2624 28.8ZM94.5504 30V27.952L94.8224 26.096L94.5504 24.256V22.4H96.0064V30H94.5504ZM100.599 30.064L97.3029 22.4H98.9029L101.351 28.4H100.839L103.415 22.4H105.015L101.463 30.064H100.599ZM98.4229 33.184L100.663 28.592L101.463 30.064L100.023 33.184H98.4229ZM105.143 33.344C104.652 33.344 104.242 33.264 103.911 33.104C103.57 32.944 103.266 32.7147 102.999 32.416L103.927 31.472C104.076 31.6533 104.242 31.7867 104.423 31.872C104.594 31.9573 104.802 32 105.047 32C105.367 32 105.644 31.8987 105.879 31.696C106.114 31.504 106.231 31.2107 106.231 30.816V22.4H107.671V30.8C107.671 31.3547 107.554 31.8187 107.319 32.192C107.084 32.5653 106.775 32.848 106.391 33.04C106.007 33.2427 105.591 33.344 105.143 33.344ZM106.967 20.88C106.711 20.88 106.498 20.7947 106.327 20.624C106.156 20.4427 106.071 20.2187 106.071 19.952C106.071 19.696 106.156 19.4827 106.327 19.312C106.498 19.1307 106.711 19.04 106.967 19.04C107.234 19.04 107.452 19.1307 107.623 19.312C107.794 19.4827 107.879 19.696 107.879 19.952C107.879 20.2187 107.794 20.4427 107.623 20.624C107.452 20.7947 107.234 20.88 106.967 20.88ZM113.022 30.16C112.329 30.16 111.7 29.9893 111.134 29.648C110.569 29.296 110.121 28.8213 109.79 28.224C109.47 27.6267 109.31 26.9547 109.31 26.208C109.31 25.4613 109.47 24.7893 109.79 24.192C110.121 23.5947 110.564 23.12 111.118 22.768C111.684 22.416 112.318 22.24 113.022 22.24C113.598 22.24 114.11 22.3627 114.558 22.608C115.017 22.8427 115.385 23.1733 115.662 23.6C115.94 24.016 116.094 24.5013 116.126 25.056V27.344C116.094 27.888 115.94 28.3733 115.662 28.8C115.396 29.2267 115.033 29.5627 114.574 29.808C114.126 30.0427 113.609 30.16 113.022 30.16ZM113.262 28.8C113.977 28.8 114.553 28.56 114.99 28.08C115.428 27.5893 115.646 26.9653 115.646 26.208C115.646 25.6853 115.545 25.232 115.342 24.848C115.15 24.4533 114.873 24.1493 114.51 23.936C114.148 23.712 113.726 23.6 113.246 23.6C112.766 23.6 112.34 23.712 111.966 23.936C111.604 24.16 111.316 24.4693 111.102 24.864C110.9 25.248 110.798 25.6907 110.798 26.192C110.798 26.704 110.9 27.1573 111.102 27.552C111.316 27.936 111.609 28.24 111.982 28.464C112.356 28.688 112.782 28.8 113.262 28.8ZM115.55 30V27.952L115.822 26.096L115.55 24.256V22.4H117.006V30H115.55ZM119.119 30V22.4H120.559V30H119.119ZM119.839 20.88C119.572 20.88 119.354 20.7947 119.183 20.624C119.012 20.4427 118.927 20.2187 118.927 19.952C118.927 19.696 119.012 19.4827 119.183 19.312C119.354 19.1307 119.572 19.04 119.839 19.04C120.106 19.04 120.324 19.1307 120.495 19.312C120.666 19.4827 120.751 19.696 120.751 19.952C120.751 20.2187 120.666 20.4427 120.495 20.624C120.324 20.7947 120.106 20.88 119.839 20.88ZM128.057 30V25.568C128.057 24.992 127.876 24.5173 127.513 24.144C127.15 23.7707 126.681 23.584 126.105 23.584C125.721 23.584 125.38 23.6693 125.081 23.84C124.782 24.0107 124.548 24.2453 124.377 24.544C124.206 24.8427 124.121 25.184 124.121 25.568L123.529 25.232C123.529 24.656 123.657 24.144 123.913 23.696C124.169 23.248 124.526 22.896 124.985 22.64C125.444 22.3733 125.961 22.24 126.537 22.24C127.113 22.24 127.62 22.384 128.057 22.672C128.505 22.96 128.857 23.3387 129.113 23.808C129.369 24.2667 129.497 24.7573 129.497 25.28V30H128.057ZM122.681 30V22.4H124.121V30H122.681ZM133.159 30V18.896H134.647V30H133.159ZM130.887 20.24V18.896H134.487V20.24H130.887ZM140.45 30.16C139.714 30.16 139.052 29.9893 138.466 29.648C137.89 29.3067 137.431 28.848 137.09 28.272C136.748 27.696 136.578 27.056 136.578 26.352C136.578 25.3707 136.919 24.3947 137.602 23.424L140.866 18.896H142.61L139.266 23.456L138.722 23.744C138.85 23.52 139.004 23.3333 139.186 23.184C139.367 23.024 139.591 22.9013 139.858 22.816C140.124 22.7307 140.439 22.688 140.802 22.688C141.452 22.688 142.039 22.8427 142.562 23.152C143.095 23.4613 143.522 23.888 143.842 24.432C144.172 24.9653 144.338 25.5893 144.338 26.304C144.338 27.008 144.162 27.6533 143.81 28.24C143.468 28.8267 142.999 29.296 142.402 29.648C141.815 29.9893 141.164 30.16 140.45 30.16ZM140.45 28.752C140.898 28.752 141.298 28.6453 141.65 28.432C142.012 28.208 142.295 27.9147 142.498 27.552C142.711 27.1787 142.818 26.7627 142.818 26.304C142.818 25.8453 142.711 25.4347 142.498 25.072C142.295 24.6987 142.012 24.4053 141.65 24.192C141.298 23.9787 140.898 23.872 140.45 23.872C140.002 23.872 139.596 23.9787 139.234 24.192C138.882 24.4053 138.599 24.6987 138.386 25.072C138.183 25.4347 138.082 25.8453 138.082 26.304C138.082 26.7627 138.183 27.1787 138.386 27.552C138.599 27.9253 138.882 28.2187 139.234 28.432C139.596 28.6453 140.002 28.752 140.45 28.752Z" fill="white"/>
<defs>
<clipPath id="clip0_413_35806">
<rect width="32" height="32" fill="white" transform="translate(8 8)"/>
</clipPath>
</defs>
</svg>
