<svg width="146" height="49" viewBox="0 0 146 49" fill="none" xmlns="http://www.w3.org/2000/svg">
<rect width="146" height="49" rx="8" fill="black"/>
<path d="M40.9903 8H8.00967C8.00433 8 8 8.00433 8 8.00967V40.9903C8 40.9957 8.00433 41 8.00967 41H40.9903C40.9957 41 41 40.9957 41 40.9903V8.00967C41 8.00433 40.9957 8 40.9903 8Z" fill="white"/>
<path d="M15.6698 24.4355C16.7655 26.3691 18.828 27.5292 22.2441 27.8515C21.7284 28.2382 21.1484 28.9472 21.0839 29.7851C20.4394 30.1718 19.2148 30.3007 18.248 29.9785C16.8944 29.5273 16.3788 26.8847 14.3163 27.2714C13.8651 27.3359 13.9296 27.6581 14.3163 27.916C14.9609 28.3027 15.6698 28.9472 15.9921 29.8495C16.7655 31.8476 18.3769 32.3632 20.955 31.9765V34.8769C20.955 35.7792 19.6659 36.037 19.6659 36.4882C19.6659 36.6816 20.1171 36.6816 20.4394 36.6816C21.0839 36.6816 22.5019 36.1015 22.5019 35.1992C22.5019 34.4257 22.5019 31.8476 22.5663 31.3964C22.5663 30.4296 23.0819 30.1074 23.0819 30.1074C23.0819 30.1074 23.1464 35.3925 22.953 36.037C22.6952 36.8749 22.3085 36.746 22.3085 37.1327C22.3085 37.7128 23.9843 37.2617 24.5644 36.037C25.0155 35.0702 24.8222 29.914 24.7577 29.9785H25.2089C25.2089 29.9785 25.2089 32.3632 25.2734 33.3945C25.2734 34.4902 25.2089 35.9081 25.8534 36.6171C26.3046 37.0683 27.7226 37.8417 27.7226 37.1327C27.7226 36.746 26.9491 36.3593 26.9491 35.2636V30.1718C27.5937 30.1718 27.4648 31.8476 27.4648 31.8476L27.5292 34.9413C27.5292 34.9413 27.4003 36.1015 28.7538 36.5527C29.2694 36.746 30.3007 36.746 30.3651 36.4882C30.4296 36.2304 29.0761 35.7792 29.0761 34.8769V31.7187C29.0761 29.3984 28.7538 28.5605 27.6581 27.8515C31.0741 27.5292 33.2011 26.6913 34.2323 24.4355C34.8769 23.1464 35.0058 21.5995 35.0058 20.4394C35.0058 17.2167 33.4589 16.121 33.1366 15.541C33.5878 13.0917 33.0722 11.996 32.8144 11.6738C31.912 11.3515 29.7206 12.4472 28.5605 13.2206C26.6269 12.6406 22.5019 12.705 20.955 13.3495C18.1191 11.3515 16.6366 11.6738 16.6366 11.6738C16.6366 11.6738 15.6698 13.414 16.3788 15.9277C15.412 17.0878 14.7675 17.9257 14.703 20.1171C14.703 21.8574 14.8964 22.9531 15.6698 24.4355Z" fill="black"/>
<path d="M49.224 31.14L53.672 18.772H55.016L50.584 31.14H49.224ZM58.6786 30.66C57.9853 30.66 57.356 30.4893 56.7906 30.148C56.2253 29.796 55.7773 29.3213 55.4466 28.724C55.1266 28.1267 54.9666 27.4547 54.9666 26.708C54.9666 25.9613 55.1266 25.2893 55.4466 24.692C55.7773 24.0947 56.22 23.62 56.7746 23.268C57.34 22.916 57.9746 22.74 58.6786 22.74C59.2546 22.74 59.7666 22.8627 60.2146 23.108C60.6733 23.3427 61.0413 23.6733 61.3186 24.1C61.596 24.516 61.7506 25.0013 61.7826 25.556V27.844C61.7506 28.388 61.596 28.8733 61.3186 29.3C61.052 29.7267 60.6893 30.0627 60.2306 30.308C59.7826 30.5427 59.2653 30.66 58.6786 30.66ZM58.9186 29.3C59.6333 29.3 60.2093 29.06 60.6466 28.58C61.084 28.0893 61.3026 27.4653 61.3026 26.708C61.3026 26.1853 61.2013 25.732 60.9986 25.348C60.8066 24.9533 60.5293 24.6493 60.1666 24.436C59.804 24.212 59.3826 24.1 58.9026 24.1C58.4226 24.1 57.996 24.212 57.6226 24.436C57.26 24.66 56.972 24.9693 56.7586 25.364C56.556 25.748 56.4546 26.1907 56.4546 26.692C56.4546 27.204 56.556 27.6573 56.7586 28.052C56.972 28.436 57.2653 28.74 57.6386 28.964C58.012 29.188 58.4386 29.3 58.9186 29.3ZM61.2066 30.5V28.452L61.4786 26.596L61.2066 24.756V22.9H62.6626V30.5H61.2066ZM65.8959 30.5V19.716H67.3359V30.5H65.8959ZM64.0239 24.212V22.9H69.2079V24.212H64.0239ZM70.6345 30.5V22.9H72.0745V30.5H70.6345ZM71.3545 21.38C71.0878 21.38 70.8692 21.2947 70.6985 21.124C70.5278 20.9427 70.4425 20.7187 70.4425 20.452C70.4425 20.196 70.5278 19.9827 70.6985 19.812C70.8692 19.6307 71.0878 19.54 71.3545 19.54C71.6212 19.54 71.8398 19.6307 72.0105 19.812C72.1812 19.9827 72.2665 20.196 72.2665 20.452C72.2665 20.7187 72.1812 20.9427 72.0105 21.124C71.8398 21.2947 71.6212 21.38 71.3545 21.38ZM76.6126 30.66C76.186 30.66 75.7806 30.6067 75.3966 30.5C75.0233 30.3827 74.6766 30.2227 74.3566 30.02C74.0366 29.8067 73.7593 29.556 73.5246 29.268L74.4526 28.34C74.73 28.6813 75.05 28.9373 75.4126 29.108C75.7753 29.268 76.1806 29.348 76.6286 29.348C77.0766 29.348 77.4233 29.2733 77.6686 29.124C77.914 28.964 78.0366 28.7453 78.0366 28.468C78.0366 28.1907 77.9353 27.9773 77.7326 27.828C77.5406 27.668 77.29 27.54 76.9806 27.444C76.6713 27.3373 76.3406 27.236 75.9886 27.14C75.6473 27.0333 75.322 26.9 75.0126 26.74C74.7033 26.58 74.4473 26.3613 74.2446 26.084C74.0526 25.8067 73.9566 25.4387 73.9566 24.98C73.9566 24.5213 74.0686 24.1267 74.2926 23.796C74.5166 23.4547 74.826 23.1933 75.2206 23.012C75.626 22.8307 76.1113 22.74 76.6766 22.74C77.274 22.74 77.802 22.8467 78.2606 23.06C78.73 23.2627 79.114 23.572 79.4126 23.988L78.4846 24.916C78.2713 24.6387 78.0046 24.4253 77.6846 24.276C77.3753 24.1267 77.0233 24.052 76.6286 24.052C76.2126 24.052 75.8926 24.1267 75.6686 24.276C75.4553 24.4147 75.3486 24.612 75.3486 24.868C75.3486 25.124 75.4446 25.3213 75.6366 25.46C75.8286 25.5987 76.0793 25.716 76.3886 25.812C76.7086 25.908 77.0393 26.0093 77.3806 26.116C77.722 26.212 78.0473 26.3453 78.3566 26.516C78.666 26.6867 78.9166 26.916 79.1086 27.204C79.3113 27.492 79.4126 27.8707 79.4126 28.34C79.4126 29.0547 79.1566 29.62 78.6446 30.036C78.1433 30.452 77.466 30.66 76.6126 30.66ZM86.4008 30.5V26.068C86.4008 25.492 86.2194 25.0173 85.8568 24.644C85.4941 24.2707 85.0248 24.084 84.4488 24.084C84.0648 24.084 83.7234 24.1693 83.4248 24.34C83.1261 24.5107 82.8914 24.7453 82.7208 25.044C82.5501 25.3427 82.4648 25.684 82.4648 26.068L81.8728 25.732C81.8728 25.156 82.0008 24.644 82.2568 24.196C82.5128 23.748 82.8701 23.396 83.3288 23.14C83.7874 22.8733 84.3048 22.74 84.8808 22.74C85.4568 22.74 85.9634 22.868 86.4008 23.124C86.8488 23.38 87.2008 23.7373 87.4568 24.196C87.7128 24.6547 87.8408 25.1827 87.8408 25.78V30.5H86.4008ZM81.0247 30.5V19.076H82.4648V30.5H81.0247ZM93.0224 30.66C92.329 30.66 91.6997 30.4893 91.1344 30.148C90.569 29.796 90.121 29.3213 89.7904 28.724C89.4704 28.1267 89.3104 27.4547 89.3104 26.708C89.3104 25.9613 89.4704 25.2893 89.7904 24.692C90.121 24.0947 90.5637 23.62 91.1184 23.268C91.6837 22.916 92.3184 22.74 93.0224 22.74C93.5984 22.74 94.1104 22.8627 94.5584 23.108C95.017 23.3427 95.385 23.6733 95.6624 24.1C95.9397 24.516 96.0944 25.0013 96.1264 25.556V27.844C96.0944 28.388 95.9397 28.8733 95.6624 29.3C95.3957 29.7267 95.033 30.0627 94.5744 30.308C94.1264 30.5427 93.609 30.66 93.0224 30.66ZM93.2624 29.3C93.977 29.3 94.553 29.06 94.9904 28.58C95.4277 28.0893 95.6464 27.4653 95.6464 26.708C95.6464 26.1853 95.545 25.732 95.3424 25.348C95.1504 24.9533 94.873 24.6493 94.5104 24.436C94.1477 24.212 93.7264 24.1 93.2464 24.1C92.7664 24.1 92.3397 24.212 91.9664 24.436C91.6037 24.66 91.3157 24.9693 91.1024 25.364C90.8997 25.748 90.7984 26.1907 90.7984 26.692C90.7984 27.204 90.8997 27.6573 91.1024 28.052C91.3157 28.436 91.609 28.74 91.9824 28.964C92.3557 29.188 92.7824 29.3 93.2624 29.3ZM95.5504 30.5V28.452L95.8224 26.596L95.5504 24.756V22.9H97.0064V30.5H95.5504ZM101.599 30.564L98.3029 22.9H99.9029L102.351 28.9H101.839L104.415 22.9H106.015L102.463 30.564H101.599ZM99.4229 33.684L101.663 29.092L102.463 30.564L101.023 33.684H99.4229ZM109.034 30.5V19.396H110.522V30.5H109.034ZM106.762 20.74V19.396H110.362V20.74H106.762ZM113.943 30.5L118.103 20.276L119.591 20.324L115.527 30.5H113.943ZM112.199 20.74V19.396H119.591V20.324L118.935 20.74H112.199ZM120.012 26.676L124.06 19.396H125.756L121.628 26.676H120.012ZM120.012 27.604V26.676L120.652 26.26H128.524V27.604H120.012ZM125.436 30.5V23.156H126.924V30.5H125.436ZM132.999 30.66C132.274 30.66 131.612 30.5267 131.015 30.26C130.428 29.9827 129.932 29.5827 129.527 29.06L130.551 28.036C130.796 28.4093 131.132 28.708 131.559 28.932C131.986 29.1453 132.46 29.252 132.983 29.252C133.474 29.252 133.895 29.1613 134.247 28.98C134.61 28.788 134.892 28.5213 135.095 28.18C135.308 27.8387 135.415 27.444 135.415 26.996C135.415 26.5373 135.308 26.1427 135.095 25.812C134.892 25.4707 134.604 25.2093 134.231 25.028C133.858 24.8467 133.415 24.756 132.903 24.756C132.711 24.756 132.519 24.772 132.327 24.804C132.135 24.8253 131.948 24.8627 131.767 24.916L132.407 24.052C132.61 23.956 132.828 23.8813 133.063 23.828C133.298 23.7747 133.532 23.748 133.767 23.748C134.364 23.748 134.898 23.8867 135.367 24.164C135.847 24.4413 136.226 24.8307 136.503 25.332C136.791 25.8333 136.935 26.4147 136.935 27.076C136.935 27.78 136.764 28.404 136.423 28.948C136.092 29.4813 135.634 29.9027 135.047 30.212C134.46 30.5107 133.778 30.66 132.999 30.66ZM131.767 24.916V24.004L135.015 20.308L136.807 20.292L133.463 24.084L131.767 24.916ZM130.055 20.74V19.396H136.807V20.292L135.495 20.74H130.055Z" fill="white"/>
</svg>
