<svg width="1504" height="407" viewBox="0 0 1504 407" fill="none" xmlns="http://www.w3.org/2000/svg">
<g clip-path="url(#clip0_411_141)">
<rect width="1504" height="407" rx="12.0455" fill="#161616"/>
<path d="M1508.42 -52.228C1155.19 80.4062 660.68 363.008 1508.42 432.343V-52.228Z" fill="white"/>
<path d="M1606.31 -18.1921C1253.09 114.442 758.576 329.674 1606.31 399.009V-18.1921Z" fill="#161616"/>
<path d="M1699.65 7.77319C1346.42 123.786 851.911 312.047 1699.65 372.693V7.77319Z" fill="white"/>
<path d="M1625.26 66.7219C1399.13 151.055 1082.56 287.905 1625.26 331.99V66.7219Z" fill="#161616"/>
<circle r="1.40354" transform="matrix(-1 0 0 1 1173.32 283.568)" fill="white"/>
<circle r="1.40354" transform="matrix(-1 0 0 1 1481.4 248.48)" fill="white"/>
<circle r="1.40354" transform="matrix(-1 0 0 1 865.947 339.008)" fill="white"/>
<circle r="1.40354" transform="matrix(-1 0 0 1 1183.15 34.4404)" fill="white"/>
<circle r="1.40354" transform="matrix(-1 0 0 1 900.267 151.971)" fill="white"/>
<circle r="1.40354" transform="matrix(-1 0 0 1 1122.79 111.635)" fill="white"/>
<circle cx="1131.57" cy="309.884" r="1.05265" fill="#161616"/>
<circle cx="1274.03" cy="359.008" r="1.05265" fill="#161616"/>
<circle cx="1313.32" cy="-5.9112" r="12.2809" fill="white"/>
<ellipse cx="1203.66" cy="175.658" rx="17.8951" ry="17.8951" transform="rotate(18.3001 1203.66 175.658)" fill="white"/>
<path d="M1209.28 158.668C1199.9 155.565 1189.86 160.378 1186.67 170.039C1185.06 174.896 1185.11 178.436 1187.14 183.131C1187.92 180.799 1215.17 162.094 1215.17 162.094C1215.17 162.094 1214.28 160.321 1209.28 158.668Z" fill="#161616"/>
<circle cx="1132.97" cy="352.692" r="2.45619" fill="#161616"/>
<circle cx="1269.81" cy="248.831" r="1.75442" fill="#161616"/>
<circle cx="1352.62" cy="66.3707" r="2.45619" fill="#161616"/>
<rect width="1.06157" height="1.06157" rx="0.144973" transform="matrix(0.910327 -0.413889 0.413832 0.910353 1284.9 139.885)" fill="white"/>
<rect width="2.1295" height="2.1295" rx="0.290815" transform="matrix(0.910344 -0.413851 0.41387 0.910336 1075.07 351.819)" fill="white"/>
<rect width="2.1295" height="2.1295" rx="0.290815" transform="matrix(0.91034 -0.413862 0.413859 0.910341 813 38.8052)" fill="white"/>
<rect width="1.84747" height="1.84747" rx="0.263591" transform="matrix(0.816064 0.577962 -0.577934 0.816083 1152.1 171.659)" fill="#161616"/>
<rect x="1204.56" y="334.748" width="2.19896" height="2.19896" rx="0.338572" transform="rotate(30.4542 1204.56 334.748)" fill="#161616"/>
<rect width="2.19896" height="2.19896" rx="0.338572" transform="matrix(0.910338 -0.413865 0.413856 0.910342 1453.33 108.334)" fill="#161616"/>
<path d="M1436.19 159.742C1436.39 159.648 1436.62 159.814 1436.6 160.04L1436.44 161.612C1436.42 161.838 1436.16 161.955 1435.98 161.823L1434.7 160.9C1434.51 160.768 1434.54 160.485 1434.75 160.391L1436.19 159.742Z" fill="white"/>
<path d="M1185.24 233.483C1185.31 233.616 1185.29 233.779 1185.18 233.888L1184.06 235.057C1183.95 235.166 1183.79 235.195 1183.66 235.129L1182.2 234.423C1182.06 234.357 1181.98 234.212 1182.01 234.063L1182.23 232.457C1182.25 232.308 1182.36 232.189 1182.51 232.162L1184.1 231.876C1184.25 231.85 1184.4 231.921 1184.47 232.054L1185.24 233.483Z" fill="white"/>
<path d="M1351.19 226.404C1351.24 226.461 1351.25 226.542 1351.21 226.606L1350.79 227.293C1350.75 227.357 1350.68 227.389 1350.6 227.372L1349.82 227.187C1349.75 227.17 1349.69 227.108 1349.69 227.034L1349.62 226.233C1349.62 226.158 1349.66 226.088 1349.73 226.06L1350.47 225.749C1350.54 225.72 1350.62 225.738 1350.66 225.795L1351.19 226.404Z" fill="white"/>
<path d="M1271.39 48.1292C1271.54 48.1284 1271.67 48.2247 1271.72 48.3675L1272.23 49.9068C1272.27 50.0497 1272.22 50.2067 1272.1 50.2957L1270.8 51.255C1270.68 51.344 1270.51 51.3448 1270.39 51.257L1269.07 50.3106C1268.95 50.2227 1268.9 50.0662 1268.94 49.9229L1269.44 48.3787C1269.48 48.2354 1269.62 48.1379 1269.77 48.1371L1271.39 48.1292Z" fill="white"/>
<path d="M1384.66 283.207C1384.72 283.299 1384.71 283.418 1384.64 283.502L1383.9 284.409C1383.83 284.493 1383.72 284.524 1383.62 284.484L1382.53 284.06C1382.42 284.02 1382.36 283.92 1382.37 283.811L1382.43 282.642C1382.44 282.533 1382.51 282.441 1382.62 282.413L1383.75 282.115C1383.86 282.088 1383.97 282.131 1384.03 282.222L1384.66 283.207Z" fill="white"/>
<path d="M1396.3 354.1C1396.45 354.099 1396.59 354.196 1396.63 354.338L1397.14 355.878C1397.19 356.021 1397.14 356.178 1397.02 356.267L1395.71 357.226C1395.59 357.315 1395.43 357.316 1395.3 357.228L1393.99 356.282C1393.86 356.194 1393.81 356.037 1393.86 355.894L1394.35 354.35C1394.4 354.206 1394.53 354.109 1394.68 354.108L1396.3 354.1Z" fill="white"/>
<path d="M1064.69 228.738C1064.8 228.738 1064.91 228.813 1064.94 228.924L1065.34 230.125C1065.38 230.236 1065.34 230.358 1065.24 230.428L1064.22 231.176C1064.13 231.245 1064 231.246 1063.91 231.178L1062.88 230.439C1062.78 230.371 1062.74 230.249 1062.78 230.137L1063.16 228.933C1063.2 228.821 1063.3 228.745 1063.42 228.745L1064.69 228.738Z" fill="#161616"/>
<path d="M1080.64 286.032C1080.79 285.966 1080.95 286.083 1080.94 286.242L1080.74 288.216C1080.72 288.375 1080.54 288.458 1080.41 288.364L1078.8 287.206C1078.67 287.112 1078.69 286.913 1078.84 286.847L1080.64 286.032Z" fill="#161616"/>
<path d="M69.248 186V141.584H75.264V186H69.248ZM97.92 186V141.584H103.936V186H97.92ZM73.344 165.776V160.272H99.392V165.776H73.344ZM127.492 186.64C124.462 186.64 121.732 185.957 119.3 184.592C116.868 183.184 114.948 181.285 113.54 178.896C112.132 176.507 111.428 173.797 111.428 170.768C111.428 167.781 112.11 165.093 113.476 162.704C114.884 160.315 116.761 158.437 119.108 157.072C121.497 155.664 124.164 154.96 127.108 154.96C129.924 154.96 132.398 155.6 134.532 156.88C136.708 158.16 138.393 159.931 139.588 162.192C140.825 164.453 141.444 167.013 141.444 169.872C141.444 170.299 141.422 170.768 141.38 171.28C141.337 171.749 141.252 172.304 141.124 172.944H115.46V168.144H138.052L135.94 170C135.94 167.952 135.577 166.224 134.852 164.816C134.126 163.365 133.102 162.256 131.78 161.488C130.457 160.677 128.857 160.272 126.98 160.272C125.017 160.272 123.289 160.699 121.796 161.552C120.302 162.405 119.15 163.6 118.34 165.136C117.529 166.672 117.124 168.485 117.124 170.576C117.124 172.709 117.55 174.587 118.404 176.208C119.257 177.787 120.473 179.024 122.052 179.92C123.63 180.773 125.444 181.2 127.492 181.2C129.198 181.2 130.756 180.901 132.164 180.304C133.614 179.707 134.852 178.811 135.876 177.616L139.588 181.392C138.137 183.099 136.345 184.4 134.212 185.296C132.121 186.192 129.881 186.64 127.492 186.64ZM157.208 186.256L144.024 155.6H150.424L160.216 179.6H158.168L168.472 155.6H174.872L160.664 186.256H157.208ZM148.504 198.736L157.464 180.368L160.664 186.256L154.904 198.736H148.504ZM198.084 186V142.864H203.844V186H198.084ZM190.596 160.848V155.6H211.332V160.848H190.596ZM238.478 186V168.272C238.478 165.968 237.753 164.069 236.302 162.576C234.851 161.083 232.974 160.336 230.67 160.336C229.134 160.336 227.769 160.677 226.574 161.36C225.379 162.043 224.441 162.981 223.758 164.176C223.075 165.371 222.734 166.736 222.734 168.272L220.366 166.928C220.366 164.624 220.878 162.576 221.902 160.784C222.926 158.992 224.355 157.584 226.19 156.56C228.025 155.493 230.094 154.96 232.398 154.96C234.702 154.96 236.729 155.472 238.478 156.496C240.27 157.52 241.678 158.949 242.702 160.784C243.726 162.619 244.238 164.731 244.238 167.12V186H238.478ZM216.974 186V140.304H222.734V186H216.974ZM266.117 186.64C263.087 186.64 260.357 185.957 257.925 184.592C255.493 183.184 253.573 181.285 252.165 178.896C250.757 176.507 250.053 173.797 250.053 170.768C250.053 167.781 250.735 165.093 252.101 162.704C253.509 160.315 255.386 158.437 257.733 157.072C260.122 155.664 262.789 154.96 265.733 154.96C268.549 154.96 271.023 155.6 273.157 156.88C275.333 158.16 277.018 159.931 278.213 162.192C279.45 164.453 280.069 167.013 280.069 169.872C280.069 170.299 280.047 170.768 280.005 171.28C279.962 171.749 279.877 172.304 279.749 172.944H254.085V168.144H276.677L274.565 170C274.565 167.952 274.202 166.224 273.477 164.816C272.751 163.365 271.727 162.256 270.405 161.488C269.082 160.677 267.482 160.272 265.605 160.272C263.642 160.272 261.914 160.699 260.421 161.552C258.927 162.405 257.775 163.6 256.965 165.136C256.154 166.672 255.749 168.485 255.749 170.576C255.749 172.709 256.175 174.587 257.029 176.208C257.882 177.787 259.098 179.024 260.677 179.92C262.255 180.773 264.069 181.2 266.117 181.2C267.823 181.2 269.381 180.901 270.789 180.304C272.239 179.707 273.477 178.811 274.501 177.616L278.213 181.392C276.762 183.099 274.97 184.4 272.837 185.296C270.746 186.192 268.506 186.64 266.117 186.64ZM286.349 186V155.6H292.109V186H286.349ZM292.109 168.656L289.933 167.696C289.933 163.813 290.829 160.72 292.621 158.416C294.413 156.112 296.994 154.96 300.365 154.96C301.901 154.96 303.288 155.237 304.525 155.792C305.762 156.304 306.914 157.179 307.981 158.416L304.205 162.32C303.565 161.637 302.861 161.147 302.093 160.848C301.325 160.549 300.429 160.4 299.405 160.4C297.272 160.4 295.522 161.083 294.157 162.448C292.792 163.813 292.109 165.883 292.109 168.656ZM325.117 186.64C322.087 186.64 319.357 185.957 316.925 184.592C314.493 183.184 312.573 181.285 311.165 178.896C309.757 176.507 309.053 173.797 309.053 170.768C309.053 167.781 309.735 165.093 311.101 162.704C312.509 160.315 314.386 158.437 316.733 157.072C319.122 155.664 321.789 154.96 324.733 154.96C327.549 154.96 330.023 155.6 332.157 156.88C334.333 158.16 336.018 159.931 337.213 162.192C338.45 164.453 339.069 167.013 339.069 169.872C339.069 170.299 339.047 170.768 339.005 171.28C338.962 171.749 338.877 172.304 338.749 172.944H313.085V168.144H335.677L333.565 170C333.565 167.952 333.202 166.224 332.477 164.816C331.751 163.365 330.727 162.256 329.405 161.488C328.082 160.677 326.482 160.272 324.605 160.272C322.642 160.272 320.914 160.699 319.421 161.552C317.927 162.405 316.775 163.6 315.965 165.136C315.154 166.672 314.749 168.485 314.749 170.576C314.749 172.709 315.175 174.587 316.029 176.208C316.882 177.787 318.098 179.024 319.677 179.92C321.255 180.773 323.069 181.2 325.117 181.2C326.823 181.2 328.381 180.901 329.789 180.304C331.239 179.707 332.477 178.811 333.501 177.616L337.213 181.392C335.762 183.099 333.97 184.4 331.837 185.296C329.746 186.192 327.506 186.64 325.117 186.64ZM69.248 267V222.584H75.264V267H69.248ZM110.965 267.64C108.191 267.64 105.674 266.957 103.413 265.592C101.151 264.184 99.3592 262.285 98.0365 259.896C96.7565 257.507 96.1165 254.819 96.1165 251.832C96.1165 248.845 96.7565 246.157 98.0365 243.768C99.3592 241.379 101.13 239.48 103.349 238.072C105.61 236.664 108.149 235.96 110.965 235.96C113.269 235.96 115.317 236.451 117.109 237.432C118.943 238.371 120.415 239.693 121.525 241.4C122.634 243.064 123.253 245.005 123.381 247.224V256.376C123.253 258.552 122.634 260.493 121.525 262.2C120.458 263.907 119.007 265.251 117.173 266.232C115.381 267.171 113.311 267.64 110.965 267.64ZM111.925 262.2C114.783 262.2 117.087 261.24 118.837 259.32C120.586 257.357 121.461 254.861 121.461 251.832C121.461 249.741 121.055 247.928 120.245 246.392C119.477 244.813 118.367 243.597 116.917 242.744C115.466 241.848 113.781 241.4 111.861 241.4C109.941 241.4 108.234 241.848 106.741 242.744C105.29 243.64 104.138 244.877 103.285 246.456C102.474 247.992 102.069 249.763 102.069 251.768C102.069 253.816 102.474 255.629 103.285 257.208C104.138 258.744 105.311 259.96 106.805 260.856C108.298 261.752 110.005 262.2 111.925 262.2ZM121.077 267V258.808L122.165 251.384L121.077 244.024V236.6H126.901V267H121.077ZM135.286 267V236.6H141.047V267H135.286ZM155.831 267V248.632C155.831 246.371 155.127 244.6 153.719 243.32C152.353 241.997 150.625 241.336 148.535 241.336C147.127 241.336 145.868 241.635 144.759 242.232C143.649 242.829 142.753 243.661 142.071 244.728C141.388 245.795 141.047 247.075 141.047 248.568L138.679 247.416C138.679 245.112 139.169 243.107 140.151 241.4C141.175 239.693 142.561 238.371 144.311 237.432C146.06 236.451 148.023 235.96 150.199 235.96C152.332 235.96 154.252 236.429 155.959 237.368C157.708 238.307 159.073 239.629 160.055 241.336C161.079 243.043 161.591 245.069 161.591 247.416V267H155.831ZM176.375 267V248.632C176.375 246.371 175.671 244.6 174.263 243.32C172.897 241.997 171.191 241.336 169.143 241.336C167.735 241.336 166.455 241.635 165.303 242.232C164.193 242.829 163.297 243.661 162.615 244.728C161.932 245.795 161.591 247.075 161.591 248.568L158.327 247.416C158.455 245.069 159.073 243.064 160.183 241.4C161.335 239.693 162.807 238.371 164.599 237.432C166.391 236.451 168.353 235.96 170.487 235.96C172.705 235.96 174.689 236.429 176.439 237.368C178.188 238.307 179.575 239.629 180.599 241.336C181.665 243.043 182.199 245.091 182.199 247.48V267H176.375ZM199.297 267L217.473 222.584H221.825L239.937 267H233.409L218.497 229.432H220.737L205.697 267H199.297ZM207.937 256.952V251.704H231.297V256.952H207.937ZM248.021 267V223.864H253.781V267H248.021ZM240.533 241.848V236.6H261.269V241.848H240.533ZM266.976 267V236.6H272.736V267H266.976ZM269.856 230.52C268.789 230.52 267.914 230.179 267.232 229.496C266.549 228.771 266.208 227.875 266.208 226.808C266.208 225.784 266.549 224.931 267.232 224.248C267.914 223.523 268.789 223.16 269.856 223.16C270.922 223.16 271.797 223.523 272.48 224.248C273.162 224.931 273.504 225.784 273.504 226.808C273.504 227.875 273.162 228.771 272.48 229.496C271.797 230.179 270.922 230.52 269.856 230.52ZM290.888 267.64C289.181 267.64 287.56 267.427 286.024 267C284.531 266.531 283.144 265.891 281.864 265.08C280.584 264.227 279.475 263.224 278.536 262.072L282.248 258.36C283.357 259.725 284.637 260.749 286.088 261.432C287.539 262.072 289.16 262.392 290.952 262.392C292.744 262.392 294.131 262.093 295.112 261.496C296.093 260.856 296.584 259.981 296.584 258.872C296.584 257.763 296.179 256.909 295.368 256.312C294.6 255.672 293.597 255.16 292.36 254.776C291.123 254.349 289.8 253.944 288.392 253.56C287.027 253.133 285.725 252.6 284.488 251.96C283.251 251.32 282.227 250.445 281.416 249.336C280.648 248.227 280.264 246.755 280.264 244.92C280.264 243.085 280.712 241.507 281.608 240.184C282.504 238.819 283.741 237.773 285.32 237.048C286.941 236.323 288.883 235.96 291.144 235.96C293.533 235.96 295.645 236.387 297.48 237.24C299.357 238.051 300.893 239.288 302.088 240.952L298.376 244.664C297.523 243.555 296.456 242.701 295.176 242.104C293.939 241.507 292.531 241.208 290.952 241.208C289.288 241.208 288.008 241.507 287.112 242.104C286.259 242.659 285.832 243.448 285.832 244.472C285.832 245.496 286.216 246.285 286.984 246.84C287.752 247.395 288.755 247.864 289.992 248.248C291.272 248.632 292.595 249.037 293.96 249.464C295.325 249.848 296.627 250.381 297.864 251.064C299.101 251.747 300.104 252.664 300.872 253.816C301.683 254.968 302.088 256.483 302.088 258.36C302.088 261.219 301.064 263.48 299.016 265.144C297.011 266.808 294.301 267.64 290.888 267.64ZM330.041 267V249.272C330.041 246.968 329.315 245.069 327.865 243.576C326.414 242.083 324.537 241.336 322.233 241.336C320.697 241.336 319.331 241.677 318.137 242.36C316.942 243.043 316.003 243.981 315.321 245.176C314.638 246.371 314.297 247.736 314.297 249.272L311.929 247.928C311.929 245.624 312.441 243.576 313.465 241.784C314.489 239.992 315.918 238.584 317.753 237.56C319.587 236.493 321.657 235.96 323.961 235.96C326.265 235.96 328.291 236.472 330.041 237.496C331.833 238.52 333.241 239.949 334.265 241.784C335.289 243.619 335.801 245.731 335.801 248.12V267H330.041ZM308.536 267V221.304H314.297V267H308.536ZM356.527 267.64C353.754 267.64 351.236 266.957 348.975 265.592C346.714 264.184 344.922 262.285 343.599 259.896C342.319 257.507 341.679 254.819 341.679 251.832C341.679 248.845 342.319 246.157 343.599 243.768C344.922 241.379 346.692 239.48 348.911 238.072C351.172 236.664 353.711 235.96 356.527 235.96C358.831 235.96 360.879 236.451 362.671 237.432C364.506 238.371 365.978 239.693 367.087 241.4C368.196 243.064 368.815 245.005 368.943 247.224V256.376C368.815 258.552 368.196 260.493 367.087 262.2C366.02 263.907 364.57 265.251 362.735 266.232C360.943 267.171 358.874 267.64 356.527 267.64ZM357.487 262.2C360.346 262.2 362.65 261.24 364.399 259.32C366.148 257.357 367.023 254.861 367.023 251.832C367.023 249.741 366.618 247.928 365.807 246.392C365.039 244.813 363.93 243.597 362.479 242.744C361.028 241.848 359.343 241.4 357.423 241.4C355.503 241.4 353.796 241.848 352.303 242.744C350.852 243.64 349.7 244.877 348.847 246.456C348.036 247.992 347.631 249.763 347.631 251.768C347.631 253.816 348.036 255.629 348.847 257.208C349.7 258.744 350.874 259.96 352.367 260.856C353.86 261.752 355.567 262.2 357.487 262.2ZM366.639 267V258.808L367.727 251.384L366.639 244.024V236.6H372.463V267H366.639ZM390.833 267.256L377.649 236.6H384.049L393.841 260.6H391.793L402.097 236.6H408.497L394.289 267.256H390.833ZM382.129 279.736L391.089 261.368L394.289 267.256L388.529 279.736H382.129ZM434.44 267.64C431.88 267.64 429.619 267.149 427.656 266.168C425.736 265.144 424.157 263.779 422.92 262.072L427.144 258.168C427.955 259.363 428.957 260.28 430.152 260.92C431.389 261.56 432.755 261.88 434.248 261.88C435.741 261.88 437.064 261.56 438.216 260.92C439.368 260.28 440.264 259.341 440.904 258.104C441.587 256.824 441.928 255.267 441.928 253.432V222.584H447.944V253.112C447.944 256.056 447.347 258.616 446.152 260.792C445 262.968 443.4 264.653 441.352 265.848C439.347 267.043 437.043 267.64 434.44 267.64ZM469.84 267.64C467.066 267.64 464.549 266.957 462.288 265.592C460.026 264.184 458.234 262.285 456.911 259.896C455.632 257.507 454.992 254.819 454.992 251.832C454.992 248.845 455.632 246.157 456.911 243.768C458.234 241.379 460.005 239.48 462.224 238.072C464.485 236.664 467.024 235.96 469.84 235.96C472.144 235.96 474.192 236.451 475.984 237.432C477.818 238.371 479.29 239.693 480.4 241.4C481.509 243.064 482.128 245.005 482.256 247.224V256.376C482.128 258.552 481.509 260.493 480.4 262.2C479.333 263.907 477.882 265.251 476.048 266.232C474.256 267.171 472.186 267.64 469.84 267.64ZM470.8 262.2C473.658 262.2 475.962 261.24 477.712 259.32C479.461 257.357 480.336 254.861 480.336 251.832C480.336 249.741 479.93 247.928 479.12 246.392C478.352 244.813 477.242 243.597 475.792 242.744C474.341 241.848 472.656 241.4 470.736 241.4C468.816 241.4 467.109 241.848 465.616 242.744C464.165 243.64 463.013 244.877 462.16 246.456C461.349 247.992 460.944 249.763 460.944 251.768C460.944 253.816 461.349 255.629 462.16 257.208C463.013 258.744 464.186 259.96 465.68 260.856C467.173 261.752 468.88 262.2 470.8 262.2ZM479.952 267V258.808L481.04 251.384L479.952 244.024V236.6H485.776V267H479.952ZM494.226 267V236.6H499.986V267H494.226ZM497.106 230.52C496.039 230.52 495.164 230.179 494.482 229.496C493.799 228.771 493.458 227.875 493.458 226.808C493.458 225.784 493.799 224.931 494.482 224.248C495.164 223.523 496.039 223.16 497.106 223.16C498.172 223.16 499.047 223.523 499.73 224.248C500.412 224.931 500.754 225.784 500.754 226.808C500.754 227.875 500.412 228.771 499.73 229.496C499.047 230.179 498.172 230.52 497.106 230.52ZM529.978 267V249.272C529.978 246.968 529.253 245.069 527.802 243.576C526.351 242.083 524.474 241.336 522.17 241.336C520.634 241.336 519.269 241.677 518.074 242.36C516.879 243.043 515.941 243.981 515.258 245.176C514.575 246.371 514.234 247.736 514.234 249.272L511.866 247.928C511.866 245.624 512.378 243.576 513.402 241.784C514.426 239.992 515.855 238.584 517.69 237.56C519.525 236.493 521.594 235.96 523.898 235.96C526.202 235.96 528.229 236.536 529.978 237.688C531.77 238.84 533.178 240.355 534.202 242.232C535.226 244.067 535.738 246.029 535.738 248.12V267H529.978ZM508.474 267V236.6H514.234V267H508.474Z" fill="white"/>
</g>
<defs>
<clipPath id="clip0_411_141">
<rect width="1504" height="407" rx="12.0455" fill="white"/>
</clipPath>
</defs>
</svg>
