<svg width="139" height="51" viewBox="0 0 139 51" fill="none" xmlns="http://www.w3.org/2000/svg">
<rect width="139" height="51" rx="8" fill="black"/>
<path d="M25.5151 16.5673C25.2073 16.5673 24.9029 16.583 24.603 16.6138C24.303 16.6445 24.0072 16.6901 23.7165 16.75C23.4257 16.8099 23.1402 16.884 22.8603 16.9715L22.0389 17.2737L21.2568 17.652L20.5188 18.1019L19.8292 18.6186L19.1929 19.1977L18.6143 19.8346L18.098 20.5246L17.6483 21.2633L17.2705 22.0459C17.1569 22.3136 17.0559 22.588 16.9684 22.8682C16.8809 23.1483 16.8069 23.4343 16.7471 23.7253C16.6872 24.0162 16.6417 24.3122 16.6108 24.6124C16.58 24.9127 16.5645 25.2173 16.5645 25.5253C16.5645 25.8334 16.5802 26.138 16.6108 26.4383C16.6413 26.7361 16.6867 27.0323 16.7471 27.3255C16.8069 27.6176 16.8809 27.9025 16.9684 28.1826C17.0559 28.4628 17.1568 28.7371 17.2705 29.0049L17.6483 29.7875L18.098 30.5261L18.6143 31.2162L19.1929 31.8531L19.8292 32.4322L20.5188 32.9489L21.2568 33.3988L22.0389 33.7771L22.8603 34.0793L23.7165 34.3008C24.0095 34.3612 24.3054 34.4067 24.603 34.4372C24.906 34.4681 25.2105 34.4836 25.5151 34.4836C25.8229 34.4836 26.1273 34.4678 26.4271 34.4372C26.7247 34.4067 27.0206 34.3612 27.3136 34.3008L28.1699 34.0793L28.9914 33.7771L29.7733 33.3988L30.5115 32.9489L31.201 32.4322L31.8375 31.8531L32.416 31.2162L32.9324 30.5261L33.382 29.7875L33.7599 29.0049L34.0619 28.1826C34.1494 27.9025 34.2234 27.6165 34.2833 27.3255L34.4195 26.4381C34.4502 26.1379 34.4659 25.8332 34.4659 25.5252C34.4659 25.2172 34.4502 24.9126 34.4195 24.6123C34.3891 24.3145 34.3436 24.0184 34.2833 23.7251C34.2234 23.4331 34.1494 23.1483 34.0619 22.8681L33.7599 22.0458L33.382 21.2632L32.9324 20.5245L32.416 19.8345L31.8375 19.1976L31.201 18.6185L30.5115 18.1018L29.7733 17.6519L28.9914 17.2736L28.1699 16.9714L27.3136 16.7499L26.4271 16.6136C26.1241 16.5826 25.8197 16.5671 25.5151 16.5671V16.5673ZM25.5151 19.6592C25.7186 19.6592 25.9194 19.6694 26.1172 19.6894L26.7003 19.7778L27.2635 19.9215L27.8028 20.1178L28.3156 20.3638L28.7977 20.6564L29.2485 20.9931L29.664 21.3707L30.0413 21.7866L30.3777 22.2377L30.6701 22.7214L30.9157 23.2347C30.9895 23.4104 31.0549 23.5905 31.1119 23.7746C31.1689 23.9587 31.2167 24.1468 31.2554 24.3385C31.2941 24.5301 31.3227 24.7251 31.3437 24.9231L31.3737 25.5259C31.3737 25.7296 31.3636 25.9306 31.3437 26.1288C31.3237 26.3269 31.2943 26.5219 31.2554 26.7135C31.2165 26.905 31.1685 27.0931 31.1119 27.2774L30.9157 27.8172L30.6701 28.3306L30.3777 28.8141L30.0413 29.2654L29.664 29.6812L29.2485 30.0589L28.7977 30.3955L28.3156 30.6881L27.8028 30.9341L27.2635 31.1304L26.7003 31.2742L26.1172 31.3625C25.9171 31.3826 25.7161 31.3926 25.515 31.3926C25.3138 31.3926 25.1128 31.3826 24.9127 31.3625L24.3296 31.2742C24.1382 31.2353 23.9503 31.1872 23.7663 31.1304L23.2269 30.9341L22.7142 30.6881L22.2321 30.3955L21.7813 30.0589L21.3658 29.6812L20.9885 29.2654L20.6521 28.8141L20.3597 28.3306L20.1141 27.8172L19.9179 27.2774L19.7744 26.7135L19.6861 26.1288C19.666 25.9285 19.656 25.7272 19.6561 25.5259C19.656 25.3246 19.666 25.1234 19.6861 24.9231C19.706 24.7251 19.7354 24.53 19.7744 24.3385C19.8129 24.1483 19.8608 23.9601 19.918 23.7747L20.1142 23.2348L20.3598 22.7215L20.6522 22.2378L20.9886 21.7867L21.3659 21.3708L21.7814 20.9932L22.2322 20.6565L22.7143 20.3639L23.2271 20.1179C23.4035 20.0436 23.5836 19.9781 23.7665 19.9217L24.3298 19.7779C24.5212 19.739 24.7161 19.7093 24.9129 19.6895C25.113 19.6694 25.3141 19.6593 25.5152 19.6594L25.5151 19.6592Z" fill="white"/>
<path d="M34.8288 14.019C34.7578 14.0191 34.6867 14.0227 34.616 14.0298C34.5453 14.037 34.475 14.0477 34.4053 14.062C34.3357 14.0762 34.2668 14.0939 34.1989 14.1151C34.131 14.1363 34.0642 14.1609 33.9988 14.1888C33.9333 14.2167 33.8693 14.2479 33.8069 14.2823C33.7446 14.3167 33.6839 14.3541 33.6253 14.3946C33.5666 14.435 33.51 14.4785 33.4556 14.5246C33.4013 14.5708 33.3493 14.6196 33.2998 14.671C33.2503 14.7224 33.2033 14.7763 33.1592 14.8324C33.115 14.8886 33.0737 14.9469 33.0353 15.0072C32.9969 15.0675 32.9615 15.1296 32.9293 15.1935C32.8971 15.2573 32.868 15.3228 32.8422 15.3896C32.8164 15.4564 32.794 15.5244 32.775 15.5935C32.756 15.6625 32.7405 15.7325 32.7284 15.8031C32.7163 15.8737 32.7077 15.9448 32.7027 16.0163C32.6991 16.0669 32.6973 16.1176 32.6973 16.1684C32.6973 16.2401 32.7009 16.3117 32.708 16.383C32.7151 16.4543 32.7257 16.5252 32.7398 16.5954C32.7539 16.6657 32.7715 16.7351 32.7925 16.8036C32.8135 16.8721 32.8379 16.9394 32.8656 17.0054C32.8933 17.0715 32.9243 17.1361 32.9584 17.199C32.9924 17.2619 33.0296 17.323 33.0697 17.3822C33.1098 17.4413 33.1529 17.4984 33.1986 17.5532C33.2444 17.608 33.2929 17.6605 33.3438 17.7104C33.3948 17.7603 33.4483 17.8077 33.504 17.8522C33.5596 17.8968 33.6175 17.9385 33.6773 17.9772C33.7371 18.0159 33.7988 18.0516 33.8622 18.0842C33.9255 18.1167 33.9904 18.146 34.0566 18.172C34.1229 18.198 34.1903 18.2206 34.2588 18.2397C34.3273 18.2589 34.3967 18.2745 34.4667 18.2867C34.5367 18.2989 34.6073 18.3075 34.6781 18.3126C34.7283 18.3162 34.7786 18.318 34.829 18.318C34.9 18.318 34.9711 18.3145 35.0418 18.3074C35.1125 18.3002 35.1828 18.2895 35.2525 18.2752C35.3221 18.261 35.391 18.2433 35.4589 18.2221C35.5268 18.2009 35.5936 18.1763 35.659 18.1484C35.7245 18.1205 35.7885 18.0893 35.8509 18.0549C35.9132 18.0206 35.9739 17.9831 36.0325 17.9426C36.0912 17.9022 36.1478 17.8588 36.2022 17.8127C36.2565 17.7665 36.3085 17.7176 36.358 17.6662C36.4075 17.6148 36.4545 17.5609 36.4986 17.5048C36.5428 17.4486 36.5841 17.3903 36.6225 17.33C36.6609 17.2697 36.6963 17.2075 36.7285 17.1436C36.7608 17.0797 36.7898 17.0143 36.8156 16.9475C36.8414 16.8807 36.8638 16.8127 36.8828 16.7436C36.9018 16.6746 36.9173 16.6046 36.9294 16.534C36.9415 16.4634 36.9501 16.3923 36.9551 16.3208C36.9587 16.2702 36.9605 16.2194 36.9605 16.1687C36.9605 16.0971 36.9569 16.0254 36.9498 15.9542C36.9427 15.8829 36.9321 15.812 36.918 15.7417C36.9039 15.6715 36.8863 15.602 36.8653 15.5336C36.8443 15.4651 36.8199 15.3977 36.7922 15.3317C36.7645 15.2657 36.7335 15.2011 36.6995 15.1382C36.6654 15.0753 36.6282 15.0141 36.5881 14.955C36.5479 14.8958 36.5049 14.8387 36.4591 14.7839C36.4133 14.7291 36.3649 14.6766 36.314 14.6266C36.263 14.5767 36.2095 14.5294 36.1538 14.4849C36.0982 14.4404 36.0403 14.3987 35.9805 14.36C35.9207 14.3212 35.859 14.2855 35.7956 14.253C35.7323 14.2205 35.6674 14.1912 35.6012 14.1652C35.5349 14.1392 35.4675 14.1166 35.399 14.0974C35.3305 14.0783 35.2612 14.0626 35.1911 14.0504C35.1211 14.0382 35.0505 14.0296 34.9797 14.0245C34.9295 14.021 34.8792 14.0192 34.8288 14.0192V14.019Z" fill="white"/>
<path d="M23.8178 8.00033C22.8443 7.99875 21.9755 8.0028 21.1951 8.01381L19.1029 8.06997C18.483 8.09693 17.9354 8.13209 17.4438 8.17758C17.1981 8.20027 16.9662 8.22566 16.7464 8.25363C16.5373 8.28003 16.3287 8.31078 16.1209 8.34585C15.923 8.37955 15.7351 8.41594 15.5551 8.45548C15.375 8.49502 15.203 8.53771 15.037 8.58354C14.8748 8.62836 14.7139 8.67765 14.5543 8.73137C14.398 8.78417 14.2455 8.84011 14.095 8.89986C13.7938 9.01938 13.5 9.1535 13.1975 9.3038C12.9647 9.4195 12.7497 9.53666 12.5454 9.66067C12.3411 9.78469 12.1476 9.91566 11.9581 10.0583C11.7629 10.206 11.5748 10.3627 11.3944 10.5281C11.2058 10.7002 11.0132 10.8895 10.813 11.101C10.5615 11.3653 10.343 11.6117 10.149 11.8536C10.052 11.9744 9.9612 12.094 9.87565 12.2142C9.79104 12.3326 9.71016 12.4537 9.63312 12.5772C9.55687 12.6997 9.48466 12.8243 9.4156 12.9526C9.34545 13.0831 9.27915 13.2156 9.21679 13.35C9.0892 13.6246 8.97012 13.9202 8.85126 14.2503C8.76309 14.4942 8.68413 14.7415 8.61456 14.9914C8.54359 15.2468 8.48046 15.5141 8.42417 15.8031C8.36789 16.0921 8.31877 16.4029 8.27561 16.7467C8.22909 17.1235 8.19192 17.5013 8.16415 17.88C8.13276 18.2963 8.10674 18.7544 8.08544 19.2642L8.03498 20.9595L8.00785 23.026L8 25.5239L8.02299 29.1563L8.09475 31.9084L8.15002 32.9834L8.21909 33.8742C8.24124 34.1143 8.26894 34.3538 8.30218 34.5927C8.33245 34.8047 8.36497 34.9903 8.39995 35.1509C8.47094 35.4775 8.55488 35.8011 8.65157 36.121C8.74415 36.4273 8.85002 36.7294 8.96888 37.0264C9.08572 37.3173 9.21354 37.5979 9.35258 37.868C9.49162 38.138 9.64187 38.3975 9.80333 38.6468C9.96479 38.896 10.1375 39.1351 10.3218 39.3639C10.5059 39.5927 10.7018 39.8118 10.9086 40.0203C11.1157 40.2293 11.3341 40.4281 11.5643 40.617C11.7972 40.8081 12.0393 40.9877 12.2897 41.1551C12.5222 41.3108 12.7521 41.4533 12.9838 41.5842C13.2154 41.7151 13.4491 41.8338 13.6893 41.9417C13.9295 42.0497 14.1757 42.1469 14.4329 42.2342C14.6901 42.3216 14.9581 42.3994 15.2413 42.4683C15.5246 42.5373 15.8244 42.5979 16.1417 42.6507C16.459 42.7034 16.7982 42.7487 17.1606 42.7877C17.523 42.8267 17.9096 42.8589 18.325 42.8859C18.7405 42.9128 19.1845 42.9344 19.6616 42.9517C20.3986 42.9784 21.5142 42.994 22.8008 43L26.9657 42.9916L30.9097 42.9362L32.4092 42.894L33.3862 42.8436C33.5959 42.8266 33.8011 42.8063 33.9991 42.7826C34.1971 42.7589 34.3924 42.7319 34.5826 42.7011C34.7727 42.6703 34.9586 42.6359 35.1413 42.5977C35.3218 42.5601 35.5014 42.518 35.68 42.4716C35.8567 42.4267 36.0309 42.3756 36.2034 42.3213C36.3758 42.267 36.5465 42.2084 36.7161 42.1455C36.8867 42.0822 37.0558 42.0147 37.2231 41.9432C37.3917 41.8713 37.56 41.7945 37.7288 41.7129C37.9882 41.5878 38.197 41.4834 38.3803 41.3815C38.5527 41.2868 38.7188 41.1808 38.8775 41.0643C39.034 40.9489 39.1896 40.8174 39.369 40.6519C39.5484 40.4863 39.7517 40.2868 40.0034 40.0345C40.2247 39.813 40.4112 39.6204 40.5721 39.4453C40.733 39.2702 40.8686 39.1126 40.9875 38.9607C41.1008 38.8166 41.2063 38.6666 41.3036 38.5112C41.3986 38.3595 41.4861 38.202 41.5752 38.0274C41.7093 37.7645 41.8286 37.5211 41.9355 37.2862C42.0392 37.0599 42.134 36.8295 42.2196 36.5956C42.3039 36.3636 42.3769 36.1276 42.4384 35.8885C42.5016 35.6425 42.5561 35.3828 42.6032 35.0979C42.6503 34.813 42.6901 34.503 42.7246 34.1568C42.7592 33.8106 42.7885 33.428 42.8143 32.9981L42.8827 31.555L42.9415 29.7603L42.9834 27.7609L42.9996 25.6702L42.9621 21.5639L42.912 19.7248L42.8436 18.1456L42.7584 16.9145C42.7274 16.5719 42.694 16.3021 42.6586 16.1197C42.6194 15.9181 42.5756 15.7174 42.5272 15.5179C42.4801 15.3237 42.4283 15.1307 42.3719 14.9391C42.3169 14.7523 42.2571 14.567 42.1927 14.3834C42.129 14.202 42.0615 14.0244 41.9909 13.8506C41.9202 13.6768 41.8438 13.5071 41.7642 13.3409C41.6845 13.1748 41.6011 13.0127 41.5135 12.8543C41.426 12.6959 41.3347 12.5415 41.2393 12.3909C41.1439 12.2402 41.0445 12.0934 40.941 11.9505C40.8381 11.8081 40.7308 11.6689 40.6192 11.5332C40.5082 11.3983 40.393 11.2668 40.2737 11.1392C40.1545 11.0117 40.0314 10.888 39.9044 10.7682C39.7774 10.6485 39.6465 10.5326 39.5115 10.4205C39.376 10.308 39.2371 10.1998 39.0949 10.096C38.9512 9.99107 38.8043 9.8906 38.6544 9.79469C38.5026 9.6974 38.3478 9.60465 38.1905 9.51656C38.0303 9.42698 37.8677 9.34203 37.7027 9.26179C37.4289 9.12845 37.1757 9.01017 36.9271 8.90526C36.6828 8.80113 36.4337 8.70866 36.1806 8.62814C35.9261 8.54782 35.6611 8.47896 35.3696 8.41954C35.0781 8.36012 34.7602 8.31058 34.4004 8.26846C34.0406 8.22633 33.6388 8.1923 33.1793 8.16399C32.7198 8.13568 32.203 8.11344 31.6129 8.09547L29.6074 8.05054L27.0692 8.02055L23.8189 8.00055L23.8178 8.00033ZM25.5058 11.0896L30.1931 11.1164L31.9613 11.1505C32.4482 11.1642 32.8198 11.1803 33.0377 11.1988C33.3214 11.2227 33.5916 11.2527 33.8501 11.2887C34.0981 11.323 34.3449 11.3657 34.5901 11.4166C34.8255 11.466 35.0501 11.5222 35.2651 11.5856C35.48 11.6489 35.6853 11.7199 35.8823 11.7984C36.0793 11.8769 36.2677 11.9633 36.449 12.0579C36.6289 12.1518 36.8037 12.2551 36.9727 12.3674C37.1408 12.4791 37.303 12.5996 37.4604 12.7293C37.6178 12.859 37.7704 12.9981 37.9195 13.1468C38.0768 13.3038 38.2219 13.4636 38.3556 13.6285C38.4889 13.7924 38.6122 13.9641 38.7249 14.1429C38.8388 14.3241 38.9415 14.5123 39.0323 14.7062C39.1251 14.9039 39.2086 15.1128 39.2835 15.3349C39.3584 15.557 39.4251 15.793 39.4842 16.0452C39.5461 16.3125 39.5979 16.5821 39.6396 16.8534C39.6844 17.141 39.7228 17.4476 39.7553 17.776C39.7878 18.1043 39.8147 18.4544 39.8369 18.8291C39.8546 19.1295 39.8701 19.5261 39.8832 19.9944L39.9161 21.5911L39.9412 25.5025L39.9126 29.4101L39.8783 31.0023L39.8311 32.1603C39.7984 32.7025 39.7638 33.1583 39.7226 33.5551C39.7018 33.7534 39.6794 33.937 39.6545 34.1092C39.6312 34.2719 39.6036 34.4339 39.5716 34.5951C39.5425 34.7422 39.5086 34.8883 39.4702 35.0332C39.4333 35.1715 39.3918 35.3085 39.3458 35.444C39.2994 35.5801 39.249 35.7149 39.1946 35.8479C39.137 35.9885 39.0762 36.1277 39.0123 36.2655C38.9555 36.3885 38.8957 36.5081 38.8325 36.6246C38.77 36.7399 38.7036 36.853 38.6334 36.9638C38.5638 37.0736 38.491 37.1802 38.4147 37.2834C38.3389 37.3863 38.2594 37.4864 38.1763 37.5836C38.0936 37.6803 38.0073 37.774 37.9177 37.8644C37.828 37.9548 37.7349 38.0421 37.6385 38.1263C37.542 38.2106 37.442 38.2915 37.3385 38.3694C37.235 38.4474 37.128 38.5222 37.0173 38.5939C36.9066 38.6655 36.7925 38.7343 36.6746 38.7999C36.5568 38.8655 36.4352 38.9281 36.3102 38.9878C36.183 39.0483 36.0541 39.1051 35.9235 39.1579C35.7885 39.2124 35.652 39.2632 35.5142 39.3101C35.2339 39.4058 34.9382 39.4898 34.627 39.5623C34.3026 39.6373 33.9752 39.6987 33.6456 39.7462C33.5189 39.7648 33.2277 39.7822 32.8106 39.7984L31.2211 39.8426L26.7148 39.9013L21.9981 39.9087L20.1457 39.8889L18.943 39.8514L18.0561 39.7889C17.7807 39.7657 17.5246 39.7398 17.2846 39.7105C17.0447 39.6812 16.8212 39.6485 16.611 39.6117C16.4117 39.5772 16.2137 39.536 16.0173 39.4881C15.8381 39.4445 15.6608 39.3936 15.4858 39.3356C15.317 39.2794 15.1557 39.2176 14.9987 39.1497C14.8417 39.0817 14.6892 39.0072 14.5382 38.9259C14.3872 38.8446 14.2377 38.7563 14.0866 38.66C13.9725 38.5875 13.8623 38.514 13.7562 38.4361C13.6502 38.3583 13.5477 38.2807 13.449 38.1994C13.3503 38.118 13.2556 38.0342 13.1642 37.948C13.0734 37.8621 12.9858 37.773 12.9014 37.6808C12.8173 37.5889 12.7369 37.4944 12.6597 37.3964C12.5823 37.2981 12.5085 37.1969 12.4385 37.0931C12.3675 36.9878 12.3003 36.8798 12.237 36.7696C12.1731 36.6584 12.1123 36.5434 12.0546 36.4248C11.9959 36.3039 11.9411 36.1811 11.8903 36.0567C11.8388 35.9299 11.7899 35.7992 11.7439 35.6642C11.652 35.394 11.5712 35.1065 11.501 34.7998C11.4308 34.4931 11.371 34.1674 11.3203 33.8203C11.2696 33.4732 11.2288 33.1052 11.1963 32.7141C11.1723 32.4259 11.1532 31.9772 11.1386 31.411L11.1081 29.3975L11.1194 24.2646L11.2076 19.3598L11.2749 17.6317L11.313 17.0605C11.3262 16.908 11.3399 16.795 11.3539 16.7271C11.4001 16.5039 11.4467 16.2962 11.4948 16.1018C11.5397 15.9184 11.5897 15.7362 11.6447 15.5555C11.6969 15.385 11.752 15.2253 11.8108 15.074C11.8676 14.9274 11.9309 14.7834 12.0004 14.6425C12.0684 14.5055 12.1414 14.3743 12.2207 14.2465C12.2999 14.1188 12.3855 13.9949 12.4788 13.8717C12.5721 13.7485 12.6725 13.6268 12.7819 13.5035C12.8912 13.3801 13.0092 13.2556 13.1373 13.1272C13.2865 12.9768 13.4419 12.8327 13.6031 12.6953C13.7552 12.5656 13.9139 12.4438 14.0785 12.3303C14.2403 12.218 14.4062 12.118 14.579 12.0261C14.7518 11.9342 14.9314 11.8512 15.1204 11.7765C15.3093 11.7018 15.5078 11.635 15.718 11.5743C15.9389 11.5123 16.1622 11.4593 16.3874 11.4156C16.6242 11.3691 16.8757 11.3286 17.1442 11.2932C17.4128 11.2578 17.6985 11.2272 18.0039 11.2007C18.217 11.1823 18.5841 11.1659 19.0674 11.1521L20.8267 11.1173L25.5066 11.0886L25.5058 11.0896Z" fill="white"/>
<path d="M56.7596 30.06C56.3436 30.06 55.9649 29.9587 55.6236 29.756C55.2929 29.5427 55.0209 29.26 54.8076 28.908C54.6049 28.556 54.5036 28.1613 54.5036 27.724C54.5036 27.2867 54.6049 26.892 54.8076 26.54C55.0209 26.1773 55.2929 25.8947 55.6236 25.692C55.9649 25.4787 56.3436 25.372 56.7596 25.372C57.2716 25.372 57.6876 25.5 58.0076 25.756C58.3382 26.0013 58.5036 26.364 58.5036 26.844V28.588C58.5036 29.0573 58.3436 29.42 58.0236 29.676C57.7036 29.932 57.2822 30.06 56.7596 30.06ZM56.8236 29.052C57.2076 29.052 57.5116 28.9293 57.7356 28.684C57.9702 28.428 58.0876 28.1027 58.0876 27.708C58.0876 27.3027 57.9702 26.9773 57.7356 26.732C57.5116 26.4867 57.2076 26.364 56.8236 26.364C56.4716 26.364 56.1729 26.492 55.9276 26.748C55.6929 26.9933 55.5756 27.3133 55.5756 27.708C55.5756 28.1027 55.6929 28.428 55.9276 28.684C56.1622 28.9293 56.4609 29.052 56.8236 29.052ZM58.1676 29.948V28.764L58.3276 27.644L58.1676 26.572V25.468H59.2076V29.948H58.1676ZM59.7196 30.892L60.5196 31.708C60.0502 32.1133 59.5222 32.4173 58.9356 32.62C58.3489 32.8333 57.7196 32.94 57.0476 32.94C56.3222 32.94 55.6396 32.8067 54.9996 32.54C54.3702 32.284 53.8209 31.9213 53.3516 31.452C52.8822 30.9827 52.5142 30.4333 52.2476 29.804C51.9809 29.164 51.8476 28.4707 51.8476 27.724C51.8476 26.9773 51.9809 26.2893 52.2476 25.66C52.5249 25.02 52.9036 24.4653 53.3836 23.996C53.8636 23.516 54.4236 23.1427 55.0636 22.876C55.7142 22.6093 56.4076 22.476 57.1436 22.476C58.1249 22.476 58.9889 22.7 59.7356 23.148C60.4929 23.596 61.0849 24.2093 61.5116 24.988C61.9489 25.7667 62.1676 26.6627 62.1676 27.676C62.1676 28.1347 62.1196 28.5507 62.0236 28.924C61.9382 29.2867 61.7942 29.628 61.5916 29.948L60.3596 29.884C60.5089 29.6707 60.6262 29.4573 60.7116 29.244C60.8076 29.02 60.8769 28.7747 60.9196 28.508C60.9622 28.2413 60.9836 27.9373 60.9836 27.596C60.9836 26.7533 60.8289 26.0387 60.5196 25.452C60.2209 24.8547 59.7836 24.4013 59.2076 24.092C58.6422 23.772 57.9596 23.612 57.1596 23.612C56.3489 23.612 55.6342 23.7827 55.0156 24.124C54.4076 24.4653 53.9329 24.9453 53.5916 25.564C53.2609 26.172 53.0956 26.8973 53.0956 27.74C53.0956 28.572 53.2556 29.292 53.5756 29.9C53.9062 30.508 54.3702 30.9827 54.9676 31.324C55.5649 31.6547 56.2476 31.82 57.0156 31.82C57.5809 31.82 58.0876 31.74 58.5356 31.58C58.9836 31.4307 59.3782 31.2013 59.7196 30.892ZM58.6156 29.004H61.5916V29.948H58.6156V29.004ZM67.2876 31.66C66.5942 31.66 65.9649 31.4893 65.3996 31.148C64.8342 30.796 64.3862 30.3213 64.0556 29.724C63.7356 29.1267 63.5756 28.4547 63.5756 27.708C63.5756 26.9613 63.7356 26.2893 64.0556 25.692C64.3862 25.0947 64.8289 24.62 65.3836 24.268C65.9489 23.916 66.5836 23.74 67.2876 23.74C67.8636 23.74 68.3756 23.8627 68.8236 24.108C69.2822 24.3427 69.6502 24.6733 69.9276 25.1C70.2049 25.516 70.3596 26.0013 70.3916 26.556V28.844C70.3596 29.388 70.2049 29.8733 69.9276 30.3C69.6609 30.7267 69.2982 31.0627 68.8396 31.308C68.3916 31.5427 67.8742 31.66 67.2876 31.66ZM67.5276 30.3C68.2422 30.3 68.8182 30.06 69.2556 29.58C69.6929 29.0893 69.9116 28.4653 69.9116 27.708C69.9116 27.1853 69.8102 26.732 69.6076 26.348C69.4156 25.9533 69.1382 25.6493 68.7756 25.436C68.4129 25.212 67.9916 25.1 67.5116 25.1C67.0316 25.1 66.6049 25.212 66.2316 25.436C65.8689 25.66 65.5809 25.9693 65.3676 26.364C65.1649 26.748 65.0636 27.1907 65.0636 27.692C65.0636 28.204 65.1649 28.6573 65.3676 29.052C65.5809 29.436 65.8742 29.74 66.2476 29.964C66.6209 30.188 67.0476 30.3 67.5276 30.3ZM69.8156 31.5V29.452L70.0876 27.596L69.8156 25.756V23.9H71.2716V31.5H69.8156ZM74.5048 31.5V20.716H75.9448V31.5H74.5048ZM72.6328 25.212V23.9H77.8168V25.212H72.6328ZM79.2434 31.5V23.9H80.6834V31.5H79.2434ZM79.9634 22.38C79.6968 22.38 79.4781 22.2947 79.3074 22.124C79.1368 21.9427 79.0514 21.7187 79.0514 21.452C79.0514 21.196 79.1368 20.9827 79.3074 20.812C79.4781 20.6307 79.6968 20.54 79.9634 20.54C80.2301 20.54 80.4488 20.6307 80.6194 20.812C80.7901 20.9827 80.8754 21.196 80.8754 21.452C80.8754 21.7187 80.7901 21.9427 80.6194 22.124C80.4488 22.2947 80.2301 22.38 79.9634 22.38ZM85.2216 31.66C84.7949 31.66 84.3896 31.6067 84.0056 31.5C83.6322 31.3827 83.2856 31.2227 82.9656 31.02C82.6456 30.8067 82.3682 30.556 82.1336 30.268L83.0616 29.34C83.3389 29.6813 83.6589 29.9373 84.0216 30.108C84.3842 30.268 84.7896 30.348 85.2376 30.348C85.6856 30.348 86.0322 30.2733 86.2776 30.124C86.5229 29.964 86.6456 29.7453 86.6456 29.468C86.6456 29.1907 86.5442 28.9773 86.3416 28.828C86.1496 28.668 85.8989 28.54 85.5896 28.444C85.2802 28.3373 84.9496 28.236 84.5976 28.14C84.2562 28.0333 83.9309 27.9 83.6216 27.74C83.3122 27.58 83.0562 27.3613 82.8536 27.084C82.6616 26.8067 82.5656 26.4387 82.5656 25.98C82.5656 25.5213 82.6776 25.1267 82.9016 24.796C83.1256 24.4547 83.4349 24.1933 83.8296 24.012C84.2349 23.8307 84.7202 23.74 85.2856 23.74C85.8829 23.74 86.4109 23.8467 86.8696 24.06C87.3389 24.2627 87.7229 24.572 88.0216 24.988L87.0936 25.916C86.8802 25.6387 86.6136 25.4253 86.2936 25.276C85.9842 25.1267 85.6322 25.052 85.2376 25.052C84.8216 25.052 84.5016 25.1267 84.2776 25.276C84.0642 25.4147 83.9576 25.612 83.9576 25.868C83.9576 26.124 84.0536 26.3213 84.2456 26.46C84.4376 26.5987 84.6882 26.716 84.9976 26.812C85.3176 26.908 85.6482 27.0093 85.9896 27.116C86.3309 27.212 86.6562 27.3453 86.9656 27.516C87.2749 27.6867 87.5256 27.916 87.7176 28.204C87.9202 28.492 88.0216 28.8707 88.0216 29.34C88.0216 30.0547 87.7656 30.62 87.2536 31.036C86.7522 31.452 86.0749 31.66 85.2216 31.66ZM95.0097 31.5V27.068C95.0097 26.492 94.8284 26.0173 94.4657 25.644C94.103 25.2707 93.6337 25.084 93.0577 25.084C92.6737 25.084 92.3324 25.1693 92.0337 25.34C91.735 25.5107 91.5004 25.7453 91.3297 26.044C91.159 26.3427 91.0737 26.684 91.0737 27.068L90.4817 26.732C90.4817 26.156 90.6097 25.644 90.8657 25.196C91.1217 24.748 91.479 24.396 91.9377 24.14C92.3964 23.8733 92.9137 23.74 93.4897 23.74C94.0657 23.74 94.5724 23.868 95.0097 24.124C95.4577 24.38 95.8097 24.7373 96.0657 25.196C96.3217 25.6547 96.4497 26.1827 96.4497 26.78V31.5H95.0097ZM89.6337 31.5V20.076H91.0737V31.5H89.6337ZM101.631 31.66C100.938 31.66 100.309 31.4893 99.7433 31.148C99.178 30.796 98.73 30.3213 98.3993 29.724C98.0793 29.1267 97.9193 28.4547 97.9193 27.708C97.9193 26.9613 98.0793 26.2893 98.3993 25.692C98.73 25.0947 99.1727 24.62 99.7273 24.268C100.293 23.916 100.927 23.74 101.631 23.74C102.207 23.74 102.719 23.8627 103.167 24.108C103.626 24.3427 103.994 24.6733 104.271 25.1C104.549 25.516 104.703 26.0013 104.735 26.556V28.844C104.703 29.388 104.549 29.8733 104.271 30.3C104.005 30.7267 103.642 31.0627 103.183 31.308C102.735 31.5427 102.218 31.66 101.631 31.66ZM101.871 30.3C102.586 30.3 103.162 30.06 103.599 29.58C104.037 29.0893 104.255 28.4653 104.255 27.708C104.255 27.1853 104.154 26.732 103.951 26.348C103.759 25.9533 103.482 25.6493 103.119 25.436C102.757 25.212 102.335 25.1 101.855 25.1C101.375 25.1 100.949 25.212 100.575 25.436C100.213 25.66 99.9247 25.9693 99.7113 26.364C99.5087 26.748 99.4073 27.1907 99.4073 27.692C99.4073 28.204 99.5087 28.6573 99.7113 29.052C99.9247 29.436 100.218 29.74 100.591 29.964C100.965 30.188 101.391 30.3 101.871 30.3ZM104.159 31.5V29.452L104.431 27.596L104.159 25.756V23.9H105.615V31.5H104.159ZM110.208 31.564L106.912 23.9H108.512L110.96 29.9H110.448L113.024 23.9H114.624L111.072 31.564H110.208ZM108.032 34.684L110.272 30.092L111.072 31.564L109.632 34.684H108.032ZM116.101 31.66C115.802 31.66 115.551 31.5587 115.349 31.356C115.157 31.1427 115.061 30.892 115.061 30.604C115.061 30.3053 115.157 30.06 115.349 29.868C115.551 29.6653 115.802 29.564 116.101 29.564C116.399 29.564 116.645 29.6653 116.837 29.868C117.039 30.06 117.141 30.3053 117.141 30.604C117.141 30.892 117.039 31.1427 116.837 31.356C116.645 31.5587 116.399 31.66 116.101 31.66ZM119.877 31.5V20.396H121.365V31.5H119.877ZM117.605 21.74V20.396H121.205V21.74H117.605ZM124.786 31.5L128.946 21.276L130.434 21.324L126.37 31.5H124.786ZM123.042 21.74V20.396H130.434V21.324L129.778 21.74H123.042Z" fill="white"/>
</svg>
