<svg width="145" height="48" viewBox="0 0 145 48" fill="none" xmlns="http://www.w3.org/2000/svg">
<rect width="145" height="48" rx="8" fill="black"/>
<path d="M39.9906 8H8.00938C8.0042 8 8 8.0042 8 8.00938V39.9906C8 39.9958 8.0042 40 8.00938 40H39.9906C39.9958 40 40 39.9958 40 39.9906V8.00938C40 8.0042 39.9958 8 39.9906 8Z" fill="white"/>
<path d="M16.875 18.9375C18.1522 18.9375 19.1875 17.9022 19.1875 16.625C19.1875 15.3478 18.1522 14.3125 16.875 14.3125C15.5978 14.3125 14.5625 15.3478 14.5625 16.625C14.5625 17.9022 15.5978 18.9375 16.875 18.9375Z" fill="black"/>
<path d="M23.25 20.125V32.5V20.125ZM16.875 20.125V32.5Z" fill="black"/>
<path d="M16.875 20.125V32.5M23.25 20.125V32.5V20.125Z" stroke="black" stroke-width="4.125"/>
<path d="M25.25 25.625C25.25 24.375 26.0625 23.125 27.5 23.125C29 23.125 29.5625 24.25 29.5625 25.9375V32.5H33.6875V25.4375C33.6875 21.625 31.6875 19.875 28.9375 19.875C26.8125 19.875 25.75 21.0625 25.25 21.875" fill="black"/>
<path d="M48.224 30.64L52.672 18.272H54.016L49.584 30.64H48.224ZM57.6786 30.16C56.9853 30.16 56.356 29.9893 55.7906 29.648C55.2253 29.296 54.7773 28.8213 54.4466 28.224C54.1266 27.6267 53.9666 26.9547 53.9666 26.208C53.9666 25.4613 54.1266 24.7893 54.4466 24.192C54.7773 23.5947 55.22 23.12 55.7746 22.768C56.34 22.416 56.9746 22.24 57.6786 22.24C58.2546 22.24 58.7666 22.3627 59.2146 22.608C59.6733 22.8427 60.0413 23.1733 60.3186 23.6C60.596 24.016 60.7506 24.5013 60.7826 25.056V27.344C60.7506 27.888 60.596 28.3733 60.3186 28.8C60.052 29.2267 59.6893 29.5627 59.2306 29.808C58.7826 30.0427 58.2653 30.16 57.6786 30.16ZM57.9186 28.8C58.6333 28.8 59.2093 28.56 59.6466 28.08C60.084 27.5893 60.3026 26.9653 60.3026 26.208C60.3026 25.6853 60.2013 25.232 59.9986 24.848C59.8066 24.4533 59.5293 24.1493 59.1666 23.936C58.804 23.712 58.3826 23.6 57.9026 23.6C57.4226 23.6 56.996 23.712 56.6226 23.936C56.26 24.16 55.972 24.4693 55.7586 24.864C55.556 25.248 55.4546 25.6907 55.4546 26.192C55.4546 26.704 55.556 27.1573 55.7586 27.552C55.972 27.936 56.2653 28.24 56.6386 28.464C57.012 28.688 57.4386 28.8 57.9186 28.8ZM60.2066 30V27.952L60.4786 26.096L60.2066 24.256V22.4H61.6626V30H60.2066ZM64.8959 30V19.216H66.3359V30H64.8959ZM63.0239 23.712V22.4H68.2079V23.712H63.0239ZM69.6345 30V22.4H71.0745V30H69.6345ZM70.3545 20.88C70.0878 20.88 69.8692 20.7947 69.6985 20.624C69.5278 20.4427 69.4425 20.2187 69.4425 19.952C69.4425 19.696 69.5278 19.4827 69.6985 19.312C69.8692 19.1307 70.0878 19.04 70.3545 19.04C70.6212 19.04 70.8398 19.1307 71.0105 19.312C71.1812 19.4827 71.2665 19.696 71.2665 19.952C71.2665 20.2187 71.1812 20.4427 71.0105 20.624C70.8398 20.7947 70.6212 20.88 70.3545 20.88ZM75.6126 30.16C75.186 30.16 74.7806 30.1067 74.3966 30C74.0233 29.8827 73.6766 29.7227 73.3566 29.52C73.0366 29.3067 72.7593 29.056 72.5246 28.768L73.4526 27.84C73.73 28.1813 74.05 28.4373 74.4126 28.608C74.7753 28.768 75.1806 28.848 75.6286 28.848C76.0766 28.848 76.4233 28.7733 76.6686 28.624C76.914 28.464 77.0366 28.2453 77.0366 27.968C77.0366 27.6907 76.9353 27.4773 76.7326 27.328C76.5406 27.168 76.29 27.04 75.9806 26.944C75.6713 26.8373 75.3406 26.736 74.9886 26.64C74.6473 26.5333 74.322 26.4 74.0126 26.24C73.7033 26.08 73.4473 25.8613 73.2446 25.584C73.0526 25.3067 72.9566 24.9387 72.9566 24.48C72.9566 24.0213 73.0686 23.6267 73.2926 23.296C73.5166 22.9547 73.826 22.6933 74.2206 22.512C74.626 22.3307 75.1113 22.24 75.6766 22.24C76.274 22.24 76.802 22.3467 77.2606 22.56C77.73 22.7627 78.114 23.072 78.4126 23.488L77.4846 24.416C77.2713 24.1387 77.0046 23.9253 76.6846 23.776C76.3753 23.6267 76.0233 23.552 75.6286 23.552C75.2126 23.552 74.8926 23.6267 74.6686 23.776C74.4553 23.9147 74.3486 24.112 74.3486 24.368C74.3486 24.624 74.4446 24.8213 74.6366 24.96C74.8286 25.0987 75.0793 25.216 75.3886 25.312C75.7086 25.408 76.0393 25.5093 76.3806 25.616C76.722 25.712 77.0473 25.8453 77.3566 26.016C77.666 26.1867 77.9166 26.416 78.1086 26.704C78.3113 26.992 78.4126 27.3707 78.4126 27.84C78.4126 28.5547 78.1566 29.12 77.6446 29.536C77.1433 29.952 76.466 30.16 75.6126 30.16ZM85.4008 30V25.568C85.4008 24.992 85.2194 24.5173 84.8568 24.144C84.4941 23.7707 84.0248 23.584 83.4488 23.584C83.0648 23.584 82.7234 23.6693 82.4248 23.84C82.1261 24.0107 81.8914 24.2453 81.7208 24.544C81.5501 24.8427 81.4648 25.184 81.4648 25.568L80.8728 25.232C80.8728 24.656 81.0008 24.144 81.2568 23.696C81.5128 23.248 81.8701 22.896 82.3288 22.64C82.7874 22.3733 83.3048 22.24 83.8808 22.24C84.4568 22.24 84.9634 22.368 85.4008 22.624C85.8488 22.88 86.2008 23.2373 86.4568 23.696C86.7128 24.1547 86.8408 24.6827 86.8408 25.28V30H85.4008ZM80.0247 30V18.576H81.4648V30H80.0247ZM92.0224 30.16C91.329 30.16 90.6997 29.9893 90.1344 29.648C89.569 29.296 89.121 28.8213 88.7904 28.224C88.4704 27.6267 88.3104 26.9547 88.3104 26.208C88.3104 25.4613 88.4704 24.7893 88.7904 24.192C89.121 23.5947 89.5637 23.12 90.1184 22.768C90.6837 22.416 91.3184 22.24 92.0224 22.24C92.5984 22.24 93.1104 22.3627 93.5584 22.608C94.017 22.8427 94.385 23.1733 94.6624 23.6C94.9397 24.016 95.0944 24.5013 95.1264 25.056V27.344C95.0944 27.888 94.9397 28.3733 94.6624 28.8C94.3957 29.2267 94.033 29.5627 93.5744 29.808C93.1264 30.0427 92.609 30.16 92.0224 30.16ZM92.2624 28.8C92.977 28.8 93.553 28.56 93.9904 28.08C94.4277 27.5893 94.6464 26.9653 94.6464 26.208C94.6464 25.6853 94.545 25.232 94.3424 24.848C94.1504 24.4533 93.873 24.1493 93.5104 23.936C93.1477 23.712 92.7264 23.6 92.2464 23.6C91.7664 23.6 91.3397 23.712 90.9664 23.936C90.6037 24.16 90.3157 24.4693 90.1024 24.864C89.8997 25.248 89.7984 25.6907 89.7984 26.192C89.7984 26.704 89.8997 27.1573 90.1024 27.552C90.3157 27.936 90.609 28.24 90.9824 28.464C91.3557 28.688 91.7824 28.8 92.2624 28.8ZM94.5504 30V27.952L94.8224 26.096L94.5504 24.256V22.4H96.0064V30H94.5504ZM100.599 30.064L97.3029 22.4H98.9029L101.351 28.4H100.839L103.415 22.4H105.015L101.463 30.064H100.599ZM98.4229 33.184L100.663 28.592L101.463 30.064L100.023 33.184H98.4229ZM108.034 30V18.896H109.522V30H108.034ZM105.762 20.24V18.896H109.362V20.24H105.762ZM112.943 30L117.103 19.776L118.591 19.824L114.527 30H112.943ZM111.199 20.24V18.896H118.591V19.824L117.935 20.24H111.199ZM119.012 26.176L123.06 18.896H124.756L120.628 26.176H119.012ZM119.012 27.104V26.176L119.652 25.76H127.524V27.104H119.012ZM124.436 30V22.656H125.924V30H124.436ZM131.999 30.16C131.274 30.16 130.612 30.0267 130.015 29.76C129.428 29.4827 128.932 29.0827 128.527 28.56L129.551 27.536C129.796 27.9093 130.132 28.208 130.559 28.432C130.986 28.6453 131.46 28.752 131.983 28.752C132.474 28.752 132.895 28.6613 133.247 28.48C133.61 28.288 133.892 28.0213 134.095 27.68C134.308 27.3387 134.415 26.944 134.415 26.496C134.415 26.0373 134.308 25.6427 134.095 25.312C133.892 24.9707 133.604 24.7093 133.231 24.528C132.858 24.3467 132.415 24.256 131.903 24.256C131.711 24.256 131.519 24.272 131.327 24.304C131.135 24.3253 130.948 24.3627 130.767 24.416L131.407 23.552C131.61 23.456 131.828 23.3813 132.063 23.328C132.298 23.2747 132.532 23.248 132.767 23.248C133.364 23.248 133.898 23.3867 134.367 23.664C134.847 23.9413 135.226 24.3307 135.503 24.832C135.791 25.3333 135.935 25.9147 135.935 26.576C135.935 27.28 135.764 27.904 135.423 28.448C135.092 28.9813 134.634 29.4027 134.047 29.712C133.46 30.0107 132.778 30.16 131.999 30.16ZM130.767 24.416V23.504L134.015 19.808L135.807 19.792L132.463 23.584L130.767 24.416ZM129.055 20.24V18.896H135.807V19.792L134.495 20.24H129.055Z" fill="white"/>
</svg>
