<svg width="150" height="49" viewBox="0 0 150 49" fill="none" xmlns="http://www.w3.org/2000/svg">
<rect width="150" height="49" rx="8" fill="black"/>
<path d="M19.6358 41C33.5981 41 41.2348 28.3027 41.2348 17.2917C41.2348 16.931 41.2348 16.572 41.2127 16.213C42.6982 15.0339 43.9807 13.574 45 11.9016C43.6145 12.5755 42.1448 13.0174 40.6399 13.2127C42.2246 12.1713 43.4106 10.5335 43.9773 8.60401C42.4871 9.57456 40.8569 10.2585 39.1569 10.6264C38.0123 9.29059 36.4986 8.40604 34.8499 8.10966C33.2012 7.81328 31.5095 8.1216 30.0365 8.98689C28.5636 9.85219 27.3915 11.2262 26.7016 12.8964C26.0118 14.5665 25.8426 16.4397 26.2203 18.226C23.2022 18.0599 20.2497 17.199 17.5544 15.6991C14.8591 14.1993 12.4812 12.094 10.5753 9.52003C9.60451 11.3544 9.30718 13.5258 9.74379 15.5924C10.1804 17.6589 11.3181 19.465 12.9253 20.6431C11.7173 20.6038 10.5356 20.2461 9.48 19.6002V19.7057C9.48046 21.6295 10.0872 23.4939 11.1972 24.9827C12.3073 26.4715 13.8523 27.4929 15.5703 27.8739C14.4527 28.2084 13.2801 28.2573 12.1426 28.0168C12.6276 29.6725 13.572 31.1203 14.8436 32.1579C16.1153 33.1954 17.6505 33.7707 19.2347 33.8034C16.5466 36.1223 13.226 37.3811 9.80707 37.3773C9.20309 37.3761 8.5997 37.3359 8 37.2571C11.4715 39.7024 15.5109 40.9995 19.6358 40.9935" fill="white"/>
<path d="M53.224 31.14L57.672 18.772H59.016L54.584 31.14H53.224ZM62.6786 30.66C61.9853 30.66 61.356 30.4893 60.7906 30.148C60.2253 29.796 59.7773 29.3213 59.4466 28.724C59.1266 28.1267 58.9666 27.4547 58.9666 26.708C58.9666 25.9613 59.1266 25.2893 59.4466 24.692C59.7773 24.0947 60.22 23.62 60.7746 23.268C61.34 22.916 61.9746 22.74 62.6786 22.74C63.2546 22.74 63.7666 22.8627 64.2146 23.108C64.6733 23.3427 65.0413 23.6733 65.3186 24.1C65.596 24.516 65.7506 25.0013 65.7826 25.556V27.844C65.7506 28.388 65.596 28.8733 65.3186 29.3C65.052 29.7267 64.6893 30.0627 64.2306 30.308C63.7826 30.5427 63.2653 30.66 62.6786 30.66ZM62.9186 29.3C63.6333 29.3 64.2093 29.06 64.6466 28.58C65.084 28.0893 65.3026 27.4653 65.3026 26.708C65.3026 26.1853 65.2013 25.732 64.9986 25.348C64.8066 24.9533 64.5293 24.6493 64.1666 24.436C63.804 24.212 63.3826 24.1 62.9026 24.1C62.4226 24.1 61.996 24.212 61.6226 24.436C61.26 24.66 60.972 24.9693 60.7586 25.364C60.556 25.748 60.4546 26.1907 60.4546 26.692C60.4546 27.204 60.556 27.6573 60.7586 28.052C60.972 28.436 61.2653 28.74 61.6386 28.964C62.012 29.188 62.4386 29.3 62.9186 29.3ZM65.2066 30.5V28.452L65.4786 26.596L65.2066 24.756V22.9H66.6626V30.5H65.2066ZM69.8959 30.5V19.716H71.3359V30.5H69.8959ZM68.0239 24.212V22.9H73.2079V24.212H68.0239ZM74.6345 30.5V22.9H76.0745V30.5H74.6345ZM75.3545 21.38C75.0878 21.38 74.8692 21.2947 74.6985 21.124C74.5278 20.9427 74.4425 20.7187 74.4425 20.452C74.4425 20.196 74.5278 19.9827 74.6985 19.812C74.8692 19.6307 75.0878 19.54 75.3545 19.54C75.6212 19.54 75.8398 19.6307 76.0105 19.812C76.1812 19.9827 76.2665 20.196 76.2665 20.452C76.2665 20.7187 76.1812 20.9427 76.0105 21.124C75.8398 21.2947 75.6212 21.38 75.3545 21.38ZM80.6126 30.66C80.186 30.66 79.7806 30.6067 79.3966 30.5C79.0233 30.3827 78.6766 30.2227 78.3566 30.02C78.0366 29.8067 77.7593 29.556 77.5246 29.268L78.4526 28.34C78.73 28.6813 79.05 28.9373 79.4126 29.108C79.7753 29.268 80.1806 29.348 80.6286 29.348C81.0766 29.348 81.4233 29.2733 81.6686 29.124C81.914 28.964 82.0366 28.7453 82.0366 28.468C82.0366 28.1907 81.9353 27.9773 81.7326 27.828C81.5406 27.668 81.29 27.54 80.9806 27.444C80.6713 27.3373 80.3406 27.236 79.9886 27.14C79.6473 27.0333 79.322 26.9 79.0126 26.74C78.7033 26.58 78.4473 26.3613 78.2446 26.084C78.0526 25.8067 77.9566 25.4387 77.9566 24.98C77.9566 24.5213 78.0686 24.1267 78.2926 23.796C78.5166 23.4547 78.826 23.1933 79.2206 23.012C79.626 22.8307 80.1113 22.74 80.6766 22.74C81.274 22.74 81.802 22.8467 82.2606 23.06C82.73 23.2627 83.114 23.572 83.4126 23.988L82.4846 24.916C82.2713 24.6387 82.0046 24.4253 81.6846 24.276C81.3753 24.1267 81.0233 24.052 80.6286 24.052C80.2126 24.052 79.8926 24.1267 79.6686 24.276C79.4553 24.4147 79.3486 24.612 79.3486 24.868C79.3486 25.124 79.4446 25.3213 79.6366 25.46C79.8286 25.5987 80.0793 25.716 80.3886 25.812C80.7086 25.908 81.0393 26.0093 81.3806 26.116C81.722 26.212 82.0473 26.3453 82.3566 26.516C82.666 26.6867 82.9166 26.916 83.1086 27.204C83.3113 27.492 83.4126 27.8707 83.4126 28.34C83.4126 29.0547 83.1566 29.62 82.6446 30.036C82.1433 30.452 81.466 30.66 80.6126 30.66ZM90.4008 30.5V26.068C90.4008 25.492 90.2194 25.0173 89.8568 24.644C89.4941 24.2707 89.0248 24.084 88.4488 24.084C88.0648 24.084 87.7234 24.1693 87.4248 24.34C87.1261 24.5107 86.8914 24.7453 86.7208 25.044C86.5501 25.3427 86.4648 25.684 86.4648 26.068L85.8728 25.732C85.8728 25.156 86.0008 24.644 86.2568 24.196C86.5128 23.748 86.8701 23.396 87.3288 23.14C87.7874 22.8733 88.3048 22.74 88.8808 22.74C89.4568 22.74 89.9634 22.868 90.4008 23.124C90.8488 23.38 91.2008 23.7373 91.4568 24.196C91.7128 24.6547 91.8408 25.1827 91.8408 25.78V30.5H90.4008ZM85.0247 30.5V19.076H86.4648V30.5H85.0247ZM97.0224 30.66C96.329 30.66 95.6997 30.4893 95.1344 30.148C94.569 29.796 94.121 29.3213 93.7904 28.724C93.4704 28.1267 93.3104 27.4547 93.3104 26.708C93.3104 25.9613 93.4704 25.2893 93.7904 24.692C94.121 24.0947 94.5637 23.62 95.1184 23.268C95.6837 22.916 96.3184 22.74 97.0224 22.74C97.5984 22.74 98.1104 22.8627 98.5584 23.108C99.017 23.3427 99.385 23.6733 99.6624 24.1C99.9397 24.516 100.094 25.0013 100.126 25.556V27.844C100.094 28.388 99.9397 28.8733 99.6624 29.3C99.3957 29.7267 99.033 30.0627 98.5744 30.308C98.1264 30.5427 97.609 30.66 97.0224 30.66ZM97.2624 29.3C97.977 29.3 98.553 29.06 98.9904 28.58C99.4277 28.0893 99.6464 27.4653 99.6464 26.708C99.6464 26.1853 99.545 25.732 99.3424 25.348C99.1504 24.9533 98.873 24.6493 98.5104 24.436C98.1477 24.212 97.7264 24.1 97.2464 24.1C96.7664 24.1 96.3397 24.212 95.9664 24.436C95.6037 24.66 95.3157 24.9693 95.1024 25.364C94.8997 25.748 94.7984 26.1907 94.7984 26.692C94.7984 27.204 94.8997 27.6573 95.1024 28.052C95.3157 28.436 95.609 28.74 95.9824 28.964C96.3557 29.188 96.7824 29.3 97.2624 29.3ZM99.5504 30.5V28.452L99.8224 26.596L99.5504 24.756V22.9H101.006V30.5H99.5504ZM105.599 30.564L102.303 22.9H103.903L106.351 28.9H105.839L108.415 22.9H110.015L106.463 30.564H105.599ZM103.423 33.684L105.663 29.092L106.463 30.564L105.023 33.684H103.423ZM113.034 30.5V19.396H114.522V30.5H113.034ZM110.762 20.74V19.396H114.362V20.74H110.762ZM117.943 30.5L122.103 20.276L123.591 20.324L119.527 30.5H117.943ZM116.199 20.74V19.396H123.591V20.324L122.935 20.74H116.199ZM124.012 26.676L128.06 19.396H129.756L125.628 26.676H124.012ZM124.012 27.604V26.676L124.652 26.26H132.524V27.604H124.012ZM129.436 30.5V23.156H130.924V30.5H129.436ZM136.999 30.66C136.274 30.66 135.612 30.5267 135.015 30.26C134.428 29.9827 133.932 29.5827 133.527 29.06L134.551 28.036C134.796 28.4093 135.132 28.708 135.559 28.932C135.986 29.1453 136.46 29.252 136.983 29.252C137.474 29.252 137.895 29.1613 138.247 28.98C138.61 28.788 138.892 28.5213 139.095 28.18C139.308 27.8387 139.415 27.444 139.415 26.996C139.415 26.5373 139.308 26.1427 139.095 25.812C138.892 25.4707 138.604 25.2093 138.231 25.028C137.858 24.8467 137.415 24.756 136.903 24.756C136.711 24.756 136.519 24.772 136.327 24.804C136.135 24.8253 135.948 24.8627 135.767 24.916L136.407 24.052C136.61 23.956 136.828 23.8813 137.063 23.828C137.298 23.7747 137.532 23.748 137.767 23.748C138.364 23.748 138.898 23.8867 139.367 24.164C139.847 24.4413 140.226 24.8307 140.503 25.332C140.791 25.8333 140.935 26.4147 140.935 27.076C140.935 27.78 140.764 28.404 140.423 28.948C140.092 29.4813 139.634 29.9027 139.047 30.212C138.46 30.5107 137.778 30.66 136.999 30.66ZM135.767 24.916V24.004L139.015 20.308L140.807 20.292L137.463 24.084L135.767 24.916ZM134.055 20.74V19.396H140.807V20.292L139.495 20.74H134.055Z" fill="white"/>
</svg>
